<?xml version="1.0" encoding="UTF-8"?><svg xmlns="http://www.w3.org/2000/svg" viewBox="0 0 274 289.54"><defs><style>.d{fill:#fff;}.e{fill:#0574e7;}.f{fill:#202020;}</style></defs><g id="a"/><g id="b"><g id="c"><circle class="e" cx="137" cy="137" r="137"/><g><path class="f" d="M140.75,261.69c-.46-.03-.26,.23,.97,.49l.95-.11-1.92-.38Z"/><path class="f" d="M148.88,264.17c1.49,.14,3.22,.17,2.33-.3-1.5,.04-1.82-.16-3.45-.11-1.24-.22-2.13-.57-1.9-.64-.45-.01-1.89-.5-2.6-.46,1.54,.63,3.57,1.09,5.74,1.32,.44,.16-.02,.16-.13,.2Z"/><path class="f" d="M249.41,211.73l-.46,.66c.13-.17,.29-.4,.46-.66Z"/><path class="f" d="M269.38,138.04c-.06,.58-.06,.83-.03,.86,.04-.54,.08-.99,.03-.86Z"/><path class="f" d="M270.73,124.98c-.02,.28-.04,.52-.06,.77,.04-.29,.08-.59,.06-.77Z"/><path class="f" d="M249.41,211.73c.38-.57,.77-1.14,1.14-1.72-.02-.18-.59,.88-1.14,1.72Z"/><path class="f" d="M165.79,265.95c-.43-.03-.78-.04-1.11-.03,.35,.03,.69,.05,1.04,.08,.02-.02,.04-.03,.07-.04Z"/><path class="f" d="M228.3,238.12l-.42,.46c-.1,.16-.18,.32-.25,.47l.68-.93Z"/><path class="f" d="M209.97,256.48c.45-.38,.42-.73,.5-.97-.17,.31-.46,.64-.84,.99,.03,.05,.13,.05,.33-.02Z"/><path class="f" d="M171.46,267.59l-.73-.02,.73,.02Z"/><path class="f" d="M240.61,224.22c.06,0,.15-.05,.23-.12-.03-.02-.11,.03-.23,.12Z"/><path class="f" d="M135.49,262.34s0,.03,0,.05c.15-.03,.2-.05,0-.05Z"/><path class="f" d="M165.52,262.76l-.42,.03c-.04,.05-.09,.11-.08,.16l.5-.19Z"/><path class="f" d="M269.74,100.9v.11c.13,.62,.08,.27,0-.11Z"/><path class="f" d="M92.49,11.24c1.25-.16,.27,.13-.53,.44-.81,.3-1.46,.57,.39,.22-.37-.04,3.22-1.22,.15-.66Z"/><path class="f" d="M166.45,266.05c.35,.03,.7,.07,1.05,.1-.48-.06-.8-.09-1.05-.1Z"/><path class="f" d="M92.34,11.9h0l.38-.07-.38,.07Z"/><path class="f" d="M246.01,51.35c.04,.12,.17,.31,.3,.5,0-.03-.06-.15-.3-.5Z"/><path class="f" d="M266.13,87.18l-.27-.99c.1,.4,.18,.71,.27,.99Z"/><path class="f" d="M229.04,38.17c-.45-.32-.59-.46-1.24-.84,.05,.05,.1,.1,.17,.16,.25,.12,.57,.3,1.07,.69Z"/><path class="f" d="M209.6,27.33l.35,.23,.64,.29-.99-.52Z"/><path class="f" d="M70.23,253.34c.38,.3,.6,.52,.76,.71-.2-.34,2.63,1.15-.76-.71Z"/><path class="f" d="M165.78,266.11c.14-.06,.33-.07,.67-.05l-.73-.06c-.07,.03-.09,.07,.07,.11Z"/><path class="f" d="M227.08,39.54c-.95-.66-1.95-1.27-2.93-1.88,.82,.53,1.9,1.19,2.93,1.88Z"/><path class="f" d="M4.85,116.39l.1,.8c-.02-.31-.05-.59-.1-.8Z"/><path class="f" d="M215.1,32.59c-.5-.38-1.06-.75-1.66-1.08-.14-.05-.3-.1-.4-.12,.69,.39,1.38,.79,2.05,1.2Z"/><path class="f" d="M71,254.05s0,0,0,0c0,0,0,0,0,0Z"/><path class="f" d="M92.76,260.6c-3.24-.62-1.59,.07-2.33,.15-3.89-.75-1.73-.67-2.99-1.15-1.21-.22-2.28-.42-3.28-.61-1-.18-1.92-.36-2.78-.68-.11-.1-.44-.24-.02-.18-2.61-.45-7.21-2.74-10.06-3.82-.18-.14-.27-.22-.3-.27,.34,.4,.32,.61,.17,.67-1.31-.72-2.55-1.14-2.92-1.62,.8,.45,.91,.4,1.33,.54l-1.42-.67c-.5-.54-.05-.24,.58,.07,.63,.33,1.41,.75,1.47,.63-.67-.35-1.4-.68-2.1-1.05-.69-.39-1.39-.79-2.07-1.17-1.38-.74-2.56-1.63-3.5-2.33-.2-.54,4.52,3.05,2.14,1.02,.95,.74,1.97,1.37,2.95,2.06-2.04-1.92,1.82,1.2,0-.64-.99-.64-1.75-1.14-2.41-1.56-.65-.44-1.2-.81-1.74-1.18-1.11-.7-2.16-1.51-3.96-3.02-.94-.53,.08,.45-.85-.1-1.32-1.05-2.2-1.82-2.82-2.47-.6-.66-.97-1.15-1.3-1.61-.67-.9-1.15-1.64-3.02-3.28-1.06-.76-1.7-.86-3.88-3.65,.35,.23,.72,.44,1.08,.65-1.5-1.74-2-2.18-2.54-2.63-.53-.45-1.05-.95-2.45-2.93,.65,.58,2.36,2.76,1.96,2.18-1.71-2.64-1.56-1.59-3.04-3.49l-.03-.61c-3.03-3.86-6.35-8.17-9.45-12.67,.25,.2,.86,.91,.24-.21-3.95-5.65-8.19-12.27-11.27-18.09-.5-.68-.99-1.36-1.47-2.06-.28-.52-.4-1.02-.05-.49-1.08-2.32-.23-.03-.9-1.07-.68-1.29-.7-1.8-.22-1.01-1.11-1.97-2.57-4.84-3.66-7.9-1.11-3.05-1.87-6.26-2.21-8.63l.28,.89c-.65-3.66-1.43-4.01-1.74-7.48l.16,.65c-1.16-8.06-2.77-16.95-3.29-23.16-.6-1.11-1.05-8.01-1.71-8.44-.42-4.65-.13-3.35-.91-9.85-.23-1.73-.74-2.52-1.08-4.66l.3-.09-.67-2.86,.2-1.58-.27-2c.05,.8,.02,1.71-.08,1.6-.48-3.13-.3-7.67-.12-7.74-.08-1.23-.12-2.46-.15-3.7l.07-3.7c.11,.17,.09,1.41,.11,2.39-.09-3.95,.35-.69,.29-4.32-.13,.47-.15-.28-.2-.36,.21-.89,.44-2.35,.65-3.96,.23-1.61,.62-3.36,.85-4.86l.1,.62c1.17-5.34,2.82-11.21,5.29-16.86-.93,2-1.09,1.39-.42-.3l.61-.52c.32-1.14-.92,1.67-.12-.61,1.02-2.08,1-1.25,.53,0l1.09-2.59c.16-.11-.08,.51-.04,.72,.08-.28,.26-.69,.5-1.16,.26-.46,.59-.99,.92-1.53,.66-1.09,1.33-2.24,1.58-3.05l.16-.09c1.63-2.61,2.72-4.57,3.94-6.28,.59-.87,1.15-1.71,1.74-2.59,.64-.85,1.32-1.74,2.08-2.74-.15-.25,1.06-1.79,1.9-3.05,1.25-1.37,2.54-2.84,4.04-4.25,.72-.72,1.47-1.46,2.22-2.22l2.39-2.24c2.18-2.26,.5-.81,1.42-1.9,.35,.04,3.72-2.88,2.08-1.23,1.02-.87,1.82-1.62,2.6-2.23,.78-.62,1.48-1.18,2.22-1.77,1.45-1.22,3.14-2.4,5.86-4.44-.66,.33-1.37,.77-1.07,.45,.97-.77,2.41-1.44,2.32-1.26l-.26,.2c1.57-1.09,3.27-2.24,5.13-3.22,.93-.5,1.86-1,2.8-1.5,.95-.47,1.92-.91,2.87-1.37,1.89-.93,3.78-1.71,5.52-2.49,1.72-.82,3.35-1.48,4.69-2.21l-.3,.16c1.88-.94,3.82-1.73,5.75-2.58,2.72-.99-1.56,.8,.5,.18,3.12-1.34,5.67-2.21,8.11-2.88,2.43-.74,4.74-1.29,7.41-2.15,2.2-.16,5.92-1.08,9.86-1.9,1.97-.44,4-.78,5.9-1.13,1.9-.31,3.68-.51,5.14-.61l-.36-.13c1.47-.4,1.83-.14,2.94-.24-.17-.12-1.65,.04-.73-.17,12.68-1.81,26.48-2.26,39.28-.12,2.34,.4,3.03,.33,3.89,.3,.85,0,1.86,.04,4.72,1-.58-.05-1.16-.07-1.73-.1,9.46,1.87,18.68,6.28,27.56,9.74-.55-.15-.61-.07-1.46-.44,1.76,1.01,6.84,2.96,6.94,2.8,1.35,.62,.24,.3,1.04,.76,1.8,.93,4.75,1.78,5.63,2.43,.15,.11-.55-.16-.89-.29,1.26,.42,5.54,2.58,4.52,1.8,3.18,1.63,6.21,2.83,8.67,4.27,1.79,.57,5.32,2.97,6.03,2.91-.22,.13,1.09,.98,2.71,1.91,1.59,.99,3.51,2.03,4.5,2.56-.7-.3,1.55,1.19,.72,.87,2.16,1.37,4.1,2.67,3.87,2.23,.88,.8,1.83,1.49,2.74,2.19,.91,.7,1.82,1.35,2.68,1.96,1.69,1.26,3.13,2.44,3.9,3.56,5.75,4.92,10.43,10.23,14.19,15.94-.26,.02-1.31-1.54-2.33-3.05-1.09-1.45-2.16-2.84-2.25-2.57,2.03,2.49,3.57,4.53,4.99,6.64,1.41,2.12,2.72,4.31,4.06,7.23,.64,1.54-.56-.78-.9-1.24,3.07,5.7,4.87,11.51,6.62,17-.04,0-.25-.59-.43-1.15,.3,1.1,.61,2.57,.78,2.4l-.34-1.06c-.09-.92,.35,.13,.84,1.44,.5,1.3,.93,2.9,1.04,2.98-.5-.88-.22,.52,0,1.79,.19,1.28,.31,2.42-.33,.98,.17,.73,.44,1.64,.54,1.44,.16,1.1,.14,1.46-.21,.38,.44,1.99,.56,2.64,.73,3.23,.14,.59,.31,1.14,.53,2.98-.1,0-.21-.74-.39-1.1,.23,.91,.4,1.84,.59,2.92,.19,1.08,.33,2.33,.39,3.89-.07-.18-.12,.18-.19-.75,.42,5.34,1.02,9.14,.64,15.05-.37-1.76-.22,2-.63,2.3-.01,1.06-.03,2.11-.08,3.17l.28-1.26c-.11,1.39-.14,2.7-.18,3.96-.07,1.26-.15,2.47-.33,3.66l.05-2.07c-.14,1.73-.3,3.46-.5,5.19l.49-2.92c-.13,2.82,.51-.25-.04,3.43,.07-.75-.36,2.77-.8,4.18h0c-.07,1.38-.2,2.79-.61,4.82-.2,.51-.34-.49-.47-.16,.09,1.4-1.08,6.44-1.11,8.19,.03-.58-.15-.65-.23-.47l.02,1.17c-.35,1.25-.42,1.43-.53,1.19-.85,3.79,.73-1.11-.44,3.36,.06-.36-.01-.2,.11-.94-1.1,4.5-1.84,8.77-2.99,12.87-.66,1.13,.8-3.64,.15-2.32-1.4,5.97-2.7,12.45-4.35,18.16l.33-1.06c.29,.94-1.42,4.2-2.11,7.11,.19-.71,.01-1.01,0-.8-.65,1.92-1.29,3.88-2.1,6.06-.8,2.18-1.78,4.58-3.22,7.29l.25-.73c-1.22,2.04-3.29,5.34-4.86,7.39-.34,.7-1.23,1.87-.54,1.27-2.68,2.97-5.03,5.94-7.33,8.84-2.3,2.89-4.57,5.68-7.19,8.09,.57-.63,1.26-1.58,.81-1.08l-3.98,4.54c.49-.19,.64-.48,1.63-1.3-.42,.66-1.49,1.98-2.52,3.07,1.74-2.09-.29-.23-1.18,.53,.19-.09-.03,.25,.09,.23-2.47,2-.02,.71-3.21,3.62l.07-.25c-1.08,1.2-2,2.37-3.26,3.59-.7,.32,1.12-1.31,1.04-1.54-1.7,1.75-3.04,3.77-4.81,5.13,.69-.78,1.75-1.83,2.43-2.61-1.93,1.47-2.07,1.72-3.39,2.93l.13-.12c-1.02,.92-2.05,1.84-3.09,2.73l.83-.65c-1.76,2.59-4.49,4.28-7.53,7.05,2.95-2.73,.38-.59,.45-1.02-.88,.57-2.24,1.36-1.92,1.04-1.47,1.26-2.76,1.59-4.99,3.12-.14-.01-1.85,.86-1.56,.45-2.23,1.05,.6-.07,.46,.12-1.67,.95-3.85,1.63-6.26,2.1-2.42,.48-5.07,.78-7.82,1.15-2.4,.2-3.82,.32-5.2,.43-1.39,.1-2.74,.17-4.99,.11-1.5-.25,1.26-.28,1.26-.28-2.43-.28-4.26-.41-6.56-.51,.47-.04,0-.16-.69-.33-1.84-.17-1.27,.24-3.67-.19,.43-.06,.98-.16,1.87-.18-2.17-.15-4.32-.24-6.56-.49-.57-.25,1.38-.06,2.18-.06-2.51-.25-6.49-.84-7.31-.72l1.58,.37c-.91-.14-.43-.3,.25-.24,2.17,.15,3.07,.58,3.18,.7l-1.6-.18c1.54,.84,6.4,.84,9.6,1.19l-1.38,.27h3.33c.69,.16,1.15,.44-.44,.35,2.29,.41,2.06,.04,4.03,.41,.22,.05,.12,.06-.09,.07l2.27,.02c-.45,.06,.36,.32-1.03,.17,4.07,.5,6.58-.08,8.12,.2l-.34,.04c2.84-.16,2.96-.29,2.92-.38-.05-.11-.26-.2,1.82-.57,.97,.15,1.94,.28,2.93,.36l.5-.4c.58-.09,1.72-.31,1.53-.15,2.08-.71-.39-.04,.79-.53,1.4-.19,3.25-.79,4.79-1.43,1.54-.64,2.79-1.26,3.19-1.18,.8-.66-2.49,1.04,.12-.45,1.02,.07,3-1.75,5.21-3.05-.49,.68-2.61,1.92-.33,.67,1.03-1.23,4.1-2.91,5.69-4.42-.15-.33,3.44-3.24,5.92-5.89-.07,.26,5-4.65,7.42-7.01l-.03,.11c.19-.72,2.65-3.19,4.32-5.1,.09,.22-.16,.61-1.02,1.69l1.63-1.74c.29-.49,.76-1.08,1.77-2.25l-.2,.63c2.13-2.35,4.06-4.95,6.87-7.91-.04-.34-2.66,1.98,.03-1.39,.21-.03,.49,0-.2,.89,.23-.29,.78-1.07,1.3-1.6l-.95,1.46c1.29-1.34,.49-.86,1.47-1.98,.13,.15,.82-.75,.8-.48-.23,.3-.9,.93-1.21,1.42,1.12-1.25,2.51-2.72,3.05-3.15-.18,.04-.2-.17,.56-1.13,1.99-2.47,.88-.69,2.11-2.08,.38-.68,1.73-2.21,1.52-2.44,.56-.74,.77-.8,1.05-1.04,.44-.7,1.55-2.28,2.35-3.54,.8-1.26,1.29-2.19,.67-1.48l-.24,.35,.13-.23h0c1.33-2.35,2.73-4.78,3.97-7.3,1.23-2.52,2.3-5.11,3.09-7.67l.09,.04c.91-3.07,2-6.82,2.38-9.08,.25-.91,.75-2.1,.76-1.68,.55-2.37,.52-2.66,1.56-6.02-.45,2.41,.36-.78-.51,2.46,.88-3.04,1.22-3.69,1.79-7.05-.04,1.18,.9-2.23,1.18-3.71l-.71,2.11c.37-1.65,.74-3.08,1.12-4.54l.13,.87c1.92-6.22,1.95-11.54,3.54-16.26,.1-1.73-.84,3.43-.81,1.87,.64-2.91,1.63-5.89,1.8-6.82,.85-4.01,.14-3.85,.87-8.06-.2,.53-.56,1-.28-2.19,.42-2.95,.9-3.59,.81-1.7-.08,.71-.16,1.05-.19,1.02-.07,.96-.18,2.23,.09,1.07l-.07-.4c.33-1.45,.7-5.56,.8-4.58,.11-2.26-.1-.98-.33,.68,.55-3.8,.52-5.98,.83-9.92-.1,.63-.26,1.2-.23,.57,.2-2.89,.11-3.54,.05-3.94-.09-.41-.14-.58-.19-2.54,.16-2.23,.44,.8,.25-3.16,.02-2.42,.3-.52,.42,.44-.17-1.8-.2-3.49-.21-4.99-.04-1.5-.03-2.8-.09-3.84l.24,1.9c-.12-1.14-.22-2.07-.32-3.01l-.12,1.11c-.08-1.12-.18-2.06-.08-2.05-.28-1.13-.3,.92-.75-1.33-.05-1.49-.76-4.46-.52-5.02,.57,4.65,.24-.56,.86,3.36-.15-.75-.28-1.68-.4-2.8,.01-.17,.09,.15,.15,.45-.2-2.25-.43-2.74-.63-3.24-.24-.5-.42-1.03-.94-3.3,.3,.54,.1-1.13-.11-1.86,.4,1.84-.09,.94-.6-.7-.64-2.91-.9-3.11-1.33-4.61,.16,.57,.28,1.15,.42,1.73-.31-.54-.71-1.97-1.38-3.93,.08-.21,.65,1.77,.49,1.05-.49-1.05-.78-2.32-1.19-3.68-.38-1.36-.79-2.85-1.52-4.29-.45-1.43,.25-.26-.17-1.51-.8-1.63-1.21-2.52-1.55-3.46-.34-.95-.77-1.89-1.74-3.53,.3,1.09,.44,1.22-1.01-1.03,1.01,1.82,2.07,3.61,2.96,5.5l-1-1.74-1.08-1.69c.91,1.64,1.88,3.5,2.33,4.53-.98-1.65-.84-1.49-.64-.59-.38-1.24-.95-2.38-1.64-3.51-.68-1.14-1.35-2.33-2.03-3.65l.56-.22c-2.04-4.02-4.47-6.63-8.08-11.17l1.13,1.5c-.34-.22-.93-.9-1.58-1.7-.33-.4-.68-.82-1.03-1.24-.37-.39-.74-.77-1.08-1.1,.27,0-.49-.91-.96-1.58-.03,.1-.72-.72-1.59-1.47-.85-.77-1.78-1.56-2.1-1.6-.56-.67-1.16-1.29-1.76-1.92-.87-.78-1.59-1.37-2.22-1.85-.65-.46-1.22-.81-1.78-1.15-1.13-.69-2.21-1.39-4.04-2.69,1.23,.61-.35-.69,2.19,.94-1.22-.88-2.3-1.69-2.4-1.6-.63-.65-3.58-2.13-4.64-3.04-.57-.28-.85-.22-2.28-1.1-.14-.13,.06-.08,.06-.08-.06,.08-2.32-1.25-1.18-.3-.45-.36-.96-.74-1.52-1.13-.57-.37-1.18-.75-1.81-1.13-1.27-.77-2.67-1.54-4.07-2.26-2.78-1.48-5.55-2.8-7.23-3.92-2.96-1.37-6.55-2.97-9.26-4.16,.2,.02,.05-.09,.55,.16-3.65-1.84-2.52-.51-6.69-2.56-2.04-1.24,2.33,.83,1.02,.13-.33-.86-5.17-2.15-7.89-3.73l.71,.26c-2.11-1.14-5.45-2.08-9.06-3.58,0,0,.2,.02,.06-.08-2.6-.7-7.37-2.4-10.99-3.43,1.19,.11,1.67,.4,1.07-.07-1.62-.48,.35,.53-2.89-.39-1-.45-3.32-1.2-3.57-1.55,1.03,.27,2.06,.53,3.08,.83-1.47-.82-3.99-1.08-5.62-1.5l.24-.11c-2.4-.52-3.65-.61-4.93-.72-1.28-.12-2.61-.22-5.21-.53l.53,.18c-2.88,.09-2.37-.47-5.24-.37l-.84-.44c-1.9-.02-6.63,.16-10,.35,1.9-.36,5.87-.52,8.34-.59-1.88-.1-6.38-.07-7.35,.17,.75-.05,1.7-.17,2.45-.1-2.3,.32-5.3,.54-9.02,.76,.31-.4-2.12-.31-4.96-.09-2.84,.24-6.09,.55-7.47,.44-6.51,1.07-13,1.69-20.51,3.44,2.79-.05-2.18,.53-1.58,1.02-1.73,.45-2.4,.59-2.56,.6l-5.33,1.07c-.64,.1-.24-.06,.29-.24,.54-.17,1.22-.38,1.12-.43-3.8,1.02-1.66,.21-4.2,.8,.58,.07-1.23,.66-3.38,1.31,1.02-.27,2.06-.47,3.09-.69-2.59,.93-3.72,1.26-4.9,1.5-1.17,.26-2.36,.51-4.89,1.67l1.57-.81c-2.64,1.05-9.78,3.89-12.04,5.62-.48,.15-1.16,.28-.05-.29-1.56,.68-3.14,1.55-4.73,2.43-1.61,.85-3.17,1.84-4.71,2.78-1.55,.91-2.99,1.91-4.36,2.79-.69,.44-1.35,.85-1.98,1.25-.62,.42-1.21,.8-1.78,1.15l.34-.42c-1.02,.77-1.65,1.49-3.04,2.29,.03-.1,.33-.42-.15-.08-.5,.45-2.51,2.27-3.9,3.23l1.03-1.01c-1.37,.95-2.46,1.94-3.47,2.84-1,.91-1.93,1.74-2.74,2.64-.83,.88-1.63,1.74-2.46,2.63-.84,.88-1.64,1.87-2.59,2.88-.14-.15-1.18,.66-2.34,1.82-1.14,1.17-2.46,2.63-3.34,3.6v-.11c-1.19,1.52-2.28,2.95-3.3,4.33-.96,1.42-1.84,2.8-2.71,4.15-1.65,2.77-3.18,5.52-4.76,8.74-.31,.46-.69,1-1.04,1.65-.35,.64-.72,1.36-1.11,2.14-.38,.78-.79,1.61-1.22,2.48-.37,.9-.75,1.83-1.14,2.78-1.59,3.8-2.85,8.09-3.85,11.54,.37-1.04,.26,.25,.03,1.5-.41,1.64-.59,4.61-.93,4.28l.12-.59c-.15,.29-.32,.73-.45,1.26-.11,.53-.22,1.16-.31,1.84-.17,1.35-.42,2.88-.48,4.24l.5,.49c-.26,1.74-.54,3.78-.54,5.91-.02,2.13,.11,4.34,.29,6.43,.37,4.2,.95,7.94,.86,9.88,.35,1.66,.65,3.73,1.03,5.36l-.29-.05c.63,4.63,.96,6.92,1.9,12.61l-.38-1.13c.48,3.21,1.43,3.93,1.91,6.89l-.28,.96c.87,5.6,1.38,11.32,2.62,16.8-.08-.08-.22-.23-.38-1.13,.2,1.32,.52,3.89,.89,6,.37,2.11,.78,3.75,.97,3.22-.18,.07,.09,1.52,.56,3.32,.47,1.8,1.17,3.93,1.72,5.39l-.41-.38c1.14,2.4,1.22,2.46,2.66,5.8,.31,.81,.09,.79-.29-.3,.49,1.36,.77,1.85,1.1,2.4,.32,.55,.68,1.17,1.39,2.76l-.73-1.09c1.29,2.66,1.3,2.4,2.24,3.73,.97,1.58,2.73,4.87,2.75,5.37,.34,.26,1.36,1.52,2.23,3.02,.05,.25-.34-.25-.54-.5,2.49,4.25,4.25,5.94,5.88,8.91-.04,.11,.04,.32,.18,.57-2.15-3.25-3.85-5.89-3.67-5.65-.22,.14,1.47,2.8-.2,.9,1.55,2.01,4.28,5.38,5.89,8,.06,.14,.12,.27,.16,.39l-.2-.25c.38,.6,.76,1.11,1.13,1.58,.52,.83,.84,1.37,1.38,2.14,.04,.42,1.97,3.04,2.9,4.31,.15-.27,1.32,1.43,.38-.27,.13,.21-.2-.22-.83-1.06l-.41-.53,.08,.07c-.6-.84-1.37-1.94-2.26-3.19,.83,.94,1.67,1.93,2.55,3.44,.62,.55,1.29,1.16,1.66,1.51,.93,1.98,3.29,5.41,3.48,6,1.55,1.85,3.38,4.03,5.17,5.94,1.77,1.93,3.54,3.56,4.78,4.46,1.02,.92,1.02,1.2,1.33,1.62-.6-.52-1.29-1.16-1.64-1.42,1.03,.91,2.48,2.34,3.83,3.48,1.36,1.13,2.53,2.1,2.92,2.14,2.6,2.28-1.74-.95,2.02,1.97l-.57-.31c3.54,3.09,6.9,5.02,10.49,6.65,3.61,1.61,7.36,3.06,12.21,4.93-.68-.23-1.01-.38-1.13-.48,5.57,1.99,11.62,3.02,17.62,3.65,6.02,.62,12.03,.81,17.83,1.1,3.3,.09,3.65-.14,5.66-.36l.72,.29,3.43-.42c4.86-.38,8.45,.48,14.59-.19l-.8-.18c2.21-.03,7-.35,6.64-.1,.23-.04,.72-.23,1.59-.16l.07,.16,5.42-.45c4.21-.02-.64,.65,5.51,.48,2.28-.13,6.49-.67,5.63-.75-.92,.02-2.36-.02-2.43-.18l2.09-.15c.36-.48,1.95-1.01-3.18-1.17l-3.56,.4-1.16-.19,3.01-.11c-1.71-.16-2.79,.07-3.99,.23-.29-.11-.8-.18-1.51-.2l-3.49,.56c-.43-.17,1.56-.41-.8-.44-1.64,.26,1.59,.36-1.13,.58-1.72-.16-1.22-.34-3.22-.1-.29-.11,.14-.2,.93-.28-1.78,.2-4.72,.21-5.64,.49-1.79-.2-6.03,.26-5.87-.18-.56,.12-3.13,.45-4.77,.52,2.98-.61-6.14,.15-5.36-.45-2.2,.52-7.98,.36-11.89,.54,.22-.04,.65-.11,.99-.08-2.2-.05-2.83-.25-4.24-.37-.3,.4-3.72,.32-5.58,.44-2.66-.59,1.66-.33,.84-.76,.11,.34-4.68-.05-3.79,.28-2.02-.44-1.75-.3-2.77-.74-.42,.46-1.91-.13-3.63-.1-2.9-.68-.69-.55-3.91-.98-1.49-.43,1.38-.07,1.38-.07Zm-59.65-45.33h0c.38,.55,.71,1.03,.92,1.33-.19-.28-.46-.66-.92-1.33Zm-3.65-5.48l1.56,2.39c.05,.25-.17,.09-.54-.46,.25,.26-.56-1.06-1.03-1.93Zm6.2,12.65c-.63-.83-.79-1.15-.82-1.3,.29,.4,.63,.87,1.08,1.48l.1,.08c-.1-.05-.21-.12-.35-.26Z"/><path class="f" d="M37.06,223.77l.27,.34-.32-.54-.29-.25,.33,.46Z"/><path class="f" d="M248.88,212.51l.08-.11c-.07,.09-.14,.18-.19,.23,.06-.07,.07-.07,.11-.11Z"/><polygon class="f" points="5.75 123.61 5.68 123.63 5.81 124.19 5.75 123.61"/><path class="f" d="M224.98,239.8c-.07,.03-.18,.11-.38,.3,.03,0,.19-.13,.38-.3Z"/><path class="f" d="M213.95,250.9l-1.67,1.45c.73-.61,1.25-1.08,1.67-1.45Z"/><path class="f" d="M204.85,258.66c-.09,.13-.1,.18-.12,.23h.02l.1-.23Z"/><path class="f" d="M264.56,88.5c-.04-.16-.09-.31-.14-.44-.38-1.01-.12-.32,.14,.44Z"/><path class="f" d="M267.42,144.69c.04-.61,.07-1.2,.13-1.83-.16,1-.28,1.78-.13,1.83Z"/><path class="f" d="M227.4,39.75s0,0,0,0l-.32-.21,.32,.21Z"/><path class="f" d="M267.9,140.24c-.17,1-.27,1.84-.35,2.62,.14-.82,.3-1.78,.35-2.62Z"/><path class="f" d="M155.19,264.49l-.57-.11s-.03,.03-.08,.03l.64,.07Z"/><path class="f" d="M154.55,264.42l-.64-.08c.29,.05,.54,.09,.64,.08Z"/><path class="f" d="M152.57,264.18l1.34,.17c-.46-.08-1.03-.19-1.34-.17Z"/><path class="f" d="M170.94,266.52l.19-.09c-.1,.01-.17,.04-.19,.09Z"/><path class="f" d="M175.76,266.77c-1.15-.06-2.87-.36-4.47-.41l-.16,.07c.76-.08,3.53,.48,4.63,.34Z"/><path class="f" d="M195.81,265.29c-1.29,.48-2.6,.89-3.93,1.23,.72-.09,1.68-.21-.13,.33,2.56-.55,2.27-.6,2.01-.59-.13,0-.26-.02-.03-.14,.23-.12,.81-.33,2.07-.82Z"/><path class="f" d="M206.81,258.91c-1.71,1.4,.12,.11,.06,.23,1.04-.94,1.28-1.18-.06-.23Z"/><path class="f" d="M259.38,186.07l.19,.28c.39-1.64-.09-.04-.19-.28Z"/><polygon class="f" points="262.38 168.88 261.85 170.43 261.89 171.25 262.38 168.88"/><polygon class="f" points="266.4 159.24 266.29 159.97 266.76 157.19 266.4 159.24"/><path class="f" d="M213.25,28.87l.31,.51c1.04,.46,1.42,.26-.31-.51Z"/><path class="f" d="M151.18,6.42c-.7-.24-2.56-.53-3.72-.45,1.49,.13,2.96,.4,3.72,.45Z"/><path class="f" d="M2.2,106.28l-.03-1.35c-.01,.85-.05,1.7-.04,2.54,0-.4,.04-.79,.07-1.19Z"/></g><path class="d" d="M165,86.95l-27.29-1.26c-4.63-.21-9.26-.43-13.89-.64-4.17-.19-8.13,.69-11.47,3.27-3.05,2.35-5.33,5.84-5.93,9.7-1.44,9.27-.49,18.95,.5,28.22,.93,8.68,2.22,17.31,3.08,25.99,.97,9.79,1.37,19.66,.11,29.44l.43-3.19c-1.41,10.45-4.57,20.56-5.99,31.01-1.49,10.96-1.88,21.94-2.43,32.98-.28,5.63-.67,11.25-1.4,16.85l.43-3.19c-.81,6-2.04,11.93-3.98,17.68-.96,2.85-.28,6.71,1.21,9.25s4.31,4.86,7.17,5.51c3.07,.7,6.52,.55,9.25-1.21s4.47-4.09,5.51-7.17c5.76-17.04,5.52-35.36,6.52-53.11,.27-4.81,.65-9.61,1.28-14.39l-.43,3.19c1.01-7.43,2.87-14.67,4.4-22,1.69-8.04,2.77-16.22,2.82-24.44,.1-14.74-2.53-29.3-4.07-43.91-.43-4.09-.78-8.2-.95-12.31s-.36-7.95,.07-11.84l-.43,3.19c.1-.71,.25-1.38,.5-2.05l-1.21,2.87c.14-.31,.29-.59,.48-.88l-1.88,2.43c.21-.27,.42-.49,.68-.71l-2.43,1.88c.19-.15,.4-.27,.62-.37l-2.87,1.21c.38-.15,.72-.24,1.11-.31l-3.19,.43c1.63-.17,3.31,.03,4.95,.1l5.46,.25,11.16,.52,22.08,1.02c2.99,.14,6.41-1.44,8.49-3.51s3.65-5.5,3.51-8.49c-.3-6.75-5.27-11.69-12-12h0Z"/><path class="d" d="M89.05,180.71c20.8,2.46,41.66,4.46,62.55,6,5.92,.44,11.85,.83,17.77,1.19,2.96,.18,6.44-1.47,8.49-3.51s3.65-5.5,3.51-8.49-1.16-6.32-3.51-8.49-5.18-3.31-8.49-3.51c-20.91-1.28-41.79-3.01-62.62-5.21-5.91-.62-11.81-1.29-17.7-1.98-2.84-.34-6.55,1.58-8.49,3.51-2.08,2.08-3.65,5.5-3.51,8.49s1.16,6.32,3.51,8.49l2.43,1.88c1.87,1.09,3.89,1.63,6.06,1.64h0Z"/><g><path class="f" d="M119.52,77.34c-.38,.06-.18,.27,.86,.3l.76-.28-1.62-.02Z"/><path class="f" d="M126.49,78.41c1.23-.08,2.66-.27,1.89-.62-1.23,.24-1.52,.09-2.85,.38-1.04-.03-1.81-.23-1.63-.34-.37,.06-1.61-.18-2.19,0,1.34,.34,3.05,.47,4.86,.37,.38,.1,0,.16-.09,.21Z"/><path class="f" d="M134.97,105.73h.66c-.18-.02-.41-.01-.66,0Z"/><path class="f" d="M130.02,159.99c-.3-.4-.45-.55-.49-.55,.29,.36,.54,.66,.49,.55Z"/><path class="f" d="M139.46,165.87l-.65-.14c.24,.08,.5,.15,.65,.14Z"/><path class="f" d="M134.97,105.73l-1.7,.04c-.11,.12,.87,0,1.7-.04Z"/><path class="f" d="M140.57,78.53c-.35,0-.65,0-.92,.03,.29,0,.57,.01,.86,.02,.02-.02,.03-.03,.06-.05Z"/><path class="f" d="M162.73,104.55c.17-.02,.33-.04,.5-.07,.14-.06,.27-.13,.39-.2-.29,.09-.58,.2-.88,.28Z"/><path class="f" d="M173.94,91.43c.12,.43,.43,.52,.58,.67-.15-.24-.32-.54-.45-.93-.05,0-.1,.09-.13,.26Z"/><path class="f" d="M145.28,79.98h0Z"/><path class="f" d="M147.53,104.78s-.11-.08-.2-.1c0,.04,.08,.07,.2,.1Z"/><path class="f" d="M160.26,82.87s0,.03-.01,.05c.13,0,.18,0,.01-.05Z"/><path class="f" d="M172.02,102.66l.08-.33c-.04-.05-.08-.1-.13-.12l.06,.45Z"/><path class="f" d="M159.15,167.17l-.08-.02c-.51-.03-.22,0,.08,.02Z"/><path class="f" d="M111.09,285.63c.84-.46,.28,.08-.23,.5-.25,.23-.48,.41-.5,.46,0,.06,.23,.02,.88-.34-.24,.09,1.84-1.94-.15-.62Z"/><path class="f" d="M141.12,78.61l.87,.05c-.4-.04-.67-.05-.87-.05Z"/><path class="f" d="M111.23,286.26h0l.27-.15-.27,.15Z"/><path class="f" d="M166.26,186.89c.09,.05,.26,.08,.45,.12-.02-.03-.12-.06-.45-.12Z"/><path class="f" d="M170.47,168.86l.79,.26c-.31-.11-.57-.19-.79-.26Z"/><path class="f" d="M148.85,185.64c-.45-.07-.6-.13-1.22-.16,.06,.02,.11,.04,.18,.05,.23-.01,.53,0,1.04,.1Z"/><path class="f" d="M132.5,192.19l.22-.27c.09-.17,.19-.36,.29-.52-.18,.26-.34,.53-.51,.8Z"/><path class="f" d="M105.25,86.76c.21-.41,.4-.65,.57-.82-.16,.11,.06-.55,.17-.81,.05-.13,.05-.16-.08,.05-.12,.21-.39,.68-.66,1.57Z"/><path class="f" d="M140.57,78.69c.11-.06,.27-.09,.55-.09-.21,0-.41-.02-.61-.02-.06,.04-.07,.08,.06,.11Z"/><path class="f" d="M147.87,187.77l-2.86-.34c.8,.1,1.84,.22,2.86,.34Z"/><path class="f" d="M97.39,184.75l-.64-.13c.24,.07,.47,.11,.64,.13Z"/><path class="f" d="M137.8,189.02c-.41,.2-.81,.49-1.19,.84-.06,.09-.13,.2-.15,.27,.43-.42,.88-.79,1.34-1.11Z"/><path class="f" d="M105.82,85.93s0,0,0,0c0,0,0,0,0,0Z"/><path class="f" d="M124.39,81.01c-2.77-.05-1.31,.34-1.9,.55-3.31,.06-1.53-.29-2.65-.5-2.08,.07-3.64,.38-5.22,.36-.12-.06-.43-.08-.07-.16-1.12,.17-2.86,.18-4.66,.81-.89,.31-1.78,.8-2.47,1.46-.69,.65-1.15,1.43-1.38,2.12-.12,.18-.2,.26-.24,.3,.36-.35,.56-.31,.64-.18-.59,1.21-.52,2.34-.83,2.77,.13-.78,.07-.86,.08-1.24-.08,.46-.13,.91-.16,1.36-.24,.58-.23,.12-.15-.5,.08-.62,.31-1.39,.19-1.43-.38,1.36-.39,2.81-.37,4.13,.03,1.32,.07,2.54,0,3.51-.35,.4-.03-4.56-.38-1.96,.06-1,.12-2.03,.27-3.07-.37,1.18-.31,.71-.27,.2,.06-.5,.11-1.05-.29,.05-.19,2.1-.11,3.16-.1,4.29,.02,1.11,.05,2.22-.02,4.2,.18,.89,.28-.29,.46,.6,.31,5.63-.87,4.43-.4,8.57,.24,1.07,.67,1.48,.49,4.43l-.4-1c.04,3.85,.58,2.18,.43,6.21-.17-.71-.2-3.02-.23-2.43-.24,2.62,.27,1.84,.32,3.84l-.33,.43c.18,4.09,.61,8.59,.93,13.11-.12-.24-.27-1.01-.31,.05,.48,5.7,.74,12.18,1.04,17.7l.49,2.07c.04,.49-.05,.92-.15,.39,.09,2.15,.2,.09,.41,1.11,.14,1.22-.03,1.58-.18,.85,.14,.9,.29,1.98,.14,3-.14,1.03-.66,1.84-1.7,2.22-1.03,.4-2.39,.37-3.64,.34-1.25-.04-2.41-.17-3.4-.32l.78-.03c-3.08-.33-3.53,.29-6.46,0l.57-.05c-1.73-.04-3.53,.05-5.32,.49-1.8,.42-3.47,1.26-4.92,2.28-1.44,1.05-2.66,2.34-3.54,3.75-.88,1.42-1.38,2.97-1.58,4.4,.14,.56,.12,2.41,.72,4.11,.58,1.69,1.66,3.06,2.05,3.01,1.24,1.64,1.84,2.11,2.54,2.74,.73,.59,1.65,1.34,4.26,2.52,1.43,.55,2.25,.42,4.05,.79l-.02,.31c.86,.08,1.67,.12,2.48,.17l1.17,.62c.54,.09,1.08,.18,1.62,.29-.62-.18-1.32-.45-1.21-.52,1.28,.21,2.79,.65,3.92,1.13,1.14,.48,1.91,.97,1.9,1.06,1.81,.69,3.43,1.7,4.7,3.07-.18-.01-.81-.69-1.43-1.09,.61,.42,.9,.71,1.03,.89,.14,.18,.15,.25,.15,.31,0,.14,0,.21,.82,1.24-.11-.35,.25,.08,.34,.1,.26,.62,.62,1.67,.82,2.86,.2,1.19,.18,2.55,.03,3.71-.04-.16-.09-.32-.15-.47-.29,2.06-1.03,4.24-2.02,6.46-.97,2.22-2.2,4.46-3.31,6.86,.9-1.65,1.04-1.09,.41,.3l-.56,.41c-.25,.98,.8-1.39,.15,.54-.44,.87-.66,1.13-.72,1.04-.08-.1,.01-.54,.21-1.07-.33,.72-.58,1.48-.86,2.22-.14,.09,.02-.44-.03-.63-.19,.98-1.92,3.66-2.02,5.14l-.14,.09c-1.79,4.93-2.23,7.29-3.25,11.43,.26,.14-.14,1.76-.17,3.05-.7,3.04-1.4,6.45-1.74,10.2-.05,2.65,.18,.79,.27,1.99-.27,.17-.47,3.93-.54,1.97-.11,4.52-.15,5.79,.38,11.47,.06-.62,.05-1.32,.16-.97,.12,1.03,.08,2.35-.06,2.21l-.05-.27c.11,.79,.19,1.62,.28,2.47,.11,.84,.21,1.71,.3,2.59,.14,1.76,.41,3.55,.63,5.31,.21,1.76,.59,3.46,.9,5.04,.36,1.57,.83,2.99,1.29,4.18l-.1-.27c.55,1.67,1.21,3.37,2.08,4.99,1.12,2.3-.87-1.29-.15,.48,.78,1.31,1.65,2.44,2.66,3.34,.51,.43,1.04,.84,1.62,1.11,.29,.14,.56,.31,.85,.42,.3,.1,.6,.19,.9,.29,1.2,.28,2.48,.33,3.63-.01,.3-.06,.59-.15,.86-.27,.28-.11,.57-.22,.84-.35,.52-.3,1.08-.58,1.57-.98,1.88-.72,4.43-3.15,6.3-6.11,.97-1.47,1.77-3.09,2.5-4.51,.73-1.45,1.4-2.8,2.01-3.88l-.28,.19c.34-1.24,.72-1.37,1.1-2.23-.17,.08-.68,1.22-.46,.45,1.98-5.02,3.69-10.39,4.49-16.01,.4-2.81,.56-5.67,.45-8.53-.11-2.85-.5-5.64-.93-8.35-.63-3.95-1.34-2.08-1.7-7.08l.54,1.34c-.84-3.9-1.21-7.9-.82-11.85,.37-3.96,1.35-7.83,2.37-11.58-.07,.47,.03,.51-.2,1.23,.67-1.5,1.96-5.74,1.81-5.84,.45-1.13,.27-.2,.63-.87,.72-1.49,1.24-3.99,1.8-4.72,.09-.12-.1,.46-.2,.75,.29-1.08,1.95-4.63,1.3-3.79,1.27-2.59,2.32-5.02,3.93-6.47,.35-.63,1.25-1.36,2.13-1.81,.88-.46,1.72-.65,1.89-.91-.03,.24,1.07,.05,2.52,.08,1.44,.01,3.23,.17,4.18,.16-.64,.07,1.6,.32,.85,.43,2.12,.23,4.08,.36,3.73,.09,3.86,.96,7.88,.45,10.06,1.35,3.22,.17,6.47,.16,9.53-.74,1.52-.45,2.98-1.11,4.26-2.02,1.32-.94,2.33-2.16,3.1-3.48,.16,.21-.75,1.7-2.02,2.84-1.29,1.17-2.74,1.78-2.52,1.96,1.31-.68,2.44-1.56,3.27-2.53,.83-.97,1.41-1.99,1.91-3.03,.89-2.11,1.54-4.37,1.17-7.32-.23-1.54,.41,.83,.4,1.37-.08-1.51-.46-3.03-1.26-4.34-.38-.66-.9-1.24-1.44-1.75-.56-.49-1.18-.9-1.8-1.23-1.26-.65-2.52-1.03-3.71-1.37-1.2-.35-2.4-.64-3.6-.88,.02-.04,.54,.05,1.03,.14-.93-.23-2.15-.61-2.09-.38l.92,.17c.7,.34-.25,.24-1.42,.11-1.16-.13-2.52-.29-2.62-.22,.85-.13-.31-.41-1.36-.65-1.05-.25-1.99-.48-.65-.63-.63-.08-1.43-.09-1.31,.06-.92-.19-1.2-.31-.24-.32-1.71-.2-2.27-.18-2.79-.17-.52,0-.99,0-2.54-.14,.02-.1,.65-.08,.98-.16-1.59,.04-3.17,.09-5.79-.07,.16-.05-.14-.15,.64-.12-2.26-.07-4.19,.1-6.13,.23-1.94,.11-3.96,.22-6.31-.25,.73-.12,.33-.19-.26-.33-.59-.13-1.36-.35-1.42-.57-.8-.18-1.57-.45-2.32-.77,.26,.2,.54,.38,.82,.58-1.99-.82-3.73-1.86-4.89-3.39,.42,.36,.78,.77,1.25,1.06-.27-.21-.51-.45-.74-.7-.23-.25-.48-.49-.7-.75-.4-.56-.87-1.07-1.21-1.67,.17,.36,.37,.69,.6,1.02,.22,.32,.41,.68,.66,.98-.78-.82-.82-.72-.91-.69-.04,.01-.09,0-.23-.17-.16-.16-.38-.51-.74-1.18,.33,.53-1.17-1.98-1.31-3.21h0c-.53-.99-1.01-2.07-1.36-3.73,0-.45,.49,.24,.49-.06-.29-.5-.63-1.79-.88-3.14-.27-1.35-.48-2.75-.73-3.43,.13,.46,.33,.46,.35,.3l-.36-.9c-.03-1.07,0-1.23,.17-1.07-.24-3.19-.41,1.06-.5-2.75,.04,.3,.07,.15,.16,.77-.17-3.81-.58-7.38-.67-10.9,.32-1.06,.26,3.07,.51,1.86-.35-5.07-1.03-10.48-1.21-15.39v.92c-.27-.33-.26-1.24-.22-2.39,.04-1.15,.09-2.48,.17-3.63-.06,.57,.2,.77,.15,.61,.17-1.55,.82-2.87,2.44-3.57,1.58-.71,3.82-.86,6.32-1.22l-.61,.2c1.98-.07,5.19-.37,7.33-.42,.62-.17,1.85-.21,1.1-.37,3.31,.22,6.44,.04,9.49-.08,1.52-.06,3.03-.11,4.51-.09,1.49,.03,2.98,.1,4.46,.19-.71,.04-1.69,.16-1.12,.16,1.69-.08,3.38-.24,5.05-.52-.43-.18-.68-.05-1.75-.11,.62-.2,2.01-.48,3.22-.73-2.19,.54,.09,.4,1.09,.26-.18-.03,.13-.18,.03-.23,1.33-.15,1.41-.33,1.59-.51,.09-.09,.2-.22,.5-.38,.3-.17,.81-.33,1.63-.7l-.12,.19c1.2-.65,2.13-1.51,3.15-2.52,.3-.13,.09,.16-.21,.51-.33,.31-.73,.67-.7,.79,.39-.35,.8-.68,1.09-1.11,.32-.41,.62-.81,.84-1.27l.36-.64c.11-.22,.19-.45,.29-.66,.2-.43,.42-.85,.59-1.28-.05,.21-.09,.46-.18,.69-.1,.24-.2,.48-.31,.73-.18,.51-.49,.95-.7,1.34,.74-.75,.99-1.29,1.24-1.75,.26-.46,.32-.91,.59-1.65l-.05,.15c.36-1.15,.49-2.39,.43-3.6,.02,.31-.03,.62-.04,.93-.36-1.33-.63-2.6-1.13-3.95-.5-1.32-1.23-2.73-2.51-3.91,1.21,1.17,1.28,1.32,1.2,1.07-.09-.24-.45-.78-.26-.76-.45-.8-1.37-1.85-1.03-1.63-.68-.52-1.17-1.04-1.8-1.54-.62-.51-1.38-1.02-2.52-1.38-.04-.16-1.64-.74-1.2-.81-2.08-.7,.43,.33,.2,.4-1.6-.5-3.44-1.11-5.52-1.53-2.07-.42-4.35-.65-6.67-.57-4-.07-4.76,.21-8.47,.13-1.24-.24,1.05-.29,1.05-.29-2.01-.28-3.52-.35-5.43-.36,.39-.06,0-.16-.57-.3-1.53-.07-1.04,.29-3.04,.01,.35-.09,.81-.23,1.55-.29-1.8-.03-3.59,.04-5.45,0-.48-.2,1.14-.18,1.8-.25-2.1-.06-5.43-.2-6.09,.02l1.33,.18c-.76-.04-.38-.26,.19-.27,1.81-.09,2.58,.26,2.67,.37l-1.33-.02c1.32,.66,5.33,.26,7.99,.47l-1.14,.34,2.76-.16c.57,.15,.96,.4-.36,.38,1.9,.33,1.7-.04,3.33,.3,.18,.05,.1,.06-.07,.07h1.88c-.37,.06,.29,.31-.85,.18,3.34,.46,5.43,.04,6.67,.44h-.28c4.66,.17,.47-.27,3.98-.39,.76,.31,1.53,.62,2.27,.96l.49-.25c.48,.06,1.41,.22,1.22,.32,1.79,.08-.28-.19,.77-.21,1.12,.33,2.67,.64,3.96,1.09,1.29,.43,2.3,1,2.41,1.33,.84,.17-1.87-1.16,.38-.17,.18,.4,.79,.72,1.52,1.21,.73,.47,1.59,1.13,2.17,2.01-.6-.33-1.89-1.76-.62-.15,.58,.3,1.22,1.1,1.71,2.04,.49,.94,.83,2,1.13,2.79,.17-.02,.55,.86,.68,2.15,.08,.64,.07,1.37,0,2.12-.06,.37-.1,.75-.19,1.11-.1,.37-.19,.73-.29,1.08,0-.05-.12,.25-.39,.72-.14,.23-.25,.54-.46,.84-.21,.29-.45,.62-.69,.96-1.07,1.33-2.86,2.42-4.1,2.89l.04-.09c-.07,.15-.3,.31-.62,.48-.32,.18-.74,.39-1.23,.54-.48,.17-1.02,.35-1.57,.47-.54,.15-1.1,.26-1.6,.36,.04-.25,.4-.34,1.45-.7-.61,.16-1.25,.25-1.87,.37-.43,.18-1.02,.34-2.27,.49l.46-.31c-2.55,.28-5.15,.52-8.54,.26-.19,.26,2.67,.75-.89,.88-.13-.14-.26-.38,.67-.43-.31,.01-1.09,.11-1.7,.05l1.43-.23c-1.54-.11-.8,.19-2.03,.17,.02-.2-.91-.14-.73-.29,.31-.02,1.07,.07,1.54,0-1.39-.04-3.06-.14-3.62-.28,.12,.11,0,.26-1.01,.31-2.62,.08-.9-.22-2.44-.27-.63,.16-2.31,.08-2.34,.39-.77,.03-.92-.1-1.22-.16-1.35,.18-6.33,.46-4.78,.66h.35l-.22,.02h0c-2.21,.32-4.5,.49-6.81,.69-1.16,.12-2.36,.31-3.45,.9-1.11,.56-1.95,1.66-2.23,2.82l-.09-.04c-.36,1.41-.26,2.93-.16,4.29,.1,1.36,.22,2.64,.37,3.57,.04,.78-.08,1.84-.21,1.52,.18,2,.31,2.22,.3,5.13-.28-2.01-.11,.7-.24-2.06,.06,2.61-.07,3.21,.36,5.99-.31-.94-.21,1.98-.07,3.22l.08-1.84c.11,1.39,.16,2.61,.2,3.85l-.37-.65c-.11,5.36,1.17,9.6,1.17,13.75,.44,1.38-.26-2.94,.19-1.7,.25,2.46,.37,5.1,.57,5.88,.35,1.7,.75,2.44,1.13,3.18,.43,.73,.82,1.48,1.6,3.13-.05-.24-.05-.49,.12-.38,.16,.11,.52,.56,1.26,1.66,.69,1.03,1.07,1.72,1.17,1.98,.09,.27-.22,.2-.76-.41-.38-.49-.52-.75-.47-.75-.54-.63-1.09-1.58-.69-.62l.27,.22c.33,.55,.99,1.57,1.65,2.27,.59,.75,1.16,1.18,.75,.99,1.6,1.22,.75,.41-.29-.6,1.17,1.21,2.26,1.99,3.44,2.6,1.19,.6,2.47,1.05,4.14,1.43-.52-.16-.97-.43-.45-.3,2.43,.55,2.98,.43,3.32,.4,.34-.06,.5-.13,2.13-.13,1.85,.19-.66,.45,2.61,.27,1.98,.09,.43,.31-.36,.42,2.97-.3,5.47,.13,7.13,.26l-1.53,.03c.92-.02,1.67,.01,2.43,.06l-.86-.29c.9,.1,1.66,.14,1.63,.24,.94-.08-.68-.45,1.18-.52,1.19,.22,3.68,.26,4.05,.64-3.75-.58,.38,.35-2.81,.03,.62,.02,1.37,.12,2.26,.27,.13,.05-.13,.05-.38,.03,1.77,.38,2.19,.37,2.64,.31,.45-.05,.92-.15,2.76,.21-.5,.09,.79,.49,1.39,.59-1.47-.32-.65-.44,.74-.28,2.32,.68,2.58,.51,3.79,.86l-1.38-.43c.52-.05,1.69,.27,3.32,.71,.1,.17-1.5-.34-.94-.12,1.87,.28,4.08,1.35,5.84,2.76,.6,.88-.16,.3,.33,1.03,.78,.94,.86,1.69,.93,2.37,.05,.7,.05,1.41-.04,2.78,.2-.37,.23-.61,.28-.49,.04,.11,.04,.57-.08,1.59,.35-1.54,.36-3.15-.1-4.55,.36,.88,.57,1.88,.57,2.91,.16-1.46-.3-2.99-.6-3.73,.65,1.25,.5,1.19,.52,.45,.14,.99,.25,1.94,.27,2.98,.02,1.03-.14,2.14-.67,3.2l-.53-.27c-.7,1.51-1.42,2.82-2.5,3.97-1.04,1.12-2.63,2.14-4.8,2.62,.48-.07,.94-.2,1.4-.32-.24,.21-.9,.45-1.69,.62-.79,.16-1.71,.29-2.45,.39,.12-.2-.81-.2-1.44-.31,.04,.07-.8,.09-1.71,.09-.91,0-1.89-.02-2.12,.16l-2.07-.46c-3.8-.52-4.41,.08-8.07-.39,1.13-.09-.52-.41,1.95-.3-1.22-.14-2.32-.29-2.36-.16-.7-.2-3.42-.11-4.53-.42-.53,.03-.71,.21-2.1,.05-.15-.05,.02-.1,.02-.1-.01,.08-2.2-.04-.99,.26-.94-.22-2.11-.35-3.39-.23-1.28,.11-2.65,.56-3.81,1.3-2.36,1.48-3.75,3.77-4.82,5.09-1.33,2.44-2.44,5.51-3.35,7.77,0-.17-.09-.04,.1-.47-1.42,3.07-.26,2.13-1.82,5.64-.98,1.73,.55-1.97,.01-.87-.8,.27-1.54,4.38-2.62,6.78l.15-.62c-.78,1.85-1.13,4.75-1.66,7.97,0,0-.03-.17-.09-.03-.01,1.13-.11,2.75-.12,4.48,0,1.73,.08,3.56,.25,5.11-.31-.95-.22-1.41-.44-.8,.13,1.4,.36-.43,.68,2.34-.05,.91,.1,2.92-.12,3.23-.13-.87-.26-1.74-.36-2.62-.21,1.4,.47,3.39,.64,4.76l-.18-.15c.72,3.96,1.18,3.93,1.8,8.17l.05-.46c.7,2.27,.07,1.97,.58,4.25-.11,.24-.22,.49-.34,.73,.1,.76,.25,2.09,.32,3.59,.07,1.5,.04,3.16-.1,4.53-.07-1.59-.03-4.81-.31-6.77,.02,.75,.05,2.03,.02,3.22-.03,1.19-.05,2.3,0,2.7,.04-.61-.03-1.39,.09-1.98,.21,1.87,.09,4.36-.54,7.34-.32-.34-.77,1.58-1.43,3.8-.65,2.22-1.6,4.72-2.27,5.63-.84,2.54-1.98,4.96-3.29,7.4-1.28,2.44-2.83,4.78-4.9,6.96,.95-.57,.66-.25,.2,.24-.44,.5-1.11,1.07-.76,1.19-1.05,.97-1.52,1.25-1.65,1.28-1.24,.7-2.59,1.18-3.88,1.19-.46-.06-.16-.11,.22-.17,.38-.12,.86-.25,.78-.3-.33,.07-.6,.12-.81,.16h-.5c-.25-.02-.36-.03-.43-.09-.15-.12-.21-.16-.95-.41,.13,.16-.08,.16-.52,.08-.41-.13-1.06-.41-1.6-.93,.24,.26,.49,.51,.79,.7,.29,.19,.58,.44,.91,.55-.9-.22-1.52-.61-1.91-.98-.41-.38-.65-.74-.86-1.11-.42-.77-.82-1.5-1.78-3.41,.23,.4,.47,.78,.71,1.15-.53-.92-1.25-2.83-1.84-4.87-.31-1.01-.63-2.01-.94-2.9-.29-.89-.53-1.66-.78-2.18-.02-.41,.02-.97,.29,0-.29-1.34-.64-2.75-.91-4.2-.3-1.44-.63-2.9-.83-4.34-.51-2.87-.76-5.63-.74-7.77l.16,.41c-.08-1.02-.34-1.78-.23-3.07,.06,.07,.16,.41,.16-.07-.1-.54-.29-2.72-.17-4.09l.15,1.16c.25-5.35-.03-8.25,.43-12.75,.44,.07,1.18-4.08,1.74-6.12l.05,.08c.3-1.53,.64-2.93,.95-4.27,.15-.67,.29-1.33,.44-1.97,.17-.64,.33-1.27,.49-1.9,.32-1.26,.61-2.51,1.03-3.77,.41-1.26,.75-2.58,1.3-3.92,.46-.78,.98-1.88,1.58-3.14,.65-1.24,1.34-2.66,2.09-4.15,1.56-2.96,3.26-6.28,4.16-9.29-.33,.9-.27-.23-.1-1.32,.18-.71,.25-1.72,.21-2.53,0-.8-.09-1.39,.14-1.29l.03,.53c.17-.56,.19-1.66-.14-2.88-.12-.62-.41-1.23-.65-1.85-.32-.59-.6-1.2-.98-1.7l-.66-.02c-.77-1.37-2.13-2.68-3.73-3.62-1.6-.96-3.4-1.59-5.11-2.05-3.43-.92-6.59-1.23-7.91-1.98-1.32-.21-2.88-.76-4.12-1.2l.18-.23c-1.62-.81-2.73-1.56-3.78-2.49-1.02-.94-2.04-2.06-2.72-3.97l.47,.7c-.18-.53-.4-.93-.53-1.32-.09-.19-.17-.37-.25-.54-.06-.18-.13-.36-.19-.53-.07-.18-.13-.36-.2-.54-.04-.19-.08-.38-.11-.59-.04-.21-.05-.43-.03-.67,.02-.24,.02-.5,.11-.78,.2-.19,.39-.36,.59-.53,.67-1.96,2.19-3.6,3.96-4.76,.89-.59,1.85-1.06,2.83-1.44,.98-.38,2.01-.62,3.1-.83-.06,.07-.18,.2-.88,.32,1.01-.18,3.02-.23,4.72-.15,1.7,.07,3.08,.11,2.71-.21,.02,.34,4.8,.53,7.52,.09l-.41,.32c1.17-.28,1.78-.57,2.45-.98,.62-.41,1.54-1.03,2.04-2.67,.14-.37,.21-.53,.25-.47,.03,.06,0,.36-.23,.86,.53-1.28,.4-1.81,.38-2.36-.05-.55-.12-1.17-.19-2.61l.27,1.06c-.19-2.46-.28-2.22-.61-3.54-.26-1.5-.33-4.58-.11-4.95-.18-.31-.49-1.62-.53-3.04,.08-.2,.18,.31,.23,.57-.12-4.04-.76-5.97-.66-8.77,.09-.06,.12-.25,.14-.48,.19,3.2,.36,5.78,.32,5.54,.26-.02,.12-2.61,.62-.57-.34-2.06-.98-5.59-1-8.12,.02-.12,.04-.24,.07-.34l.04,.26c0-.58-.06-1.1-.12-1.59,0-.81,0-1.32-.03-2.09,.19-.31-.01-2.97-.06-4.27-.28,.12-.3-1.58-.47,.02,.01-.21,.04,.24,.09,1.1,.02,.19,.03,.42,.05,.55l-.03-.09c.04,.85,.1,1.95,.16,3.21-.2-1.01-.36-2.08-.26-3.51-.21-.66-.43-1.38-.53-1.79,.33-1.79,.43-5.2,.67-5.68-.27-3.94-.29-9.29-.82-11.77-.07-1.12,.14-1.29,.23-1.71,.05,.65,.05,1.42,.13,1.77-.16-2.24-.05-6.65-.4-7.19,.19-2.83,.32,1.59,.3-2.3l.11,.53c.18-1.9,.21-3.66,.21-5.28,.02-1.61,.06-3.12,.57-4.48,.49-1.36,1.63-2.48,3.23-2.99,1.6-.52,3.48-.5,5.59-.27-.59-.06-.88-.08-1-.14,9.67,.47,19.95-.03,29.5,.64,2.71,.15,3.01-.09,4.67-.24l.58,.31c.94-.09,1.88-.18,2.83-.23,2,0,3.71,.37,5.48,.89,1.77,.53,3.58,1.17,5.85,2.1-.15-.17-.31-.32-.47-.47,.79,.41,2.04,1.08,2.91,1.82,.9,.72,1.48,1.39,1.29,1.37,.15,.11,.57,.26,.92,.88l-.09,.14c.98,1.06,1.83,2.26,2.5,3.57,.31,.79,.37,1.19,.36,1.38,0,.2-.08,.2-.14,.25-.16,.11-.04,.36,.24,2.69,.09,.86,.19,2.1,.11,3.06-.09,.95-.18,1.63-.03,1.32,.09-.35,.26-.79,.38-1.16,.1-.37,.21-.66,.3-.68l-.1,.85-.19,.83c.19,.22,.29,.69,.54,.61,.13-.04,.29-.24,.52-.7,.11-.23,.26-.53,.35-.92,.11-.39,.25-.86,.3-1.45,0-1.09-.22-2.15-.47-3.17,.01-.35,0-.69,0-1.04,.22,.87,.38,1.76,.43,2.66,.1-1.56-.31-2.51-.75-3.48,.03-.27,0-.74-.22-1.34-.51-.92-1.15-1.75-1.81-2.54-.06-.42,1.06,.98,0-.83-1.01-1.05,.47,1.34-1.03-.49-.78-1.27-.36-1.09-1.74-2.19-.11-.25,.24-.08,.77,.4-.6-.52-1.4-1.2-2.18-1.74-.4-.26-.79-.49-1.13-.68-.34-.16-.64-.28-.84-.32-.61-.49-1.82-1.03-2.85-1.39-1.03-.38-1.87-.61-1.74-.81-.49-.05-2.7-.28-4.09-.42,1.3-.08,0-.3-1.52-.46-1.53-.16-3.28-.23-2.93-.5-1.9,.38-6.66,.08-9.91,.29,.18-.03,.54-.11,.83-.08-1.83-.07-2.36-.22-3.53-.32-.24,.39-3.09,.44-4.62,.66-2.23-.41,1.37-.44,.67-.81,.11,.32-3.9,.26-3.14,.54-1.71-.26-1.47-.13-2.35-.47-.31,.49-1.6,.06-3.02,.34-2.47-.28-.63-.47-3.36-.36-1.29-.17,1.13-.31,1.13-.31Zm-18.62,50.81h0c-.04-.56-.07-1.03-.09-1.34,.02,.28,.05,.66,.1,1.34Zm.33,5.44c-.04-.66-.09-1.49-.14-2.36,.08-.2,.2,0,.23,.55-.08-.29-.06,.99-.09,1.81Zm1.32-11.6c.07,.86,.03,1.15-.02,1.27-.03-.41-.06-.88-.1-1.5l-.04-.1c.06,.08,.11,.17,.16,.33Z"/><path class="f" d="M106.99,124.13c-.01-.12-.03-.19-.04-.35l-.04,.52,.1,.3c0-.16-.02-.32-.02-.46Z"/><path class="f" d="M135.75,105.71h-.12c.1,0,.18,.01,.24,.02-.08,0-.08-.02-.13-.02Z"/><path class="f" d="M91.48,183.62v-.07c-.16-.01-.32-.04-.49-.06,.16,.04,.32,.09,.49,.13Z"/><path class="f" d="M165.8,105.26c.06,.01,.18,0,.41-.02-.02-.01-.2,0-.41,.02Z"/><path class="f" d="M175.48,96.81c.18-.62,.32-1.26,.38-1.92-.1,.84-.25,1.45-.38,1.92Z"/><path class="f" d="M173.34,86.83c-.12-.08-.17-.08-.22-.09v.02l.22,.07Z"/><path class="f" d="M170.3,166.86l.38,.09c.89,.19,.29,.04-.38-.09Z"/><path class="f" d="M128.19,154.51c.24,.43,.44,.88,.71,1.31-.34-.74-.54-1.35-.71-1.31Z"/><path class="f" d="M148.18,187.81h0l-.32-.04,.32,.04Z"/><path class="f" d="M129.9,157.7c-.39-.71-.69-1.33-1-1.88,.27,.61,.6,1.34,1,1.88Z"/><path class="f" d="M131.72,77.93l-.48-.04s-.02,.03-.06,.04h.54Z"/><path class="f" d="M131.18,77.92h-.53c.24,.01,.46,.03,.53,0Z"/><path class="f" d="M129.52,77.92h1.12c-.39-.02-.86-.06-1.12,0Z"/><path class="f" d="M144.86,78.92l.16-.09c-.08,.02-.14,.05-.16,.09Z"/><path class="f" d="M148.86,79.15c-.95-.09-2.38-.37-3.71-.4l-.13,.07c.64-.11,2.92,.44,3.84,.32Z"/><path class="f" d="M165.19,82.42c-1.02-.38-2.08-.68-3.16-.91,.55,.22,1.25,.52-.21,.24,1.98,.58,1.77,.51,1.62,.36-.17-.12-.28-.36,1.76,.31Z"/><path class="f" d="M172.82,88.56c-.98-1.41-.12,.1-.22,.05,.61,.88,.77,1.11,.22-.05Z"/><path class="f" d="M123.24,120.24l-.27-.17c.11,1.39,.1,0,.27,.17Z"/><polygon class="f" points="125.35 134.52 125.43 133.16 125.16 132.53 125.35 134.52"/><path class="f" d="M124.11,143.14l-.1-.61c.1,.78,.23,1.55,.35,2.33l-.26-1.72Z"/><path class="f" d="M134.17,189.21c.17-.06,.36-.1,.53-.14,.29-.4,.43-.69,.35-.72-.08-.04-.39,.19-.88,.86Z"/><path class="f" d="M125.34,242.15c-.06,.61,.04,2.12,.29,3.03-.11-1.2-.16-2.42-.29-3.03Z"/><polygon class="f" points="106.06 186.13 107.04 186.87 106.15 186.13 105.21 185.49 106.06 186.13"/></g></g></g></svg>