<?xml version="1.0" encoding="UTF-8"?><svg xmlns="http://www.w3.org/2000/svg" viewBox="0 0 275.77 274"><defs><style>.d{fill:#fff;}.e{fill:#202020;}.f{fill:#1ed760;}</style></defs><g id="a"/><g id="b"><g id="c"><circle class="f" cx="137" cy="137" r="137"/><g><path class="d" d="M59.5,92.03c3.2-1.74,7.18-2.26,11.01-2.74,32.62-4.08,66.51-8.1,98.22-.8,12.03,2.77,23.72,7.28,32.24,14.55,2.65,2.26,5.05,4.93,5.48,7.99,.12,.87,.04,1.85-.71,2.5-.88,.76-2.33,.82-3.63,.83-5.63,.04-11.26,.09-16.89,.13-4.77,.04-9.55,.07-14.28-.43-6.42-.68-12.6-2.33-18.82-3.73-16.5-3.71-33.61-5.72-50.76-5.95-9.79-.13-19.6,.31-29.36-.32-5.46-.35-11.86-1.63-13.77-5.7-1.82-3.89,2.8-8.67,8.02-8.29"/><g><path class="e" d="M66.2,90.73c.18-.07,.09-.28-.36-.25l-.31,.33,.66-.08Z"/><path class="e" d="M63.16,90.5c-.49,.31-.9,.83-.48,.97,.35-.48,.5-.39,.94-.92,.44-.14,.79-.07,.74,.07,.14-.11,.69,0,.91-.24-.3-.09-.65-.14-1.01-.09-.35,.08-.74,.18-1.07,.42-.18-.02-.05-.15-.03-.22Z"/><path class="e" d="M91.7,104.84l-.29-.04c.08,.02,.18,.03,.29,.04Z"/><path class="e" d="M119.94,105.98c-.22-.01-.31,.01-.32,.04,.2,0,.37-.01,.32-.04Z"/><path class="e" d="M124.7,106.81l-.28-.05c.1,.04,.21,.07,.28,.05Z"/><path class="e" d="M91.7,104.84l.76,.1c.05-.11-.39-.08-.76-.1Z"/><path class="e" d="M59.15,94.7c.05-.13,.07-.24,.08-.36l-.12,.32s.02,.02,.04,.04Z"/><path class="e" d="M79.19,105.09h-.23c-.07,.03-.13,.07-.19,.12l.43-.12Z"/><path class="e" d="M69.55,104.62c.22,.04,.33-.23,.42-.35-.14,.1-.3,.14-.5,.14,0,.05,.01,.12,.08,.21Z"/><path class="e" d="M57.56,96.38l-.03-.29,.03,.29Z"/><path class="e" d="M86.07,105.2s.05,.08,.09,.1c0-.04-.03-.07-.09-.1Z"/><path class="e" d="M70.37,90.64s0-.03,0-.05c-.05,.04-.07,.06,0,.05Z"/><path class="e" d="M59.46,91.96l.13-.08c-.01-.05-.02-.11-.04-.15l-.09,.24Z"/><path class="e" d="M133.39,108.27h-.04c-.23-.01-.1,0,.04,0Z"/><path class="e" d="M204.98,105.39c.42,.9-1.26-1-.54,.29,0-.19,1.17,.77,.54-.29Z"/><path class="e" d="M59.02,94.88c-.06,.1-.07,.21-.12,.31l.12-.31Z"/><path class="e" d="M204.44,105.69h0l.07,.13-.07-.13Z"/><path class="e" d="M153.36,111.84c-.03-.06-.1-.11-.17-.17,0,.03,.04,.07,.17,.17Z"/><path class="e" d="M138.59,108.51l.36,.1c-.14-.05-.26-.08-.36-.1Z"/><path class="e" d="M161.15,113.22c.2,.07,.26,.12,.54,.14-.02-.02-.05-.03-.08-.05-.11,.02-.24,0-.46-.09Z"/><path class="e" d="M169.29,114.67s-.1-.05-.14-.08l-.26-.02,.41,.1Z"/><path class="e" d="M95.11,87.61c-.19-.06-.31-.13-.4-.21,.15,.19-1.04,.38,.4,.21Z"/><path class="e" d="M59.01,94.64c.04,.07,.05,.14,.01,.24l.09-.22s-.06-.06-.11-.02Z"/><path class="e" d="M161.94,111.12l1.26,.3c-.35-.1-.8-.21-1.26-.3Z"/><path class="e" d="M153.62,87.02h-.3c.11,.02,.22,.02,.3,0Z"/><path class="e" d="M166.96,112.08c.21,.13,.44,.23,.68,.31,.06-.01,.12-.02,.16-.05l-.84-.26Z"/><path class="e" d="M94.7,87.4h0Z"/><path class="e" d="M86.25,88.99c1.23-.13,.54-.43,.78-.67,1.46-.27,.71,.19,1.23,.32,.91-.21,1.58-.61,2.26-.67,.06,.05,.19,.06,.05,.16,.94-.4,2.88-.32,3.98-.81,.09,.02,.13,.05,.16,.08-.2-.16-.25-.35-.23-.49,.55-.07,1-.34,1.24-.12-.34,.03-.36,.12-.51,.22l.57-.16c.56,.3-.78,.19-.75,.45,1.12-.22,2.41-.63,3.29-.62,.21,.32-2.02,.31-.83,.5h-1.35c1.08,.43-.82,.04,.18,.52,1.77-.07,1.96-.36,3.73-.43,.38-.23-.16-.27,.22-.49,2.47-.57,2.05,.68,3.85,.07,.46-.26,.61-.71,1.94-.59l-.42,.42c1.71-.1,.93-.64,2.75-.51-.31,.17-1.34,.22-1.07,.25,1.18,.22,.81-.27,1.7-.34l.21,.33c1.82-.16,3.81-.57,5.83-.72-.11,.11-.45,.23,.03,.31,2.54-.29,5.44-.23,7.9-.06l.93-.32c.22,0,.41,.12,.17,.19,.96,.09,.05-.19,.5-.31,.54-.03,.72,.15,.38,.25,1.68-.31,4.81-.56,6.59-.26l-.35,.09c1.38,.11,1.57-.59,2.85-.28l-.25,.05c1.5,.1,3.09,.11,4.58,.15,1.49,.08,2.89,.21,4.02,.49,.46-.41,2.95,.36,3.19-.19,1.69,.44,1.19,.5,3.57,.91,.64,.09,1-.29,1.79-.26v.31l1.1-.19,.53,.44h.75c-.29-.04-.61-.2-.56-.28,1.18,0,2.8,.57,2.8,.73,.93,.01,1.84,.09,2.77,.15-.08,.11-.54,.08-.91,.1,1.5-.07,.21,.36,1.59,.3-.17-.1,.13-.17,.17-.22,.63,.29,2.14,.54,3.28,.65l-.25,.17c1.99,.45,4.24,.76,6.48,1.24-.78-.27-.51-.6,.15-.48l.19,.38c.47-.09-.66-.28,.27-.32,.83,.24,.47,.49-.03,.48l1.04,.13c.04,.11-.21,.1-.3,.21,.47-.11,1.66,.76,2.34,.57l.03,.11c2.2,.6,3.23,.79,5.01,1.33,.12-.26,.79,.03,1.39-.01,1.28,.52,2.63,1.23,4.17,1.81,1.13,.29,.4-.1,.95-.06-.02,.27,1.51,.88,.65,.72,1.84,.72,2.34,.92,4.68,1.84-.2-.21-.45-.39-.27-.4,.43,.16,.88,.55,.77,.63l-.12-.03c.67,.23,1.33,.59,2,.99,.65,.42,1.29,.89,1.91,1.35,.61,.48,1.2,.94,1.77,1.34,.56,.41,1.1,.75,1.64,.95l-.12-.05,2.01,1.14c.79,.7-.61-.25-.1,.37,2.21,1.22,2.95,2.53,4.43,3.81,.2,.82,1,1.83,1.52,3,.26,.57,.45,1.21,.51,1.75,.05,.53-.12,.84-.3,.88,.06,.03,.11,.05,.17,.06,.01,.28-.23,.12-.39,.17,.1,.11,.31-.03,.24,.15-.47,.43-1.65,.55-2.81,.53-1.22,0-2.46-.04-3.7-.09-2.48-.09-4.97-.23-7.42-.29-1.79-.03-1.01,.93-3.27,.52l.64-.34c-3.61,.42-7.38,.07-10.88,.32,.21-.07,.22-.17,.56-.16-.73-.25-2.72-.1-2.75,.09-.54-.05-.12-.18-.45-.3-.73-.18-1.87,.19-2.24-.08-.06-.04,.21-.06,.35-.07-.49,.08-2.21-.23-1.79,.09-1.28-.27-2.49-.18-3.5-.5-.72,.2-2.18-.52-2.47-.13,.17-.42-2.19-.79-3.05-.76,.3-.08-.68-.29-.32-.41-.93-.19-1.8-.3-1.69-.04-1.59-.91-3.54-.37-4.35-1.27-2.83-.41-5.45-.83-7.98-1.24,.18-.43,2.79,.53,2.78,.06-2.43-.33-3.88-.24-6.23-.79-.6-.18,.39-.13,.61-.16-2.43-.28-4.63-.9-6.8-1,.01-.04,.25-.05,.47-.05-.42-.05-.97-.23-.95-.02h.42c.62,.42-1.77,.35-1.87,.5,.81-.47-2.09-.46-.84-1.03-.28,0-.65,.04-.6,.19-.41-.1-.53-.2-.08-.29-1.53-.12-1.02,.18-2.39-.02,.02-.1,.3-.1,.46-.19-.72,.1-1.44,.19-2.59-.05,.08-.05-.05-.15,.3-.1-2-.22-3.46,.08-5.63-.34,.69-.36-.73-.22-.81-.61h-1.19l.46,.22c-1.03-.11-1.97,.07-2.85-.13l.78-.08-1.94-.1,1.08,.23c-1.06,.1,.07,.48-1.29,.26,.28-.01-1.03-.09-1.55-.36h0c-.52,.08-1.06,.17-1.81,.02-.19-.13,.19-.4,.07-.49-.53,.27-2.43-.08-3.09,.22,.22-.07,.24-.26,.17-.3l-.44,.23c-.47-.11-.54-.15-.46-.3-1.44-.13,.43,.5-1.27,.2,.14-.01,.07-.05,.36-.08-1.72-.18-3.33,0-4.91-.17-.45-.39,1.39-.05,.86-.38-2.29-.01-4.74,.31-6.94,.21l.41,.05c-.31,.52-1.64-.28-2.76-.03,.27-.04,.36-.29,.28-.23-1.51-.09-3.09,.13-5.38,.31l.28-.14c-.89-.12-2.34-.05-3.3-.11-.28,.14-.83,.12-.5,.32-2.96-.76-5.65,.44-8.27-.25,.31,0,.75-.11,.5-.11l-2.23,.09c.17,.24,.29,.15,.76,.33-.29,.13-.92,.23-1.47,.21,1.01-.13,0-.37-.43-.51,.07,.07-.08,.15-.05,.22-1.15-.44-.21,.46-1.8,.13l.09-.12c-.6,.04-1.15,.17-1.8,.11-.25-.28,.64-.1,.69-.31-.9-.02-1.81,.42-2.61,.1,.39-.05,.94-.02,1.33-.07-.87-.36-.98-.29-1.63-.38h.06c-.5-.07-1-.15-1.5-.25l.38,.12c-1.18,.59-2.28-.1-3.84,.08,1.53-.17,.28-.2,.45-.48-.36-.15-.91-.35-.73-.4-.74,.09-1.09-.43-2.13-.35-.01-.11-.7-.23-.48-.42-.87-.21,.14,.23,.04,.32-.72-.05-1.46-.45-2.2-.91-.75-.48-1.46-1.03-2.28-1.53-.64-.51-.99-.87-1.34-1.24-.32-.38-.63-.8-.78-1.63,.08-.29,.17-.16,.24,0,.06,.17,.17,.4,.17,.4,.04-.84,.07-1.44,.26-2.23,.03,.19,.14,.04,.33-.13,.26-.55-.16-.56,.45-1.19,0,.19,.04,.43-.02,.73,.3-.64,.62-1.34,1.17-1.93,.26,0-.18,.51-.28,.77,.27-.33,.66-.73,1.02-1.05,.36-.33,.69-.6,.75-.8l-.55,.21c.28-.18,.26,.11,.09,.28-.5,.59-.94,.56-1.04,.52,.13-.14,.28-.26,.42-.4-.41-.06-.88,.34-1.26,.89-.38,.55-.66,1.23-.9,1.73-.05-.2-.1-.41-.15-.63-.09,.43-.17,.83-.17,1.24-.18,.2-.47,.33-.33-.27-.25,.38-.25,.6-.24,.78,.01,.19-.02,.34-.13,.72-.04,.08-.06,.05-.07-.03,.03,.3,.07,.59,.18,.87-.11-.16-.27,.2-.29-.37-.03,.83,.28,1.49,.6,1.9,.3,.44,.58,.7,.64,1.03l-.1-.09c.76,.82,.89,.74,.94,.67,.07-.1,.08-.2,.79,.13,.1,.43,.27,.81,.44,1.23l.34-.15c.19,.11,.56,.34,.43,.41,.82,.21-.06-.18,.44-.13,.82,.75,2.71,.91,2.8,1.43,.42-.12-.91-.45,.2-.3,.17,.59,1.27,.25,2.15,.65-.34,.22-1.21-.12-.31,.32,.65-.34,1.83,.43,2.65,.42,.08-.35,1.77,.04,3.12,0-.09,.12,2.52,.35,3.76,.51l-.04,.06c.26-.36,1.54-.24,2.48-.3-.04,.22-.21,.3-.72,.39l.88,.02c.21-.11,.49-.17,1.06-.2l-.23,.27c1.18,0,2.37-.29,3.88-.1,.09-.26-1.2-.72,.4-.88,.06,.14,.12,.38-.3,.43,.14-.02,.49-.11,.76-.05l-.64,.23c.69,.1,.36-.19,.91-.17-.01,.2,.41,.14,.33,.3-.14,.02-.48-.08-.69,0,.62,.04,1.37,.15,1.62,.3-.05-.11,0-.27,.45-.29,1.17-.02,.4,.24,1.09,.33,.28-.14,1.03,0,1.05-.3,.34,0,.41,.14,.54,.22,.61-.13,2.84-.06,2.15-.37l-.16-.02h.1c1.99-.32,4.13,.13,6.1,0v.1c1.17-.11,2.62-.06,3.46-.26,.35,0,.82,.19,.67,.31,.9-.06,1-.17,2.3,.02-.91,.15,.31,.16-.93,.11,1.17,.11,1.42,.27,2.69,.04-.43,.24,.87,.35,1.42,.29l-.81-.21c.62-.02,1.17,.02,1.72,.07l-.31,.32c2.36,.5,4.34-.49,6.11,.3,.65-.2-1.28-.24-.7-.48,1.1,.1,2.2,.67,2.55,.69,1.48,.29,1.44-.39,3-.13-.19-.13-.36-.47,.83-.48,1.09,.14,1.3,.61,.6,.65-.26-.01-.39-.06-.37-.1-.36,.01-.83,.02-.4,.19l.15-.11c.53,.16,2.04,.29,1.67,.45,.84-.03,.37-.16-.23-.28,1.39,.31,2.19,.21,3.62,.48-.22-.09-.42-.25-.19-.23,2.1,.38,.96-.12,2.4-.01,.79,.27-.34,.39,1.12,.42,.86,.23,.15,.34-.21,.39,1.34-.06,2.43,.45,3.17,.6h-.7c.42,0,.76,.05,1.1,.1l-.36-.29c.4,.1,.74,.14,.72,.24,.44-.1-.27-.43,.59-.53,.52,.19,1.66,.1,1.8,.44-1.68-.36,.14,.33-1.3,.18,.28,0,.62,.05,1.02,.15,.06,.04-.07,.06-.18,.06,1.58,.52,.8-.24,2.48,.02-.24,.14,.34,.39,.62,.4-.68-.11-.28-.35,.36-.38,1.05,.31,1.19,.09,1.75,.2l-.63-.17c.25-.14,.78-.03,1.54,.04,.04,.15-.7-.02-.44,.09,.89-.17,1.82,.65,3.02,.64,.52,.21,0,.34,.45,.5,1.34,.02,1.36,.51,2.75,.58-.35-.31-.43-.27,.58-.31l-2.27-.26,1.5-.07c-.68-.13-1.45-.12-1.85-.24,.72-.06,.64-.02,.35-.27,.86,.53,1.88,.14,2.9,.59l-.15,.57c1.55,.58,2.91,.28,4.95,.89l-.64-.25c.33-.17,1.29,.24,1.98,.31-.11,.18,.3,.34,.56,.53,0-.15,1.51,.36,1.79,.02l.87,.47c1.65,.49,2.04-.1,3.64,.33-.53,.1,.17,.4-.95,.31,.54,.13,1.02,.27,1.06,.14,.29,.19,1.56,.07,2.02,.36,.25-.04,.36-.22,.97-.08,.06,.05-.02,.1-.02,.1,.02-.1,.98,.06,.49-.26,1.55,.96,4.69,.83,6.1,1.53,1.22,.1,2.68,.18,3.78,.25-.08,.05-.01,.1-.22,.06,1.51,.29,.97-.49,2.68-.2,.87,.36-.92,.13-.38,.27,.21,.67,2.09,0,3.24,.4l-.28,.03c.89,.24,2.17-.21,3.62-.17,0,0-.07,.06,0,.1,.99-.33,2.86-.45,4.25-.56-.43,.26-.63,.14-.36,.4,.62-.04-.19-.41,1.06-.5,.41,.14,1.3,.25,1.42,.53l-1.17,.02c.6,.35,1.52-.02,2.13,.03l-.08,.16c1.8-.06,1.82-.46,3.75-.44l-.2-.12c1.05-.4,.89,.21,1.94-.09l.32,.39c.7-.1,2.44-.4,3.68-.48-.71,.3-2.16,.46-3.07,.64,.69,0,2.34-.05,2.7-.24-.28,.04-.63,.14-.9,.08,.84-.32,1.96-.48,3.33-.48-.12,.38,.78,.43,1.83,.44,1.07,.04,2.38-.1,3.1-.1,.71-.33,1.48-.93,1.86-1.77,.37-.82,.39-1.65,.32-2.39-.15-1.43-.66-2.88-1.53-4.16,.09,1.23-.51-.74-.91-.21-.44-.53-.6-.73-.61-.8-.34-.61-.73-1.2-1.13-1.77-.22-.48,.56,.36,.61,.23-1.04-1.11-.26-.64-.88-1.45,0,.3-.6-.13-1.19-.74l.72,1.01c-.88-.58-1.15-.95-1.41-1.33-.27-.37-.53-.79-1.46-1.29l.65,.25c-.46-.28-1.25-.88-2.08-1.42-.84-.51-1.7-1.01-2.28-1.06-.12-.16-.24-.43,.18-.22-2.12-1.46-5.14-2.41-6.78-3.51l.24-.05c-.45-.17-.86-.12-1.33-.49,.05-.04,.24-.06,.04-.16-.25-.06-1.25-.28-1.79-.61l.56,.06c-2.2-1.17-3.66-1.09-5.62-1.69,.16-.41-1.62-1.2-2.53-1.56l.05-.05c-2.72-.93-4.77-1.09-7.37-1.57-1.47-.9-5.38-1.42-7.92-2.21,.38,.16-.13,.32-.6,.27-.59-.2-1.74,.02-1.57-.36l.22,.04c-.39-.47-1.67-.57-2.65-.74l-.24,.5c-.61-.29-1.34-.5-2.11-.63-.77-.12-1.59-.18-2.36-.24-1.55-.11-2.95-.2-3.62-.62-.64,.08-1.41,0-2.04,.08l.06-.28c-1.72-.22-2.59-.36-4.73-.44l.45-.18c-1.21-.09-1.58,.73-2.69,.68l-.31-.44c-1.05-.05-2.11-.21-3.17-.3-1.06-.07-2.11-.1-3.16,.07,.04-.06,.1-.18,.44-.19-.99-.03-3.84-.39-3.48,.21-.02-.38-2.18-.03-3.31,.13l.18-.28c-.96,.36-.99,.45-2.33,.55-.32-.04-.28-.22,.14-.15-1.06-.15-.82,.27-2.1,.15l.47-.19c-1.09,0-1,.1-1.59,.32-.68,.13-2.06-.02-2.23-.27-.14,.16-.73,.38-1.37,.32-.09-.09,.14-.16,.26-.19-1.83-.12-2.69,.45-3.95,.23-.03-.09-.11-.13-.22-.16,1.44-.06,2.61-.1,2.5-.07-.01-.26-1.18-.25-.27-.65-.93,.24-2.51,.73-3.66,.67-.06-.02-.11-.04-.16-.08l.12-.03c-.26-.01-.5,.02-.72,.08-.37-.02-.6-.04-.95-.02-.15-.2-1.34-.03-1.93,0,.07,.28-.7,.28,.03,.47-.09-.01,.11-.04,.49-.08,.09-.01,.19-.02,.25-.05l-.04,.03,1.44-.11c-.45,.17-.92,.32-1.57,.21-.29,.2-.6,.41-.78,.51-.82-.34-2.37-.45-2.6-.68-1.76,.28-4.17,.44-5.24,1.05-.5,.11-.59-.1-.79-.17,.29-.08,.63-.1,.78-.19-1,.21-2.98,.31-3.18,.7-1.28-.05,.68-.41-1.05-.18l.22-.13c-3.49-.27-5.47,1.48-9.34,1.14,.27,.02,.4,.03,.46,.08-4.36,.14-8.86,1.33-13.17,1.32-1.22,.04-1.32,.29-2.04,.56l-.3-.27-1.22,.5c-1.76,.48-3.18-.36-5.4,.43l.32,.16c-.82,.07-2.56,.52-2.47,.28-.08,.05-.23,.26-.57,.22l-.06-.15c-.65,.22-1.29,.47-1.93,.73-1.56,.35,.07-.72-2.2,.02-.84,.35-2.11,1.48-1.76,1.42,.32-.16,.84-.32,.94-.18-.23,.13-.44,.28-.66,.42,.08,.49-.16,1.11,1.56,.66,.34-.25,.69-.49,1.06-.72l.46,.09c-.34,.11-.66,.24-.98,.36,.63-.01,.92-.3,1.29-.56,.13,.09,.33,.12,.58,.09,.36-.25,.72-.5,1.1-.74,.19,.14-.46,.48,.37,.39,.53-.32-.64-.28,.29-.62,.65,.08,.5,.29,1.18-.02,.12,.1-.02,.2-.29,.3,.61-.26,1.68-.34,1.98-.63,.68,.16,2.19-.36,2.18,.09,.19-.13,1.11-.49,1.71-.58-1.04,.66,2.26-.25,2.04,.35,.76-.57,2.92-.58,4.33-1.01-.08,.05-.23,.14-.36,.13,.82-.06,1.07,.05,1.6,.08,.06-.4,1.31-.64,1.97-.97,1.04,.25-.55,.53-.19,.85-.09-.31,1.69-.52,1.32-.75,.79,.14,.67,.04,1.1,.31,.08-.5,.7-.16,1.3-.54,1.13,.11,.34,.42,1.53,.14,.59,.08-.46,.38-.46,.38Zm28.77-3.39h0l-.6,.05,.6-.05Zm2.43-.12c-.3,0-.67,.02-1.06,.04-.09-.09,0-.2,.24-.2-.13,.07,.45,.1,.81,.17Zm-5.26-1.68c.38-.07,.52-.02,.57,.04l-.67,.08-.04,.04c.03-.06,.07-.11,.14-.15Z"/><path class="e" d="M111.52,84.22c-.06,0-.09,.02-.16,.03l.23,.05,.13-.1-.21,.02Z"/><path class="e" d="M91.35,104.8h.05s-.08-.02-.11-.03c.03,.01,.03,.02,.06,.03Z"/><polygon class="e" points="150.93 86.83 150.93 86.76 150.72 86.79 150.93 86.83"/><path class="e" d="M77.93,103.78s-.07-.05-.17-.08c0,.02,.08,.05,.17,.08Z"/><path class="e" d="M72.15,103.46l-.8-.16c.35,.08,.6,.13,.8,.16Z"/><path class="e" d="M67.81,102.83c-.06,.04-.08,.07-.1,.1h0l.1-.1Z"/><path class="e" d="M138.6,106.6c.06,0,.12,.01,.17,.02,.41,.01,.13-.01-.17-.02Z"/><path class="e" d="M117.5,104.7c.23-.03,.45-.06,.69-.08-.37-.05-.67-.08-.69,.08Z"/><path class="e" d="M161.8,111.08h0l.14,.03-.14-.03Z"/><path class="e" d="M119.17,104.71c-.37-.09-.69-.1-.98-.09,.31,.04,.67,.1,.98,.09Z"/><path class="e" d="M61.53,92.17l.17-.09s-.01-.03,0-.05l-.17,.14Z"/><path class="e" d="M61.7,92.03l.17-.14c-.09,.05-.16,.1-.17,.14Z"/><path class="e" d="M62.23,91.61c-.13,.08-.25,.18-.37,.28,.13-.09,.31-.17,.37-.28Z"/><path class="e" d="M58.6,96.23l.1,.06s-.05-.05-.1-.06Z"/><path class="e" d="M58.82,97.68c-.07-.17-.06-.39-.04-.63-.02-.23,.04-.47,0-.71l-.08-.05c.09,.12-.02,.38-.02,.66-.02,.28-.02,.6,.14,.72Z"/><path class="e" d="M63.5,103.01c-.48-.2-.95-.41-1.4-.66,.2,.21,.47,.49-.19,.22,1.69,1.09-.29-.34,1.59,.44Z"/><path class="e" d="M68.09,104.28c-.82-.07-.02,.16-.07,.21,.53-.02,.66-.03,.07-.21Z"/><path class="e" d="M101.86,105.03l-.09,.25c.62-.02,0-.1,.09-.25Z"/><polygon class="e" points="108.34 103.89 107.74 103.71 107.44 103.93 108.34 103.89"/><polygon class="e" points="112.05 105.9 111.78 105.92 112.82 105.89 112.05 105.9"/><path class="e" d="M167.8,114.71l-.14-.34c-.43,0-.57,.33,.14,.34Z"/><path class="e" d="M192.36,115.16c.27,.16,.96,.25,1.38,.09-.55-.02-1.1-.14-1.38-.09Z"/><polygon class="e" points="157.68 85.15 158.18 85.13 157.25 85.07 157.68 85.15"/></g></g><g><path class="d" d="M66.68,129.6l52.59-5.3c21.19-2.14,44.23-4,62.57,4.59,7.12,3.34,13.2,8.25,16.32,14.27,.5,.97,.93,2.05,.54,3.05-.84,2.12-4.47,2.4-7.3,2.27-39.49-1.74-78.97-3.48-118.46-5.22-4.28-.19-8.99-.52-11.99-2.92-2.93-2.35-3.2-6.43-.59-9s7.75-3.29,11.33-1.58"/><g><path class="e" d="M71.4,130.36c.18,0,.18-.23-.22-.36l-.39,.19,.61,.16Z"/><path class="e" d="M68.85,128.99c-.54,.1-1.12,.34-.82,.67,.51-.27,.61-.14,1.19-.42,.44,.02,.71,.27,.61,.36,.17-.06,.6,.24,.88,.12-.43-.43-1.16-.62-1.92-.51-.15-.1,.02-.16,.06-.21Z"/><path class="e" d="M84,144.21l-.27-.05c.07,.02,.17,.04,.27,.05Z"/><path class="e" d="M110.6,145.56c-.2,0-.29,.03-.3,.06,.19-.01,.34-.03,.3-.06Z"/><path class="e" d="M115.13,146.13l-.27-.03c.1,.03,.2,.06,.27,.03Z"/><path class="e" d="M84,144.21l.71,.14c.05-.11-.36-.1-.71-.14Z"/><path class="e" d="M63.36,130.43c.12-.07,.22-.14,.3-.21l-.3,.16s0,.04,0,.06Z"/><path class="e" d="M72.26,143.96h-.22c-.07,.02-.13,.07-.19,.11l.41-.11Z"/><path class="e" d="M63.15,142.49c.2,.09,.37-.15,.49-.24-.15,.06-.32,.07-.5,.01-.02,.05-.02,.12,.01,.22Z"/><path class="e" d="M61.1,130.36l.19-.18-.19,.18Z"/><path class="e" d="M78.7,144.3s.04,.08,.08,.1c0-.04-.03-.07-.08-.1Z"/><path class="e" d="M77.2,129.86s0-.03,0-.05c-.05,.03-.06,.05,0,.05Z"/><path class="e" d="M66.67,129.53l.14-.03c.01-.05,.02-.11,.02-.16l-.16,.19Z"/><path class="e" d="M123.43,146.85h-.04c-.22,.02-.1,.02,.04,0Z"/><path class="e" d="M199.94,146.12c-.3,.6-.2,.05-.23-.36-.02-.21-.06-.39-.11-.41-.05-.02-.09,.11-.22,.51,.07-.07,.12,.32,.13,.6,0,.25,.13,.44,.43-.34Z"/><path class="e" d="M63.14,130.48c-.1,.04-.2,.1-.3,.14,.14-.06,.23-.11,.3-.14Z"/><path class="e" d="M199.37,145.86h0c-.02,.05-.04,.11-.06,.16,.03-.06,.04-.1,.06-.16Z"/><path class="e" d="M142.59,147.53c-.04-.05-.11-.09-.19-.13,0,.03,.05,.07,.19,.13Z"/><path class="e" d="M128.34,146.5l.35,.05c-.14-.03-.25-.05-.35-.05Z"/><path class="e" d="M150.02,147.46c.19,.03,.25,.07,.52,.05-.02-.02-.05-.03-.08-.04-.1,.03-.22,.05-.44,0Z"/><path class="e" d="M157.73,147.8s-.09-.04-.14-.06h-.25l.38,.06Z"/><path class="e" d="M100.53,127.38c-.18-.06-.29-.14-.38-.22,.14,.19-.98,.37,.38,.22Z"/><path class="e" d="M63.29,130.29c-.01,.08-.06,.14-.15,.19l.21-.1s0-.08-.06-.09Z"/><path class="e" d="M150.43,145.26l1.22,.1c-.34-.04-.79-.08-1.22-.1Z"/><path class="e" d="M155.55,123.9l-.28,.02c.11,.01,.21,0,.28-.02Z"/><path class="e" d="M155.29,145.47c.21,.11,.44,.18,.68,.22,.05-.02,.11-.04,.15-.07l-.83-.16Z"/><path class="e" d="M100.15,127.16h0Z"/><path class="e" d="M92.18,128.63c1.16-.11,.51-.41,.74-.65,1.38-.24,.67,.21,1.16,.35,.86-.18,1.49-.59,2.14-.64,.05,.06,.18,.07,.04,.16,.89-.38,2.72-.29,3.75-.76,.08,.02,.13,.05,.15,.08-.19-.17-.24-.35-.21-.49,.52-.06,.94-.33,1.16-.11-.32,.03-.34,.12-.48,.21l.54-.16c.53,.3-.73,.19-.71,.45,1.05-.22,2.27-.63,3.09-.62,.2,.32-1.9,.31-.78,.5h-1.28c1.02,.43-.77,.04,.17,.52,1.67-.07,1.84-.36,3.51-.43,.35-.23-.15-.27,.2-.49,2.32-.58,1.94,.66,3.63,.04,.43-.27,.56-.72,1.81-.61l-.38,.42c1.61-.12,.86-.64,2.57-.55-.28,.18-1.25,.25-1,.28,1.12,.19,.75-.29,1.59-.38l.21,.32c1.71-.23,3.57-.66,5.46-.91-.09,.11-.41,.25,.05,.31,2.37-.41,5.11-.46,7.43-.47l.85-.37c.21-.01,.39,.1,.17,.18,.91,.04,.03-.19,.45-.34,.51-.06,.69,.11,.37,.23,1.56-.39,4.48-.9,6.17-.69l-.32,.11c1.31,.02,1.43-.69,2.66-.49l-.23,.06c2.83-.04,5.95-.42,8.11,0,.41-.42,2.79,.15,2.97-.42,1.61,.32,1.15,.42,3.41,.65,.6,.04,.91-.33,1.66-.36v.31l1.03-.27,.52,.39,.7-.05c-.28-.03-.58-.17-.54-.25,1.11-.11,2.65,.42,2.66,.57,.86,0,1.73-.05,2.6-.02-.07,.12-.5,.1-.85,.15,1.4-.17,.21,.35,1.5,.21-.16-.09,.11-.17,.15-.23,.6,.28,2.02,.42,3.08,.52l-.23,.18c.93,.19,1.93,.33,2.95,.48,1.02,.15,2.06,.38,3.1,.6-.73-.26-.47-.59,.15-.48l.17,.37c.44-.11-.61-.26,.26-.32,.78,.21,.44,.48-.04,.48,.33,.03,.65,.07,.97,.13,.03,.11-.2,.1-.29,.2,.44-.09,1.52,.77,2.16,.59l.03,.11c1.03,.27,1.76,.5,2.45,.72,.69,.21,1.34,.4,2.16,.68,.14-.27,.74,.07,1.3,.06,1.14,.59,2.37,1.31,3.74,2,1.02,.38,.39-.07,.9,.01-.04,.25,1.3,.98,.52,.75,1.62,.87,2.06,1.12,4.09,2.26-.15-.23-.35-.43-.18-.42,.37,.21,.73,.64,.6,.71l-.11-.04c1.17,.62,2.24,1.71,3.17,2.8,.93,1.1,1.72,2.18,2.58,2.78l-.1-.07c.52,.49,1.04,.98,1.51,1.51,.53,.82-.49-.37-.21,.31,.83,.8,1.26,1.6,1.63,2.36,.36,.75,.56,1.39,.63,1.91-.21,.17-.38,.31-.61,.51-.23,.19-.63,.44-1.17,.64-1.07,.4-2.5,.56-3.45,.32l.11,.18c-.5,.18-.6-.1-.97-.16,.05,.14,.54,.18,.23,.26-4.45,.03-9.23-.66-13.81-1.02-1.68-.12-.99,.88-3.09,.36l.62-.3c-3.41,.25-6.93-.32-10.27-.13,.2-.07,.21-.17,.54-.15-.69-.27-2.59-.13-2.61,.07-.52-.05-.11-.18-.43-.3-.7-.17-1.78,.23-2.14-.03-.06-.04,.2-.07,.33-.08-.46,.1-2.13-.12-1.71,.17-1.24-.19-2.39,.02-3.38-.19-.66,.28-2.13-.24-2.35,.19,.11-.45-2.17-.46-2.97-.28,.27-.12-.68-.17-.36-.35-.9-.03-1.73,.01-1.58,.25-1.63-.61-3.35,.29-4.25-.45-2.68,.13-5.16,.18-7.57,.18,.11-.45,2.66,.07,2.58-.41-2.29,.09-3.62,.41-5.88,.21-.58-.09,.34-.18,.54-.25-2.29,.09-4.4-.23-6.44-.08,0-.04,.23-.08,.44-.1-.4,0-.93-.11-.89,.1l.39-.04c.62,.33-1.61,.55-1.69,.71,.7-.56-2-.24-.89-.93-.26,.03-.6,.11-.54,.25-.39-.06-.51-.14-.11-.28-1.44,.05-.94,.29-2.23,.23,0-.1,.27-.13,.41-.24-.66,.16-1.33,.33-2.42,.2,.07-.06-.06-.14,.27-.12-1.88-.05-3.23,.37-5.28,.1,.63-.4-.7-.17-.79-.55l-1.11,.06,.44,.2c-.97-.05-1.84,.18-2.67,.03l.73-.12h-1.82l1.02,.18c-.99,.15,.08,.48-1.2,.32,.26-.03-.97-.05-1.47-.29h0c-.49,.1-.99,.2-1.7,.08-.18-.13,.17-.41,.05-.49-.49,.29-2.28-.01-2.9,.29,.2-.07,.22-.26,.16-.31l-.41,.24c-.45-.1-.51-.14-.43-.3-1.35-.11,.41,.49-1.19,.22,.13-.01,.07-.06,.33-.08-1.61-.18-3.13,.02-4.6-.17-.42-.39,1.3-.03,.81-.37-2.14-.03-4.45,.25-6.51,.08l.38,.06c-.31,.52-1.53-.33-2.59-.13,.26-.03,.35-.28,.28-.22-1.41-.15-2.9,0-5.06,.07l.27-.12c-.83-.16-2.2-.17-3.1-.27-.27,.12-.79,.08-.48,.29-2.75-.9-5.33,.18-7.77-.57,.3,.01,.71-.09,.47-.1l-2.1,.03c.15,.24,.27,.15,.7,.35-.27,.12-.87,.2-1.39,.17,.95-.1,.01-.37-.39-.52,.06,.08-.08,.14-.05,.22-1.06-.48-.22,.46-1.69,.06l.09-.11c-.56,0-1.09,.11-1.69,0-.21-.3,.61-.04,.67-.26-.83-.09-1.73,.27-2.43-.16,.36,0,.87,.1,1.23,.08-.76-.45-.86-.4-1.44-.57l.06,.02c-.44-.16-.88-.32-1.29-.51l.31,.18c-.59,.19-1.12,.04-1.64-.19-.54-.22-1.05-.54-1.77-.74,1.38,.37,.32-.09,.58-.28-.25-.25-.58-.64-.42-.61-.63-.2-.63-.75-1.39-1.2,.04-.08-.32-.55-.05-.55-.42-.62-.07,.24-.19,.25-.46-.44-.66-1.18-.68-1.95-.02-.78,.1-1.55,.17-2.44,.18-.73,.32-1.2,.5-1.64,.18-.44,.4-.88,.96-1.43,.51-.19-.12,.53-.1,.55,.71-.41,1.19-.76,1.85-1.18-.1,.15,.07,.13,.33,.14,.55-.24,.25-.5,1.08-.61-.1,.15-.22,.37-.46,.56,.63-.31,1.28-.67,2.02-.87,.22,.13-.41,.33-.64,.49,.79-.27,2.11-.4,2.38-.65-.18-.04-.37-.06-.55-.09,.31-.03,.16,.22-.06,.28-.7,.24-1.04,0-1.11-.1l.53-.12c-.31-.26-.87-.17-1.46,.05-.59,.23-1.2,.57-1.7,.77l.28-.56c-.32,.25-.63,.49-.91,.77-.26,0-.53-.12-.05-.42-.42,.08-.56,.21-.68,.33-.12,.12-.25,.2-.6,.33-.08,.02-.07-.02-.02-.08-.2,.19-.39,.38-.56,.6,.06-.17-.3-.13,.13-.42-.65,.39-1.04,.9-1.26,1.34-.25,.43-.35,.78-.62,.96l.03-.13c-.38,.99-.24,1.07-.16,1.09,.12,.02,.21-.01,.25,.72-.31,.26-.59,.58-.85,.93l.31,.2c-.02,.21,.01,.63-.12,.56,.3,.76,.12-.15,.36,.27-.04,.51,.16,1.19,.45,1.7,.26,.53,.54,.93,.42,1.17,.4,.15-.43-.87,.34-.12-.13,.29,.12,.51,.42,.75,.33,.23,.72,.45,1.03,.81-.39,.06-1.01-.61-.41,.16,.69-.02,1.49,1.08,2.28,1.29,.16-.3,1.63,.48,2.93,.6-.11,.14,2.34,.63,3.52,.84l-.04,.06c.26-.34,1.47-.18,2.36-.21-.05,.22-.21,.3-.7,.37l.83,.04c.2-.11,.46-.16,1-.18l-.22,.26c1.1,.03,2.23-.23,3.64,.02,.09-.25-1.1-.76,.41-.87,.05,.14,.09,.38-.3,.42,.13-.01,.46-.09,.72-.02l-.61,.21c.64,.13,.35-.18,.86-.14-.02,.2,.38,.16,.29,.31-.13,.01-.45-.1-.65-.03,.58,.06,1.28,.21,1.5,.37-.05-.11,.01-.27,.44-.27,1.1,.03,.37,.25,1,.38,.27-.13,.97,.05,1-.25,.32,.02,.38,.16,.5,.24,.58-.11,2.66,.08,2.04-.26l-.15-.03h.09c1.88-.22,3.87,.33,5.73,.28v.1c1.1-.06,2.46,.04,3.26-.14,.33,.01,.76,.21,.62,.33,.85-.04,.95-.14,2.16,.07-.86,.13,.29,.17-.88,.09,1.1,.13,1.34,.3,2.53,.09-.41,.24,.81,.35,1.34,.3l-.76-.21c.59-.01,1.1,.03,1.62,.08l-.3,.32c2.23,.5,4.09-.51,5.77,.24,.61-.21-1.21-.22-.67-.47,1.03,.09,2.09,.61,2.41,.63,1.41,.25,1.34-.43,2.82-.24-.18-.13-.35-.45,.76-.51,1.03,.09,1.25,.55,.59,.62-.25,0-.37-.04-.35-.08-.34,.03-.78,.06-.37,.21l.14-.11c.51,.14,1.93,.19,1.59,.37,.79-.08,.34-.18-.23-.27,1.32,.23,2.08,.1,3.44,.27-.21-.07-.41-.22-.19-.21,2,.24,.89-.19,2.25-.18,.76,.21-.3,.42,1.08,.33,.83,.16,.16,.32-.17,.4,1.26-.17,2.32,.25,3.03,.33l-.66,.07c.4-.04,.72-.02,1.04,0l-.36-.25c.38,.06,.71,.07,.7,.17,.4-.14-.29-.41,.51-.59,.51,.14,1.57-.06,1.73,.26-1.61-.18,.16,.32-1.21,.31,.27-.03,.59-.01,.97,.05,.06,.04-.06,.06-.16,.08,1.53,.35,.73-.32,2.33-.25-.21,.17,.36,.35,.62,.33-.65-.03-.3-.31,.3-.42,1.02,.18,1.12-.05,1.66-.01l-.61-.09c.22-.17,.73-.12,1.45-.15,.06,.14-.65,.07-.4,.14,.81-.28,1.78,.4,2.9,.24,.51,.14,.04,.34,.48,.44,1.25-.18,1.34,.3,2.65,.17-.37-.25-.43-.2,.5-.39l-2.16,.07,1.39-.29c-.65-.03-1.37,.09-1.76,.03,.67-.17,.6-.11,.29-.32,.87,.4,1.77-.13,2.78,.16l-.06,.59c1.53,.33,2.75-.18,4.75,.05l-.64-.13c.28-.22,1.24,.02,1.89-.04-.07,.19,.33,.28,.6,.42-.03-.15,1.46,.08,1.66-.31l.88,.3c1.61,.18,1.87-.48,3.42-.35-.48,.19,.22,.36-.83,.47,.52,.02,.98,.08,1-.05,.3,.14,1.45-.2,1.92,0,.22-.08,.3-.28,.88-.24,.06,.04,0,.1,0,.1,0-.1,.92-.09,.42-.33,1.57,.69,4.47,.15,5.84,.74,1.14-.02,2.5-.02,3.53,.01-.07,.06,0,.1-.2,.07,1.41,.25,.9-.53,2.5-.25,.81,.36-.86,.13-.36,.28,.2,.66,1.95,0,3.02,.42l-.26,.03c.82,.26,2.04-.16,3.39-.05,0,0-.07,.05-.01,.1,.94-.29,2.7-.32,4.01-.36-.42,.24-.6,.11-.36,.38,.59-.01-.15-.42,1.02-.44,.37,.16,1.21,.31,1.31,.59l-1.1-.03c.55,.38,1.43,.05,2,.14l-.08,.15c1.69,.02,1.73-.37,3.54-.26l-.18-.13c1.01-.35,.82,.26,1.82,0l.28,.41c.66-.07,2.31-.28,3.48-.3-.68,.26-2.06,.35-2.91,.49,.65,.03,2.2,.07,2.55-.11-.26,.03-.6,.11-.85,.04,.81-.28,1.86-.38,3.15-.32-.26,.75,3.36,.34,4.27,.98,1.18-.09,2.36-.05,3.63-.15,.64-.05,1.3-.13,2-.33,.69-.2,1.45-.51,2.13-1.16-.34,.13-.46,.09-.45,.05,0-.05,.12-.15,.26-.29,.29-.25,.56-.72,.24-.78,.36-.67,.37-.99,.42-1.04,.26-.77,.17-1.58,.02-2.28-.03-.55,.38,.59,.47,.51-.24-.81-.28-.95-.24-1.08,.03-.12,.1-.2-.05-.68-.1,.27-.52-.29-.85-1.05l.32,1.14c-.62-.8-.73-1.22-.86-1.65-.11-.44-.26-.88-.98-1.6l.52,.41c-.65-.81-2.37-3.02-3.44-3.36-.07-.18-.13-.46,.22-.18-1.67-1.82-4.37-3.19-5.74-4.47l.23-.02c-.4-.22-.81-.2-1.19-.64,.06-.04,.23-.03,.06-.15-.22-.1-1.15-.4-1.61-.79l.52,.12c-1.93-1.37-3.34-1.41-5.15-2.11,.19-.4-1.45-1.25-2.27-1.68l.05-.05c-2.54-1.03-4.48-1.25-6.93-1.73-.68-.47-1.95-.81-3.35-1.14-1.39-.37-2.93-.61-4.14-.95,.36,.14-.12,.33-.56,.3-.56-.2-1.64,.06-1.49-.32l.21,.03c-.38-.45-1.59-.49-2.53-.62l-.21,.51c-1.17-.54-2.79-.57-4.25-.62-1.47-.02-2.79,.03-3.45-.36-.6,.1-1.33,.07-1.91,.2l.04-.28c-1.63-.08-2.46-.18-4.48-.08l.41-.21c-1.14,0-1.43,.83-2.48,.86l-.32-.42c-1.98,.07-4.01-.26-5.95,.24,.03-.06,.08-.19,.4-.22-.93,.04-3.63-.09-3.25,.47-.05-.38-2.04,.11-3.09,.35l.15-.29c-.87,.42-.89,.52-2.14,.72-.3-.01-.28-.2,.12-.16-1-.06-.75,.33-1.96,.28l.43-.21c-1.02,.06-.93,.15-1.47,.41-.63,.17-1.94,.11-2.11-.13-.12,.17-.66,.42-1.27,.41-.09-.09,.12-.17,.23-.21-1.72-.03-2.5,.57-3.69,.41-.03-.09-.11-.13-.21-.15,1.35-.13,2.44-.22,2.34-.19-.02-.26-1.12-.19-.29-.63-.86,.28-2.31,.85-3.39,.83-.05-.02-.11-.04-.15-.07l.11-.04c-.25,0-.46,.05-.67,.11-.34,0-.56-.02-.89,.01-.15-.2-1.26,.01-1.8,.06,.07,.28-.64,.3,.05,.47-.09-.01,.1-.04,.46-.09,.08-.02,.18-.03,.23-.05l-.03,.03c.36-.04,.82-.09,1.35-.15-.41,.19-.85,.35-1.47,.26-.26,.21-.55,.42-.71,.53-.78-.32-2.24-.38-2.46-.6-1.64,.32-3.9,.5-4.89,1.13-.46,.12-.56-.1-.74-.16,.27-.08,.59-.1,.73-.2-.93,.23-2.79,.33-2.98,.72-1.21-.05,.63-.41-.99-.18l.21-.13c-3.27-.26-5.13,1.46-8.77,1.07,.25,.02,.38,.03,.43,.09-4.09,.08-8.34,1.16-12.4,1.03-1.15,0-1.25,.26-1.93,.5l-.28-.28-1.15,.47c-1.66,.42-2.99-.44-5.08,.25l.3,.17c-.77,.04-2.42,.36-2.31,.12-.07,.04-.23,.24-.54,.16l-.04-.15-1.86,.46c-1.47,.03,.17-.65-1.97-.46-.79,.14-2.21,.69-1.9,.76,.32-.02,.83,.02,.87,.17l-.72,.15c-.08,.48-.59,1.01,1.22,1.15l1.21-.41,.42,.18-1.04,.12c.61,.15,.97-.07,1.38-.24,.11,.11,.29,.18,.54,.2l1.17-.57c.17,.17-.51,.41,.32,.43,.55-.26-.59-.35,.34-.58,.61,.15,.46,.34,1.14,.09,.11,.11-.03,.2-.3,.28,.6-.21,1.63-.23,1.93-.5,.64,.2,2.08-.28,2.07,.17,.18-.12,1.06-.45,1.62-.53-.99,.63,2.13-.18,1.91,.41,.72-.55,2.76-.49,4.09-.89-.07,.05-.21,.14-.34,.12,.77-.04,1.01,.08,1.51,.12,.06-.4,1.24-.61,1.86-.91,.98,.28-.52,.52-.19,.85-.08-.31,1.6-.48,1.25-.71,.74,.16,.63,.05,1.03,.34,.08-.5,.66-.15,1.23-.51,1.06,.14,.31,.43,1.44,.17,.56,.09-.44,.37-.44,.37Zm27.07-3.58h0l-.56,.08,.56-.08Zm2.28-.23c-.28,.02-.62,.05-.99,.09-.09-.09-.01-.2,.22-.21-.12,.08,.43,.08,.77,.13Zm-5.02-1.46c.36-.08,.48-.03,.54,.02l-.63,.1-.04,.04c.03-.06,.06-.11,.13-.15Z"/><path class="e" d="M115.9,123.8c-.05,.01-.08,.03-.15,.04,.08,.02,.15,.03,.22,.04l.12-.1-.19,.02Z"/><path class="e" d="M83.68,144.15h.05s-.08-.02-.1-.04c.03,.02,.03,.02,.05,.04Z"/><polygon class="e" points="153.02 123.92 153.02 123.85 152.82 123.9 153.02 123.92"/><path class="e" d="M71.11,142.61s-.07-.05-.16-.08c0,.02,.08,.05,.16,.08Z"/><path class="e" d="M65.81,141.86l-.69-.28c.3,.14,.52,.22,.69,.28Z"/><path class="e" d="M62.18,140.28c-.07,.02-.1,.04-.13,.06h0l.12-.06Z"/><path class="e" d="M128.13,144.61c.06,0,.11,0,.16,0,.38-.04,.12-.03-.16,0Z"/><path class="e" d="M108.27,144.39c.21-.04,.42-.08,.64-.1-.35-.04-.63-.05-.64,.1Z"/><path class="e" d="M150.29,145.24h0Z"/><path class="e" d="M109.83,144.33c-.35-.07-.65-.07-.92-.05,.29,.03,.63,.08,.92,.05Z"/><path class="e" d="M66.72,129.73h.19s0-.03,.02-.04l-.21,.04Z"/><path class="e" d="M66.93,129.69l.21-.04c-.1,0-.18,0-.21,.04Z"/><path class="e" d="M67.58,129.58c-.15,.02-.3,.03-.44,.06,.15,0,.34,.02,.44-.06Z"/><path class="e" d="M61.84,131.1v.12s.02-.08,0-.12Z"/><path class="e" d="M60.72,132.09c.25-.26,.78-.45,1.14-.78v-.09c-.11,.24-1.05,.47-1.14,.88Z"/><path class="e" d="M58.73,138.32c-.2-.47-.35-.96-.42-1.46-.05,.28-.11,.68-.29-.02,.07,1.01,.17,.89,.2,.77,.08-.13,.12-.21,.51,.7Z"/><path class="e" d="M61.89,141.73c-.72-.37-.07,.15-.14,.18,.51,.15,.63,.18,.14-.18Z"/><path class="e" d="M93.56,144.81l-.09,.25c.59-.01,0-.1,.09-.25Z"/><polygon class="e" points="99.67 143.75 99.1 143.57 98.82 143.79 99.67 143.75"/><polygon class="e" points="103.16 145.73 102.91 145.76 103.89 145.71 103.16 145.73"/><path class="e" d="M156.35,147.98l-.16-.32c-.4,.04-.5,.39,.16,.32Z"/><path class="e" d="M179.32,148.67c.24,.17,.88,.3,1.29,.16-.52-.04-1.02-.19-1.29-.16Z"/><polygon class="e" points="159.28 121.82 159.75 121.76 158.87 121.77 159.28 121.82"/></g></g><g><path class="d" d="M64.39,175.59c11.33-9.95,27.32-12.36,42.39-13.02,22.75-1,45.64,1.03,67.86,6.01,7.06,1.58,14.68,3.9,18.64,9.96,2.42,3.71,2.83,9.2-.42,12.22-1.49,1.38-3.49,2.04-5.45,2.55-7.01,1.81-14.41,2.1-21.55,.86-9.72-1.69-18.74-6.15-28.36-8.33-8.01-1.82-16.29-2.02-24.5-2.22-10.92-.26-21.85-.53-32.77-.79-3.88-.09-7.98-.26-11.22-2.39s-5.01-6.98-2.56-9.99"/><g><path class="e" d="M66.96,170.87c.03-.17-.19-.23-.37,.11,.04,.14,.08,.27,.13,.39l.25-.5Z"/><path class="e" d="M65.41,172.99c.1,.52,.39,1.02,.69,.74-.28-.44-.18-.53-.44-1.07,.02-.41,.3-.63,.38-.53-.05-.17,.28-.51,.2-.79-.48,.31-.73,1.01-.62,1.71-.08,.14-.16-.01-.22-.06Z"/><path class="e" d="M100.48,183.78l-.26-.05c.07,.02,.16,.04,.26,.05Z"/><path class="e" d="M125.59,184.79c-.19,0-.27,.02-.28,.05,.18,0,.32-.02,.28-.05Z"/><path class="e" d="M129.8,185.56l-.25-.05c.09,.04,.18,.07,.25,.05Z"/><path class="e" d="M100.48,183.78l.67,.12c.05-.11-.34-.09-.67-.12Z"/><path class="e" d="M67.5,177.78c-.08-.1-.17-.17-.26-.23l.2,.24s.03-.01,.05-.01Z"/><path class="e" d="M89.39,183.78h-.2c-.06,.03-.12,.08-.17,.13l.38-.13Z"/><path class="e" d="M80.87,183.62c.19,.02,.27-.26,.34-.38-.11,.11-.26,.16-.42,.18,0,.05,.02,.12,.08,.2Z"/><path class="e" d="M67.87,179.91l-.21-.14,.21,.14Z"/><path class="e" d="M95.47,183.99s.04,.08,.08,.1c0-.04-.03-.07-.08-.1Z"/><path class="e" d="M73.14,171.23s-.02-.03-.02-.04c-.03,.05-.03,.07,.02,.04Z"/><path class="e" d="M64.34,175.54l.1-.1s-.05-.1-.08-.14l-.02,.24Z"/><path class="e" d="M137.36,187.22h-.03c-.2-.03-.09,0,.03,0Z"/><path class="e" d="M193.13,176.41c.37,.81-1.16-.86-.53,.3,0-.17,1.11,.62,.53-.3Z"/><path class="e" d="M67.59,177.96l.2,.25c-.08-.12-.14-.19-.2-.25Z"/><path class="e" d="M192.6,176.71h0l.07,.12-.06-.12Z"/><path class="e" d="M154.57,192.44c-.02-.06-.08-.12-.14-.18,0,.03,.03,.08,.14,.18Z"/><path class="e" d="M141.9,187.83l.31,.13c-.12-.06-.22-.1-.31-.13Z"/><path class="e" d="M161.47,194.05c.17,.07,.22,.12,.48,.14-.02-.02-.04-.04-.07-.05-.1,.02-.22,0-.41-.09Z"/><path class="e" d="M168.74,195.39s-.09-.05-.13-.07h-.23l.36,.07Z"/><path class="e" d="M93.82,164.9c-.17-.06-.28-.13-.37-.2,.14,.18-.9,.4,.37,.2Z"/><path class="e" d="M67.37,177.87c.08,0,.14,.02,.21,.09-.05-.06-.09-.12-.14-.17-.04,0-.08,.03-.07,.08Z"/><path class="e" d="M162.29,191.97c.36,.11,.73,.2,1.09,.3-.3-.1-.7-.19-1.09-.3Z"/><path class="e" d="M145.74,164.96h-.27c.1,.02,.19,.02,.27,0Z"/><path class="e" d="M166.68,192.87c.18,.13,.39,.22,.6,.29,.05-.01,.1-.02,.14-.05l-.74-.24Z"/><path class="e" d="M93.45,164.69h0Z"/><path class="e" d="M86.2,166.75c1.05-.25,.41-.47,.59-.73,1.24-.39,.65,.14,1.12,.23,.77-.26,1.31-.71,1.91-.82,.06,.05,.17,.05,.05,.15,.8-.43,2.5-.46,3.45-.96,.08,.02,.12,.05,.14,.07-.19-.16-.24-.34-.23-.48,.49-.07,.87-.36,1.09-.14-.3,.03-.31,.13-.44,.23l.5-.18c.51,.28-.68,.22-.64,.47,.98-.25,2.1-.7,2.88-.68,.2,.32-1.78,.31-.72,.5-.4,0-.8,.01-1.2,.03,.97,.41-.72,.06,.18,.52,1.55-.11,1.71-.38,3.27-.46,.33-.23-.14-.26,.19-.49,2.19-.53,1.81,.69,3.4,.11,.4-.25,.54-.69,1.72-.55l-.37,.41c1.51-.07,.83-.61,2.44-.44-.27,.17-1.19,.19-.95,.22,1.05,.25,.72-.26,1.51-.3l.18,.33c1.61-.13,3.39-.43,5.18-.55-.1,.1-.4,.22,.02,.31,2.26-.22,4.83-.05,7.01,.16l.83-.3c.19,0,.36,.13,.15,.19,.85,.12,.05-.19,.45-.3,.48-.01,.64,.18,.33,.26,1.5-.23,4.29-.48,5.86-.1l-.31,.08c1.23,.16,1.41-.56,2.54-.25l-.22,.04c2.67,.24,5.64,.13,7.64,.72,.42-.41,2.62,.39,2.84-.19,1.5,.42,1.06,.47,3.18,.87,.57,.08,.89-.28,1.6-.28v.31l.98-.23,.47,.42h.67c-.26-.06-.55-.21-.5-.29,1.05-.02,2.5,.5,2.5,.66,.82,0,1.65,0,2.47,.03-.07,.12-.48,.1-.82,.14,1.34-.15,.2,.35,1.42,.22-.15-.09,.11-.17,.14-.23,.57,.26,1.92,.44,2.93,.5l-.22,.18c1.79,.33,3.82,.44,5.84,.79-.71-.22-.48-.55,.11-.49l.18,.36c.42-.14-.6-.22,.23-.34,.75,.16,.45,.45,0,.48l.94,.04c.04,.1-.19,.12-.26,.23,.41-.14,1.53,.58,2.13,.34l.03,.1c2.01,.37,2.95,.4,4.58,.72,.09-.27,.71-.08,1.24-.21,1.19,.32,2.47,.81,3.92,1.11,1.04,.08,.35-.17,.84-.23,.02,.27,1.47,.55,.68,.57,1.73,.35,2.21,.43,4.41,.8-.21-.16-.46-.28-.3-.32,.4,.06,.86,.35,.77,.45h-.11c1.25,.14,2.57,.76,3.77,1.39,1.21,.63,2.28,1.3,3.26,1.5l-.11-.02c.62,.23,1.26,.46,1.87,.75,.75,.53-.56-.13-.08,.36,2.03,.83,2.63,2.03,3.96,3.12,.09,.37,.29,.79,.55,1.24,.29,.45,.58,.91,.87,1.44,.58,1.03,.99,2.26,.87,3.13l.16-.12c.23,.42-.03,.55-.04,.86,.14-.05,.11-.49,.24-.22,.29,1.87-.19,3.91-1.42,5.23-1.2,1.34-3.1,1.92-5.1,2.38-1.49,.32-.62,1.13-2.63,1.13l.47-.44c-2.98,1.07-6.29,1.05-9.33,1.45,.18-.08,.18-.18,.48-.19-.65-.21-2.39,.02-2.4,.21-.48-.03-.11-.18-.4-.29-.64-.15-1.64,.25-1.97-.01-.06-.04,.19-.07,.31-.08-.43,.11-1.96-.17-1.58,.14-1.13-.23-2.21-.11-3.09-.4-.64,.22-1.92-.47-2.18-.09,.16-.41-1.91-.76-2.67-.73,.27-.07-.58-.3-.26-.41-.81-.2-1.57-.31-1.49-.05-1.34-.93-3.12-.44-3.75-1.37-2.46-.52-4.72-1.13-6.9-1.76,.22-.4,2.39,.77,2.45,.29-2.1-.52-3.4-.56-5.4-1.35-.51-.24,.36-.08,.56-.1-2.11-.51-3.97-1.35-5.91-1.65,.02-.04,.23-.02,.43,0-.37-.09-.83-.31-.85-.1l.37,.05c.5,.45-1.62,.19-1.73,.33,.78-.41-1.81-.62-.63-1.08-.26-.02-.59,0-.56,.14-.35-.13-.45-.23-.04-.3-1.36-.22-.93,.11-2.15-.15,.02-.1,.28-.08,.43-.17-.66,.05-1.31,.12-2.32-.15,.07-.05-.03-.15,.27-.09-1.78-.29-3.1,0-5.02-.42,.63-.36-.65-.22-.71-.6h-1.07l.4,.22c-.92-.1-1.76,.1-2.54-.09l.7-.1-1.73-.06,.97,.22c-.95,.12,.06,.47-1.15,.28,.25-.02-.92-.07-1.38-.32h0c-.46,.09-.94,.19-1.61,.06-.17-.13,.16-.41,.05-.49-.46,.29-2.16-.01-2.74,.3,.19-.07,.21-.27,.15-.31l-.39,.24c-.42-.1-.48-.14-.41-.29-1.28-.09,.39,.49-1.12,.23,.12-.02,.06-.06,.31-.09-1.53-.15-2.96,.08-4.36-.08-.4-.39,1.23-.06,.76-.39-2.02,.02-4.2,.35-6.15,.21l.36,.05c-.28,.52-1.45-.3-2.45-.07,.24-.03,.32-.29,.26-.23-1.34-.12-2.74,.06-4.78,.18l.25-.13c-.79-.14-2.08-.12-2.93-.2-.26,.13-.74,.1-.45,.3-2.61-.84-5.03,.29-7.35-.41,.28,0,.67-.1,.45-.11l-1.99,.08c.15,.23,.26,.15,.67,.34-.25,.13-.82,.22-1.31,.21,.9-.13,0-.37-.38-.51,.06,.07-.07,.15-.04,.22-1.03-.44-.19,.46-1.6,.15l.08-.12c-.53,.05-1.02,.2-1.6,.15-.23-.27,.57-.11,.61-.33-.8,0-1.6,.47-2.32,.18,.34-.07,.83-.06,1.18-.12-.78-.33-.88-.26-1.47-.32h.06l-1.36-.17,.34,.09c-1.02,.67-2.05,.08-3.42,.49,1.33-.39,.22-.24,.34-.54-.34-.09-.86-.21-.7-.29-.65,.22-1.04-.24-1.94,.04-.03-.1-.67-.07-.5-.3-.81-.02,.17,.19,.09,.3-1.31,.2-2.83-.76-4.58-.95-.74-.18-1.2-.28-1.65-.38-.45-.12-.89-.23-1.52-.64-.27-.44,.53,0,.54-.03-.52-.58-.94-.95-1.48-1.46,.16,.06,.12-.1,.07-.34-.33-.46-.54-.1-.79-.85,.16,.06,.38,.13,.62,.29-.42-.5-.89-1.02-1.19-1.67,.11-.23,.36,.32,.58,.49-.4-.66-.68-1.83-.96-2.06l-.03,.52c-.05-.29,.21-.18,.29,.02,.33,.6,.13,.95,.06,1.02-.08-.15-.14-.31-.2-.47-.22,.32-.05,.85,.28,1.34,.31,.51,.79,.97,1.06,1.4l-.59-.13c.29,.25,.6,.47,.91,.67,.06,.24-.01,.53-.39,.15,.35,.73,.55,.42,.87,1.04,.03,.08,0,.07-.07,.03,.22,.14,.43,.28,.67,.39-.17-.02-.08,.32-.42-.03,1,1.08,2.04,.92,2.37,1.42l-.12-.02c1.82,.58,.29-.18,1.72-.06,.21,.34,.46,.65,.7,.98l.25-.25c.19,.05,.56,.16,.46,.26,.75-.07-.09-.15,.35-.27,.87,.47,2.54,.22,2.7,.72,.35-.2-.87-.26,.13-.33,.24,.54,1.14,0,1.97,.26-.27,.26-1.07,.08-.23,.36,.53-.43,1.65,.15,2.36,.08,.04-.36,1.55-.11,2.74-.21-.08,.12,2.24,.25,3.34,.41l-.03,.06c.22-.36,1.37-.26,2.2-.32-.04,.22-.19,.3-.64,.39l.78,.02c.19-.11,.43-.17,.94-.2l-.2,.27c1.04,.01,2.11-.27,3.44-.06,.08-.25-1.05-.74,.37-.88,.05,.14,.1,.38-.28,.43,.12-.01,.44-.1,.68-.04l-.57,.22c.61,.12,.32-.19,.81-.15-.01,.2,.36,.15,.28,.3-.12,.02-.42-.09-.61-.02,.55,.05,1.21,.18,1.43,.34-.05-.11,0-.27,.41-.28,1.04,.01,.35,.25,.96,.36,.26-.13,.92,.03,.94-.27,.3,0,.36,.15,.47,.23,.54-.12,2.52,.02,1.92-.3l-.14-.02h.09c1.77-.26,3.67,.25,5.42,.16v.1c1.04-.09,2.33-.01,3.08-.2,.31,0,.73,.2,.59,.31,.8-.05,.89-.16,2.05,.03-.81,.15,.27,.16-.83,.11,1.04,.11,1.27,.27,2.39,.03-.39,.24,.77,.34,1.27,.27l-.72-.2c.56-.02,1.04,.01,1.53,.05l-.27,.33c2.11,.46,3.85-.58,5.44,.16,.57-.21-1.14-.21-.63-.46,.98,.08,1.97,.61,2.27,.62,1.32,.25,1.27-.42,2.65-.21-.17-.13-.32-.46,.73-.5,.97,.12,1.16,.59,.54,.64-.23,0-.34-.06-.33-.09-.32,.02-.73,.04-.36,.2l.13-.11c.47,.16,1.81,.25,1.48,.42,.74-.05,.33-.17-.21-.27,1.23,.28,1.94,.18,3.2,.44-.19-.09-.37-.25-.16-.22,1.85,.37,.85-.13,2.12-.01,.69,.28-.32,.39,.97,.43,.75,.23,.11,.34-.2,.39,1.18-.05,2.12,.5,2.75,.66l-.61-.02c.37,.01,.66,.07,.96,.13l-.3-.3c.34,.11,.64,.16,.62,.26,.39-.08-.2-.45,.56-.5,.44,.22,1.46,.18,1.55,.53-1.44-.45,.09,.34-1.16,.11,.25,.02,.54,.07,.88,.2,.04,.05-.06,.05-.16,.05,1.33,.62,.72-.2,2.17,.18-.23,.12,.25,.42,.49,.44-.58-.16-.2-.36,.37-.35,.89,.38,1.03,.19,1.51,.34l-.53-.22c.24-.12,.69,.04,1.36,.18,.02,.15-.61-.08-.4,.04,.81-.08,1.52,.8,2.57,.92,.42,.26-.06,.33,.32,.54,1.18,.14,1.12,.63,2.35,.84-.26-.34-.34-.31,.56-.25l-1.97-.49,1.34,.09c-.58-.2-1.27-.27-1.6-.42,.65,0,.57,.05,.35-.23,.68,.61,1.64,.33,2.48,.87l-.22,.55c1.29,.72,2.55,.55,4.3,1.3l-.54-.29c.32-.14,1.12,.35,1.73,.45-.12,.17,.23,.36,.44,.56,.01-.15,1.32,.44,1.61,.12l.73,.5c1.45,.55,1.84-.03,3.25,.43-.49,.09,.13,.4-.87,.28,.48,.14,.9,.29,.94,.16,.25,.2,1.4,.08,1.79,.38,.22-.03,.34-.22,.88-.08,.05,.05-.02,.09-.02,.09,.02-.09,.88,.06,.45-.26,1.36,.96,4.18,.77,5.43,1.42,1.09,.05,2.39,.11,3.38,.13-.07,.06,0,.1-.19,.07,1.35,.25,.85-.53,2.38-.29,.78,.32-.82,.17-.33,.29,.21,.66,1.86-.08,2.91,.25l-.25,.05c.81,.19,1.93-.34,3.23-.42,0,0-.06,.06,0,.1,.86-.41,2.5-.73,3.71-1.04-.34,.31-.54,.22-.26,.44,.55-.13-.23-.37,.85-.65,.38,.08,1.19,.04,1.35,.28-.34,.08-.69,.15-1.03,.22,.6,.26,1.34-.29,1.9-.34l-.04,.17c1.57-.44,1.49-.78,3.18-1.29l-.21-.05c.77-.68,.84-.05,1.62-.71l.44,.22c.57-.36,1.83-1.5,2.46-2.47-.1,.33-.36,.81-.73,1.23-.36,.43-.8,.81-1.14,1.1,.29-.16,.78-.48,1.18-.85,.41-.36,.7-.78,.75-.97-.16,.22-.32,.55-.58,.68,.41-.8,.99-1.65,1.52-2.81,.3,.27,.74-.5,.98-1.49,.27-.99,.31-2.14,.58-2.64-.18-1.18-.35-2.32-.67-3.5-.31-1.16-.79-2.39-1.6-3.5,.06,1.11-.47-.63-.87-.13-.38-.48-.55-.63-.55-.7-.29-.56-.63-1.09-1-1.61-.19-.44,.51,.32,.57,.18-.95-1-.22-.61-.81-1.33,0,.3-.55-.1-1.13-.63,.24,.28,.46,.6,.68,.91-1.66-.93-.98-1.45-2.78-2.23l.61,.16c-.87-.47-3.18-1.78-4.25-1.66-.13-.13-.27-.38,.14-.25-2.11-1-4.94-1.22-6.55-1.95l.2-.1c-.42-.07-.78,.08-1.25-.19,.04-.05,.2-.1,.01-.16-.23,0-1.14-.01-1.66-.22l.5-.06c-2.09-.68-3.35-.31-5.15-.6,.1-.43-1.55-.9-2.38-1.14l.04-.06c-2.47-.56-4.3-.44-6.63-.68-1.35-.71-4.83-1-7.1-1.58,.34,.13-.11,.33-.52,.31-.53-.17-1.54,.1-1.4-.29l.19,.03c-.36-.45-1.49-.49-2.36-.61l-.21,.51c-2.19-1.05-6.02-.41-7.2-1.21-.57,.08-1.25,0-1.81,.09l.05-.28c-1.53-.21-2.29-.3-4.2-.38l.4-.17c-1.07-.11-1.41,.72-2.4,.67l-.27-.44c-1.87-.12-3.74-.59-5.61-.29,.03-.06,.09-.18,.4-.18-.88-.07-3.4-.42-3.1,.17,0-.38-1.93-.1-2.94,.04l.16-.28c-.86,.34-.89,.44-2.08,.52-.28-.04-.24-.23,.13-.15-.94-.16-.74,.25-1.87,.09l.43-.17c-.97-.04-.89,.06-1.42,.27-.61,.11-1.83-.07-1.98-.32-.13,.15-.66,.36-1.23,.29-.08-.1,.13-.15,.23-.18-1.62-.18-2.4,.36-3.51,.1-.03-.09-.1-.14-.19-.16,1.28-.02,2.32-.02,2.22,0,0-.26-1.04-.28-.22-.65-.83,.21-2.25,.66-3.26,.56-.05-.02-.1-.05-.14-.09l.1-.03c-.23-.02-.44,.01-.64,.06-.32-.03-.53-.05-.84-.05-.13-.21-1.2-.07-1.71-.06,.05,.28-.63,.26,.02,.47-.08-.02,.1-.04,.44-.06,.08-.01,.17-.02,.22-.04l-.03,.03,1.28-.06c-.4,.16-.83,.29-1.4,.16-.26,.19-.54,.39-.7,.48-.72-.37-2.1-.51-2.3-.74-1.57,.23-3.72,.33-4.67,.93-.44,.11-.53-.11-.7-.17,.25-.08,.56-.1,.7-.18-.89,.22-2.66,.28-2.83,.68-1.14-.04,.6-.41-.94-.17l.2-.14c-3.14-.25-4.82,1.55-8.28,1.42,.24,0,.36,0,.42,.05-3.9,.4-7.71,2.08-11.47,2.96-1.06,.3-1.08,.56-1.63,.97l-.34-.19-.9,.79c-1.35,.87-2.86,.55-4.43,1.98l.33,.04c-.65,.35-1.92,1.32-1.94,1.05-.04,.07-.09,.3-.39,.37l-.11-.12-1.32,1.27c-.6,.36-.65,.2-.76,.1-.11-.1-.29-.16-1.09,.49-.56,.54-1.4,1.73-1.1,1.63,.24-.19,.67-.42,.79-.31l-.48,.5c.21,.43,.13,1.11,1.61,.32l.71-.95,.42-.05-.74,.62c.56-.17,.69-.56,.94-.88,.15,.04,.33,.02,.54-.08l.66-1.01c.21,.07-.2,.59,.47,.24,.31-.48-.64-.04,0-.66,.57-.14,.54,.11,.99-.39,.14,.05,.07,.19-.12,.37,.41-.42,1.26-.84,1.39-1.21,.61-.09,1.68-.98,1.83-.58,.11-.17,.73-.79,1.2-1.03-.65,.88,1.81-.79,1.81-.17,.44-.76,2.29-1.17,3.39-1.86-.05,.06-.16,.17-.28,.19,.69-.19,.93-.12,1.39-.18-.04-.39,.98-.86,1.5-1.24,.95,.12-.38,.59,0,.86-.14-.29,1.37-.72,1.01-.9,.71,.04,.59-.05,1,.17-.02-.51,.58-.25,1.05-.67,1,0,.35,.39,1.35-.01,.53,.03-.35,.42-.35,.42Zm25.24-3.59h0c-.22,.02-.41,.03-.53,.03l.53-.03Zm2.16-.05c-.26,0-.59,0-.94,0-.08-.1,0-.2,.22-.2-.12,.07,.39,.11,.72,.19Zm-4.64-1.83c.34-.05,.46,0,.51,.05l-.6,.06-.04,.04c.03-.05,.07-.11,.13-.15Z"/><path class="e" d="M108.35,161.68s-.08,.02-.14,.03c.07,.02,.14,.04,.21,.06l.12-.09h-.19Z"/><path class="e" d="M100.17,183.73h.05s-.07-.02-.09-.03c.03,.01,.03,.02,.05,.03Z"/><polygon class="e" points="143.34 164.85 143.34 164.78 143.15 164.83 143.34 164.85"/><path class="e" d="M88.27,182.47s-.07-.05-.15-.08c0,.02,.07,.05,.15,.08Z"/><path class="e" d="M83.11,182.28l-.73-.12c.31,.06,.54,.1,.73,.12Z"/><path class="e" d="M79.16,182.05c-.05,.05-.07,.08-.08,.12h0l.07-.12Z"/><path class="e" d="M142.17,185.95c.05,.01,.1,.03,.15,.03,.36,.05,.12,0-.15-.03Z"/><path class="e" d="M123.42,183.57c.2-.04,.4-.08,.61-.1-.33-.05-.59-.06-.61,.1Z"/><path class="e" d="M162.17,191.93h0l.12,.04-.12-.04Z"/><path class="e" d="M124.9,183.54c-.33-.08-.61-.09-.87-.06,.27,.04,.59,.09,.87,.06Z"/><path class="e" d="M66.28,174.88v-.17s-.04,0-.06-.01l.06,.18Z"/><path class="e" d="M66.22,174.7l-.06-.18c.01,.09,.02,.16,.06,.18Z"/><path class="e" d="M66.06,174.13c.02,.13,.06,.26,.11,.39-.02-.14-.03-.3-.11-.39Z"/><path class="e" d="M68.43,179.02l.11-.04s-.07,0-.11,.04Z"/><path class="e" d="M69.59,179.88c-.29-.21-.57-.66-.96-.93l-.09,.03c.25,.04,.65,.87,1.05,.9Z"/><path class="e" d="M75.4,183.03c-.45-.08-.89-.17-1.33-.28,.21,.15,.51,.35-.12,.26,1.66,.59-.31-.28,1.45,.02Z"/><path class="e" d="M79.58,183.45c-.72,.03,0,.16-.04,.22,.46-.09,.57-.11,.04-.22Z"/><path class="e" d="M109.52,184.18l-.08,.25c.55-.02,0-.1,.08-.25Z"/><polygon class="e" points="115.27 183 114.74 182.82 114.47 183.05 115.27 183"/><polygon class="e" points="118.59 184.92 118.35 184.95 119.27 184.89 118.59 184.92"/><path class="e" d="M167.4,195.47l-.12-.33c-.38,0-.52,.34,.12,.33Z"/><path class="e" d="M189.26,193.53c.28,.08,.93-.05,1.24-.35-.49,.18-1.01,.23-1.24,.35Z"/><polygon class="e" points="149.34 162.97 149.79 162.91 148.96 162.9 149.34 162.97"/></g></g><g><path class="e" d="M101.29,16.59c.46-.09,.2-.28-1.06-.24l-.89,.34,1.95-.1Z"/><path class="e" d="M92.8,16.19c-1.48,.23-3.16,.63-2.19,.87,1.44-.41,1.8-.29,3.37-.74,1.26-.09,2.2,.03,2,.16,.44-.1,1.96,.02,2.63-.2-1.64-.24-3.73-.18-5.89,.14-.47-.05-.02-.16,.08-.22Z"/><path class="e" d="M8.24,91.73l.28-.75c-.09,.2-.19,.46-.28,.75Z"/><path class="e" d="M7.01,168.07c-.08-.58-.15-.82-.18-.84,.09,.54,.17,.97,.18,.84Z"/><path class="e" d="M8.91,181.06l-.14-.76c.03,.3,.07,.59,.14,.76Z"/><path class="e" d="M8.24,91.73c-.23,.65-.47,1.29-.68,1.95,.06,.17,.36-1,.68-1.95Z"/><path class="e" d="M75.97,18.61c.42-.08,.77-.16,1.08-.24-.34,.06-.68,.12-1.02,.18-.02,.02-.03,.04-.06,.06Z"/><path class="e" d="M22.22,60.96l.3-.55c.05-.18,.1-.35,.13-.52l-.43,1.07Z"/><path class="e" d="M35.48,38.65c-.34,.48-.23,.81-.25,1.06,.09-.34,.29-.73,.57-1.17-.04-.04-.14-.01-.32,.1Z"/><path class="e" d="M70.07,18.42l.71-.16-.71,.16Z"/><path class="e" d="M13.7,77.46c-.06,.02-.13,.09-.19,.17,.03,.02,.1-.05,.19-.17Z"/><path class="e" d="M106.23,14.67s-.02-.03-.02-.05c-.14,.07-.18,.1,.02,.05Z"/><path class="e" d="M77.02,21.64l.4-.13c.03-.06,.06-.13,.04-.18l-.44,.31Z"/><path class="e" d="M15.79,204.15l-.04-.1c-.27-.58-.13-.24,.04,.1Z"/><path class="e" d="M209.64,247.49c-1.17,.46-.3-.06,.41-.56,.71-.49,1.28-.91-.43-.12,.37-.05-2.82,1.97,.02,.68Z"/><path class="e" d="M75.31,18.68l-1.04,.16c.48-.06,.8-.11,1.04-.16Z"/><path class="e" d="M209.62,246.81h0l-.35,.16,.35-.16Z"/><path class="e" d="M50.97,246.35c-.07-.1-.24-.25-.42-.41,0,.03,.09,.13,.42,.41Z"/><path class="e" d="M22.66,216.56l.5,.89c-.19-.36-.35-.65-.5-.89Z"/><path class="e" d="M70.66,254.95c.52,.2,.68,.3,1.41,.51-.06-.04-.12-.07-.21-.11-.27-.05-.62-.16-1.21-.4Z"/><path class="e" d="M92.17,260.68l-.39-.14-.69-.13,1.08,.26Z"/><path class="e" d="M171.7,7.35c-.44-.2-.71-.36-.91-.5,.28,.28-2.83-.46,.91,.5Z"/><path class="e" d="M75.94,18.46c-.12,.09-.3,.15-.63,.22l.72-.12c.06-.05,.07-.09-.09-.09Z"/><path class="e" d="M72.22,253.15c1.09,.41,2.2,.75,3.31,1.11-.92-.32-2.14-.68-3.31-1.11Z"/><path class="e" d="M268.74,124.02l-.29-.75c.09,.29,.19,.56,.29,.75Z"/><path class="e" d="M85.54,256.94c.58,.25,1.21,.46,1.87,.64,.15,.01,.31,.03,.41,.02-.77-.21-1.53-.43-2.29-.66Z"/><path class="e" d="M170.78,6.84s0,0,0,0c0,0,0,0,0,0Z"/><path class="e" d="M148.07,5.85c3.29-.2,1.53-.46,2.22-.71,3.95-.23,1.84,.22,3.18,.38,1.23-.08,2.32-.15,3.33-.22,1.01-.07,1.95-.13,2.86-.03,.13,.07,.49,.12,.06,.16,2.64-.21,7.66,.88,10.69,1.23,.21,.09,.31,.15,.36,.19-.43-.3-.46-.51-.33-.61,1.45,.37,2.75,.48,3.23,.85-.88-.24-.98-.16-1.42-.2l1.54,.3c.62,.4,.11,.22-.58,.07-.69-.16-1.55-.38-1.58-.25,.74,.17,1.52,.31,2.29,.51,.77,.21,1.54,.42,2.3,.62,1.52,.38,2.88,.95,3.96,1.4,.33,.47-5.13-1.85-2.33-.46-1.1-.48-2.24-.84-3.37-1.27,2.45,1.36-2.06-.71,.16,.62,1.11,.38,1.98,.67,2.72,.92,.74,.27,1.36,.49,1.98,.72,1.25,.41,2.46,.94,4.58,1.95,1.04,.28-.19-.42,.84-.11,1.53,.7,2.58,1.23,3.34,1.7,.75,.49,1.22,.88,1.65,1.24,.87,.7,1.52,1.31,3.73,2.43,1.21,.47,1.86,.41,4.66,2.59-.4-.14-.81-.25-1.21-.37,1.88,1.32,2.48,1.62,3.11,1.92,.63,.3,1.25,.66,3.09,2.24-.77-.41-2.96-2.09-2.44-1.63,2.31,2.13,1.9,1.16,3.81,2.63l.18,.58c3.89,3,8.16,6.36,12.27,9.96-.29-.13-1.06-.67-.18,.26,5.21,4.51,10.96,9.88,15.37,14.76,.65,.54,1.3,1.08,1.93,1.63,.39,.43,.63,.89,.17,.46,1.62,1.99,.23-.03,1.13,.82,.98,1.09,1.12,1.57,.46,.92,1.56,1.63,3.68,4.06,5.49,6.75,1.82,2.68,3.36,5.61,4.26,7.83l-.49-.8c1.53,3.39,2.37,3.54,3.52,6.83l-.31-.59c3.1,7.53,6.85,15.75,8.89,21.64,.85,.92,2.98,7.51,3.73,7.76,1.55,4.4,.95,3.22,3.3,9.33,.64,1.62,1.33,2.26,2.19,4.25l-.27,.16,1.35,2.61,.19,1.59,.75,1.87c-.25-.76-.44-1.65-.31-1.57,1.23,2.92,2.18,7.36,2.02,7.47,.38,1.17,.73,2.36,1.05,3.55l.84,3.6c-.15-.14-.43-1.35-.7-2.29,1.06,3.81-.17,.76,.78,4.25,0-.49,.21,.23,.29,.3,.02,.91,.15,2.38,.34,4,.18,1.62,.22,3.41,.37,4.92l-.25-.57c.18,5.46,.02,11.56-.98,17.65,.41-2.17,.72-1.62,.48,.19l-.46,.66c-.02,1.19,.48-1.84,.27,.57-.48,2.27-.66,1.45-.51,.14l-.42,2.77c-.13,.14-.05-.52-.14-.71,0,.29-.08,.73-.2,1.25-.14,.51-.33,1.11-.52,1.71-.37,1.22-.74,2.49-.78,3.35l-.13,.13c-.94,2.93-1.51,5.1-2.27,7.05l-1.05,2.94c-.42,.98-.85,2.01-1.34,3.16,.21,.2-.59,2-1.09,3.43-.88,1.64-1.77,3.38-2.87,5.11-.52,.88-1.06,1.78-1.61,2.7-.58,.9-1.16,1.82-1.76,2.76-1.56,2.72-.29,.91-.91,2.19-.35,.05-2.89,3.7-1.71,1.71-.77,1.09-1.37,2.02-1.97,2.8-.6,.79-1.15,1.51-1.72,2.26-1.1,1.53-2.45,3.1-4.59,5.74,.56-.48,1.14-1.08,.92-.7-.75,.98-1.98,1.99-1.94,1.79l.2-.25c-1.25,1.44-2.61,2.98-4.18,4.38-.78,.71-1.56,1.43-2.34,2.14-.81,.69-1.64,1.36-2.45,2.03-1.6,1.36-3.25,2.59-4.73,3.77-1.46,1.22-2.88,2.26-4,3.29l.25-.23c-1.59,1.37-3.28,2.62-4.94,3.91-2.4,1.63,1.31-1.16-.53-.06-2.7,2.06-4.95,3.53-7.15,4.79-2.17,1.31-4.28,2.41-6.66,3.91-2.09,.69-5.47,2.5-9.1,4.26-1.8,.91-3.69,1.74-5.44,2.54-1.77,.77-3.44,1.4-4.83,1.86l.38,.03c-1.33,.75-1.74,.59-2.79,.96,.2,.07,1.59-.44,.75-.01-11.84,4.87-25.11,8.7-38.05,9.78-2.36,.19-3.02,.43-3.84,.66-.82,.21-1.81,.42-4.82,.19,.57-.1,1.14-.22,1.7-.33-9.63,.51-19.65-1.5-29.11-2.66,.57,.01,.61-.08,1.52,.07-1.95-.55-7.35-1.19-7.42-1.01-1.46-.26-.31-.23-1.2-.48-1.97-.46-5.04-.56-6.06-.97-.17-.07,.57,.02,.94,.07-1.32-.09-6.01-1.14-4.83-.63-3.48-.79-6.72-1.22-9.46-2.01-1.88-.11-5.89-1.57-6.56-1.33,.18-.18-1.3-.69-3.1-1.19-1.78-.57-3.9-1.11-4.99-1.37,.75,.12-1.8-.77-.91-.66-2.43-.8-4.64-1.58-4.3-1.21-1.05-.56-2.14-1-3.2-1.45-1.05-.46-2.1-.86-3.08-1.24-1.95-.8-3.63-1.59-4.66-2.49-6.79-3.35-12.62-7.35-17.67-11.96,.25-.08,1.65,1.17,3.01,2.38,1.41,1.14,2.79,2.22,2.82,1.94-2.58-1.92-4.57-3.51-6.47-5.21-1.89-1.71-3.69-3.51-5.72-6.01-1-1.34,.73,.62,1.17,.98-4.38-4.77-7.55-9.96-10.6-14.85,.04,0,.39,.52,.7,1.01-.56-.99-1.22-2.34-1.34-2.13l.59,.94c.31,.87-.37-.04-1.17-1.19-.81-1.14-1.61-2.58-1.74-2.63,.7,.74,.09-.56-.44-1.74-.5-1.19-.89-2.27,.08-1.03-.35-.66-.82-1.48-.88-1.27-.43-1.03-.5-1.38,.11-.42-.91-1.82-1.2-2.42-1.5-2.95-.29-.54-.58-1.03-1.24-2.76,.1-.02,.39,.66,.65,.97-.45-.83-.84-1.68-1.29-2.69-.45-1-.89-2.18-1.34-3.68,.12,.16,.08-.21,.37,.68-1.72-5.08-3.23-8.61-4.32-14.43,.79,1.61-.28-2,.04-2.38-.25-1.03-.49-2.06-.7-3.09l.04,1.29c-.24-1.37-.53-2.65-.8-3.88-.24-1.24-.46-2.44-.58-3.63l.46,2.02c-.29-1.71-.56-3.43-.79-5.16l.24,2.95c-.56-2.77-.43,.37-.81-3.33,.12,.75-.33-2.77-.25-4.24h0c-.28-1.35-.5-2.76-.59-4.82,.07-.54,.45,.4,.5,.04-.43-1.33-.54-6.5-.94-8.21,.11,.57,.31,.59,.34,.4l-.31-1.13c.03-1.3,.06-1.49,.23-1.28-.1-3.89-.43,1.25-.39-3.37,.03,.36,.06,.19,.13,.94-.04-4.63-.37-8.95-.26-13.22,.37-1.26,.11,3.72,.42,2.28-.11-6.14-.44-12.73-.25-18.67l-.06,1.11c-.52-.84,.34-4.42,.29-7.41,0,.73,.24,.98,.19,.78,.16-2.02,.29-4.08,.54-6.39,.24-2.31,.6-4.87,1.33-7.85l-.06,.77c.68-2.28,1.87-5.98,2.89-8.35,.15-.76,.73-2.12,.21-1.36,1.87-3.54,3.41-7,4.93-10.37,1.52-3.37,3.04-6.63,4.98-9.61-.4,.75-.84,1.84-.52,1.25l2.74-5.38c-.43,.31-.5,.63-1.26,1.66,.24-.74,.96-2.29,1.69-3.6-1.18,2.45,.33,.16,1.02-.8-.16,.14-.03-.25-.14-.2,1.9-2.55-.15-.69,2.22-4.3v.26c.74-1.43,1.35-2.79,2.27-4.28,.6-.48-.77,1.54-.63,1.75,1.22-2.11,2.02-4.41,3.4-6.16-.48,.92-1.25,2.2-1.72,3.13,1.51-1.9,1.58-2.18,2.56-3.68l-.1,.15c.76-1.15,1.53-2.28,2.32-3.4l-.64,.83c1.07-2.94,3.3-5.25,5.57-8.68-2.19,3.37-.23,.67-.19,1.1,.71-.76,1.84-1.87,1.6-1.48,1.11-1.59,2.28-2.22,4.07-4.25,.14-.02,1.59-1.29,1.4-.82,1.91-1.57-.57,.22-.48,0,1.39-1.33,3.33-2.52,5.55-3.58,2.22-1.06,4.72-2,7.3-3.04,2.27-.78,3.63-1.25,4.94-1.7,1.32-.43,2.61-.84,4.81-1.33,1.52-.12-1.15,.58-1.15,.58,2.42-.32,4.23-.65,6.48-1.12-.45,.15,.04,.15,.75,.16,1.82-.29,1.17-.54,3.6-.71-.4,.16-.91,.4-1.77,.63,2.14-.39,4.25-.83,6.48-1.14,.61,.11-1.32,.4-2.1,.6,2.5-.38,6.5-.78,7.26-1.1l-1.63,.03c.92-.09,.49,.19-.18,.3-2.14,.39-3.12,.2-3.25,.1l1.59-.22c-1.7-.44-6.41,.75-9.6,1.2l1.28-.6-3.23,.83c-.71,0-1.23-.15,.34-.46-2.33,.16-2,.47-4.01,.59-.22,0-.13-.03,.07-.09l-2.21,.54c.42-.17-.43-.22,.96-.42-4.07,.52-6.36,1.69-7.92,1.8l.32-.12c-2.71,.85-2.8,1.01-2.74,1.08,.07,.09,.31,.13-1.62,1-.97,.09-1.95,.21-2.93,.37l-.39,.51c-.54,.23-1.59,.73-1.45,.52-1.84,1.2,.39-.06-.64,.71-1.31,.53-2.96,1.57-4.29,2.57-1.34,1-2.39,1.91-2.8,1.93-.61,.83,2.16-1.62,0,.47-1,.18-2.47,2.44-4.3,4.23,.3-.78,2.05-2.51,.15-.73-.7,1.45-3.26,3.83-4.42,5.69,.22,.28-2.54,3.98-4.3,7.16,0-.27-3.7,5.74-5.47,8.62v-.12c-.01,.75-1.79,3.74-2.94,6-.14-.19,0-.63,.58-1.88l-1.15,2.09c-.16,.55-.47,1.23-1.16,2.61l.04-.66c-1.49,2.8-2.71,5.79-4.71,9.36,.13,.32,2.09-2.57,.31,1.35-.2,.08-.48,.12-.02-.92-.15,.34-.49,1.23-.87,1.87l.56-1.65c-.92,1.62-.26,.96-.94,2.28-.16-.11-.61,.92-.66,.66,.15-.35,.65-1.13,.83-1.67-.78,1.49-1.77,3.26-2.19,3.8,.17-.08,.24,.11-.26,1.24-1.32,2.89-.68,.88-1.54,2.53-.2,.76-1.13,2.57-.87,2.74-.37,.86-.55,.97-.76,1.27-.26,.79-.94,2.59-1.41,4.01-.47,1.42-.72,2.44-.29,1.6l.15-.4-.07,.26h0c-.71,2.61-1.47,5.3-2.05,8.05-.57,2.74-.98,5.52-1.11,8.2l-.1-.02c-.13,3.2-.26,7.11-.08,9.38-.01,.94-.21,2.22-.32,1.82,.05,2.44,.15,2.71-.03,6.22-.16-2.45-.16,.84-.11-2.51-.1,3.16-.28,3.88,0,7.28-.25-1.16-.32,2.38-.23,3.89l.17-2.22c.05,1.69,.04,3.17,.03,4.67l-.34-.81c-.33,6.5,.94,11.67,.56,16.63,.32,1.7-.03-3.53,.33-2.01,.1,2.98-.13,6.11-.07,7.05,.17,4.1,.81,3.76,1.14,8.03,.07-.56,.29-1.1,.81,2.05,.32,2.96,.02,3.7-.36,1.85-.1-.71-.11-1.06-.06-1.03-.17-.95-.38-2.2-.35-1.01l.17,.37c.04,1.49,.69,5.56,.35,4.63,.45,2.22,.34,.93,.15-.74,.4,3.82,.96,5.92,1.64,9.82-.06-.63-.04-1.23,.08-.61,.52,2.85,.76,3.45,.92,3.83,.18,.37,.28,.53,.81,2.41,.39,2.2-.62-.66,.53,3.12,.57,2.35-.17,.58-.51-.32,.61,1.71,1.05,3.34,1.43,4.78,.41,1.44,.72,2.71,1.03,3.7l-.7-1.78c.4,1.07,.72,1.95,1.05,2.84l-.16-1.1c.35,1.06,.68,1.95,.58,1.97,.55,1.03,.06-.96,1.06,1.1,.41,1.44,1.83,4.14,1.74,4.74-1.7-4.37-.1,.61-1.66-3.05,.33,.7,.68,1.56,1.07,2.61,.03,.17-.12-.12-.25-.4,.74,2.13,1.09,2.55,1.41,2.99,.35,.43,.66,.9,1.73,2.97-.43-.45,.18,1.12,.56,1.78-.84-1.68-.14-.93,.75,.54,1.33,2.67,1.64,2.8,2.42,4.14-.3-.51-.56-1.05-.83-1.58,.43,.45,1.17,1.74,2.31,3.47-.02,.22-1.06-1.56-.73-.89,.73,.9,1.32,2.06,2.06,3.28,.71,1.23,1.47,2.57,2.53,3.79,.79,1.27-.18,.31,.53,1.42,1.17,1.38,1.79,2.14,2.36,2.98,.57,.83,1.21,1.64,2.56,3-.56-.98-.73-1.08,1.23,.75-1.43-1.51-2.9-2.99-4.22-4.6l1.4,1.44,1.46,1.38c-1.29-1.37-2.68-2.93-3.37-3.82,1.35,1.36,1.18,1.24,.77,.42,.67,1.11,1.5,2.08,2.46,3,.94,.93,1.89,1.92,2.87,3.04l-.49,.35c2.97,3.4,5.96,5.33,10.58,8.84l-1.46-1.17c.39,.13,1.12,.65,1.95,1.26,.42,.3,.86,.63,1.3,.95,.45,.29,.9,.57,1.31,.8-.26,.07,.7,.76,1.32,1.3,0-.1,.88,.52,1.9,1.03,1.01,.53,2.11,1.08,2.43,1.03,.7,.51,1.44,.97,2.18,1.43,1.04,.54,1.88,.93,2.61,1.24,.74,.29,1.38,.48,2.01,.68,1.26,.39,2.49,.8,4.57,1.62-1.34-.29,.51,.59-2.35-.38,1.4,.56,2.65,1.07,2.72,.96,.76,.47,4,1.18,5.24,1.8,.63,.13,.88,0,2.48,.51,.16,.09-.04,.09-.04,.09,.04-.09,2.55,.65,1.21,0,.53,.24,1.12,.48,1.75,.72,.64,.22,1.32,.43,2.04,.65,1.42,.43,2.96,.84,4.5,1.19,3.05,.75,6.06,1.35,7.97,2.02,3.21,.6,7.08,1.27,10,1.75-.2,.03-.03,.1-.57-.02,3.99,.88,2.57-.12,7.11,.84,2.29,.7-2.46-.23-1.02,.13,.53,.75,5.54,.81,8.57,1.68l-.75-.08c2.32,.59,5.79,.68,9.66,1.24,0,0-.2,.03-.04,.09,2.69,.04,7.73,.51,11.5,.62-1.18,.18-1.72,.02-1.02,.33,1.69,.07-.47-.43,2.9-.33,1.09,.19,3.51,.35,3.84,.62-1.06,0-2.13,0-3.19-.05,1.62,.43,4.13,.07,5.81,.08l-.21,.16c2.45-.09,3.69-.31,4.96-.51,1.27-.2,2.58-.43,5.18-.77l-.55-.05c2.77-.8,2.41-.13,5.17-.92l.92,.22c1.85-.45,6.39-1.78,9.61-2.8-1.76,.81-5.56,1.95-7.94,2.62,1.84-.36,6.2-1.51,7.08-1.97-.72,.23-1.61,.58-2.35,.7,2.15-.87,5.01-1.83,8.56-2.95-.2,.47,2.13-.22,4.83-1.13,2.69-.93,5.77-2.03,7.13-2.27,6.05-2.64,12.18-4.84,19.03-8.38-2.69,.73,1.99-1.05,1.28-1.38,1.57-.86,2.18-1.16,2.33-1.21l4.91-2.35c.6-.26,.25,0-.22,.31-.48,.3-1.09,.67-.98,.69,3.43-1.92,1.55-.61,3.88-1.8-.58,.07,1.03-.94,2.95-2.1-.93,.51-1.88,.96-2.83,1.43,2.28-1.54,3.3-2.14,4.38-2.66,1.07-.54,2.16-1.08,4.32-2.82l-1.33,1.17c2.3-1.67,8.52-6.18,10.29-8.41,.43-.26,1.05-.56,.12,.27,1.34-1.04,2.66-2.27,3.99-3.52,1.35-1.22,2.62-2.56,3.88-3.85,1.28-1.27,2.43-2.58,3.54-3.78,.56-.59,1.1-1.16,1.61-1.7,.5-.56,.98-1.08,1.44-1.55l-.23,.49c.8-.99,1.24-1.85,2.38-2.96,0,.1-.21,.49,.17,.04,.38-.56,1.88-2.82,2.98-4.09l-.75,1.23c1.09-1.26,1.91-2.49,2.67-3.61,.75-1.13,1.45-2.16,2.01-3.23,.58-1.06,1.15-2.09,1.74-3.16,.6-1.06,1.13-2.21,1.8-3.43,.18,.11,.98-.93,1.82-2.34,.82-1.42,1.74-3.15,2.35-4.31l.02,.11c.79-1.77,1.49-3.43,2.14-5.01,.58-1.61,1.09-3.16,1.6-4.69,.91-3.09,1.73-6.13,2.46-9.64,.19-.53,.42-1.14,.6-1.85,.18-.71,.36-1.5,.55-2.34,.18-.85,.37-1.76,.57-2.7,.14-.96,.28-1.96,.42-2.97,.61-4.08,.77-8.54,.89-12.13-.1,1.1-.31-.18-.4-1.45,0-1.69-.57-4.61-.15-4.38l.03,.6c.08-.32,.13-.78,.13-1.33-.02-.55-.08-1.18-.15-1.86-.17-1.35-.3-2.9-.58-4.23l-.61-.35c-.17-1.76-.4-3.8-.93-5.86-.51-2.07-1.17-4.18-1.86-6.16-1.39-3.98-2.87-7.46-3.26-9.37-.75-1.52-1.55-3.45-2.32-4.94l.3-.03c-1.75-4.33-2.63-6.48-4.94-11.75l.65,1c-1.25-3-2.35-3.46-3.54-6.21l.04-1c-2.22-5.21-4.12-10.64-6.67-15.64,.09,.06,.27,.17,.65,1-.52-1.23-1.46-3.64-2.34-5.59-.87-1.96-1.68-3.45-1.73-2.88,.16-.11-.46-1.45-1.36-3.08-.9-1.63-2.11-3.52-2.99-4.8l.49,.27c-1.69-2.04-1.79-2.08-4.01-4.97-.5-.7-.28-.74,.35,.22-.81-1.19-1.2-1.6-1.66-2.05-.45-.46-.94-.97-2.02-2.34l.98,.87c-1.91-2.26-1.85-2.01-3.09-3.07-1.33-1.29-3.84-4.05-3.99-4.53-.39-.17-1.69-1.14-2.9-2.38-.11-.23,.4,.16,.65,.36-3.46-3.5-5.58-4.71-7.89-7.19,0-.12-.12-.3-.31-.51,2.88,2.63,5.18,4.76,4.95,4.58,.17-.19-2.12-2.35-.03-.92-1.99-1.57-5.47-4.16-7.68-6.3-.1-.12-.19-.23-.25-.34l.26,.19c-.51-.49-1.01-.89-1.48-1.26-.71-.68-1.15-1.12-1.86-1.74-.14-.39-2.66-2.46-3.88-3.47-.08,.3-1.63-1.06-.3,.36-.18-.18,.25,.16,1.06,.83l.53,.41-.1-.05c.79,.67,1.81,1.55,2.97,2.54-1.04-.7-2.09-1.46-3.31-2.71-.74-.38-1.54-.81-1.98-1.06-1.39-1.69-4.52-4.44-4.84-4.97-1.96-1.41-4.26-3.07-6.47-4.49-2.19-1.43-4.31-2.58-5.73-3.15-1.21-.64-1.29-.91-1.69-1.24,.71,.35,1.54,.81,1.93,.98-1.22-.63-2.98-1.65-4.57-2.43-1.6-.76-2.97-1.41-3.35-1.35-3.08-1.58,1.92,.49-2.44-1.41l.63,.16c-4.19-2.13-7.93-3.17-11.8-3.87-3.89-.68-7.89-1.16-13.04-1.78,.72,.06,1.07,.12,1.21,.19-5.89-.55-12-.07-17.98,.79-5.99,.88-11.86,2.17-17.55,3.32-3.22,.73-3.51,1.03-5.4,1.74l-.77-.1-3.22,1.25c-4.62,1.57-8.31,1.61-14.09,3.77l.82-.02c-2.14,.58-6.7,2.06-6.41,1.73-.21,.1-.64,.4-1.5,.54l-.11-.13-5.15,1.77c-4.08,1.06,.46-.79-5.46,.89-2.18,.69-6.13,2.24-5.27,2.11,.89-.25,2.29-.56,2.4-.43l-1.99,.66c-.23,.55-1.65,1.46,3.37,.35l3.36-1.26,1.17-.1-2.89,.85c1.7-.27,2.69-.75,3.81-1.21,.31,.04,.81-.02,1.51-.18l3.25-1.4c.46,.06-1.41,.78,.88,.23,1.52-.65-1.63,.04,.95-.84,1.7-.27,1.27,.03,3.15-.7,.3,.04-.08,.23-.83,.5,1.68-.63,4.53-1.37,5.34-1.86,1.78-.24,5.78-1.74,5.73-1.26,.51-.26,2.93-1.21,4.5-1.67-2.74,1.32,5.91-1.65,5.3-.88,2.01-1.05,7.65-2.31,11.4-3.44-.2,.09-.6,.26-.94,.32,2.15-.49,2.81-.45,4.2-.68,.19-.46,3.53-1.23,5.3-1.79,2.72-.08-1.53,.72-.63,.95-.19-.3,4.55-1.1,3.6-1.21,2.07-.07,1.77-.14,2.86,.04,.29-.55,1.88-.35,3.54-.8,2.98-.06,.8,.36,4.03,0,1.55,.05-1.32,.41-1.32,.41Zm68.96,29.28h0c-.51-.44-.94-.82-1.22-1.06,.25,.22,.61,.53,1.22,1.06Zm4.88,4.42c-.59-.54-1.33-1.22-2.1-1.93-.11-.23,.15-.13,.63,.32-.31-.19,.8,.89,1.47,1.61Zm-9.12-10.74c.82,.65,1.05,.92,1.12,1.06-.38-.32-.83-.69-1.41-1.17l-.12-.05c.11,.02,.23,.06,.41,.16Z"/><path class="e" d="M211.12,27.86l-.34-.26,.44,.45,.34,.17-.43-.36Z"/><path class="e" d="M8.57,90.84l-.05,.13c.05-.11,.09-.21,.13-.27-.04,.08-.05,.08-.08,.14Z"/><polygon class="e" points="266.09 117.24 266.16 117.21 265.89 116.7 266.09 117.24"/><path class="e" d="M25.03,58.51c.06-.05,.14-.15,.29-.38-.03,0-.15,.18-.29,.38Z"/><path class="e" d="M32.99,45.04l1.26-1.82c-.56,.78-.95,1.35-1.26,1.82Z"/><path class="e" d="M39.9,35.29c.06-.15,.06-.2,.05-.26l-.02,.02-.04,.24Z"/><path class="e" d="M23.86,214.9c.08,.14,.16,.28,.24,.39,.61,.89,.2,.28-.24-.39Z"/><path class="e" d="M7.26,161.14c.11,.6,.23,1.18,.33,1.8-.09-1.01-.16-1.79-.33-1.8Z"/><path class="e" d="M71.86,253.02s0,0,0,0l.37,.13-.36-.13Z"/><path class="e" d="M7.89,165.57c-.08-1.01-.19-1.85-.3-2.63,.06,.83,.15,1.8,.3,2.63Z"/><path class="e" d="M86.6,17.42l.58-.04s.02-.04,.06-.05l-.64,.09Z"/><path class="e" d="M87.24,17.34l.64-.08c-.29,.02-.55,.04-.64,.08Z"/><path class="e" d="M89.22,17.08l-1.34,.17c.47-.03,1.04-.07,1.34-.17Z"/><path class="e" d="M70.84,19.33l-.16,.13c.09-.04,.15-.08,.16-.13Z"/><path class="e" d="M66.11,20.27c1.13-.22,2.86-.36,4.43-.7l.13-.11c-.72,.27-3.54,.4-4.57,.81Z"/><path class="e" d="M47.04,26.64c1.13-.79,2.3-1.51,3.5-2.15-.67,.27-1.57,.62,.04-.35-2.35,1.16-2.05,1.14-1.8,1.07,.13-.03,.26-.04,.06,.13-.19,.17-.71,.52-1.81,1.3Z"/><path class="e" d="M37.94,35.52c1.31-1.77-.14-.08-.12-.21-.78,1.17-.96,1.46,.12,.21Z"/><path class="e" d="M4.89,119.05l-.25-.22c.02,1.68,.1,.02,.25,.22Z"/><polygon class="e" points="6.21 136.45 6.34 134.81 6.1 134.04 6.21 136.45"/><polygon class="e" points="4.68 146.79 4.61 146.05 4.83 148.86 4.68 146.79"/><path class="e" d="M88.25,260.09l-.43-.42c-1.13-.19-1.44,.1,.43,.42Z"/><path class="e" d="M153.94,266.58c.74,.06,2.61-.12,3.72-.48-1.48,.24-2.97,.34-3.72,.48Z"/><path class="e" d="M273.79,133.17l.36,1.3c-.2-.83-.37-1.66-.59-2.47,.1,.39,.15,.78,.23,1.17Z"/></g></g></g></svg>