<?xml version="1.0" encoding="UTF-8"?><svg xmlns="http://www.w3.org/2000/svg" viewBox="0 0 199.44 150.05"><defs><style>.d{fill:#fff;}.e{fill:#202020;}.f{fill:red;}</style></defs><g id="a"/><g id="b"><g id="c"><rect class="f" x="3.44" y="1.49" width="196" height="144.57" rx="12" ry="12"/><path class="d" d="M138.02,69.04l-51.03-29.46c-3.48-2.01-7.83,.5-7.83,4.52v58.92c0,4.02,4.35,6.53,7.83,4.52l51.03-29.46c3.48-2.01,3.48-7.03,0-9.04Z"/><g><path class="e" d="M9.89,3.56c.35-.06,.15-.29-.72-.23-.2,.1-.39,.24-.55,.4l.3-.09,.32-.02,.64-.06Z"/><path class="e" d="M4.61,5.61c-.53,.98-.78,2.21-.21,1.75,.09-.53,.23-.83,.37-1.12,.07-.15,.14-.31,.22-.5,.09-.18,.19-.38,.31-.66,.6-.7,1.25-.95,1.19-.76,.11-.11,.4-.29,.71-.45,.33-.12,.66-.3,.86-.45-1.18,.03-2.6,.97-3.31,2.39-.25,.24-.14-.08-.14-.19Z"/><path class="e" d="M1.47,96.36v-.59c0,.16,0,.36,0,.59Z"/><path class="e" d="M23.62,142.05c-.42-.11-.6-.13-.63-.1,.39,.09,.71,.16,.63,.1Z"/><path class="e" d="M32.99,144.6c-.2-.05-.37-.09-.56-.13,.21,.07,.42,.13,.56,.13Z"/><path class="e" d="M1.47,96.36v1.52c.11,.1,.02-.78,0-1.52Z"/><path class="e" d="M2.29,17.61c0-.32-.03-.58-.07-.82l.02,.77s.03,.03,.05,.05Z"/><path class="e" d="M.2,71.41v-.46c-.05-.13-.09-.26-.15-.38l.15,.84Z"/><path class="e" d="M.05,52.24c-.01,.43,.27,.59,.39,.75-.11-.25-.17-.57-.19-.95-.05,0-.12,.05-.2,.19Z"/><path class="e" d="M1.05,21.88l-.03-.54,.03,.54Z"/><path class="e" d="M.54,85.13s-.07,.1-.09,.18c.04,0,.07-.07,.09-.18Z"/><path class="e" d="M29,5.42s0-.03,0-.05c-.11,.03-.15,.05,0,.05Z"/><path class="e" d="M6.8,3.95h.31c.03-.07,.07-.12,.07-.17l-.37,.17Z"/><path class="e" d="M50.47,147.86l-.08-.02c-.47-.03-.2,0,.08,.02Z"/><path class="e" d="M196.38,121.7c-.45,1.81,0-3.02-.57-.29,.14-.25,.16,2.55,.57,.29Z"/><path class="e" d="M2.24,18.11l-.02,.78c.02-.36,.02-.6,.02-.78Z"/><path class="e" d="M195.81,121.41h0l-.06,.28,.06-.28Z"/><path class="e" d="M91.3,150.05c-.08-.05-.25-.09-.42-.13,.01,.03,.11,.07,.42,.13Z"/><path class="e" d="M60.91,148.43l.75,.1c-.3-.05-.54-.07-.75-.1Z"/><path class="e" d="M107.09,149.44c.41,0,.55,.04,1.11-.01-.05-.01-.1-.02-.17-.03-.2,.04-.47,.07-.94,.04Z"/><path class="e" d="M123.5,148.85l-.3-.04-.52,.04h.82Z"/><path class="e" d="M78.87,5.44c-.36-.08-.58-.17-.76-.25,.25,.2-2.16,.27,.76,.25Z"/><path class="e" d="M2.14,17.62c.07,.1,.1,.24,.11,.49v-.55s-.08-.06-.11,.06Z"/><path class="e" d="M107.7,147.2l2.6-.04c-.73,0-1.67,0-2.6,.04Z"/><path class="e" d="M190.92,12.04l-.24-.52c.07,.21,.16,.39,.24,.52Z"/><path class="e" d="M118.02,146.85c.47,.08,.96,.12,1.47,.14,.11-.03,.23-.05,.3-.08l-1.77-.05Z"/><path class="e" d="M78.1,5.19h0Z"/><path class="e" d="M60.93,5.8c2.48,.02,1.17-.36,1.7-.57,2.97-.09,1.37,.28,2.38,.47,1.85-.09,3.27-.43,4.65-.41,.1,.06,.37,.08,.06,.16,1.96-.29,5.81,0,8.09-.36,.17,.03,.25,.06,.3,.09-.37-.19-.43-.37-.35-.51,1.11,0,2.07-.23,2.49,.01-.68,0-.74,.09-1.06,.16l1.17-.1c1.05,.35-1.59,.12-1.59,.37,2.28-.11,4.93-.39,6.67-.29,.36,.34-4.08,.11-1.75,.41l-2.7-.13c2.06,.54-1.64-.04,.25,.54,3.55,.1,3.97-.17,7.52-.06,.8-.19-.26-.28,.53-.47,5.03-.34,3.96,.86,7.67,.39,.96-.23,1.33-.66,3.96-.44l-.9,.39c3.44,.02,1.96-.56,5.56-.32-.64,.15-2.7,.14-2.18,.19,2.34,.29,1.65-.23,3.44-.24l.37,.34c3.66-.09,7.69-.37,11.75-.5-.22,.1-.92,.22,.03,.31,5.11-.25,10.92-.17,15.86-.11l1.88-.35c.44-.01,.82,.11,.34,.18,1.93,.05,.09-.19,1.01-.33,1.09-.06,1.45,.12,.76,.23,3.39-.35,9.64-.9,13.23-.76l-.69,.12c2.79,0,3.11-.76,5.7-.62l-.49,.08c6.04-.18,12.7-.94,17.32-.84,.42-.24,1.9-.31,3.29-.3,1.39,0,2.68,.13,2.9-.13,1.62,.35,2.13,.64,2.8,.94,.33,.16,.69,.32,1.19,.63,.51,.28,1.16,.69,1.99,1.39,.43,.38,.84,.57,1.23,.86,.2,.14,.42,.28,.65,.45,.21,.19,.44,.42,.68,.71l-.22,.21c.26,.22,.48,.49,.71,.74,.23,.26,.48,.51,.68,.79,.07,.39,.14,.76,.2,1.14l.67,1.26c-.21-.53-.38-1.16-.26-1.12,.56,.98,1,2.3,1.25,3.39,.24,1.09,.33,1.92,.26,1.97,.53,1.71,.94,3.48,1.29,5.28-.14-.1-.31-1-.52-1.7,.77,2.82-.21,.56,.44,3.17,.02-.36,.21,.17,.28,.22-.03,1.36,.31,4.42,.65,6.67l-.26-.41c.37,4.09,.96,8.61,1.3,13.21-.03-1.66,.36-1.31,.51,.04l-.28,.56c.27,.86,0-1.42,.4,.35,.09,1.72-.29,1.18-.46,.2l.25,2.08c-.09,.13-.17-.36-.3-.48,.26,.84-.09,3.63,.34,4.84l-.09,.12c.23,4.6,.47,6.68,.6,10.44,.28,.06,.27,1.53,.53,2.65,0,2.76-.18,5.83-.12,9.16,.14,2.34,.24,.68,.41,1.73-.26,.17-.23,3.5-.41,1.77,.05,3.99,.01,5.1,.14,10.15,.12-.55,.18-1.16,.26-.84,.01,.92-.17,2.08-.29,1.95l-.02-.24c.26,5.69-1.26,13.04-1.02,17.57v-.25c0,1.56-.04,3.13-.07,4.69-.21,2.14-.09-1.3-.37,.27,.03,2.53-.16,4.52-.38,6.39-.22,1.87-.4,3.63-.5,5.71-.57,1.56-.81,4.4-1.16,7.38-.34,2.97-.57,6.16-1.29,8.06l.23-.19c-.07,1.08-.42,1.21-.69,1.91,.17-.05,.5-1.02,.39-.37-.58,2.14-1.78,4.01-3.67,4.96-1.89,.99-4.28,1.14-6.71,1.2-4.95,.12-9.93,.24-14.82,.36-3.57,.12-1.98,1.02-6.51,.81l1.26-.39c-7.19,.74-14.74,.69-21.78,1.37,.42-.1,.42-.2,1.11-.23-1.5-.17-5.51,.25-5.53,.45-1.1,.03-.26-.16-.94-.23-1.5-.07-3.74,.48-4.54,.28-.14-.03,.42-.1,.69-.13-.97,.17-4.54,.17-3.59,.41-2.65-.02-5.06,.35-7.18,.26-1.36,.36-4.54,.03-4.96,.48,.17-.45-4.65-.22-6.32,.04,.56-.15-1.46-.1-.81-.31-1.91,.06-3.66,.17-3.32,.4-3.53-.46-7.07,.56-9.05-.13-2.83,.16-5.56,.24-8.22,.29-2.66,.08-5.25,.06-7.8,.04,.2-.45,5.64,.13,5.43-.38-4.83,.06-7.64,.41-12.43,.04-1.24-.12,.71-.16,1.14-.22-2.42-.03-4.75-.13-7.01-.33-2.26-.19-4.46-.28-6.61-.4,.02-.04,.48-.04,.92-.03-.84-.07-1.95-.26-1.88-.05l.83,.03c1.32,.43-3.41,.28-3.58,.42,1.49-.43-4.21-.58-1.86-1.08-.56-.02-1.26-.02-1.15,.13-.82-.15-1.07-.26-.22-.31-3.02-.28-1.98,.07-4.7-.29,.02-.1,.58-.06,.88-.14-1.4,.02-2.82,.04-5.1-.44,.15-.04-.11-.16,.58-.04-1.97-.31-3.67-.45-5.41-.63-1.73-.24-3.51-.52-5.64-1.04,1.35-.17-1.43-.43-1.58-.84l-2.31-.43,.88,.4c-2-.48-3.84-.64-5.53-1.17l1.53,.21c-1.26-.26-2.51-.55-3.75-.9,.69,.24,1.37,.5,2.07,.71-2.07-.35,.09,.53-2.53-.31,.55,.12-1.99-.57-2.96-1.07h0c-1.01-.17-2.07-.3-3.49-.87-.34-.24,.43-.29,.21-.45-.52,0-1.66-.36-2.78-.82-1.13-.46-2.2-1.05-2.8-1.28,.39,.16,.51,.01,.42-.1-.27-.07-.54-.17-.81-.26-.68-.64-.72-.77-.51-.78-.94-.95-.85-.75-.83-.57,.06,.16-.04,.35-.89-1.06,.15,.2,.12,.08,.46,.49-1.83-2.69-2.39-5.92-2.71-9.04,.24-.97,.46,2.71,.63,1.61-.35-2.24-.76-4.56-1.17-6.86-.37-2.31-.7-4.6-.91-6.79l.05,.82c-.61-.55-.07-3.29-.53-5.47,.09,.54,.36,.68,.29,.54-.22-3-.67-6.12-1.18-10.66l.17,.56c.01-1.78-.22-4.67-.28-6.59-.16-.56-.19-1.66-.36-.98,.48-5.94-.93-11.26-.39-16.53,.02,.63,.15,1.49,.14,.99l-.23-4.47c-.23,.36-.13,.59-.29,1.53-.15-.56-.28-1.82-.29-2.93,.18,2.01,.37-.02,.49-.89-.07,.15-.15-.15-.22-.08,.38-2.34-.47-.39-.24-3.58l.12,.17c-.08-1.19-.23-2.29-.21-3.58,.27-.54,.13,1.27,.35,1.35-.02-1.81-.52-3.57-.26-5.2,.08,.77,.08,1.87,.16,2.64,.31-1.78,.22-1.99,.28-3.31v.13l.15-3.06-.09,.78c-.69-2.27-.11-4.61-.53-7.66,.4,2.97,.24,.49,.55,.72,.09-.78,.2-1.96,.28-1.62-.23-1.44,.21-2.4-.11-4.44,.1-.09,.03-1.54,.27-1.21-.05-1.87-.18,.44-.3,.28-.29-2.89,.52-6.78,.14-10.94-.11-3.58-.42-4.25-.51-7.58,.18-1.12,.33,.93,.33,.93,.19-1.81,.19-3.17,.12-4.88,.08,.35,.16,0,.28-.52,.01-1.37-.35-.93-.11-2.71,.08,.31,.25,.71,.33,1.36-.05-1.57-.07-3.15,.17-4.78,.25-.39,.06,1.02,.11,1.6,.08-.91,.27-2.08,.49-3.08,.2-1,.45-1.84,.43-2.15-.19,.35-.33,.72-.5,1.08,.21-.64,.33-.25,.22,.23-.26,1.55-.65,2.17-.78,2.24l.2-1.16c-.42,.51-.68,1.69-.75,3.03-.09,1.34,0,2.81-.03,4.01l-.39-1.01,.29,2.46c-.12,.52-.36,.87-.4-.31-.25,1.71,.11,1.52-.15,2.99-.04,.16-.06,.09-.07-.06l.08,1.68c-.08-.33-.3,.27-.22-.76-.31,3,.2,4.86-.14,5.99l-.02-.25c.05,4.18,.29,.41,.59,3.55l-.79,2.09,.3,.42c-.02,.43-.06,1.28-.18,1.12,.18,1.61,.14-.27,.32,.66-.32,2.07,.04,5.72-.46,6.18,.22,.75,.21-1.98,.34,.24-.54,.62,.05,2.56-.2,4.45-.26-.58-.1-2.38-.36-.48,.45,1.15-.14,3.69-.06,5.29,.36,.08,.14,3.48,.25,6.16-.12-.17-.19,5.05-.29,7.55l-.06-.07c.37,.48,.34,3.05,.44,4.93-.22-.07-.31-.41-.42-1.42l.03,1.76c.12,.41,.19,.96,.26,2.1l-.28-.44c.08,2.35,.41,4.72,.35,7.74,.26,.16,.63-2.42,.91,.76-.13,.12-.37,.25-.45-.58,.03,.27,.15,.97,.11,1.52l-.28-1.27c-.05,1.38,.22,.71,.24,1.81-.2-.01-.11,.82-.27,.67-.03-.28,.05-.96-.04-1.38,0,1.24-.06,2.74-.19,3.24,.11-.11,.26-.01,.33,.89,.13,2.34-.2,.81-.23,2.19,.16,.56,.1,2.06,.39,2.09,.03,.69-.1,.82-.17,1.09,.18,1.21,.39,5.66,.61,4.28v-.31l.03,.2h0c.53,3.95,.41,8.26,.9,12.18h-.1c.34,2.34,.55,5.22,.97,6.87,.08,.69,0,1.66-.14,1.37,.29,1.78,.39,1.97,.57,4.57-.41-1.78-.08,.64-.36-1.83,.2,2.34,.13,2.88,.73,5.34-.36-.81-.09,1.79,.15,2.89l-.05-1.66c.2,1.23,.33,2.33,.53,3.45l-.44-.55c.21,2.45,1.07,4.75,2.5,6.47,1.44,1.73,3.17,2.73,4.73,3.88,.65,.18,.05-.14-.55-.51-.6-.37-1.17-.8-.6-.61,1.93,1.23,4.03,2.39,4.7,2.62,2.87,1.09,2.87,.33,5.88,1.33-.36-.22-.64-.63,1.66-.1,2.11,.66,2.51,1.15,1.12,.93-.51-.13-.75-.24-.72-.27-.7-.15-1.62-.36-.81,0l.31-.04c1.02,.46,3.99,1.11,3.25,1.14,1.66,.28,.74-.02-.45-.37,2.73,.8,4.3,1.09,7.14,1.78-.44-.15-.83-.37-.38-.28,4.17,.98,1.9,.15,4.75,.66,1.58,.49-.66,.33,2.24,.71,1.74,.41,.32,.37-.4,.35,2.67,.2,4.89,.95,6.39,1.24l-1.4-.13c.84,.08,1.52,.19,2.21,.31l-.76-.36c.81,.18,1.5,.27,1.47,.36,.86-.04-.59-.47,1.11-.47,1.07,.26,3.33,.3,3.66,.66-3.41-.55,.34,.36-2.57,.04,.56,.04,1.25,.13,2.06,.27,.12,.05-.12,.05-.35,.04,3.25,.69,1.55-.11,4.95,.23-.45,.13,.75,.41,1.31,.43-1.37-.14-.63-.36,.65-.37,2.17,.36,2.38,.14,3.52,.27l-1.3-.2c.46-.13,1.55,0,3.07,.05,.12,.15-1.39,0-.85,.09,1.72-.19,3.8,.6,6.17,.57,1.09,.2,.08,.35,1.04,.48,2.66-.1,2.86,.38,5.66,.33-.79-.28-.93-.23,1.04-.36l-4.58-.06,2.95-.2c-1.38-.07-2.92,0-3.75-.08,1.41-.13,1.26-.07,.61-.3,1.87,.44,3.75,0,5.92,.31l-.09,.59c3.28,.34,5.85-.09,10.11,.07l-1.37-.12c.58-.23,2.63,0,4.02-.09-.13,.2,.73,.28,1.32,.4-.07-.13,3.12,0,3.51-.4l1.91,.25c3.45,.09,3.92-.61,7.23-.6-.99,.23,.51,.34-1.7,.54,1.11-.02,2.1,0,2.11-.14,.65,.11,3.06-.32,4.08-.18,.46-.1,.61-.31,1.85-.33,.14,.04,0,.1,0,.1,0-.1,1.94-.19,.85-.38,3.42,.53,9.5-.38,12.48,.02,2.4-.17,5.3-.36,7.49-.48-.14,.07,0,.1-.42,.1,3.02,.04,1.83-.65,5.26-.61,1.77,.24-1.81,.26-.71,.33,.51,.63,4.13-.29,6.46-.02l-.56,.07c1.77,.14,4.29-.45,7.17-.54,0,0-.14,.06-.01,.1,1.95-.43,5.68-.71,8.45-.94-.85,.3-1.25,.19-.71,.43,1.24-.1-.38-.4,2.09-.59,.81,.1,2.61,.14,2.86,.4l-2.34,.13c1.22,.3,3.03-.16,4.26-.15l-.15,.16c3.58-.22,3.61-.62,7.47-.77l-.4-.1c2.09-.49,1.78,.13,3.86-.26l.65,.36c1.39-.16,4.85-.61,7.34-.81-1.4,.36-4.31,.65-6.1,.91,1.38-.06,4.68-.25,5.39-.48-.55,.06-1.25,.19-1.8,.16,.84-.2,1.81-.36,2.92-.49,1.11-.14,2.36-.25,3.74-.49-.2,.38,1.71,.29,3.76-.81,1.02-.54,1.96-1.4,2.65-2.24,.7-.84,1.15-1.65,1.51-2.08,.92-2.49,1.27-4.96,1.65-7.45,.36-2.49,.82-5.07,1.09-7.9-.81,1.93,.16-1.65-.48-1.37,.1-1.32,.17-1.82,.22-1.93,.27-1.31,.53-2.63,.77-3.95,.27-.93,.02,1.26,.16,1.16,.32-2.88,.37-1.18,.71-3.08-.25,.37-.22-1.03,.02-2.67l-.5,2.29c.06-4.05,.81-3.44,.82-7.54l.09,1.3c.08-2.09,.53-7.71,.16-9.79,.09-.37,.29-.85,.28,.08,.16-2.5,.16-5.29,.16-7.93-.03-2.65,0-5.15,.18-7.09l.14,.38c-.03-.93-.26-1.63-.09-2.8,.06,.06,.14,.38,.16-.05-.04-.5-.23-2.48-.12-3.72l.15,1.06c.21-4.88-.38-7.49-.57-11.57,.44,0,.53-3.84,.52-5.76l.06,.06c-.06-2.84-.23-5.25-.48-7.6-.25-2.35-.49-4.65-.76-7.27,.31-3.29-.61-11.05-.88-16.29,0,.81-.35-.1-.49-1.02-.05-1.23-.68-3.35-.26-3.2l.04,.44c.28-.97-.08-3.46-.33-5.45l-.57-.25c.02-2.63-.69-6.05-1.84-9.04-1.14-3.01-2.79-5.45-3.56-6.8-.99-.92-2.22-2.09-3.46-2.64l.21-.2c-1.6-1.02-2.97-1.57-4.45-1.89-1.48-.34-3.1-.47-5.31-.39l.9-.21c-2.53,0-3.09,.94-5.3,1.11l-.7-.37c-4.18,.32-8.43,.23-12.53,.86,.06-.07,.18-.19,.86-.25-1.97,.1-7.63,.13-6.88,.67-.07-.38-4.32,.17-6.57,.43l.34-.29c-1.89,.43-1.95,.53-4.61,.73-.63-.01-.56-.2,.28-.16-2.11-.07-1.63,.33-4.19,.26l.95-.21c-2.17,.05-1.99,.14-3.18,.38-1.36,.16-4.11,.05-4.44-.2-.29,.16-1.47,.4-2.75,.36-.17-.09,.29-.16,.52-.2-3.63-.09-5.38,.44-7.88,.22-.05-.09-.22-.13-.42-.16,2.88-.05,5.2-.08,4.98-.06,0-.26-2.33-.26-.49-.65-1.86,.23-5.04,.72-7.31,.62-.11-.02-.22-.05-.3-.08l.23-.03c-.52-.02-.99,.01-1.43,.06-.72-.03-1.18-.06-1.88-.05-.27-.2-2.67-.09-3.83-.08,.1,.28-1.42,.25,0,.47-.18-.02,.22-.04,.99-.06,.17-.01,.38-.02,.49-.03l-.08,.03c.76-.01,1.75-.03,2.88-.05-.91,.16-1.87,.29-3.15,.14-.59,.19-1.25,.38-1.61,.47-1.59-.37-4.65-.56-5.08-.8-3.54,.19-8.34,.14-10.57,.68-1.01,.07-1.16-.15-1.53-.23,.58-.05,1.27-.05,1.59-.12-2.01,.14-5.97,.06-6.45,.43-2.54-.17,1.43-.34-2.06-.28l.47-.11c-6.86-.6-11.16,.92-18.76,.14,.53,.05,.79,.07,.9,.13-8.67-.36-17.88,.25-26.43-.3-2.43-.11-2.7,.12-4.18,.29l-.53-.3-2.54,.34c-3.6,.24-6.23-.76-10.79-.29l.59,.21c-1.64-.04-5.19,.1-4.91-.13-.17,.04-.54,.21-1.18,.1l-.05-.16-4.02,.26c-3.12-.12,.49-.63-4.06-.67-1.69,.06-4.82,.44-4.18,.55,.68,.01,1.74,.1,1.79,.26l-1.55,.08c-.28,.46-1.47,.94,2.32,1.28l2.65-.28,.85,.23h-2.23c1.26,.22,2.06,.04,2.96-.09,.21,.12,.58,.21,1.11,.25l2.6-.44c.31,.18-1.17,.36,.58,.46,1.22-.2-1.17-.41,.85-.54,1.26,.22,.9,.39,2.38,.21,.21,.12-.11,.2-.7,.25,1.32-.14,3.5-.05,4.18-.29,1.32,.27,4.46-.05,4.33,.39,.42-.1,2.33-.34,3.54-.35-2.22,.52,4.55,.05,3.96,.61,1.64-.47,5.93-.19,8.84-.44-.16,.04-.48,.11-.74,.09,1.64,.04,2.11,.19,3.16,.28,.21-.39,2.76-.47,4.14-.71,2.01,.38-1.22,.46-.59,.82-.1-.32,3.49-.31,2.81-.57,1.53,.24,1.32,.12,2.11,.45,.27-.49,1.43-.08,2.7-.37,2.22,.25,.57,.46,3.01,.32,1.16,.15-1.01,.32-1.01,.32Zm58.04-.97h0c-.5,.02-.93,.03-1.2,.04l1.2-.04Zm4.88-.09c-.59,0-1.33,.02-2.12,.03-.17-.09,.01-.2,.5-.2-.27,.07,.89,.1,1.61,.17Zm-10.34-1.79c.77-.05,1.03,0,1.14,.06-.36,.01-.79,.03-1.35,.05l-.09,.04c.07-.05,.16-.11,.3-.14Z"/><path class="e" d="M112.12,3.33c-.11,0-.17,.02-.32,.02l.46,.06,.27-.09h-.42Z"/><path class="e" d="M1.48,95.67v.1c0-.09,.01-.17,.03-.22,0,.07-.02,.07-.03,.11Z"/><polygon class="e" points="188.37 7.64 188.42 7.59 188.13 7.32 188.37 7.64"/><path class="e" d="M1.45,68.8c.02-.05,.05-.15,.07-.35-.02,.02-.04,.17-.07,.35Z"/><path class="e" d="M1.43,57.21l.11-1.64c-.06,.71-.09,1.23-.11,1.64Z"/><path class="e" d="M1.62,48.3c-.05-.11-.08-.15-.12-.18v.02l.12,.16Z"/><path class="e" d="M60.46,146.49l.34,.02c.8,.03,.26,0-.34-.02Z"/><path class="e" d="M19.02,139.65c.44,.07,.88,.14,1.34,.24-.71-.22-1.27-.39-1.34-.24Z"/><path class="e" d="M107.41,147.2s0,0,0,0h0Z"/><path class="e" d="M22.25,140.42c-.71-.26-1.31-.42-1.88-.54,.59,.18,1.27,.41,1.88,.54Z"/><path class="e" d="M3.39,10.01c.04-.13,.09-.26,.14-.39-.02,0-.03-.03-.03-.06-.04,.15-.08,.29-.11,.45Z"/><path class="e" d="M3.51,9.56l.12-.44c-.07,.2-.13,.37-.12,.44Z"/><path class="e" d="M3.92,8.21c-.11,.3-.22,.6-.29,.91,.1-.32,.28-.68,.29-.91Z"/><path class="e" d="M2.1,21.46l.1,.14c-.02-.07-.05-.12-.1-.14Z"/><path class="e" d="M2.05,25.05c.04-.85,.27-2.14,.23-3.34l-.08-.11c.14,.56-.31,2.63-.15,3.45Z"/><path class="e" d="M.49,40l.13-3.01c-.12,.52-.28,1.21-.28-.16-.39,3.79,.25-.78,.15,3.16Z"/><path class="e" d="M.22,49.32c-.03-1.62-.16,.02-.22-.07,.09,1.03,.11,1.27,.22,.07Z"/><path class="e" d="M3.11,116.67l-.27-.13c.18,1.24,.1,0,.27,.13Z"/><path class="e" d="M6.19,129.2c-.03-.4-.06-.79-.07-1.19l-.33-.52c.12,.58,.25,1.15,.4,1.71Z"/><path class="e" d="M8.4,136.75c-.16-.12-.32-.24-.48-.37,.59,.5,1.21,.95,1.86,1.32-.47-.29-.94-.59-1.38-.95Z"/><path class="e" d="M120.59,149.22l-.39-.3c-.84,.09-1,.45,.39,.3Z"/><path class="e" d="M169.38,146.6c.54,.13,1.92,.17,2.75-.03-1.1,.03-2.2-.04-2.75,.03Z"/><path class="e" d="M195.17,18.65l.28,.97c-.14-.62-.27-1.23-.42-1.85l.15,.88Z"/></g><g><path class="e" d="M79.1,38.15c-.13,.06-.12,.26,.19,.31l.29-.26-.48-.05Z"/><path class="e" d="M80.89,39.33c.39-.05,.87-.2,.74-.56-.44,.2-.48,.05-.96,.3-.3-.05-.48-.25-.39-.36-.13,.05-.44-.21-.65-.05,.31,.36,.78,.51,1.34,.46,.09,.1-.04,.15-.09,.2Z"/><path class="e" d="M106.3,54.05l-.14-.13s.08,.09,.14,.13Z"/><path class="e" d="M123.02,61.62c-.14-.02-.2,0-.22,.02,.13,0,.24,.01,.22-.02Z"/><path class="e" d="M126.01,62.63l-.17-.06c.06,.04,.13,.08,.17,.06Z"/><path class="e" d="M106.3,54.05l.36,.34c.09-.07-.17-.2-.36-.34Z"/><path class="e" d="M85.03,39.97c-.1-.03-.19-.03-.28-.02,.08,.02,.17,.03,.25,.06l.03-.04Z"/><path class="e" d="M99.37,49.93l-.12-.08c-.06,0-.12,.02-.18,.05l.3,.03Z"/><path class="e" d="M94.15,46.66c.11,.08,.3-.13,.41-.21-.13,.06-.24,.05-.36,0-.03,.04-.05,.11-.05,.2Z"/><path class="e" d="M85.84,41.59l-.17-.04,.17,.04Z"/><path class="e" d="M103.04,52.39s-.01,.08,0,.11c.02-.03,.02-.07,0-.11Z"/><path class="e" d="M76.3,47.11s.03,0,.05,0c-.03-.04-.05-.05-.05,0Z"/><path class="e" d="M77.88,39.99v.1c.07,.01,.12,.02,.17,.03l-.17-.13Z"/><path class="e" d="M131.22,64.43h-.02c-.14-.04-.07-.01,.02,0Z"/><path class="e" d="M107.31,93.13c.64-.08-.68,.76,.24,.56-.13-.05,.49-.78-.24-.56Z"/><path class="e" d="M85.16,40.07l.24,.1c-.1-.06-.18-.09-.24-.1Z"/><path class="e" d="M107.54,93.69h0l.09-.02-.09,.02Z"/><path class="e" d="M138.02,72.7c.05-.02,.09-.06,.13-.1-.03,0-.07,.03-.13,.1Z"/><path class="e" d="M134.24,65.34l.17,.16c-.06-.07-.11-.12-.17-.16Z"/><path class="e" d="M136.75,77.03c-.09,.09-.14,.1-.21,.26,.02,0,.04,0,.06-.02,0-.07,.04-.15,.15-.24Z"/><path class="e" d="M133.15,80.44s.07,0,.11,0l.13-.1-.23,.11Z"/><path class="e" d="M76.01,63.19c.08-.11,.17-.18,.26-.24-.2,.08-.25-.7-.26,.24Z"/><path class="e" d="M84.97,40.12c.06-.05,.11-.07,.19-.05l-.17-.06s-.05,.07-.02,.11Z"/><path class="e" d="M138.43,78.5c-.2,.24-.4,.48-.61,.71,.19-.18,.41-.44,.61-.71Z"/><path class="e" d="M75.67,101.53l-.12-.21c.03,.09,.07,.16,.12,.21Z"/><path class="e" d="M135.89,81.18c-.19,.03-.36,.08-.52,.16-.02,.04-.04,.08-.04,.12l.56-.29Z"/><path class="e" d="M76.27,62.95h0Z"/><path class="e" d="M75.75,57.4c-.03,.8,.35,.39,.56,.56,.08,.96-.28,.44-.48,.76,.08,.6,.41,1.07,.38,1.51-.06,.03-.09,.12-.16,.01,.28,.64-.04,1.87,.31,2.62-.03,.05-.07,.08-.09,.09,.19-.11,.38-.13,.51-.1,0,.36,.22,.67-.03,.8,.01-.22-.08-.24-.16-.35l.1,.38c-.36,.33-.11-.52-.36-.52,.09,.74,.36,1.6,.24,2.16-.34,.11-.08-1.32-.4-.58l.15-.87c-.55,.65,.05-.53-.54,.07-.13,1.14,.14,1.28,0,2.42,.18,.26,.28-.08,.46,.18,.3,1.63-.89,1.25-.47,2.46,.22,.31,.64,.45,.39,1.29l-.38-.3c-.07,1.11,.54,.65,.25,1.8-.15-.21-.1-.87-.15-.71-.32,.74,.2,.54,.19,1.12l-.34,.11c.02,1.18,.23,2.49,.26,3.8-.1-.07-.2-.3-.31,0,.13,1.65-.13,3.52-.38,5.1l.28,.62c0,.14-.14,.26-.19,.1-.13,.62,.19,.04,.29,.34,.01,.35-.18,.46-.26,.24,.22,1.1,.45,3.13,.11,4.27l-.08-.23c-.14,.89,.57,1.03,.28,1.85l-.05-.16c-.18,1.94,.03,4.1-.45,5.57,.42,.29-.24,1.92,.35,2.06-.31,1.12-.43,.74-.64,2.39-.02,.45,.38,.66,.5,1.22l-.3,.05c.14,.25,.28,.5,.44,.74-.1,.16-.18,.33-.27,.5,.07,.18,.15,.36,.24,.54-.06-.23,0-.51,.09-.5,.33,.8,.68,2.07,.6,2.18,.48,.56,1.03,1.03,1.62,1.4-.11,.06-.42-.12-.67-.27,1.05,.52-.07,.41,.93,.83-.07-.14,.17-.1,.22-.14,.29,.46,1.32,1.04,2.14,1.23l-.23,.15c1.42,.6,3.19,.71,4.85,.55-.6-.06-.48-.43-.02-.5l.22,.3c.28-.23-.5-.07,.09-.38,.59-.04,.46,.32,.12,.47,.24-.06,.48-.15,.72-.22,.06,.09-.1,.17-.13,.3,.26-.23,1.34,.07,1.68-.4l.07,.08c1.56-.46,2.17-.87,3.32-1.4-.1-.27,.38-.42,.61-.79,.86-.32,1.85-.6,2.79-1.13,.6-.48,.08-.32,.3-.62,.17,.2,1.11-.34,.7,.09,1.12-.66,1.43-.84,2.76-1.82-.21,0-.4,.05-.35-.07,.24-.18,.64-.24,.66-.11l-.06,.06c1.41-1.23,4.06-1.45,5.06-2.64l-.06,.06,1.17-1c.63-.31-.27,.38,.26,.26,1.2-1.19,2.26-1.23,3.29-2.15,1.28,.14,3.17-1.87,4.63-2.13l-.16-.12c.23-.33,.43-.12,.68-.22-.1-.1-.42,.05-.27-.14,2.58-1.67,5.68-2.78,8.55-3.99,1.04-.46,.19-1.11,1.67-1.34l-.23,.47c1.92-1.35,4.29-1.88,6.28-3.11-.1,.13-.06,.22-.27,.31,.54,.03,1.67-.74,1.59-.92,.34-.14,.15,.12,.4,.12,.52-.09,.99-.84,1.33-.76,.06,.01-.09,.14-.16,.2,.24-.25,1.36-.74,.95-.82,.85-.35,1.39-1.03,2.06-1.34,.19-.51,1.32-.92,1.12-1.34,.28,.4,1.42-.92,1.57-1.55,0,.24,.42-.33,.43-.03,.4-.56,.64-1.16,.38-1.17,.55-.41,.75-1.05,.86-1.61,.13-.56,.19-1.05,.61-1.33,.27-2.12-.17-4.13-1.05-5.72,.23-.07,.44,.4,.62,.87,.17,.47,.29,.94,.5,.86-.29-.88-.68-1.51-1.09-2.07-.41-.55-.8-1.09-1.31-1.78-.23-.38,.31,.07,.46,.15-1.19-1.26-2.3-2.44-3.7-3.02,.03-.03,.19,.01,.33,.07-.26-.15-.55-.42-.62-.22l.27,.1c.23,.48-1.3-.05-1.41,.1,.71-.32-1.22-.75-.21-1.09-.19-.04-.45-.05-.47,.09-.24-.15-.3-.25,.03-.29-1-.28-.74,.05-1.6-.26,.03-.09,.22-.07,.35-.15-.51,.03-1.01,.07-1.72-.22,.06-.05,0-.14,.22-.08-1.29-.33-2.3-.06-3.64-.54,.5-.34-.44-.24-.44-.62l-.77-.05,.26,.24c-.65-.14-1.28,0-1.81-.24l.51-.04-1.22-.2,.65,.29c-.7,.04-.03,.48-.87,.18,.18,0-.65-.15-.92-.47h0c-.34,.02-.7,.04-1.14-.19-.09-.15,.22-.37,.16-.47-.39,.2-1.5-.34-1.99-.19,.15-.03,.22-.21,.2-.26l-.34,.14c-.26-.19-.29-.24-.19-.37-.84-.37,.11,.55-.84-.03,.09,.01,.06-.04,.24-.01-.49-.25-1-.39-1.5-.55-.49-.18-.97-.36-1.4-.62-.11-.46,.84,.28,.66-.15-.67-.27-1.4-.46-2.11-.71-.7-.26-1.4-.54-2-.9l.21,.16c-.43,.38-.81-.71-1.54-.86,.17,.05,.34-.14,.27-.12-.79-.56-1.79-.84-3.12-1.48l.23-.02c-.42-.4-1.25-.84-1.74-1.22-.23,.02-.51-.19-.44,.09-1.19-1.67-3.29-1.61-4.35-3.08,.17,.11,.47,.16,.33,.08l-1.28-.68c-.03,.26,.08,.22,.24,.54-.23,.01-.63-.12-.93-.31,.63,.23,.2-.31,.03-.58,0,.09-.12,.1-.14,.17-.41-.76-.36,.32-1.07-.47l.11-.07c-.36-.16-.74-.21-1.07-.47,0-.32,.41,.12,.55-.06-.5-.3-1.24-.19-1.55-.7,.25,.07,.55,.26,.8,.33-.32-.57-.42-.54-.75-.82l.03,.03-.76-.65,.17,.21c-.99,.21-1.34-.67-2.42-.79,1.04,.13,.26-.13,.48-.35-.17-.2-.45-.48-.31-.5-.52-.04-.58-.56-1.33-.58,.02-.1-.43-.26-.22-.42-.57-.24,.04,.22-.06,.3-.49-.09-.92-.45-1.4-.82-.49-.36-1.05-.72-1.75-.83-1.12-.38-1.46-.16-2.51-.45-.27-.29,.42-.2,.42-.2-.48-.37-.89-.53-1.44-.66,.14-.03,.06-.15-.05-.32-.42-.16-.41,.21-.9-.13,.13-.07,.32-.18,.56-.2-.53-.11-1.08-.12-1.62-.23-.08-.21,.4-.13,.62-.16-.6-.15-1.54-.42-1.81-.23l.33,.23c-.21-.07-.03-.26,.14-.25,.56-.01,.68,.36,.67,.46l-.38-.08c.17,.68,1.48,.45,2.19,.78l-.46,.26c.29-.02,.57,0,.86,0,.11,.17,.12,.43-.25,.33,.42,.42,.51,.07,.84,.47,.03,.05,0,.06-.05,.06l.54,.11c-.13,.04-.04,.3-.32,.11,.78,.6,1.55,.37,1.73,.82h-.08c1.25,.47,.25-.23,1.31-.08l.25,.98,.26-.21c.12,.07,.35,.22,.25,.3,.55,.07-.01-.16,.34-.19,.45,.57,1.67,.8,1.56,1.29,.32-.08-.47-.47,.23-.26-.09,.55,.77,.32,1.16,.85-.3,.13-.72-.29-.32,.24,.55-.2,.96,.7,1.44,.89,.21-.3,1.03,.45,1.82,.82-.11,.08,1.26,1.04,1.86,1.59l-.05,.04c.33-.22,.99,.29,1.53,.55-.14,.17-.28,.18-.61,.09l.48,.31c.18-.03,.36,.02,.69,.19l-.27,.15c.64,.4,1.45,.56,2.17,1.25,.19-.18-.26-1.02,.69-.6-.04,.14-.14,.36-.4,.26,.08,.03,.33,.08,.44,.22l-.47-.03c.32,.33,.3-.04,.58,.18-.11,.16,.14,.26,.02,.36-.09-.03-.21-.24-.37-.25,.31,.25,.66,.61,.71,.82,.03-.11,.14-.22,.4-.09,.65,.4,.09,.34,.41,.66,.23-.02,.56,.36,.73,.12,.19,.12,.15,.26,.18,.37,.4,.11,1.59,.93,1.37,.43l-.08-.07,.06,.02h0c1.24,.43,2.2,1.53,3.38,2.05l-.05,.08c.71,.29,1.52,.77,2.1,.83,.2,.1,.39,.4,.25,.46,.55,.2,.66,.13,1.34,.67-.6-.12,.11,.23-.59-.16,.63,.43,.74,.63,1.59,.73-.36,.11,.39,.53,.76,.61l-.41-.39c.39,.14,.7,.3,1.02,.47l-.31,.22c.63,.53,1.39,.58,2.05,.7,.67,.1,1.26,.25,1.74,.73,.47-.09-.76-.41-.32-.56,.67,.26,1.25,.93,1.47,1,.91,.46,1.02-.18,1.99,.2-.1-.15-.14-.48,.63-.41,.68,.2,.75,.68,.28,.67-.17-.03-.24-.09-.23-.12-.24-.01-.55-.03-.3,.16l.12-.09c.32,.2,1.29,.4,1.02,.54,.55,0,.27-.14-.11-.29,.86,.36,1.4,.3,2.29,.61-.13-.09-.24-.26-.09-.23,1.31,.43,.64-.1,1.55,.05,.47,.29-.28,.38,.66,.44,.52,.25,.04,.33-.2,.38,.87-.03,1.47,.53,1.89,.7l-.44-.03c.26,.02,.46,.08,.66,.14l-.16-.3c.23,.11,.43,.18,.4,.27,.3-.07-.07-.44,.49-.48,.28,.22,1.02,.23,1.01,.57-.95-.48,0,.33-.85,.07,.17,.02,.37,.09,.58,.22,.02,.05-.06,.05-.13,.04,.8,.63,.56-.17,1.49,.28-.19,.1,.06,.4,.22,.45-.36-.19-.03-.36,.36-.29,.51,.44,.67,.28,.96,.48l-.3-.27c.21-.08,.48,.12,.9,.35-.05,.13-.4-.17-.3-.02,.62,.05,.74,.95,1.38,1.28,.15,.31-.21,.26-.07,.51,.69,.41,.38,.76,.97,1.27,.07-.32,0-.33,.51,.02-.28-.35-.59-.67-.92-.97,.26,.15,.55,.29,.8,.47-.24-.34-.65-.6-.78-.8,.43,.18,.36,.19,.37-.09,.09,.66,.9,.77,1.02,1.5l-.52,.27c.12,.46,.34,.79,.58,1.18,.22,.39,.46,.84,.44,1.45,.02-.13,.05-.27,.06-.4,.26,.13,.12,.75,.21,1.15-.19-.04-.27,.21-.41,.36,.16,0-.1,.86,.24,1.05-.13,.16-.24,.33-.39,.48-.4,.89,.16,1.3-.39,2.18-.04-.37-.38-.04-.2-.69-.16,.28-.32,.52-.21,.6-.19,.1-.26,.92-.61,1.06-.02,.16,.12,.32-.13,.62-.06,0-.07-.06-.07-.06,.08,.06-.29,.54,.1,.43-.57,.21-1.07,.73-1.61,1.22-.53,.48-1.1,.93-1.63,.97-.58,.47-1.34,.99-1.94,1.32,.01-.07-.04-.09,.08-.13-.93,.27-.26,.78-1.34,1.07-.64-.05,.45-.4,.08-.36-.41-.52-1.15,.64-1.99,.58l.15-.11c-.6,.02-1.17,.77-2.05,1.09,0,0,.02-.07-.03-.09-.46,.55-1.52,1.14-2.3,1.59,.15-.34,.32-.29,.06-.45-.35,.2,.28,.33-.43,.72-.29-.02-.87,.12-1.06-.1l.68-.34c-.5-.16-.89,.43-1.28,.54l-.02-.16c-1.04,.54-.87,.91-2.01,1.43l.17,.05c-.44,.65-.61,.05-1.09,.62l-.36-.26c-.36,.29-1.24,1.05-1.91,1.5,.27-.48,1.04-1.04,1.48-1.46-.4,.2-1.34,.71-1.46,1,.14-.12,.3-.31,.48-.34-.34,.53-.91,1-1.7,1.41-.22-.75-2.13,.93-2.98,.72-1.24,1.01-2.79,1.41-4.35,2.36,.86,.2-.46,.28-.05,.75-.35,.25-.5,.32-.55,.3l-1.3,.33c-.35,0,.28-.32,.18-.42-.83,.42-.47-.03-1.08,.14,.22,.13-.12,.43-.63,.63l.79-.13c-.97,.93-1.23,.12-2.21,1.05l.26-.37c-.53,.44-2.15,1.24-2.48,1.99-.14,0-.36-.07-.12-.25-1.43,.74-2.85,2.22-4.08,2.57l.03-.19c-.24,.19-.32,.5-.72,.55-.01-.06,.03-.19-.09-.13-.11,.12-.57,.61-.96,.73l.21-.31c-1.46,.58-1.91,1.51-3.02,2.21-.2-.39-1.34,.04-1.91,.23v-.06c-1.61,.69-2.56,1.53-4.07,2.06-.53-.13-1.33-.03-2.19-.04-.83,0-1.75-.15-2.4-.49,.19,.13-.13,.33-.4,.27-.3-.18-1.03-.09-.8-.44l.11,.06c-.06-.47-.7-.68-1.1-1.02l-.39,.36c-.32-.75-.93-1.33-1.33-2.05-.41-.68-.58-1.51-.27-1.93-.16-.34-.17-.81-.3-1.19l.28,.02c.09-1.06,.15-1.65,.11-3.02l.19,.29c.04-.77-.79-1-.79-1.72l.43-.2c.03-1.35,.44-2.71,.09-4.06,.06,.02,.18,.07,.19,.29,.03-.64,.35-2.45-.23-2.24,.38,0,.07-1.39-.07-2.13l.28,.12c-.34-.63-.44-.65-.51-1.51,.04-.2,.23-.17,.15,.1,.16-.68-.25-.54-.08-1.36l.17,.31c.04-.7-.06-.65-.25-1.04-.1-.44,.11-1.32,.36-1.42-.15-.1-.35-.49-.26-.9,.1-.05,.15,.1,.18,.17,.22-1.16-.28-1.75,.02-2.54,.09-.01,.14-.07,.17-.13-.03,.93-.07,1.68-.08,1.61,.26,0,.32-.74,.66-.14-.18-.61-.57-1.65-.43-2.38,.03-.03,.05-.07,.09-.09l.03,.08c.03-.17,.01-.32-.03-.46,.05-.23,.08-.38,.09-.6,.21-.08,.14-.86,.16-1.23-.28,.02-.22-.47-.47-.01,.02-.06,.03,.07,.04,.32,0,.06,0,.12,.02,.16l-.02-.03c0,.25,0,.57,0,.93-.13-.3-.25-.61-.08-1.02-.18-.2-.36-.41-.44-.53,.41-.5,.64-1.48,.89-1.61-.13-1.15-.03-2.69-.54-3.43-.06-.33,.16-.37,.25-.49,.05,.19,.03,.41,.11,.52-.12-.65,0-1.93-.37-2.09,.19-.81,.33,.47,.3-.66l.11,.15c.65-2.2-.85-3.62-.02-6.05-.05,.17-.07,.25-.14,.29,.41-2.79-.16-5.77,.44-8.52,.13-.78-.11-.87-.27-1.36l.31-.16-.33-.83c-.22-1.17,.79-1.99,.35-3.47l-.21,.18c.05-.53-.08-1.67,.16-1.58-.04-.05-.21-.18-.1-.38h.16l-.24-1.32c.14-1,.62,.17,.69-1.29-.05-.55-.42-1.56-.53-1.36-.01,.22-.11,.56-.27,.57l-.07-.5c-.46-.1-.93-.5-1.29,.72l.26,.86-.23,.27v-.72c-.22,.4-.04,.66,.08,.96-.12,.07-.21,.18-.26,.35l.42,.85c-.19,.1-.35-.39-.47,.17,.2,.4,.42-.37,.54,.29-.22,.4-.39,.28-.22,.76-.12,.06-.2-.04-.24-.23,.13,.43,.03,1.13,.27,1.36-.27,.42,.03,1.44-.41,1.39,.1,.14,.33,.76,.33,1.15-.51-.73-.07,1.46-.63,1.26,.46,.54,.16,1.92,.4,2.86-.04-.05-.11-.16-.08-.24-.05,.53-.2,.68-.3,1.01,.39,.08,.46,.9,.69,1.35-.39,.64-.45-.41-.82-.21,.32-.02,.29,1.13,.56,.92-.25,.49-.12,.42-.46,.67,.49,.1,.07,.46,.36,.88-.26,.71-.46,.17-.34,.96-.16,.37-.32-.33-.32-.33Zm.35,18.73h0v0Zm-.03,1.57c.02-.19,.02-.43,.03-.68,.1-.05,.2,0,.19,.17-.06-.09-.13,.28-.22,.51Zm2.04-3.27c.03,.25-.02,.33-.08,.36,0-.12,0-.26-.02-.44l-.03-.03c.05,.03,.1,.05,.14,.1Z"/><path class="e" d="M77.74,73.97s-.02-.06-.02-.1c-.03,.05-.05,.1-.07,.15l.09,.09v-.13Z"/><path class="e" d="M106.13,53.9l.03,.02s-.03-.05-.04-.07c.01,.02,0,.03,.01,.05Z"/><polygon class="e" points="75.07 99.56 75.14 99.55 75.06 99.4 75.07 99.56"/><path class="e" d="M99.37,48.4s-.01-.07-.06-.12c0,.02,.02,.07,.06,.12Z"/><path class="e" d="M96.25,46.32l-.39-.37c.16,.17,.29,.28,.39,.37Z"/><path class="e" d="M93.86,44.68c-.06,.02-.08,.05-.11,.07h0l.11-.07Z"/><path class="e" d="M135.11,63.66s.07,.04,.11,.05c.26,.11,.1,.02-.11-.05Z"/><path class="e" d="M121.69,60.18c.15,0,.3-.02,.45-.01-.23-.07-.4-.14-.45,.01Z"/><polygon class="e" points="138.49 78.42 138.49 78.41 138.43 78.5 138.49 78.42"/><path class="e" d="M122.75,60.33c-.22-.11-.42-.15-.61-.15,.19,.06,.4,.15,.61,.15Z"/><path class="e" d="M82.59,39.02l-.13-.06s-.02,.03-.03,.04l.16,.02Z"/><path class="e" d="M82.44,38.99l-.16-.02c.07,.03,.13,.05,.16,.02Z"/><path class="e" d="M81.94,38.93c.11,0,.22,.03,.33,.04-.11-.04-.24-.1-.33-.04Z"/><path class="e" d="M86.14,40.59l.08-.07s-.06,.03-.08,.07Z"/><path class="e" d="M87.22,41.04c-.24-.14-.55-.49-.93-.59l-.07,.06c.23-.06,.69,.58,1,.53Z"/><path class="e" d="M90.93,44.4l-.8-.55c.09,.18,.22,.42-.18,.22,.9,.88-.1-.34,.98,.33Z"/><path class="e" d="M93.43,46.05c-.47-.23-.08,.14-.13,.18,.33,.09,.41,.11,.13-.18Z"/><path class="e" d="M111.96,57.46l-.16,.2c.38,.15,.05-.09,.16-.2Z"/><polygon class="e" points="116.27 58.04 115.98 57.74 115.72 57.87 116.27 58.04"/><polygon class="e" points="117.9 60.62 117.72 60.6 118.4 60.75 117.9 60.62"/><path class="e" d="M133.74,79.73l.28,.19c.17-.21,0-.51-.28-.19Z"/><path class="e" d="M119.91,86.81c-.22-.07-.67,.04-.85,.3,.33-.14,.7-.18,.85-.3Z"/><polygon class="e" points="78.94 102.26 79.19 102.37 78.79 102.09 78.94 102.26"/></g></g></g></svg>