<?xml version="1.0" encoding="UTF-8"?><svg xmlns="http://www.w3.org/2000/svg" xmlns:xlink="http://www.w3.org/1999/xlink" viewBox="0 0 77 81.37"><defs><style>.g{fill:#fff;}.h{fill:#0574e7;}.i{clip-path:url(#e);}.j{fill:#202020;}.k{fill:none;}.l{clip-path:url(#f);}</style><clipPath id="e"><rect class="k" y="0" width="77" height="81.37"/></clipPath><clipPath id="f"><rect class="k" y="0" width="77" height="81.37"/></clipPath></defs><g id="a"/><g id="b"><g id="c"><g id="d"><g class="i"><g class="l"><path class="h" d="M77,38.5c0,21.26-17.24,38.5-38.5,38.5S0,59.76,0,38.5,17.24,0,38.5,0s38.5,17.24,38.5,38.5"/><path class="j" d="M39.55,73.54c-.13,0-.07,.06,.27,.14l.27-.03-.54-.11Z"/><path class="j" d="M41.84,74.24c.42,.04,.9,.05,.66-.09-.42,.01-.51-.05-.97-.03-.35-.06-.6-.16-.53-.18-.13,0-.53-.14-.73-.13,.43,.18,1,.31,1.61,.37,.12,.05,0,.04-.04,.06"/><path class="j" d="M70.09,59.5l-.13,.18s.08-.11,.13-.18"/><path class="j" d="M75.7,38.79c-.02,.16-.02,.23,0,.24,.01-.15,.02-.28,0-.24"/><path class="j" d="M76.08,35.12l-.02,.22c.01-.08,.02-.17,.02-.22"/><path class="j" d="M70.09,59.5c.11-.16,.22-.32,.32-.48,0-.05-.17,.25-.32,.48"/><path class="j" d="M46.59,74.74c-.12,0-.22-.01-.31,0,.1,0,.19,.01,.29,.02,0,0,.01,0,.02-.01"/><path class="j" d="M64.16,66.92l-.12,.13s-.05,.09-.07,.13l.19-.26Z"/><path class="j" d="M59.01,72.08c.13-.11,.12-.2,.14-.27-.05,.09-.13,.18-.23,.28,0,.01,.04,.01,.09,0"/><path class="j" d="M48.18,75.2h0"/><path class="j" d="M67.62,63.01s.04-.02,.06-.03c0,0-.03,0-.06,.03"/><path class="j" d="M38.07,73.72s0,0,0,.01c.04,0,.06-.02,0-.01"/><path class="j" d="M46.51,73.84h-.12s-.02,.04-.02,.05l.14-.05Z"/><path class="j" d="M75.8,28.36v.03c.04,.18,.02,.08,0-.03"/><path class="j" d="M25.99,3.16c.35-.04,.08,.04-.15,.12-.23,.09-.41,.16,.11,.06-.11-.01,.9-.34,.04-.19"/><path class="j" d="M46.78,74.77c.1,0,.2,.02,.3,.03-.13-.02-.22-.02-.3-.03"/><path class="j" d="M25.95,3.35h0l.11-.02-.11,.02"/><path class="j" d="M69.13,14.43s.05,.09,.09,.14c0,0-.02-.04-.09-.14"/><path class="j" d="M74.79,24.5l-.07-.28c.03,.11,.05,.2,.07,.28"/><path class="j" d="M64.37,10.73c-.13-.09-.17-.13-.35-.24,.01,.01,.03,.03,.05,.04,.07,.03,.16,.09,.3,.19"/><path class="j" d="M58.9,7.68l.1,.06,.18,.08-.28-.15Z"/><path class="j" d="M19.74,71.19c.11,.08,.17,.15,.21,.2-.06-.09,.74,.32-.21-.2"/><path class="j" d="M46.59,74.78s.09-.02,.19-.02c-.07,0-.14-.01-.21-.02-.02,0-.02,.02,.02,.03"/><path class="j" d="M63.81,11.11c-.27-.19-.55-.36-.82-.53,.23,.15,.54,.33,.82,.53"/><path class="j" d="M1.36,32.71l.03,.22c0-.09-.01-.17-.03-.22"/><path class="j" d="M60.45,9.16c-.14-.11-.3-.21-.47-.3-.04-.01-.08-.03-.11-.03,.19,.11,.39,.22,.58,.34"/><polyline class="j" points="19.95 71.39 19.95 71.39 19.95 71.39"/><path class="j" d="M26.07,73.23c-.91-.17-.45,.02-.65,.04-1.09-.21-.49-.19-.84-.32-.34-.06-.64-.12-.92-.17-.28-.05-.54-.1-.78-.19-.03-.03-.12-.07,0-.05-.73-.13-2.03-.77-2.83-1.07-.05-.04-.08-.06-.09-.08,.1,.11,.09,.17,.05,.19-.37-.2-.72-.32-.82-.46,.22,.13,.26,.11,.37,.15l-.4-.19c-.14-.15-.02-.07,.16,.02,.18,.09,.39,.21,.41,.18-.19-.1-.39-.19-.59-.3l-.58-.33c-.39-.21-.72-.46-.98-.65-.06-.15,1.27,.86,.6,.29,.27,.21,.55,.39,.83,.58-.57-.54,.51,.34,0-.18-.28-.18-.49-.32-.68-.44-.18-.12-.34-.23-.49-.33-.31-.2-.61-.43-1.11-.85-.26-.15,.02,.13-.24-.03-.37-.3-.62-.51-.79-.69-.17-.19-.27-.32-.36-.45-.19-.25-.32-.46-.85-.92-.3-.21-.48-.24-1.09-1.03,.1,.06,.2,.12,.3,.18-.42-.49-.56-.61-.71-.74-.15-.13-.3-.27-.69-.82,.18,.16,.66,.78,.55,.61-.48-.74-.44-.45-.85-.98v-.17c-.86-1.09-1.79-2.3-2.66-3.56,.07,.05,.24,.26,.07-.06-1.11-1.59-2.3-3.45-3.17-5.08-.14-.19-.28-.38-.41-.58-.08-.15-.11-.29-.01-.14-.3-.65-.06,0-.25-.3-.19-.36-.2-.51-.06-.28-.31-.55-.72-1.36-1.03-2.22-.31-.86-.53-1.76-.62-2.43l.08,.25c-.18-1.03-.4-1.13-.49-2.1l.04,.18c-.33-2.26-.78-4.76-.93-6.51-.17-.31-.29-2.25-.48-2.37-.12-1.31-.04-.94-.25-2.77-.06-.49-.21-.71-.3-1.31l.08-.03-.19-.81,.06-.45-.08-.56c.02,.23,0,.48-.02,.45-.13-.88-.09-2.15-.03-2.18-.02-.35-.03-.69-.04-1.04l.02-1.04s.02,.4,.03,.67c-.03-1.11,.1-.2,.08-1.21-.04,.13-.04-.08-.06-.1,.06-.25,.12-.66,.18-1.11,.06-.45,.17-.94,.24-1.37l.03,.17c.33-1.5,.79-3.15,1.49-4.74-.26,.56-.31,.39-.12-.08l.17-.15c.09-.32-.26,.47-.03-.17,.29-.58,.28-.35,.15,0l.31-.73s-.02,.14-.01,.2c.02-.08,.07-.19,.14-.33,.07-.13,.17-.28,.26-.43,.19-.31,.37-.63,.44-.86l.04-.03c.46-.73,.76-1.28,1.11-1.76,.16-.24,.32-.48,.49-.73,.18-.24,.37-.49,.58-.77-.04-.07,.3-.5,.53-.86,.35-.39,.71-.8,1.13-1.19,.2-.2,.41-.41,.62-.62l.67-.63c.61-.63,.14-.23,.4-.53,.1,.01,1.04-.81,.58-.35,.29-.24,.51-.45,.73-.63,.22-.17,.42-.33,.62-.5,.41-.34,.88-.68,1.65-1.25-.19,.09-.38,.22-.3,.13,.27-.22,.68-.41,.65-.35l-.07,.06c.44-.31,.92-.63,1.44-.9,.26-.14,.52-.28,.79-.42,.27-.13,.54-.26,.81-.38,.53-.26,1.06-.48,1.55-.7,.48-.23,.94-.42,1.32-.62l-.08,.04c.53-.26,1.07-.49,1.62-.72,.77-.28-.44,.23,.14,.05,.88-.38,1.59-.62,2.28-.81,.68-.21,1.33-.36,2.08-.61,.62-.04,1.66-.3,2.77-.53,.55-.12,1.13-.22,1.66-.32,.53-.09,1.03-.14,1.44-.17l-.1-.04c.41-.11,.51-.04,.82-.07-.05-.03-.46,.01-.2-.05,3.56-.51,7.44-.63,11.04-.04,.66,.11,.85,.09,1.09,.08,.24,0,.52,.01,1.33,.28-.16-.01-.33-.02-.49-.03,2.66,.53,5.25,1.77,7.74,2.74-.16-.04-.17-.02-.41-.12,.49,.29,1.92,.83,1.95,.79,.38,.17,.07,.08,.29,.21,.5,.26,1.34,.5,1.58,.68,.04,.03-.15-.04-.25-.08,.35,.12,1.56,.73,1.27,.51,.89,.46,1.75,.8,2.44,1.2,.5,.16,1.5,.84,1.69,.82-.06,.04,.31,.28,.76,.54,.45,.28,.99,.57,1.27,.72-.2-.08,.44,.33,.2,.24,.61,.38,1.15,.75,1.09,.63,.25,.23,.52,.42,.77,.62,.26,.2,.51,.38,.75,.55,.48,.35,.88,.69,1.1,1,1.62,1.38,2.93,2.88,3.99,4.48-.07,0-.37-.43-.65-.86-.31-.41-.61-.8-.63-.72,.57,.7,1,1.27,1.4,1.87,.4,.59,.76,1.21,1.14,2.03,.18,.43-.16-.22-.25-.35,.86,1.6,1.37,3.23,1.86,4.78-.01,0-.07-.17-.12-.32,.09,.31,.17,.72,.22,.67l-.09-.3c-.02-.26,.1,.04,.24,.41,.14,.37,.26,.81,.29,.84-.14-.25-.06,.15,0,.5,.05,.36,.09,.68-.09,.27,.05,.2,.12,.46,.15,.41,.04,.31,.04,.41-.06,.11,.12,.56,.16,.74,.21,.91,.04,.17,.09,.32,.15,.84-.03,0-.06-.21-.11-.31,.07,.26,.11,.52,.17,.82,.05,.3,.09,.65,.11,1.09-.02-.05-.03,.05-.05-.21,.12,1.5,.29,2.57,.18,4.23-.1-.49-.06,.56-.18,.65,0,.3,0,.59-.02,.89l.08-.35c-.03,.39-.04,.76-.05,1.11-.02,.35-.04,.7-.09,1.03v-.58c-.02,.49-.07,.97-.13,1.46l.14-.82c-.04,.79,.14-.07-.01,.96,.02-.21-.1,.78-.23,1.17h0c-.02,.39-.06,.79-.17,1.35-.06,.14-.09-.14-.13-.05,.03,.39-.3,1.81-.31,2.3,0-.16-.04-.18-.06-.13v.33c-.09,.35-.11,.4-.14,.33-.24,1.07,.2-.31-.13,.94,.02-.1,0-.06,.03-.26-.31,1.27-.52,2.46-.84,3.62-.19,.32,.23-1.02,.04-.65-.39,1.68-.76,3.5-1.22,5.1l.09-.3c.08,.26-.4,1.18-.59,2,.05-.2,0-.28,0-.22-.18,.54-.36,1.09-.59,1.7-.23,.61-.5,1.29-.9,2.05l.07-.21c-.34,.57-.92,1.5-1.37,2.08-.09,.2-.35,.53-.15,.36-.75,.83-1.41,1.67-2.06,2.48-.65,.81-1.29,1.6-2.02,2.27,.16-.18,.35-.44,.23-.3l-1.12,1.28c.14-.05,.18-.14,.46-.36-.12,.18-.42,.56-.71,.86,.49-.59-.08-.07-.33,.15,.05-.03,0,.07,.02,.06-.69,.56,0,.2-.9,1.02l.02-.07c-.3,.34-.56,.67-.92,1.01-.2,.09,.32-.37,.29-.43-.48,.49-.86,1.06-1.35,1.44,.19-.22,.49-.51,.68-.73-.54,.41-.58,.48-.95,.82l.04-.03c-.29,.26-.58,.52-.87,.77l.23-.18c-.5,.73-1.26,1.2-2.12,1.98,.83-.77,.11-.17,.13-.29-.25,.16-.63,.38-.54,.29-.41,.35-.77,.45-1.4,.88-.04,0-.52,.24-.44,.13-.63,.29,.17-.02,.13,.03-.47,.27-1.08,.46-1.76,.59-.68,.14-1.42,.22-2.2,.32-.67,.06-1.07,.09-1.46,.12-.39,.03-.77,.05-1.4,.03-.42-.07,.35-.08,.35-.08-.68-.08-1.2-.12-1.84-.14,.13-.01,0-.04-.19-.09-.52-.05-.36,.07-1.03-.05,.12-.02,.28-.04,.53-.05-.61-.04-1.21-.07-1.84-.14-.16-.07,.39-.02,.61-.02-.71-.07-1.82-.24-2.05-.2l.44,.11c-.26-.04-.12-.09,.07-.07,.61,.04,.86,.16,.89,.2l-.45-.05c.43,.24,1.8,.24,2.7,.34l-.39,.08h.94c.19,.04,.32,.12-.12,.1,.64,.12,.58,.01,1.13,.12,.06,.01,.03,.02-.02,.02h.64c-.13,.02,.1,.1-.29,.05,1.14,.14,1.85-.02,2.28,.06h-.1c.8-.03,.83-.07,.82-.1-.01-.03-.07-.06,.51-.16,.27,.04,.55,.08,.82,.1l.14-.11c.16-.02,.48-.09,.43-.04,.58-.2-.11-.01,.22-.15,.39-.05,.91-.22,1.35-.4,.43-.18,.78-.35,.9-.33,.22-.18-.7,.29,.03-.13,.29,.02,.84-.49,1.46-.86-.14,.19-.73,.54-.09,.19,.29-.35,1.15-.82,1.6-1.24-.04-.09,.97-.91,1.66-1.65-.02,.07,1.4-1.31,2.09-1.97v.03c.05-.2,.74-.9,1.21-1.43,.03,.06-.04,.17-.29,.47l.46-.49c.08-.14,.21-.3,.5-.63l-.06,.18c.6-.66,1.14-1.39,1.93-2.22-.01-.1-.75,.56,0-.39,.06,0,.14,0-.06,.25,.06-.08,.22-.3,.37-.45l-.27,.41c.36-.38,.14-.24,.41-.56,.04,.04,.23-.21,.23-.14-.07,.08-.25,.26-.34,.4,.31-.35,.71-.77,.86-.88-.05,.01-.06-.05,.16-.32,.56-.7,.25-.19,.59-.58,.11-.19,.49-.62,.43-.68,.16-.21,.22-.23,.3-.29,.12-.2,.44-.64,.66-.99,.23-.35,.36-.62,.19-.42l-.07,.1,.04-.07h0c.37-.66,.77-1.34,1.12-2.05,.35-.71,.65-1.44,.87-2.16h.03c.26-.85,.56-1.91,.67-2.54,.07-.26,.21-.59,.21-.47,.15-.67,.15-.75,.44-1.69-.13,.68,.1-.22-.14,.69,.25-.85,.34-1.04,.5-1.98-.01,.33,.25-.63,.33-1.04l-.2,.59c.1-.46,.21-.87,.31-1.28l.04,.24c.54-1.75,.55-3.24,1-4.57,.03-.49-.24,.96-.23,.52,.18-.82,.46-1.66,.51-1.92,.24-1.13,.04-1.08,.24-2.27-.06,.15-.16,.28-.08-.61,.12-.83,.25-1.01,.23-.48-.02,.2-.04,.3-.05,.29-.02,.27-.05,.63,.03,.3l-.02-.11c.09-.41,.2-1.56,.23-1.29,.03-.64-.03-.28-.09,.19,.16-1.07,.15-1.68,.23-2.79-.03,.18-.07,.34-.07,.16,.06-.81,.03-.99,.02-1.11-.02-.11-.04-.16-.05-.71,.05-.63,.12,.22,.07-.89,0-.68,.09-.15,.12,.12-.05-.51-.06-.98-.06-1.4-.01-.42,0-.79-.02-1.08l.07,.53c-.03-.32-.06-.58-.09-.85l-.03,.31c-.02-.31-.05-.58-.02-.58-.08-.32-.08,.26-.21-.37-.01-.42-.21-1.25-.15-1.41,.16,1.31,.07-.16,.24,.94-.04-.21-.08-.47-.11-.79,0-.05,.02,.04,.04,.13-.05-.63-.12-.77-.18-.91-.07-.14-.12-.29-.26-.93,.08,.15,.03-.32-.03-.52,.11,.52-.03,.26-.17-.2-.18-.82-.25-.87-.37-1.3,.05,.16,.08,.32,.12,.49-.09-.15-.2-.55-.39-1.1,.02-.06,.18,.5,.14,.29-.14-.3-.22-.65-.33-1.03-.11-.38-.22-.8-.43-1.21-.13-.4,.07-.07-.05-.42-.22-.46-.34-.71-.44-.97-.1-.27-.22-.53-.49-.99,.08,.3,.12,.34-.28-.29,.28,.51,.58,1.02,.83,1.54l-.28-.49-.3-.48c.26,.46,.53,.98,.65,1.27-.28-.46-.24-.42-.18-.17-.11-.35-.27-.67-.46-.99-.19-.32-.38-.65-.57-1.02l.16-.06c-.57-1.13-1.26-1.86-2.27-3.14l.32,.42c-.1-.06-.26-.25-.45-.48-.09-.11-.19-.23-.29-.35-.1-.11-.21-.22-.3-.31,.07,0-.14-.26-.27-.44,0,.03-.2-.2-.45-.41-.24-.22-.5-.44-.59-.45-.16-.19-.33-.36-.49-.54-.25-.22-.45-.38-.62-.52-.18-.13-.34-.23-.5-.32-.32-.19-.62-.39-1.13-.76,.34,.17-.1-.2,.61,.26-.34-.25-.65-.48-.67-.45-.18-.18-1.01-.6-1.3-.85-.16-.08-.24-.06-.64-.31-.04-.04,.02-.02,.02-.02-.02,.02-.65-.35-.33-.09-.13-.1-.27-.21-.43-.32-.16-.1-.33-.21-.51-.32-.36-.22-.75-.43-1.14-.63-.78-.42-1.56-.79-2.03-1.1-.83-.38-1.84-.83-2.6-1.17,.06,0,.01-.02,.16,.05-1.03-.52-.71-.14-1.88-.72-.57-.35,.65,.23,.29,.04-.09-.24-1.45-.6-2.22-1.05l.2,.07c-.59-.32-1.53-.58-2.55-1.01,0,0,.06,0,.02-.02-.73-.2-2.07-.67-3.09-.96,.34,.03,.47,.11,.3-.02-.45-.14,.1,.15-.81-.11-.28-.13-.93-.34-1-.44,.29,.08,.58,.15,.87,.23-.41-.23-1.12-.3-1.58-.42l.07-.03c-.67-.14-1.03-.17-1.39-.2-.36-.03-.73-.06-1.47-.15l.15,.05c-.81,.03-.67-.13-1.47-.11l-.24-.12c-.53,0-1.86,.04-2.81,.1,.54-.1,1.65-.15,2.34-.16-.53-.03-1.79-.02-2.07,.05,.21-.01,.48-.05,.69-.03-.65,.09-1.49,.15-2.53,.21,.09-.11-.6-.09-1.39-.03-.8,.07-1.71,.15-2.1,.12-1.83,.3-3.65,.48-5.76,.97,.78-.01-.61,.15-.44,.29-.49,.13-.67,.17-.72,.17l-1.5,.3c-.18,.03-.07-.02,.08-.07,.15-.05,.34-.11,.31-.12-1.07,.29-.47,.06-1.18,.22,.16,.02-.35,.19-.95,.37,.29-.07,.58-.13,.87-.19-.73,.26-1.05,.35-1.38,.42-.33,.07-.66,.14-1.37,.47l.44-.23c-.74,.3-2.75,1.09-3.38,1.58-.14,.04-.33,.08-.01-.08-.44,.19-.88,.44-1.33,.68-.45,.24-.89,.52-1.32,.78-.44,.26-.84,.54-1.23,.78-.19,.12-.38,.24-.56,.35-.17,.12-.34,.23-.5,.32l.1-.12c-.29,.21-.46,.42-.85,.64,0-.03,.09-.12-.04-.02-.14,.13-.71,.64-1.1,.91l.29-.28c-.38,.27-.69,.55-.98,.8-.28,.26-.54,.49-.77,.74-.23,.25-.46,.49-.69,.74-.24,.25-.46,.53-.73,.81-.04-.04-.33,.19-.66,.51-.32,.33-.69,.74-.94,1.01v-.03c-.34,.43-.64,.83-.93,1.22-.27,.4-.52,.79-.76,1.17-.46,.78-.89,1.55-1.34,2.46-.09,.13-.19,.28-.29,.46-.1,.18-.2,.38-.31,.6-.11,.22-.22,.45-.34,.7-.1,.25-.21,.51-.32,.78-.45,1.07-.8,2.27-1.08,3.24,.1-.29,.07,.07,0,.42-.12,.46-.16,1.3-.26,1.2l.03-.16c-.04,.08-.09,.2-.13,.35-.03,.15-.06,.33-.09,.52-.05,.38-.12,.81-.14,1.19l.14,.14c-.07,.49-.15,1.06-.15,1.66,0,.6,.03,1.22,.08,1.81,.1,1.18,.27,2.23,.24,2.78,.1,.47,.18,1.05,.29,1.51h-.08c.18,1.29,.27,1.93,.53,3.53l-.11-.32c.13,.9,.4,1.1,.54,1.94l-.08,.27c.25,1.57,.39,3.18,.74,4.72-.02-.02-.06-.06-.11-.32,.06,.37,.15,1.09,.25,1.69,.1,.59,.22,1.05,.27,.9-.05,.02,.02,.43,.16,.93,.13,.51,.33,1.11,.48,1.51l-.12-.11c.32,.67,.34,.69,.75,1.63,.09,.23,.02,.22-.08-.09,.14,.38,.22,.52,.31,.67,.09,.16,.19,.33,.39,.78l-.21-.31c.36,.75,.36,.67,.63,1.05,.27,.44,.77,1.37,.77,1.51,.09,.07,.38,.43,.63,.85,.01,.07-.1-.07-.15-.14,.7,1.19,1.2,1.67,1.65,2.5-.01,.03,.01,.09,.05,.16-.6-.91-1.08-1.65-1.03-1.59-.06,.04,.41,.79-.06,.25,.43,.56,1.2,1.51,1.66,2.25,.02,.04,.04,.08,.04,.11l-.06-.07c.11,.17,.21,.31,.32,.44,.15,.23,.23,.39,.39,.6,.01,.12,.55,.85,.82,1.21,.04-.08,.37,.4,.11-.08,.04,.06-.06-.06-.23-.3-.04-.05-.09-.11-.12-.15l.02,.02c-.17-.24-.39-.55-.63-.9,.23,.26,.47,.54,.72,.97,.17,.15,.36,.33,.47,.42,.26,.56,.92,1.52,.98,1.69,.44,.52,.95,1.13,1.45,1.67,.5,.54,1,1,1.34,1.25,.29,.26,.29,.34,.37,.46-.17-.14-.36-.33-.46-.4,.29,.26,.7,.66,1.08,.98,.38,.32,.71,.59,.82,.6,.73,.64-.49-.27,.57,.55l-.16-.09c.99,.87,1.94,1.41,2.95,1.87,1.01,.45,2.07,.86,3.43,1.38-.19-.07-.28-.11-.32-.14,1.57,.56,3.26,.85,4.95,1.03,1.69,.18,3.38,.23,5.01,.31,.93,.02,1.03-.04,1.59-.1l.2,.08,.96-.12c1.37-.11,2.37,.14,4.1-.05l-.22-.05c.62,0,1.97-.1,1.87-.03,.06-.01,.2-.07,.45-.04l.02,.04,1.52-.13c1.18,0-.18,.18,1.55,.13,.64-.04,1.82-.19,1.58-.21-.26,0-.66,0-.68-.05l.59-.04c.1-.13,.55-.28-.89-.33l-1,.11-.33-.05,.85-.03c-.48-.04-.78,.02-1.12,.07-.08-.03-.22-.05-.42-.06l-.98,.16c-.12-.05,.44-.12-.22-.12-.46,.07,.45,.1-.32,.16-.48-.04-.34-.1-.91-.03-.08-.03,.04-.06,.26-.08-.5,.06-1.33,.06-1.58,.14-.5-.06-1.69,.07-1.65-.05-.16,.03-.88,.13-1.34,.15,.84-.17-1.72,.04-1.51-.13-.62,.15-2.24,.1-3.34,.15,.06,0,.18-.03,.28-.02-.62-.01-.8-.07-1.19-.1-.08,.11-1.05,.09-1.57,.12-.75-.17,.47-.09,.24-.21,.03,.1-1.31-.02-1.06,.08-.57-.12-.49-.09-.78-.21-.12,.13-.54-.04-1.02-.03-.82-.19-.19-.15-1.1-.28-.42-.12,.39-.02,.39-.02m-16.76-12.74h0c.11,.16,.2,.29,.26,.37-.05-.08-.13-.19-.26-.37m-1.02-1.54c.12,.19,.28,.42,.44,.67,.01,.07-.05,.03-.15-.13,.07,.07-.16-.3-.29-.54m1.74,3.55c-.18-.23-.22-.32-.23-.37,.08,.11,.18,.24,.3,.42l.03,.02s-.06-.03-.1-.07"/><path class="j" d="M10.41,62.88l.08,.09c-.03-.05-.06-.1-.09-.15l-.08-.07,.09,.13"/><path class="j" d="M69.94,59.72l.02-.03s-.04,.05-.05,.06c.02-.02,.02-.02,.03-.03"/><polygon class="j" points="1.62 34.74 1.6 34.74 1.63 34.9 1.62 34.74"/><path class="j" d="M63.22,67.39s-.05,.03-.11,.08c0,0,.05-.04,.11-.08"/><path class="j" d="M60.12,70.51l-.47,.41c.21-.17,.35-.3,.47-.41"/><path class="j" d="M57.57,72.69s-.03,.05-.03,.07h0l.03-.07Z"/><path class="j" d="M74.35,24.87s-.02-.09-.04-.12c-.11-.28-.03-.09,.04,.12"/><path class="j" d="M75.15,40.66c0-.17,.02-.34,.04-.51-.05,.28-.08,.5-.04,.51"/><path class="j" d="M63.9,11.17h0l-.09-.06,.09,.06Z"/><path class="j" d="M75.29,39.41c-.05,.28-.08,.52-.1,.74,.04-.23,.08-.5,.1-.74"/><path class="j" d="M43.61,74.33l-.16-.03s0,0-.02,0l.18,.02Z"/><path class="j" d="M43.43,74.31l-.18-.02c.08,.01,.15,.03,.18,.02"/><path class="j" d="M42.88,74.24l.38,.05c-.13-.02-.29-.05-.38-.05"/><path class="j" d="M48.04,74.9l.05-.02s-.05,.01-.05,.02"/><path class="j" d="M49.39,74.97c-.32-.02-.81-.1-1.26-.12l-.04,.02c.21-.02,.99,.14,1.3,.1"/><path class="j" d="M55.03,74.55c-.36,.14-.73,.25-1.1,.34,.2-.03,.47-.06-.04,.09,.72-.15,.64-.17,.57-.17-.04,0-.07,0,0-.04,.06-.03,.23-.09,.58-.23"/><path class="j" d="M58.12,72.76c-.48,.39,.03,.03,.02,.06,.29-.27,.36-.33-.02-.06"/><path class="j" d="M72.89,52.29l.05,.08c.11-.46-.03-.01-.05-.08"/><polygon class="j" points="73.73 47.46 73.59 47.9 73.6 48.12 73.73 47.46"/><polygon class="j" points="74.87 44.75 74.83 44.95 74.97 44.17 74.87 44.75"/><path class="j" d="M59.93,8.11l.09,.14c.29,.13,.4,.07-.09-.14"/><path class="j" d="M42.48,1.81c-.2-.07-.72-.15-1.05-.13,.42,.04,.83,.11,1.05,.13"/><path class="j" d="M.62,29.87v-.38c-.01,.24-.02,.48-.02,.71,0-.11,.01-.22,.02-.33"/><path class="g" d="M46.37,24.44l-7.67-.35c-1.3-.06-2.6-.12-3.9-.18-1.17-.05-2.29,.19-3.22,.92-.86,.66-1.5,1.64-1.67,2.73-.4,2.61-.14,5.32,.14,7.93,.26,2.44,.62,4.86,.86,7.3,.27,2.75,.38,5.52,.03,8.27,.04-.3,.08-.6,.12-.9-.4,2.94-1.28,5.78-1.68,8.72-.42,3.08-.53,6.17-.68,9.27-.08,1.58-.19,3.16-.39,4.73,.04-.3,.08-.6,.12-.9-.23,1.69-.57,3.35-1.12,4.97-.27,.8-.08,1.88,.34,2.6,.41,.7,1.21,1.37,2.02,1.55,.86,.2,1.83,.15,2.6-.34,.76-.49,1.26-1.15,1.55-2.02,1.62-4.79,1.55-9.94,1.83-14.93,.08-1.35,.18-2.7,.36-4.04-.04,.3-.08,.6-.12,.9,.28-2.09,.81-4.12,1.24-6.18,.47-2.26,.78-4.56,.79-6.87,.03-4.14-.71-8.23-1.14-12.34-.12-1.15-.22-2.3-.27-3.46-.05-1.1-.1-2.23,.02-3.33l-.12,.9c.03-.2,.07-.39,.14-.58-.11,.27-.23,.54-.34,.81,.04-.09,.08-.17,.13-.25-.18,.23-.35,.45-.53,.68,.06-.08,.12-.14,.19-.2-.23,.18-.45,.35-.68,.53,.05-.04,.11-.08,.17-.1-.27,.11-.54,.23-.81,.34,.11-.04,.2-.07,.31-.09-.3,.04-.6,.08-.9,.12,.46-.05,.93,0,1.39,.03,.51,.02,1.02,.05,1.53,.07,1.05,.05,2.09,.1,3.14,.15,2.07,.1,4.14,.19,6.21,.29,.84,.04,1.8-.4,2.38-.99,.59-.58,1.03-1.54,.99-2.38-.08-1.9-1.48-3.28-3.37-3.37"/><path class="g" d="M25.03,50.78c5.85,.69,11.71,1.25,17.58,1.69,1.66,.12,3.33,.23,4.99,.34,.83,.05,1.81-.41,2.38-.99,.58-.58,1.03-1.54,.99-2.38-.04-.87-.33-1.78-.99-2.38-.68-.63-1.45-.93-2.38-.99-5.88-.36-11.74-.85-17.6-1.46-1.66-.18-3.32-.36-4.97-.56-.8-.09-1.84,.44-2.38,.99-.59,.58-1.03,1.54-.99,2.38,.04,.87,.33,1.78,.99,2.38,.23,.18,.45,.35,.68,.53,.53,.3,1.09,.46,1.7,.46"/><path class="j" d="M33.59,21.73c-.11,.02-.05,.08,.24,.08l.21-.08h-.46Z"/><path class="j" d="M35.55,22.03c.35-.02,.75-.08,.53-.18-.35,.07-.43,.02-.8,.11-.29,0-.51-.06-.46-.09-.11,.02-.45-.05-.61,0,.38,.1,.86,.13,1.37,.11,.11,.03,0,.04-.03,.06"/><path class="j" d="M37.93,29.71h.19c-.05,0-.11,0-.19,0"/><path class="j" d="M36.54,44.96c-.09-.11-.13-.15-.14-.15,.08,.1,.15,.18,.14,.15"/><path class="j" d="M39.19,46.61l-.18-.04c.07,.02,.14,.04,.18,.04"/><path class="j" d="M37.93,29.71h-.48s.24,.01,.48,0"/><path class="j" d="M39.5,22.07c-.1,0-.18,0-.26,0h.24s0,0,.02,0"/><path class="j" d="M45.73,29.38s.09-.01,.14-.02c.04-.02,.08-.04,.11-.06-.08,.03-.16,.06-.25,.08"/><path class="j" d="M48.88,25.69c.03,.12,.12,.15,.16,.19-.04-.07-.09-.15-.13-.26-.01,0-.03,.02-.04,.07"/><path class="j" d="M40.83,22.48h0"/><path class="j" d="M41.46,29.45s-.03-.02-.06-.03c0,.01,.02,.02,.06,.03"/><path class="j" d="M45.04,23.29s0,0,0,.01c.04,0,.05,0,0-.01"/><path class="j" d="M48.34,28.85l.02-.09s-.02-.03-.04-.03l.02,.13Z"/><path class="j" d="M44.72,46.98h-.02c-.14-.01-.06,0,.02,0"/><path class="j" d="M31.22,80.27c.23-.13,.08,.02-.07,.14-.07,.06-.14,.12-.14,.13,0,.02,.06,0,.25-.1-.07,.03,.52-.55-.04-.18"/><path class="j" d="M39.66,22.09c.08,0,.16,.01,.25,.02-.11-.01-.19-.01-.25-.02"/><path class="j" d="M31.26,80.44h0l.08-.04-.08,.04"/><path class="j" d="M46.72,52.52s.07,.02,.13,.03c0,0-.03-.02-.13-.03"/><path class="j" d="M47.91,47.45l.22,.07c-.09-.03-.16-.05-.22-.07"/><path class="j" d="M41.83,52.17c-.13-.02-.17-.04-.34-.04,.02,0,.03,.01,.05,.02,.06,0,.15,0,.29,.03"/><path class="j" d="M37.23,54.01l.06-.08s.05-.1,.08-.15c-.05,.07-.1,.15-.14,.22"/><path class="j" d="M29.58,24.38c.06-.12,.11-.18,.16-.23-.04,.03,.02-.16,.05-.23,.01-.04,.01-.04-.02,.02-.03,.06-.11,.19-.18,.44"/><path class="j" d="M39.5,22.11s.08-.03,.15-.02h-.17s-.02,.01,.02,.02"/><path class="j" d="M41.55,52.77l-.8-.1c.22,.03,.52,.06,.8,.1"/><path class="j" d="M27.37,51.92l-.18-.04c.07,.02,.13,.03,.18,.04"/><path class="j" d="M38.73,53.12c-.11,.06-.23,.14-.33,.23-.02,.03-.04,.06-.04,.08,.12-.12,.25-.22,.38-.31"/><polyline class="j" points="29.74 24.15 29.74 24.15 29.74 24.15"/><path class="j" d="M34.96,22.76c-.78-.01-.37,.1-.53,.15-.93,.02-.43-.08-.74-.14-.58,.02-1.02,.11-1.47,.1-.03-.02-.12-.02-.02-.04-.32,.05-.8,.05-1.31,.23-.25,.09-.5,.23-.69,.41-.19,.18-.32,.4-.39,.59-.03,.05-.06,.07-.07,.09,.1-.1,.16-.09,.18-.05-.17,.34-.15,.66-.23,.78,.04-.22,.02-.24,.02-.35-.02,.13-.04,.26-.05,.38-.07,.16-.07,.03-.04-.14,.02-.17,.09-.39,.05-.4-.11,.38-.11,.79-.1,1.16,0,.37,.02,.71,0,.99-.1,.11,0-1.28-.11-.55,.02-.28,.03-.57,.08-.86-.1,.33-.09,.2-.08,.06,.02-.14,.03-.29-.08,.01-.05,.59-.03,.89-.03,1.2,0,.31,.01,.62,0,1.18,.05,.25,.08-.08,.13,.17,.09,1.58-.25,1.25-.11,2.41,.07,.3,.19,.42,.14,1.24l-.11-.28c.01,1.08,.16,.61,.12,1.75-.05-.2-.06-.85-.07-.68-.07,.73,.07,.52,.09,1.08l-.09,.12c.05,1.15,.17,2.41,.26,3.68-.03-.07-.07-.29-.09,.01,.14,1.6,.21,3.42,.29,4.97l.14,.58c.01,.14-.01,.26-.04,.11,.03,.6,.06,.03,.11,.31,.04,.34,0,.44-.05,.24,.04,.25,.08,.56,.04,.84-.04,.29-.18,.52-.48,.62-.29,.11-.67,.1-1.02,.09-.35-.01-.68-.05-.96-.09h.22c-.87-.1-.99,.07-1.81-.01l.16-.02c-.49-.01-.99,.01-1.49,.14-.51,.12-.97,.35-1.38,.64-.41,.29-.75,.66-1,1.06-.25,.4-.39,.83-.44,1.24,.04,.16,.03,.68,.2,1.15,.16,.48,.47,.86,.58,.85,.35,.46,.52,.59,.71,.77,.21,.17,.46,.38,1.2,.71,.4,.15,.63,.12,1.14,.22v.09c.24,.02,.46,.03,.69,.05l.33,.17c.15,.03,.3,.05,.45,.08-.18-.05-.37-.13-.34-.15,.36,.06,.78,.18,1.1,.32,.32,.13,.54,.27,.53,.3,.51,.19,.97,.48,1.32,.86-.05,0-.23-.19-.4-.31,.17,.12,.25,.2,.29,.25,.04,.05,.04,.07,.04,.09,0,.04,0,.06,.23,.35-.03-.1,.07,.02,.09,.03,.07,.17,.17,.47,.23,.8,.06,.34,.05,.72,0,1.04-.01-.04-.02-.09-.04-.13-.08,.58-.29,1.19-.57,1.81-.27,.62-.62,1.25-.93,1.93,.25-.46,.29-.31,.12,.08l-.16,.12c-.07,.27,.23-.39,.04,.15-.13,.24-.18,.32-.2,.29-.02-.03,0-.15,.06-.3-.09,.2-.16,.41-.24,.62-.04,.03,0-.12,0-.18-.05,.27-.54,1.03-.57,1.44l-.04,.03c-.5,1.39-.63,2.05-.91,3.21,.07,.04-.04,.49-.05,.86-.2,.85-.39,1.81-.49,2.87-.01,.74,.05,.22,.08,.56-.08,.05-.13,1.1-.15,.55-.03,1.27-.04,1.63,.11,3.22,.02-.18,.01-.37,.05-.27,.03,.29,.02,.66-.02,.62v-.08c.02,.22,.04,.46,.07,.69,.03,.24,.06,.48,.08,.73,.04,.5,.12,1,.18,1.49,.06,.5,.16,.97,.25,1.42,.1,.44,.23,.84,.36,1.18l-.03-.08c.16,.47,.34,.95,.58,1.4,.31,.65-.24-.36-.04,.13,.22,.37,.46,.69,.75,.94,.14,.12,.29,.24,.45,.31,.08,.04,.16,.09,.24,.12l.25,.08c.34,.08,.7,.09,1.02,0,.08-.02,.17-.04,.24-.08,.08-.03,.16-.06,.24-.1,.15-.08,.3-.16,.44-.27,.53-.2,1.24-.89,1.77-1.72,.27-.41,.5-.87,.7-1.27,.2-.41,.39-.79,.57-1.09l-.08,.05c.1-.35,.2-.39,.31-.63-.05,.02-.19,.34-.13,.13,.56-1.41,1.04-2.92,1.26-4.5,.11-.79,.16-1.59,.13-2.4-.03-.8-.14-1.59-.26-2.35-.18-1.11-.38-.59-.48-1.99l.15,.38c-.24-1.1-.34-2.22-.23-3.33,.1-1.11,.38-2.2,.67-3.26-.02,.13,0,.14-.06,.35,.19-.42,.55-1.61,.51-1.64,.13-.32,.07-.06,.18-.24,.2-.42,.35-1.12,.51-1.33,.03-.04-.03,.13-.06,.21,.08-.3,.55-1.3,.37-1.06,.36-.73,.65-1.41,1.1-1.82,.1-.18,.35-.38,.6-.51,.25-.13,.48-.18,.53-.26,0,.07,.3,.01,.71,.02,.4,0,.91,.05,1.18,.05-.18,.02,.45,.09,.24,.12,.6,.06,1.15,.1,1.05,.02,1.09,.27,2.22,.13,2.83,.38,.9,.05,1.82,.04,2.68-.21,.43-.13,.84-.31,1.2-.57,.37-.27,.65-.61,.87-.98,.05,.06-.21,.48-.57,.8-.36,.33-.77,.5-.71,.55,.37-.19,.68-.44,.92-.71,.23-.27,.4-.56,.54-.85,.25-.59,.43-1.23,.33-2.06-.06-.43,.12,.23,.11,.39-.02-.42-.13-.85-.35-1.22-.11-.19-.25-.35-.4-.49-.16-.14-.33-.25-.51-.34-.35-.18-.71-.29-1.04-.38-.34-.1-.67-.18-1.01-.25,0-.01,.15,.01,.29,.04-.26-.07-.6-.17-.59-.11l.26,.05c.2,.09-.07,.07-.4,.03-.33-.04-.71-.08-.74-.06,.24-.04-.09-.11-.38-.18-.3-.07-.56-.13-.18-.18-.18-.02-.4-.03-.37,.02-.26-.05-.34-.09-.07-.09-.48-.06-.64-.05-.78-.05-.15,0-.28,0-.71-.04,0-.03,.18-.02,.28-.05-.45,.01-.89,.03-1.63-.02,.04-.02-.04-.04,.18-.03-.63-.02-1.18,.03-1.72,.06-.54,.03-1.11,.06-1.77-.07,.21-.03,.09-.05-.07-.09-.17-.04-.38-.1-.4-.16-.23-.05-.44-.13-.65-.22,.07,.06,.15,.11,.23,.16-.56-.23-1.05-.52-1.37-.95,.12,.1,.22,.22,.35,.3-.08-.06-.14-.13-.21-.2-.07-.07-.13-.14-.2-.21-.11-.16-.25-.3-.34-.47,.05,.1,.1,.19,.17,.29,.06,.09,.12,.19,.19,.27-.22-.23-.23-.2-.25-.19-.01,0-.03,0-.07-.05-.04-.05-.11-.14-.21-.33,.09,.15-.33-.56-.37-.9h0c-.15-.28-.28-.58-.38-1.05,0-.13,.14,.07,.14-.02-.08-.14-.18-.5-.25-.88-.08-.38-.14-.77-.2-.96,.04,.13,.09,.13,.1,.08l-.1-.25c0-.3,0-.34,.05-.3-.07-.9-.11,.3-.14-.77,.01,.08,.02,.04,.04,.22-.05-1.07-.16-2.07-.19-3.06,.09-.3,.07,.86,.14,.52-.1-1.42-.29-2.94-.34-4.32v.26c-.08-.09-.07-.35-.06-.67,.01-.32,.02-.7,.05-1.02-.02,.16,.06,.22,.04,.17,.05-.43,.23-.81,.69-1,.45-.2,1.07-.24,1.78-.34l-.17,.05c.56-.02,1.46-.1,2.06-.12,.18-.05,.52-.06,.31-.1,.93,.06,1.81,.01,2.67-.02,.43-.02,.85-.03,1.27-.02,.42,0,.84,.03,1.25,.05-.2,.01-.47,.04-.32,.04,.47-.02,.95-.07,1.42-.15-.12-.05-.19-.01-.49-.03,.17-.06,.56-.13,.91-.2-.62,.15,.02,.11,.31,.07-.05,0,.04-.05,0-.07,.37-.04,.4-.09,.45-.14,.03-.03,.06-.06,.14-.11,.08-.05,.23-.09,.46-.2l-.03,.05c.34-.18,.6-.42,.88-.71,.08-.04,.02,.04-.06,.14-.09,.09-.2,.19-.2,.22,.11-.1,.22-.19,.31-.31,.09-.12,.17-.23,.23-.36,.03-.06,.07-.12,.1-.18,.03-.06,.05-.13,.08-.19,.06-.12,.12-.24,.17-.36-.01,.06-.02,.13-.05,.2l-.09,.21c-.05,.14-.14,.27-.2,.38,.21-.21,.28-.36,.35-.49,.07-.13,.09-.26,.16-.46v.04c.09-.32,.12-.67,.11-1.01,0,.09,0,.18-.01,.26-.1-.37-.18-.73-.32-1.11-.14-.37-.35-.77-.71-1.1,.34,.33,.36,.37,.34,.3-.02-.07-.13-.22-.07-.21-.13-.22-.38-.52-.29-.46-.19-.15-.33-.29-.5-.43-.17-.14-.39-.29-.71-.39-.01-.04-.46-.21-.34-.23-.59-.2,.12,.09,.06,.11-.45-.14-.97-.31-1.55-.43-.58-.12-1.22-.18-1.88-.16-1.12-.02-1.34,.06-2.38,.04-.35-.07,.29-.08,.29-.08-.56-.08-.99-.1-1.53-.1,.11-.02,0-.04-.16-.09-.43-.02-.29,.08-.86,0,.1-.02,.23-.06,.44-.08-.51,0-1.01,.01-1.53,0-.14-.06,.32-.05,.51-.07-.59-.02-1.52-.06-1.71,0l.37,.05c-.21-.01-.11-.07,.05-.08,.51-.03,.72,.07,.75,.1h-.37c.37,.18,1.5,.07,2.25,.12l-.32,.1,.77-.05c.16,.04,.27,.11-.1,.11,.53,.09,.48-.01,.94,.08,.05,.01,.03,.02-.02,.02h.53c-.1,.02,.08,.09-.24,.05,.94,.13,1.52,.01,1.87,.12h-.08c1.31,.05,.13-.08,1.12-.11,.21,.09,.43,.18,.64,.27l.14-.07c.13,.02,.4,.06,.34,.09,.5,.02-.08-.05,.22-.06,.31,.09,.75,.18,1.11,.31,.36,.12,.65,.28,.68,.37,.24,.05-.53-.32,.11-.05,.05,.11,.22,.2,.43,.34,.21,.13,.45,.32,.61,.57-.17-.09-.53-.49-.17-.04,.16,.09,.34,.31,.48,.57,.14,.27,.23,.56,.32,.79,.05,0,.15,.24,.19,.6,.02,.18,.02,.39,0,.6-.02,.1-.03,.21-.05,.31-.03,.1-.05,.2-.08,.3,0-.01-.03,.07-.11,.2-.04,.07-.07,.15-.13,.24l-.2,.27c-.3,.37-.8,.68-1.15,.81v-.03s-.07,.09-.16,.14c-.09,.05-.21,.11-.35,.15-.14,.05-.29,.1-.44,.13-.15,.04-.31,.07-.45,.1,.01-.07,.11-.1,.41-.2-.17,.05-.35,.07-.53,.1-.12,.05-.29,.09-.64,.14l.13-.09c-.72,.08-1.45,.14-2.4,.07-.05,.07,.75,.21-.25,.25-.04-.04-.07-.11,.19-.12-.09,0-.31,.03-.48,.01l.4-.06c-.43-.03-.23,.05-.57,.05,0-.06-.26-.04-.21-.08,.09,0,.3,.02,.43,0-.39-.01-.86-.04-1.02-.08,.03,.03,0,.07-.28,.09-.74,.02-.25-.06-.69-.08-.18,.04-.65,.02-.66,.11-.22,0-.26-.03-.34-.04-.38,.05-1.78,.13-1.34,.19h.04c-.62,.1-1.26,.14-1.91,.2-.32,.03-.66,.09-.97,.25-.31,.16-.55,.47-.63,.79h-.03c-.1,.39-.07,.81-.04,1.2,.03,.38,.06,.74,.1,1,.01,.22-.02,.52-.06,.43,.05,.56,.09,.62,.09,1.44-.08-.56-.03,.2-.07-.58,.02,.73-.02,.9,.1,1.68-.09-.26-.06,.56-.02,.9l.02-.52c.03,.39,.04,.73,.06,1.08l-.1-.18c-.03,1.5,.33,2.7,.33,3.86,.12,.39-.07-.83,.05-.48,.07,.69,.11,1.43,.16,1.65,.1,.48,.21,.69,.32,.89,.12,.21,.23,.42,.45,.88-.01-.07-.01-.14,.03-.11,.04,.03,.15,.16,.36,.47,.2,.29,.3,.48,.33,.56,.03,.08-.06,.06-.21-.12-.11-.14-.15-.21-.13-.21-.15-.18-.31-.44-.19-.18l.08,.06c.09,.15,.28,.44,.46,.64,.17,.21,.33,.33,.21,.28,.45,.34,.21,.12-.08-.17,.33,.34,.63,.56,.97,.73,.34,.17,.69,.3,1.16,.4-.15-.04-.27-.12-.13-.08,.68,.15,.84,.12,.93,.11,.1-.02,.14-.04,.6-.04,.52,.05-.18,.13,.73,.08,.56,.03,.12,.09-.1,.12,.83-.08,1.54,.04,2,.07h-.43c.26,0,.47,.01,.68,.03l-.24-.08c.25,.03,.47,.04,.46,.07,.26-.02-.19-.13,.33-.14,.33,.06,1.03,.07,1.14,.18-1.05-.16,.11,.1-.79,0,.17,0,.38,.03,.63,.08,.04,.02-.04,.01-.11,0,.5,.11,.61,.1,.74,.09,.13-.01,.26-.04,.78,.06-.14,.02,.22,.14,.39,.17-.41-.09-.18-.12,.21-.08,.65,.19,.72,.14,1.07,.24l-.39-.12c.15-.01,.47,.08,.93,.2,.03,.05-.42-.1-.26-.03,.53,.08,1.15,.38,1.64,.78,.17,.25-.04,.08,.09,.29,.22,.26,.24,.47,.26,.66,.01,.2,.01,.4-.01,.78,.06-.11,.07-.17,.08-.14,.01,.03,.01,.16-.02,.45,.1-.43,.1-.88-.03-1.28,.1,.25,.16,.53,.16,.82,.05-.41-.08-.84-.17-1.05,.18,.35,.14,.33,.15,.13,.04,.28,.07,.55,.07,.84,0,.29-.04,.6-.19,.9l-.15-.08c-.2,.42-.4,.79-.7,1.12-.29,.32-.74,.6-1.35,.74,.13-.02,.26-.06,.39-.09-.07,.06-.25,.13-.48,.18-.22,.05-.48,.08-.69,.11,.03-.06-.23-.06-.4-.09,.01,.02-.22,.03-.48,.03-.26,0-.53,0-.6,.05l-.58-.13c-1.07-.15-1.24,.02-2.27-.11,.32-.03-.15-.12,.55-.08-.34-.04-.65-.08-.66-.04-.2-.06-.96-.03-1.27-.12-.15,0-.2,.06-.59,.01-.04-.02,0-.03,0-.03,0,.02-.62-.01-.28,.07-.26-.06-.59-.1-.95-.06-.36,.03-.74,.16-1.07,.36-.66,.42-1.05,1.06-1.36,1.43-.37,.68-.69,1.55-.94,2.18,0-.05-.02-.01,.03-.13-.4,.86-.07,.6-.51,1.58-.28,.49,.16-.55,0-.24-.23,.08-.43,1.23-.73,1.9l.04-.17c-.22,.52-.32,1.34-.47,2.24,0,0,0-.05-.03,0,0,.32-.03,.77-.03,1.26,0,.49,.02,1,.07,1.44-.09-.27-.06-.4-.12-.23,.04,.39,.1-.12,.19,.66-.01,.26,.03,.82-.03,.91-.04-.24-.07-.49-.1-.73-.06,.39,.13,.95,.18,1.34l-.05-.04c.2,1.11,.33,1.1,.51,2.3v-.13c.21,.64,.03,.55,.18,1.2-.03,.07-.06,.14-.1,.2,.03,.21,.07,.59,.09,1.01,.02,.42,.01,.89-.03,1.27-.02-.45,0-1.35-.09-1.9,0,.21,.01,.57,0,.91,0,.33-.01,.65,0,.76,.01-.17,0-.39,.02-.56,.06,.53,.02,1.22-.15,2.06-.09-.1-.21,.44-.4,1.07-.18,.62-.45,1.33-.64,1.58-.24,.71-.56,1.39-.92,2.08-.36,.69-.8,1.34-1.38,1.96,.27-.16,.18-.07,.06,.07-.12,.14-.31,.3-.21,.33-.29,.27-.43,.35-.46,.36-.35,.2-.73,.33-1.09,.33-.13-.02-.04-.03,.06-.05,.11-.03,.24-.07,.22-.09l-.23,.05h-.14c-.07,0-.1,0-.12-.02-.04-.03-.06-.04-.27-.11,.04,.04-.02,.05-.15,.02-.12-.04-.3-.12-.45-.26,.07,.07,.14,.14,.22,.2,.08,.05,.16,.12,.26,.16-.25-.06-.43-.17-.54-.28-.11-.11-.18-.21-.24-.31-.12-.22-.23-.42-.5-.96,.06,.11,.13,.22,.2,.32-.15-.26-.35-.79-.52-1.37-.09-.28-.18-.57-.26-.81-.08-.25-.15-.47-.22-.61,0-.12,0-.27,.08,0-.08-.38-.18-.77-.26-1.18-.08-.4-.18-.81-.23-1.22-.14-.81-.21-1.58-.21-2.18l.05,.12c-.02-.29-.09-.5-.06-.86,.02,.02,.05,.11,.04-.02-.03-.15-.08-.77-.05-1.15l.04,.33c.07-1.5,0-2.32,.12-3.58,.12,.02,.33-1.15,.49-1.72v.02c.1-.43,.19-.82,.28-1.2,.04-.19,.08-.37,.12-.55,.05-.18,.09-.36,.14-.53,.09-.35,.17-.71,.29-1.06,.11-.35,.21-.73,.37-1.1,.13-.22,.28-.53,.44-.88,.18-.35,.38-.75,.59-1.17,.44-.83,.92-1.77,1.17-2.61-.09,.25-.07-.07-.03-.37,.05-.2,.07-.48,.06-.71,0-.23-.03-.39,.04-.36v.15c.05-.16,.06-.47-.03-.81-.03-.17-.11-.35-.18-.52-.09-.16-.17-.34-.28-.48h-.19c-.22-.39-.6-.76-1.05-1.02-.45-.27-.96-.45-1.44-.58-.96-.26-1.85-.34-2.22-.56-.37-.06-.81-.21-1.16-.34l.05-.06c-.46-.23-.77-.44-1.06-.7-.29-.26-.57-.58-.76-1.12l.13,.2c-.05-.15-.11-.26-.15-.37l-.07-.15c-.02-.05-.04-.1-.05-.15l-.05-.15c-.01-.05-.02-.11-.03-.17-.01-.06-.01-.12,0-.19s0-.14,.03-.22c.06-.05,.11-.1,.17-.15,.19-.55,.62-1.01,1.11-1.34,.25-.16,.52-.3,.8-.4,.28-.11,.56-.17,.87-.23-.02,.02-.05,.06-.25,.09,.28-.05,.85-.06,1.33-.04,.48,.02,.87,.03,.76-.06,0,.1,1.35,.15,2.11,.02l-.11,.09c.33-.08,.5-.16,.69-.27,.17-.12,.43-.29,.57-.75,.04-.1,.06-.15,.07-.13,0,.02,0,.1-.06,.24,.15-.36,.11-.51,.11-.66-.01-.16-.03-.33-.05-.73l.08,.3c-.05-.69-.08-.62-.17-.99-.07-.42-.09-1.29-.03-1.39-.05-.09-.14-.45-.15-.85,.02-.06,.05,.09,.06,.16-.03-1.14-.21-1.68-.19-2.46,.02-.02,.03-.07,.04-.13,.05,.9,.1,1.63,.09,1.56,.07,0,.03-.73,.17-.16-.1-.58-.28-1.57-.28-2.28,0-.03,.01-.07,.02-.1v.07c0-.16,0-.31-.02-.45,0-.23,0-.37,0-.59,.05-.09,0-.84-.02-1.2-.08,.03-.08-.44-.13,0,0-.06,.01,.07,.03,.31,0,.05,0,.12,.01,.15v-.02c0,.24,.02,.55,.04,.9-.06-.28-.1-.58-.07-.99-.06-.18-.12-.39-.15-.5,.09-.5,.12-1.46,.19-1.6-.08-1.11-.08-2.61-.23-3.31-.02-.32,.04-.36,.06-.48,.02,.18,.01,.4,.04,.5-.04-.63-.01-1.87-.11-2.02,.05-.8,.09,.45,.08-.64l.03,.15c.05-.53,.06-1.03,.06-1.48,0-.45,.02-.88,.16-1.26,.14-.38,.46-.7,.91-.84,.45-.15,.98-.14,1.57-.07-.17-.02-.25-.02-.28-.04,2.72,.13,5.61,0,8.29,.18,.76,.04,.85-.03,1.31-.07l.16,.09c.26-.03,.53-.05,.79-.07,.56,0,1.04,.1,1.54,.25,.5,.15,1.01,.33,1.64,.59-.04-.05-.09-.09-.13-.13,.22,.12,.57,.3,.82,.51,.25,.2,.42,.39,.36,.39,.04,.03,.16,.07,.26,.25l-.02,.04c.28,.3,.51,.64,.7,1,.09,.22,.1,.33,.1,.39,0,.06-.02,.06-.04,.07-.04,.03-.01,.1,.07,.75,.03,.24,.05,.59,.03,.86-.03,.27-.05,.46,0,.37,.03-.1,.07-.22,.11-.33,.03-.1,.06-.19,.08-.19l-.03,.24-.05,.23c.05,.06,.08,.2,.15,.17,.04-.01,.08-.07,.15-.2,.03-.06,.07-.15,.1-.26,.03-.11,.07-.24,.08-.41,0-.31-.06-.6-.13-.89,0-.1,0-.19,0-.29,.06,.24,.11,.49,.12,.75,.03-.44-.09-.7-.21-.98,0-.08,0-.21-.06-.38-.14-.26-.32-.49-.51-.71-.02-.12,.3,.28,0-.23-.28-.3,.13,.38-.29-.14-.22-.36-.1-.31-.49-.62-.03-.07,.07-.02,.22,.11-.17-.15-.39-.34-.61-.49-.11-.07-.22-.14-.32-.19-.1-.05-.18-.08-.24-.09-.17-.14-.51-.29-.8-.39-.29-.11-.53-.17-.49-.23-.14-.01-.76-.08-1.15-.12,.36-.02,0-.08-.43-.13-.43-.04-.92-.06-.82-.14-.53,.11-1.87,.02-2.79,.08,.05,0,.15-.03,.23-.02-.51-.02-.66-.06-.99-.09-.07,.11-.87,.12-1.3,.18-.63-.12,.38-.12,.19-.23,.03,.09-1.09,.07-.88,.15-.48-.07-.41-.04-.66-.13-.09,.14-.45,.02-.85,.1-.7-.08-.18-.13-.94-.1-.36-.05,.32-.09,.32-.09m-5.23,14.28h0c-.01-.16-.02-.29-.03-.38,0,.08,.01,.19,.03,.38m.09,1.53c-.01-.19-.02-.42-.04-.66,.02-.06,.06,0,.06,.15-.02-.08-.02,.28-.02,.51m.37-3.26c.02,.24,0,.32,0,.36,0-.11-.02-.25-.03-.42v-.03s.02,.05,.03,.09"/><path class="j" d="M30.07,34.88s0-.05,0-.1c0,.05,0,.1-.01,.14l.03,.08v-.13"/><path class="j" d="M38.15,29.71h-.03s.05,0,.07,0c-.02,0-.02,0-.04,0"/><path class="j" d="M25.71,51.6v-.02s-.09-.01-.14-.02c.05,.01,.09,.03,.14,.04"/><path class="j" d="M46.59,29.58s.05,0,.12,0c0,0-.06,0-.12,0"/><path class="j" d="M49.31,27.21c.05-.17,.09-.36,.11-.54-.03,.24-.07,.41-.11,.54"/><path class="j" d="M48.71,24.4s-.05-.02-.06-.03h0l.06,.03Z"/><path class="j" d="M47.86,46.89l.11,.03c.25,.05,.08,.01-.11-.03"/><path class="j" d="M36.03,43.42c.07,.12,.12,.25,.2,.37-.1-.21-.15-.38-.2-.37"/><path class="j" d="M41.64,52.78h0Z"/><path class="j" d="M36.51,44.32c-.11-.2-.19-.37-.28-.53,.08,.17,.17,.38,.28,.53"/><path class="j" d="M37.02,21.9h-.13s0,0-.02,0h.15Z"/><path class="j" d="M36.86,21.9h-.15c.07,0,.13,0,.15,0"/><path class="j" d="M36.4,21.9h.32c-.11,0-.24-.02-.32,0"/><path class="j" d="M40.71,22.18l.04-.03s-.04,.01-.04,.03"/><path class="j" d="M41.83,22.24c-.27-.02-.67-.11-1.04-.11l-.04,.02c.18-.03,.82,.12,1.08,.09"/><path class="j" d="M46.42,23.16c-.29-.11-.59-.19-.89-.26,.15,.06,.35,.14-.06,.07,.56,.16,.5,.14,.45,.1-.05-.03-.08-.1,.49,.09"/><path class="j" d="M48.57,24.89c-.28-.4-.03,.03-.06,.01,.17,.25,.22,.31,.06-.01"/><path class="j" d="M34.63,33.79l-.07-.05c.03,.39,.03,0,.07,.05"/><polygon class="j" points="35.22 37.8 35.25 37.42 35.17 37.24 35.22 37.8"/><path class="j" d="M34.88,40.23l-.03-.17c.03,.22,.06,.44,.1,.65l-.07-.48Z"/><path class="j" d="M37.7,53.17s.1-.03,.15-.04c.08-.11,.12-.19,.1-.2-.02-.01-.11,.05-.25,.24"/><path class="j" d="M35.22,68.05c-.02,.17,.01,.6,.08,.85-.03-.34-.04-.68-.08-.85"/><polygon class="j" points="29.8 52.31 30.08 52.51 29.83 52.31 29.57 52.13 29.8 52.31"/></g></g></g></g></g></svg>