<?xml version="1.0" encoding="UTF-8"?><svg xmlns="http://www.w3.org/2000/svg" xmlns:xlink="http://www.w3.org/1999/xlink" viewBox="0 0 80.52 80"><defs><style>.g{fill:#fff;}.h{clip-path:url(#e);}.i{fill:#202020;}.j{fill:none;}.k{clip-path:url(#f);}.l{fill:#1ed760;}</style><clipPath id="e"><rect class="j" width="80.52" height="80"/></clipPath><clipPath id="f"><rect class="j" width="80.52" height="80"/></clipPath></defs><g id="a"/><g id="b"><g id="c"><g id="d"><g class="h"><g class="k"><path class="l" d="M80,40c0,22.09-17.91,40-40,40S0,62.09,0,40,17.91,0,40,0s40,17.91,40,40"/><path class="g" d="M17.37,26.87c.93-.51,2.1-.66,3.21-.8,9.52-1.19,19.42-2.36,28.68-.23,3.51,.81,6.93,2.13,9.41,4.25,.77,.66,1.47,1.44,1.6,2.33,.04,.26,.01,.54-.21,.73-.26,.22-.68,.24-1.06,.24-1.64,.01-3.29,.03-4.93,.04-1.39,.01-2.79,.02-4.17-.12-1.87-.2-3.68-.68-5.5-1.09-4.82-1.08-9.81-1.67-14.82-1.74-2.86-.04-5.72,.09-8.57-.09-1.59-.1-3.46-.48-4.02-1.66-.53-1.14,.82-2.53,2.34-2.42"/><path class="i" d="M19.33,26.49c.05-.02,.03-.08-.1-.07l-.09,.1,.19-.02Z"/><path class="i" d="M18.44,26.42c-.14,.09-.26,.24-.14,.28,.1-.14,.15-.11,.27-.27,.13-.04,.23-.02,.22,.02,.04-.03,.2,0,.27-.07-.09-.03-.19-.04-.29-.03-.1,.02-.22,.05-.31,.12-.05,0-.02-.04-.01-.06"/><path class="i" d="M26.77,30.61h-.09s.05,0,.09,0"/><path class="i" d="M35.02,30.94c-.06,0-.09,0-.09,.01,.06,0,.11,0,.09-.01"/><path class="i" d="M36.41,31.19l-.08-.02s.06,.02,.08,.02"/><path class="i" d="M26.77,30.61l.22,.03s-.11-.02-.22-.03"/><path class="i" d="M17.27,27.65s.02-.07,.02-.1l-.04,.09h.01"/><path class="i" d="M23.12,30.68h-.07s-.04,.02-.06,.04l.12-.04Z"/><path class="i" d="M20.31,30.55c.06,.01,.09-.07,.12-.1-.04,.03-.09,.04-.15,.04,0,.02,0,.04,.02,.06"/><path class="i" d="M16.81,28.14v0"/><path class="i" d="M25.13,30.72s.01,.02,.03,.03c0-.01-.01-.02-.03-.03"/><path class="i" d="M20.55,26.46s0,0,0-.01c-.02,.01-.02,.02,0,.01"/><path class="i" d="M17.36,26.85l.04-.02s0-.03-.01-.05l-.03,.07Z"/><path class="i" d="M38.95,31.61h-.01c-.07,0-.03,0,.01,0"/><path class="i" d="M59.85,30.77c.12,.26-.37-.29-.16,.09,0-.06,.34,.22,.16-.09"/><path class="i" d="M17.23,27.7s-.02,.06-.03,.09l.03-.09"/><path class="i" d="M59.69,30.86h0l.02,.04-.02-.04"/><path class="i" d="M44.78,32.65s-.03-.03-.05-.05c0,0,.01,.02,.05,.05"/><path class="i" d="M40.47,31.68l.11,.03s-.08-.02-.11-.03"/><path class="i" d="M47.05,33.06c.06,.02,.08,.03,.16,.04,0,0-.01-.01-.02-.01-.03,0-.07,0-.14-.03"/><path class="i" d="M49.43,33.48s-.03-.01-.04-.02h-.08l.12,.02Z"/><path class="i" d="M27.77,25.58c-.05-.02-.09-.04-.12-.06,.04,.05-.3,.11,.12,.06"/><path class="i" d="M17.23,27.63s.01,.04,0,.07l.03-.06s-.02-.02-.03,0"/><path class="i" d="M47.28,32.44l.37,.09c-.1-.03-.24-.06-.37-.09"/><path class="i" d="M44.85,25.41h-.09s.06,0,.09,0"/><path class="i" d="M48.75,32.72c.06,.04,.13,.07,.2,.09,.02,0,.03,0,.05-.01l-.25-.08Z"/><path class="i" d="M27.65,25.52h0Z"/><path class="i" d="M25.18,25.98c.36-.04,.16-.12,.23-.19,.43-.08,.21,.06,.36,.09,.27-.06,.46-.18,.66-.2,.02,.02,.06,.02,.01,.05,.27-.12,.84-.09,1.16-.24,.03,0,.04,.01,.05,.02-.06-.05-.07-.1-.07-.14,.16-.02,.29-.1,.36-.03-.1,0-.1,.04-.15,.06l.17-.05c.16,.09-.23,.06-.22,.13,.33-.07,.7-.18,.96-.18,.06,.09-.59,.09-.24,.15h-.4c.31,.13-.24,.01,.05,.15,.52-.02,.57-.11,1.09-.13,.11-.07-.05-.08,.07-.14,.72-.17,.6,.2,1.12,.02,.13-.08,.18-.21,.57-.17l-.12,.12c.5-.03,.27-.19,.8-.15-.09,.05-.39,.06-.31,.07,.35,.06,.24-.08,.5-.1l.06,.1c.53-.05,1.11-.17,1.7-.21-.03,.03-.13,.07,0,.09,.74-.08,1.59-.07,2.31-.02l.27-.09c.06,0,.12,.04,.05,.05,.28,.03,.01-.05,.15-.09,.16,0,.21,.04,.11,.07,.49-.09,1.4-.16,1.92-.08l-.1,.03c.4,.03,.46-.17,.83-.08h-.07c.44,.04,.9,.04,1.34,.06,.44,.02,.84,.06,1.17,.14,.14-.12,.86,.1,.93-.06,.49,.13,.35,.15,1.04,.27,.19,.03,.29-.09,.52-.08v.09l.32-.05,.15,.13h.22c-.09-.01-.18-.06-.16-.08,.34,0,.82,.17,.82,.21,.27,0,.54,.03,.81,.04-.02,.03-.16,.02-.27,.03,.44-.02,.06,.11,.46,.09-.05-.03,.04-.05,.05-.06,.19,.09,.63,.16,.96,.19l-.07,.05c.58,.13,1.24,.22,1.89,.36-.23-.08-.15-.17,.04-.14l.05,.11c.14-.03-.19-.08,.08-.09,.24,.07,.14,.14,0,.14l.3,.04s-.06,.03-.09,.06c.14-.03,.48,.22,.68,.17v.03c.65,.17,.95,.23,1.47,.39,.04-.07,.23,0,.41,0,.37,.15,.77,.36,1.22,.53,.33,.08,.12-.03,.28-.02,0,.08,.44,.26,.19,.21,.54,.21,.68,.27,1.36,.54-.06-.06-.13-.11-.08-.12,.12,.05,.26,.16,.22,.18h-.03c.2,.06,.39,.16,.58,.28,.19,.12,.38,.26,.56,.39,.18,.14,.35,.27,.52,.39,.16,.12,.32,.22,.48,.28h-.03l.59,.32c.23,.21-.18-.07-.03,.11,.64,.36,.86,.74,1.29,1.11,.06,.24,.29,.54,.44,.88,.08,.17,.13,.35,.15,.51,.01,.15-.03,.25-.09,.26,.02,0,.03,.01,.05,.02,0,.08-.07,.04-.12,.05,.03,.03,.09,0,.07,.04-.14,.12-.48,.16-.82,.15-.36,0-.72-.01-1.08-.03-.72-.03-1.45-.07-2.17-.09-.52,0-.29,.27-.95,.15l.19-.1c-1.05,.12-2.15,.02-3.18,.09,.06-.02,.06-.05,.16-.05-.21-.07-.8-.03-.8,.03-.16-.01-.03-.05-.13-.09-.21-.05-.54,.06-.65-.02-.02-.01,.06-.02,.1-.02-.14,.02-.65-.07-.52,.03-.37-.08-.73-.05-1.02-.15-.21,.06-.64-.15-.72-.04,.05-.12-.64-.23-.89-.22,.09-.02-.2-.08-.09-.12-.27-.06-.52-.09-.49-.01-.46-.27-1.03-.11-1.27-.37-.83-.12-1.59-.24-2.33-.36,.05-.13,.81,.16,.81,.02-.71-.1-1.13-.07-1.82-.23-.18-.05,.11-.04,.18-.05-.71-.08-1.35-.26-1.99-.29,0-.01,.07-.01,.14-.01-.12-.02-.28-.07-.28,0h.12c.18,.12-.52,.1-.55,.15,.24-.14-.61-.14-.25-.3-.08,0-.19,.01-.18,.05-.12-.03-.15-.06-.02-.09-.45-.03-.3,.05-.7,0,0-.03,.09-.03,.13-.06-.21,.03-.42,.06-.76-.01,.02-.01-.01-.04,.09-.03-.58-.06-1.01,.02-1.64-.1,.2-.1-.21-.07-.24-.18h-.35l.13,.06c-.3-.03-.58,.02-.83-.04l.23-.02-.57-.03,.32,.07c-.31,.03,.02,.14-.38,.08,.08,0-.3-.03-.45-.1h0c-.15,.02-.31,.05-.53,0-.06-.04,.06-.12,.02-.14-.15,.08-.71-.02-.9,.06,.06-.02,.07-.08,.05-.09l-.13,.07c-.14-.03-.16-.04-.13-.09-.42-.04,.13,.14-.37,.06,.04,0,.02-.02,.1-.02-.5-.05-.97,0-1.43-.05-.13-.11,.4-.01,.25-.11-.67,0-1.38,.09-2.03,.06h.12c-.09,.17-.48-.07-.81,0,.08-.01,.1-.09,.08-.07-.44-.03-.9,.04-1.57,.09l.08-.04c-.26-.03-.68-.02-.96-.03-.08,.04-.24,.04-.15,.09-.86-.22-1.65,.13-2.41-.07,.09,0,.22-.03,.15-.03l-.65,.03c.05,.07,.08,.04,.22,.1-.08,.04-.27,.07-.43,.06,.29-.04,0-.11-.13-.15,.02,.02-.02,.04-.01,.06-.34-.13-.06,.13-.52,.04l.03-.03c-.17,.01-.34,.05-.52,.03-.07-.08,.19-.03,.2-.09-.26,0-.53,.12-.76,.03,.11-.02,.27,0,.39-.02-.25-.11-.29-.09-.48-.11h.02c-.15-.02-.29-.04-.44-.07l.11,.04c-.35,.17-.66-.03-1.12,.02,.45-.05,.08-.06,.13-.14-.11-.04-.27-.1-.21-.12-.22,.03-.32-.12-.62-.1,0-.03-.21-.07-.14-.12-.25-.06,.04,.07,.01,.09-.21-.01-.43-.13-.64-.27-.22-.14-.43-.3-.67-.45-.19-.15-.29-.25-.39-.36-.09-.11-.18-.23-.23-.48,.02-.08,.05-.05,.07,0,.02,.05,.05,.12,.05,.12,.01-.25,.02-.42,.08-.65,0,.05,.04,.01,.1-.04,.08-.16-.05-.16,.13-.35,0,.05,.01,.13,0,.21,.09-.19,.18-.39,.34-.56,.08,0-.05,.15-.08,.23,.08-.1,.19-.21,.3-.31,.11-.1,.2-.18,.22-.23l-.16,.06c.08-.05,.08,.03,.02,.08-.15,.17-.27,.16-.3,.15,.04-.04,.08-.08,.12-.12-.12-.02-.26,.1-.37,.26-.11,.16-.19,.36-.26,.5-.02-.06-.03-.12-.04-.18-.03,.12-.05,.24-.05,.36-.05,.06-.14,.1-.1-.08-.07,.11-.07,.17-.07,.23,0,.05,0,.1-.04,.21-.01,.02-.02,.01-.02-.01,0,.09,.02,.17,.05,.25-.03-.05-.08,.06-.09-.11,0,.24,.08,.44,.18,.56,.09,.13,.17,.2,.19,.3l-.03-.03c.22,.24,.26,.22,.27,.2,.02-.03,.02-.06,.23,.04,.03,.12,.08,.24,.13,.36l.1-.04c.05,.03,.16,.1,.13,.12,.24,.06-.02-.05,.13-.04,.24,.22,.79,.27,.82,.42,.12-.03-.27-.13,.06-.09,.05,.17,.37,.07,.63,.19-.1,.06-.35-.03-.09,.09,.19-.1,.53,.12,.78,.12,.02-.1,.52,.01,.91,0-.03,.04,.73,.1,1.1,.15v.02c.06-.1,.44-.07,.71-.09-.01,.06-.06,.09-.21,.11h.26c.06-.03,.14-.04,.31-.05l-.07,.08c.34,0,.69-.08,1.13-.03,.02-.07-.35-.21,.12-.26,.02,.04,.03,.11-.09,.13,.04,0,.14-.03,.22-.02l-.19,.07c.2,.03,.11-.06,.27-.05,0,.06,.12,.04,.1,.09-.04,0-.14-.02-.2,0,.18,.01,.4,.04,.47,.09-.02-.03,0-.08,.13-.09,.34,0,.12,.07,.32,.1,.08-.04,.3,0,.31-.09,.1,0,.12,.04,.16,.06,.18-.04,.83-.02,.63-.11h-.02c.58-.1,1.21,.03,1.78,0v.03c.34-.03,.76-.02,1.01-.08,.1,0,.24,.06,.2,.09,.26-.02,.29-.05,.67,0-.27,.05,.09,.05-.27,.03,.34,.03,.42,.08,.78,.01-.13,.07,.25,.1,.42,.08l-.24-.06c.18,0,.34,0,.5,.02l-.09,.09c.69,.15,1.27-.14,1.78,.09,.19-.06-.37-.07-.21-.14,.32,.03,.64,.19,.74,.2,.43,.09,.42-.11,.87-.04-.06-.04-.1-.14,.24-.14,.32,.04,.38,.18,.18,.19-.08,0-.11-.02-.11-.03-.1,0-.24,0-.12,.06l.04-.03c.16,.05,.6,.08,.49,.13,.24,0,.11-.05-.07-.08,.4,.09,.64,.06,1.06,.14-.06-.03-.12-.07-.06-.07,.61,.11,.28-.04,.7,0,.23,.08-.1,.11,.33,.12,.25,.07,.04,.1-.06,.11,.39-.02,.71,.13,.93,.17h-.2c.12,0,.22,.01,.32,.03l-.11-.08c.12,.03,.22,.04,.21,.07,.13-.03-.08-.13,.17-.16,.15,.06,.49,.03,.53,.13-.49-.1,.04,.1-.38,.05,.08,0,.18,.01,.3,.04,.02,.01-.02,.02-.05,.02,.46,.15,.23-.07,.72,0-.07,.04,.1,.11,.18,.12-.2-.03-.08-.1,.11-.11,.31,.09,.35,.03,.51,.06l-.18-.05c.07-.04,.23,0,.45,.01,.01,.04-.2,0-.13,.03,.26-.05,.53,.19,.88,.19,.15,.06,0,.1,.13,.15,.39,0,.4,.15,.8,.17-.1-.09-.12-.08,.17-.09l-.66-.08,.44-.02c-.2-.04-.42-.04-.54-.07,.21-.02,.19,0,.1-.08,.25,.16,.55,.04,.85,.17l-.04,.17c.45,.17,.85,.08,1.45,.26l-.19-.07c.1-.05,.38,.07,.58,.09-.03,.05,.09,.1,.16,.15,0-.04,.44,.11,.52,0l.25,.14c.48,.14,.6-.03,1.06,.1-.16,.03,.05,.12-.28,.09,.16,.04,.3,.08,.31,.04,.08,.06,.45,.02,.59,.11,.07-.01,.11-.06,.28-.02,.02,.02,0,.03,0,.03,0-.03,.29,.02,.14-.08,.45,.28,1.37,.24,1.78,.45,.36,.03,.78,.05,1.1,.07-.02,.02,0,.03-.06,.02,.44,.08,.28-.14,.78-.06,.25,.1-.27,.04-.11,.08,.06,.19,.61,0,.95,.12h-.08c.26,.08,.63-.05,1.06-.04,0,0-.02,.02,0,.03,.29-.1,.83-.13,1.24-.16-.13,.08-.18,.04-.11,.12,.18-.01-.05-.12,.31-.14,.12,.04,.38,.07,.42,.15h-.34c.18,.11,.44,0,.62,.02l-.02,.05c.52-.02,.53-.13,1.09-.13l-.06-.03c.31-.12,.26,.06,.57-.03l.09,.11c.2-.03,.71-.12,1.08-.14-.21,.09-.63,.13-.9,.19,.2,0,.68-.01,.79-.07-.08,.01-.18,.04-.26,.02,.25-.09,.57-.14,.97-.14-.03,.11,.23,.12,.53,.13,.31,.01,.69-.03,.91-.03,.21-.1,.43-.27,.54-.52,.11-.24,.11-.48,.09-.7-.04-.42-.19-.84-.45-1.21,.03,.36-.15-.22-.27-.06-.13-.15-.18-.21-.18-.23-.1-.18-.21-.35-.33-.52-.07-.14,.16,.11,.18,.07-.3-.32-.08-.19-.26-.42,0,.09-.17-.04-.35-.22l.21,.29c-.26-.17-.33-.28-.41-.39-.08-.11-.15-.23-.43-.38l.19,.07c-.14-.08-.37-.26-.61-.41-.25-.15-.5-.29-.67-.31-.04-.05-.07-.13,.05-.06-.62-.43-1.5-.7-1.98-1.03h.07c-.13-.06-.25-.05-.39-.16,.02-.01,.07-.02,.01-.05-.07-.02-.37-.08-.52-.18l.16,.02c-.64-.34-1.07-.32-1.64-.49,.05-.12-.47-.35-.74-.46h.02c-.8-.29-1.39-.33-2.15-.47-.43-.26-1.57-.41-2.31-.65,.11,.05-.04,.09-.17,.08-.17-.06-.51,0-.46-.11h.06c-.11-.12-.49-.15-.77-.2l-.07,.14c-.18-.09-.39-.15-.62-.19-.23-.03-.46-.05-.69-.07-.45-.03-.86-.06-1.06-.18-.19,.02-.41,0-.6,.02l.02-.08c-.5-.06-.76-.11-1.38-.13l.13-.05c-.35-.03-.46,.21-.79,.2l-.09-.13c-.31-.02-.62-.06-.92-.09-.31-.02-.62-.03-.92,.02,.01-.02,.03-.05,.13-.06-.29,0-1.12-.11-1.02,.06,0-.11-.64-.01-.97,.04l.05-.08c-.28,.1-.29,.13-.68,.16-.09-.01-.08-.06,.04-.04-.31-.04-.24,.08-.61,.04l.14-.06c-.32,0-.29,.03-.47,.09-.2,.04-.6,0-.65-.08-.04,.05-.21,.11-.4,.09-.03-.03,.04-.05,.08-.06-.53-.03-.78,.13-1.15,.07,0-.03-.03-.04-.06-.05,.42-.02,.76-.03,.73-.02,0-.08-.34-.07-.08-.19-.27,.07-.73,.21-1.07,.19-.02,0-.03-.01-.05-.02h.03c-.08-.01-.15,0-.21,.01-.11,0-.17-.01-.28,0-.04-.06-.39,0-.56,0,.02,.08-.2,.08,0,.14-.03,0,.03-.01,.14-.02,.03,0,.06,0,.07-.01h-.01c.11,0,.26-.01,.42-.03-.13,.05-.27,.09-.46,.06-.08,.06-.18,.12-.23,.15-.24-.1-.69-.13-.76-.2-.51,.08-1.22,.13-1.53,.31-.15,.03-.17-.03-.23-.05,.08-.02,.18-.03,.23-.05-.29,.06-.87,.09-.93,.21-.37-.01,.2-.12-.31-.05l.07-.04c-1.02-.08-1.6,.43-2.73,.33,.08,0,.12,0,.13,.02-1.27,.04-2.59,.39-3.85,.39-.36,.01-.39,.09-.6,.16l-.09-.08-.36,.15c-.51,.14-.93-.11-1.58,.13l.09,.05c-.24,.02-.75,.15-.72,.08-.02,.02-.07,.07-.17,.06l-.02-.04c-.19,.06-.38,.14-.56,.21-.46,.1,.02-.21-.64,0-.24,.1-.62,.43-.51,.41,.09-.05,.25-.09,.27-.05-.07,.04-.13,.08-.19,.12,.02,.14-.05,.32,.46,.19,.1-.07,.2-.14,.31-.21l.13,.03c-.1,.03-.19,.07-.29,.11,.18,0,.27-.09,.38-.16,.04,.02,.1,.03,.17,.03,.1-.07,.21-.15,.32-.21,.05,.04-.14,.14,.11,.11,.16-.09-.19-.08,.08-.18,.19,.02,.15,.09,.35,0,.04,.03,0,.06-.08,.09,.18-.08,.49-.1,.58-.18,.2,.05,.64-.11,.64,.03,.06-.04,.32-.14,.5-.17-.3,.19,.66-.07,.6,.1,.22-.17,.85-.17,1.26-.29-.02,.01-.07,.04-.1,.04,.24-.02,.31,.02,.47,.02,.02-.12,.38-.19,.57-.28,.3,.07-.16,.15-.06,.25-.03-.09,.49-.15,.39-.22,.23,.04,.2,.01,.32,.09,.02-.15,.2-.05,.38-.16,.33,.03,.1,.12,.45,.04,.17,.02-.14,.11-.14,.11m8.4-.99h-.17s.09,0,.17,0m.71-.03c-.09,0-.19,0-.31,.01-.03-.03,0-.06,.07-.06-.04,.02,.13,.03,.24,.05m-1.54-.49c.11-.02,.15,0,.17,.01-.05,0-.12,.01-.2,.02h-.01s.02-.02,.04-.03"/><path class="i" d="M32.56,24.59s-.03,0-.05,0h.05"/><path class="i" d="M26.67,30.6h.02s-.02,0-.03,0c.01,0,.01,0,.02,0"/><polygon class="i" points="44.07 25.35 44.07 25.33 44.01 25.34 44.07 25.35"/><path class="i" d="M22.75,30.3s-.02-.02-.05-.02c0,0,.02,.01,.05,.02"/><path class="i" d="M21.07,30.21l-.23-.05c.1,.02,.17,.04,.23,.05"/><path class="i" d="M19.8,30.02s-.02,.02-.03,.03h0l.03-.03Z"/><path class="i" d="M40.47,31.12s.03,0,.05,0c.12,0,.04,0-.05,0"/><path class="i" d="M34.31,30.57c.07,0,.13-.02,.2-.02-.11-.02-.19-.02-.2,.02"/><path class="i" d="M47.24,32.43h0Z"/><path class="i" d="M34.79,30.57c-.11-.03-.2-.03-.29-.03,.09,.01,.19,.03,.29,.03"/><path class="i" d="M17.96,26.91l.05-.03s0,0,0-.01l-.05,.04Z"/><path class="i" d="M18.01,26.87l.05-.04s-.05,.03-.05,.04"/><path class="i" d="M18.17,26.75s-.07,.05-.11,.08c.04-.02,.09-.05,.11-.08"/><path class="i" d="M17.11,28.1l.03,.02s-.02-.02-.03-.02"/><path class="i" d="M17.17,28.52s-.02-.11-.01-.18c0-.07,.01-.14,0-.21h-.02s0,.1,0,.18c0,.08,0,.18,.04,.21"/><path class="i" d="M18.54,30.08c-.14-.06-.28-.12-.41-.19,.06,.06,.14,.14-.06,.06,.49,.32-.08-.1,.46,.13"/><path class="i" d="M19.88,30.45c-.24-.02,0,.05-.02,.06,.16,0,.19,0,.02-.06"/><path class="i" d="M29.74,30.67l-.02,.07c.18,0,0-.03,.02-.07"/><polygon class="i" points="31.63 30.33 31.46 30.28 31.37 30.35 31.63 30.33"/><polygon class="i" points="32.72 30.92 32.64 30.93 32.94 30.92 32.72 30.92"/><path class="i" d="M48.99,33.49l-.04-.1c-.13,0-.17,.1,.04,.1"/><path class="i" d="M56.16,33.62c.08,.05,.28,.07,.4,.03-.16,0-.32-.04-.4-.03"/><polygon class="i" points="46.04 24.86 46.19 24.86 45.91 24.84 46.04 24.86"/><path class="g" d="M19.47,37.84c5.12-.52,10.24-1.03,15.36-1.55,6.19-.62,12.92-1.17,18.27,1.34,2.08,.97,3.85,2.41,4.77,4.17,.15,.28,.27,.6,.16,.89-.25,.62-1.3,.7-2.13,.66-11.53-.51-23.06-1.02-34.59-1.52-1.25-.06-2.63-.15-3.5-.85-.86-.68-.93-1.88-.17-2.63,.76-.75,2.26-.96,3.31-.46"/><path class="i" d="M20.85,38.06c.05,0,.05-.07-.06-.1l-.11,.06,.18,.05Z"/><path class="i" d="M20.1,37.66c-.16,.03-.33,.1-.24,.19,.15-.08,.18-.04,.35-.12,.13,0,.21,.08,.18,.11,.05-.02,.18,.07,.26,.04-.13-.13-.34-.18-.56-.15-.04-.03,0-.05,.02-.06"/><path class="i" d="M24.53,42.1h-.08s.05,0,.08,0"/><path class="i" d="M32.29,42.5c-.06,0-.08,0-.09,.02,.06,0,.1,0,.09-.02"/><path class="i" d="M33.61,42.66h-.08s.06,0,.08,0"/><path class="i" d="M24.53,42.1l.21,.04s-.11-.03-.21-.04"/><path class="i" d="M18.5,38.08s.06-.04,.09-.06l-.09,.05s0,.01,0,.02"/><path class="i" d="M21.1,42.03h-.06s-.04,.02-.05,.03l.12-.03Z"/><path class="i" d="M18.44,41.6c.06,.03,.11-.04,.14-.07-.04,.02-.09,.02-.15,0,0,.01,0,.03,0,.07"/><path class="i" d="M17.84,38.06l.06-.05-.06,.05"/><path class="i" d="M22.98,42.13s.01,.02,.02,.03c0-.01,0-.02-.02-.03"/><path class="i" d="M22.54,37.92s0,0,0-.01c-.01,0-.02,.02,0,.01"/><path class="i" d="M19.47,37.82h.04s0-.04,0-.06l-.05,.06Z"/><path class="i" d="M36.04,42.88h-.01c-.06,0-.03,0,.01,0"/><path class="i" d="M58.38,42.66c-.09,.18-.06,.02-.07-.11,0-.06-.02-.11-.03-.12-.02,0-.03,.03-.06,.15,.02-.02,.03,.09,.04,.17,0,.07,.04,.13,.13-.1"/><path class="i" d="M18.44,38.1s-.06,.03-.09,.04c.04-.02,.07-.03,.09-.04"/><path class="i" d="M58.21,42.59h0s-.01,.03-.02,.05c0-.02,.01-.03,.02-.05"/><path class="i" d="M41.63,43.07s-.03-.03-.06-.04c0,0,.01,.02,.06,.04"/><path class="i" d="M37.47,42.77l.1,.02s-.07-.01-.1-.02"/><path class="i" d="M43.8,43.05c.06,0,.07,.02,.15,.01,0,0-.01,0-.02-.01-.03,0-.07,.01-.13,0"/><path class="i" d="M46.05,43.15s-.03-.01-.04-.02h-.07l.11,.02Z"/><path class="i" d="M29.35,37.19c-.05-.02-.08-.04-.11-.06,.04,.05-.29,.11,.11,.06"/><path class="i" d="M18.48,38.04s-.02,.04-.04,.06l.06-.03s0-.02-.02-.03"/><path class="i" d="M43.92,42.41l.36,.03c-.1-.01-.23-.02-.36-.03"/><path class="i" d="M45.42,36.18h-.08s.06,0,.08,0"/><path class="i" d="M45.34,42.47c.06,.03,.13,.05,.2,.07,.02,0,.03-.01,.04-.02l-.24-.05Z"/><path class="i" d="M29.24,37.13h0Z"/><path class="i" d="M26.91,37.56c.34-.03,.15-.12,.21-.19,.4-.07,.2,.06,.34,.1,.25-.05,.43-.17,.62-.19,.02,.02,.05,.02,.01,.05,.26-.11,.79-.08,1.09-.22,.02,0,.04,.01,.04,.02-.06-.05-.07-.1-.06-.14,.15-.02,.28-.1,.34-.03-.09,0-.1,.04-.14,.06l.16-.05c.15,.09-.21,.06-.21,.13,.31-.06,.66-.18,.9-.18,.06,.09-.55,.09-.23,.15h-.37c.3,.13-.23,.01,.05,.15,.49-.02,.54-.1,1.02-.12,.1-.07-.04-.08,.06-.14,.68-.17,.57,.19,1.06,.01,.12-.08,.16-.21,.53-.18l-.11,.12c.47-.04,.25-.19,.75-.16-.08,.05-.37,.07-.29,.08,.33,.06,.22-.09,.46-.11l.06,.09c.5-.07,1.04-.19,1.59-.27-.03,.03-.12,.07,.01,.09,.69-.12,1.49-.14,2.17-.14l.25-.11c.06,0,.11,.03,.05,.05,.26,.01,0-.06,.13-.1,.15-.02,.2,.03,.11,.07,.46-.11,1.31-.26,1.8-.2l-.09,.03c.38,0,.42-.2,.78-.14l-.07,.02c.83-.01,1.74-.12,2.37,0,.12-.12,.82,.04,.87-.12,.47,.09,.33,.12,.99,.19,.18,.01,.27-.1,.49-.1v.09l.3-.08,.15,.12h.21c-.08-.02-.17-.06-.16-.09,.32-.03,.77,.12,.78,.17,.25,0,.51-.01,.76,0-.02,.03-.15,.03-.25,.04,.41-.05,.06,.1,.44,.06-.05-.03,.03-.05,.04-.07,.18,.08,.59,.12,.9,.15l-.07,.05c.27,.05,.56,.1,.86,.14,.3,.04,.6,.11,.91,.18-.21-.08-.14-.17,.04-.14l.05,.11c.13-.03-.18-.08,.08-.09,.23,.06,.13,.14-.01,.14,.1,0,.19,.02,.28,.04,0,.03-.06,.03-.08,.06,.13-.03,.44,.23,.63,.17v.03c.31,.08,.52,.15,.72,.21,.2,.06,.39,.12,.63,.2,.04-.08,.21,.02,.38,.02,.33,.17,.69,.38,1.09,.58,.3,.11,.11-.02,.26,0-.01,.07,.38,.29,.15,.22,.47,.25,.6,.33,1.19,.66-.04-.07-.1-.13-.05-.12,.11,.06,.21,.19,.18,.21h-.03c.34,.17,.65,.49,.92,.8,.27,.32,.5,.64,.75,.81l-.03-.02c.15,.14,.3,.29,.44,.44,.15,.24-.14-.11-.06,.09,.24,.23,.37,.47,.48,.69,.1,.22,.16,.41,.18,.56-.06,.05-.11,.09-.18,.15-.07,.06-.18,.13-.34,.19-.31,.12-.73,.16-1.01,.09l.03,.05c-.15,.05-.18-.03-.28-.05,.01,.04,.16,.05,.07,.08-1.3,0-2.69-.19-4.03-.3-.49-.04-.29,.26-.9,.11l.18-.09c-1,.07-2.02-.09-3-.04,.06-.02,.06-.05,.16-.04-.2-.08-.76-.04-.76,.02-.15-.01-.03-.05-.12-.09-.2-.05-.52,.07-.63,0-.02-.01,.06-.02,.1-.02-.14,.03-.62-.04-.5,.05-.36-.05-.7,0-.99-.06-.19,.08-.62-.07-.69,.05,.03-.13-.63-.13-.87-.08,.08-.04-.2-.05-.11-.1-.26,0-.5,0-.46,.07-.48-.18-.98,.08-1.24-.13-.78,.04-1.51,.05-2.21,.05,.03-.13,.78,.02,.75-.12-.67,.02-1.06,.12-1.72,.06-.17-.03,.1-.05,.16-.07-.67,.02-1.28-.07-1.88-.02,0-.01,.07-.02,.13-.03-.12,0-.27-.03-.26,.03h.11c.18,.08-.47,.15-.49,.19,.21-.16-.58-.07-.26-.27-.08,0-.17,.03-.16,.07-.11-.02-.15-.04-.03-.08-.42,.01-.27,.08-.65,.07,0-.03,.08-.04,.12-.07-.19,.05-.39,.1-.71,.06,.02-.02-.02-.04,.08-.04-.55-.02-.94,.11-1.54,.03,.18-.12-.2-.05-.23-.16l-.33,.02,.13,.06c-.28-.01-.54,.05-.78,0l.21-.04h-.53l.3,.05c-.29,.04,.02,.14-.35,.09,.08,0-.28-.01-.43-.08h0c-.14,.03-.29,.06-.5,.02-.05-.04,.05-.12,.01-.14-.14,.08-.67,0-.85,.09,.06-.02,.07-.08,.05-.09l-.12,.07c-.13-.03-.15-.04-.13-.09-.4-.03,.12,.14-.35,.06,.04,0,.02-.02,.1-.02-.47-.05-.91,0-1.34-.05-.12-.12,.38-.01,.24-.11-.63,0-1.3,.07-1.9,.02l.11,.02c-.09,.15-.45-.1-.76-.04,.08,0,.1-.08,.08-.07-.41-.04-.85,0-1.48,.02l.08-.04c-.24-.05-.64-.05-.9-.08-.08,.04-.23,.02-.14,.08-.8-.26-1.55,.05-2.27-.17,.09,0,.21-.03,.14-.03h-.61c.04,.08,.08,.05,.2,.11-.08,.04-.25,.06-.41,.05,.28-.03,0-.11-.11-.15,.02,.02-.02,.04-.01,.06-.31-.14-.06,.13-.49,.02l.03-.03c-.16,0-.32,.03-.49,0-.06-.09,.18-.01,.2-.08-.24-.03-.51,.08-.71-.05,.11,0,.25,.03,.36,.02-.22-.13-.25-.12-.42-.17h.02c-.13-.04-.26-.09-.38-.14l.09,.05c-.17,.05-.33,.01-.48-.06-.16-.07-.31-.16-.52-.22,.4,.11,.09-.03,.17-.08-.07-.07-.17-.19-.12-.18-.18-.06-.18-.22-.41-.35,.01-.02-.09-.16-.01-.16-.12-.18-.02,.07-.06,.07-.13-.13-.19-.34-.2-.57,0-.23,.03-.45,.05-.71,.05-.21,.09-.35,.14-.48,.05-.13,.12-.26,.28-.42,.15-.05-.04,.16-.03,.16,.21-.12,.35-.22,.54-.34-.03,.04,.02,.04,.09,.04,.16-.07,.07-.15,.31-.18-.03,.04-.06,.11-.13,.16,.18-.09,.37-.19,.59-.25,.06,.04-.12,.1-.19,.14,.23-.08,.62-.12,.7-.19-.05-.01-.11-.02-.16-.03,.09,0,.05,.07-.02,.08-.2,.07-.3,0-.32-.03l.16-.03c-.09-.08-.26-.05-.43,.01-.17,.07-.35,.17-.5,.23l.08-.16c-.09,.07-.19,.14-.27,.23-.08,0-.16-.03-.01-.12-.12,.02-.16,.06-.2,.1-.04,.04-.07,.06-.17,.1-.02,0-.02,0,0-.02-.06,.06-.12,.11-.16,.18,.02-.05-.09-.04,.04-.12-.19,.11-.3,.26-.37,.39-.07,.12-.1,.23-.18,.28v-.04c-.1,.29-.06,.31-.04,.32,.04,0,.06,0,.07,.21-.09,.08-.17,.17-.25,.27l.09,.06c0,.06,0,.18-.03,.16,.09,.22,.03-.04,.11,.08-.01,.15,.05,.35,.13,.5,.08,.15,.16,.27,.12,.34,.12,.04-.12-.25,.1-.03-.04,.08,.03,.15,.12,.22,.1,.07,.21,.13,.3,.24-.11,.02-.3-.18-.12,.05,.2,0,.43,.32,.67,.38,.05-.09,.48,.14,.85,.17-.03,.04,.68,.18,1.03,.24v.02c.07-.1,.42-.05,.68-.06-.01,.06-.06,.09-.2,.11h.24c.06-.02,.14-.03,.29-.04l-.06,.08c.32,0,.65-.07,1.06,0,.03-.07-.32-.22,.12-.25,.01,.04,.03,.11-.09,.12,.04,0,.14-.03,.21,0l-.18,.06c.19,.04,.1-.05,.25-.04,0,.06,.11,.05,.09,.09-.04,0-.13-.03-.19,0,.17,.02,.37,.06,.44,.11-.01-.03,0-.08,.13-.08,.32,0,.11,.07,.29,.11,.08-.04,.28,.01,.29-.07,.09,0,.11,.05,.14,.07,.17-.03,.78,.02,.59-.08h-.02c.55-.07,1.13,.09,1.67,.08v.03c.32-.02,.72,.01,.95-.04,.1,0,.22,.06,.18,.1,.25-.01,.28-.04,.63,.02-.25,.04,.08,.05-.26,.03,.32,.04,.39,.09,.74,.02-.12,.07,.24,.1,.39,.09l-.22-.06c.17,0,.32,0,.47,.02l-.09,.09c.65,.15,1.19-.15,1.68,.07,.18-.06-.35-.06-.2-.14,.3,.03,.61,.18,.7,.18,.41,.07,.39-.12,.82-.07-.05-.04-.1-.13,.22-.15,.3,.03,.37,.16,.17,.18-.07,0-.11-.01-.1-.02-.1,0-.23,.02-.11,.06l.04-.03c.15,.04,.56,.06,.46,.11,.23-.02,.1-.05-.07-.08,.39,.07,.61,.03,1,.08-.06-.02-.12-.07-.06-.06,.58,.07,.26-.05,.66-.05,.22,.06-.09,.12,.32,.1,.24,.05,.05,.09-.05,.12,.37-.05,.68,.07,.89,.1l-.19,.02c.12-.01,.21,0,.3,0l-.11-.07c.11,.02,.21,.02,.2,.05,.12-.04-.08-.12,.15-.17,.15,.04,.46-.02,.51,.08-.47-.05,.05,.09-.35,.09,.08,0,.17,0,.28,.01,.02,.01-.02,.02-.05,.02,.45,.1,.21-.09,.68-.07-.06,.05,.1,.1,.18,.1-.19,0-.09-.09,.09-.12,.3,.05,.33-.02,.48,0l-.18-.03c.06-.05,.21-.04,.42-.04,.02,.04-.19,.02-.12,.04,.24-.08,.52,.12,.85,.07,.15,.04,.01,.1,.14,.13,.37-.05,.39,.09,.77,.05-.11-.07-.13-.06,.14-.11l-.63,.02,.41-.08c-.19,0-.4,.03-.51,0,.19-.05,.17-.03,.09-.09,.25,.12,.52-.04,.81,.05l-.02,.17c.45,.1,.8-.05,1.39,.02l-.19-.04c.08-.07,.36,0,.55-.01-.02,.06,.1,.08,.18,.12,0-.04,.43,.02,.49-.09l.26,.09c.47,.05,.55-.14,1-.1-.14,.06,.06,.11-.24,.14,.15,0,.29,.02,.29-.02,.09,.04,.42-.06,.56,0,.07-.02,.09-.08,.26-.07,.02,.01,0,.03,0,.03,0-.03,.27-.03,.12-.1,.46,.2,1.3,.04,1.7,.22,.33,0,.73,0,1.03,0-.02,.02,0,.03-.06,.02,.41,.07,.26-.15,.73-.07,.24,.1-.25,.04-.1,.08,.06,.19,.57,0,.88,.12h-.08c.24,.08,.59-.04,.99,0,0,0-.02,.02,0,.03,.27-.08,.79-.09,1.17-.1-.12,.07-.17,.03-.11,.11,.17,0-.04-.12,.3-.13,.11,.05,.35,.09,.38,.17h-.32c.16,.1,.42,0,.58,.03l-.02,.04c.49,0,.51-.11,1.03-.08l-.05-.04c.29-.1,.24,.07,.53,0l.08,.12c.19-.02,.67-.08,1.02-.09-.2,.08-.6,.1-.85,.14,.19,0,.64,.02,.74-.03-.08,0-.17,.03-.25,.01,.24-.08,.54-.11,.92-.09-.08,.22,.98,.1,1.25,.28,.34-.03,.69-.02,1.06-.04,.19-.02,.38-.04,.58-.1,.2-.06,.42-.15,.62-.34-.1,.04-.13,.03-.13,.01,0-.01,.04-.04,.07-.08,.08-.07,.16-.21,.07-.23,.1-.2,.11-.29,.12-.3,.08-.22,.05-.46,0-.66,0-.16,.11,.17,.14,.15-.07-.24-.08-.28-.07-.32,0-.03,.03-.06-.02-.2-.03,.08-.15-.09-.25-.31l.09,.33c-.18-.23-.21-.36-.25-.48-.03-.13-.08-.26-.28-.47l.15,.12c-.19-.24-.69-.88-1.01-.98-.02-.05-.04-.14,.06-.05-.49-.53-1.28-.93-1.67-1.31h.07c-.12-.07-.24-.06-.35-.19,.02-.01,.07,0,.02-.04-.07-.03-.34-.12-.47-.23l.15,.03c-.56-.4-.98-.41-1.5-.62,.06-.12-.42-.37-.66-.49h.02c-.74-.31-1.31-.38-2.02-.52-.2-.14-.57-.24-.98-.33-.41-.11-.85-.18-1.21-.28,.11,.04-.03,.1-.16,.09-.16-.06-.48,.02-.44-.09h.06c-.11-.12-.47-.13-.74-.17l-.06,.15c-.34-.16-.81-.17-1.24-.18-.43,0-.82,0-1.01-.1-.17,.03-.39,.02-.56,.06v-.08c-.47-.02-.71-.05-1.3-.02l.12-.06c-.33,0-.42,.24-.72,.25l-.09-.12c-.58,.02-1.17-.08-1.74,.07,0-.02,.02-.06,.12-.07-.27,.01-1.06-.03-.95,.14-.01-.11-.6,.03-.9,.1l.04-.08c-.26,.12-.26,.15-.63,.21-.09,0-.08-.06,.04-.05-.29-.02-.22,.1-.57,.08l.13-.06c-.3,.02-.27,.04-.43,.12-.18,.05-.57,.03-.62-.04-.04,.05-.19,.12-.37,.12-.03-.03,.04-.05,.07-.06-.5,0-.73,.17-1.08,.12,0-.03-.03-.04-.06-.04,.39-.04,.71-.06,.68-.06,0-.07-.33-.06-.08-.18-.25,.08-.68,.25-.99,.24-.02,0-.03-.01-.04-.02h.03c-.07-.01-.14,0-.19,.02-.1,0-.16,0-.26,0-.04-.06-.37,0-.53,.02,.02,.08-.19,.09,.01,.14-.03,0,.03-.01,.13-.03,.02,0,.05,0,.07-.02h0c.1,0,.24-.02,.39-.04-.12,.05-.25,.1-.43,.07-.08,.06-.16,.12-.21,.15-.23-.09-.65-.11-.72-.18-.48,.09-1.14,.15-1.43,.33-.14,.03-.16-.03-.22-.05,.08-.02,.17-.03,.21-.06-.27,.07-.81,.1-.87,.21-.35-.01,.18-.12-.29-.05l.06-.04c-.96-.08-1.5,.43-2.56,.31,.07,0,.11,0,.13,.03-1.2,.02-2.43,.34-3.62,.3-.34,0-.36,.07-.56,.15l-.08-.08-.34,.14c-.48,.12-.87-.13-1.48,.07l.09,.05c-.22,.01-.71,.11-.67,.03-.02,.01-.07,.07-.16,.05v-.05l-.55,.13c-.43,0,.05-.19-.57-.14-.23,.04-.64,.2-.55,.22,.09,0,.24,0,.25,.05l-.21,.05c-.02,.14-.17,.29,.36,.34l.35-.12,.12,.05-.3,.03c.18,.04,.28-.02,.4-.07,.03,.03,.09,.05,.16,.06l.34-.16s-.15,.12,.09,.13c.16-.08-.17-.1,.1-.17,.18,.04,.13,.1,.33,.03,.03,.03,0,.06-.09,.08,.18-.06,.48-.07,.56-.15,.19,.06,.61-.08,.6,.05,.05-.04,.31-.13,.47-.15-.29,.18,.62-.05,.56,.12,.21-.16,.8-.14,1.19-.26-.02,.01-.06,.04-.1,.04,.22-.01,.29,.02,.44,.04,.02-.12,.36-.18,.54-.27,.29,.08-.15,.15-.06,.25-.02-.09,.47-.14,.37-.21,.22,.05,.18,.01,.3,.1,.02-.15,.19-.04,.36-.15,.31,.04,.09,.13,.42,.05,.16,.03-.13,.11-.13,.11m7.9-1.05h0c-.07,.01-.13,.02-.16,.02,.03,0,.08-.01,.16-.02m.67-.07c-.08,0-.18,.01-.29,.03-.03-.03,0-.06,.06-.06-.03,.02,.12,.02,.23,.04m-1.47-.43c.1-.02,.14,0,.16,0l-.18,.03h-.01s.02-.02,.04-.03"/><path class="i" d="M33.84,36.14s-.02,0-.04,.01c.02,0,.04,0,.06,.01l.03-.03h-.06"/><path class="i" d="M24.43,42.09h.01s-.02,0-.03-.01c0,0,0,0,.02,.01"/><polygon class="i" points="44.68 36.18 44.68 36.16 44.62 36.18 44.68 36.18"/><path class="i" d="M20.76,41.64s-.02-.02-.05-.02c0,0,.02,.01,.05,.02"/><path class="i" d="M19.22,41.42l-.2-.08c.09,.04,.15,.06,.2,.08"/><path class="i" d="M18.16,40.96s-.03,.01-.04,.02h0l.04-.02Z"/><path class="i" d="M37.41,42.22s.03,0,.05,0c.11-.01,.04,0-.05,0"/><path class="i" d="M31.61,42.16c.06-.01,.12-.02,.19-.03-.1-.01-.18-.02-.19,.03"/><path class="i" d="M43.88,42.41h0Z"/><path class="i" d="M32.07,42.14c-.1-.02-.19-.02-.27-.01,.08,0,.18,.02,.27,.01"/><path class="i" d="M19.48,37.88h.05s0,0,0-.01h-.06Z"/><path class="i" d="M19.54,37.86h.06s-.05,0-.06,0"/><path class="i" d="M19.73,37.83s-.09,0-.13,.02c.04,0,.1,0,.13-.02"/><path class="i" d="M18.06,38.28v.03s0-.02,0-.03"/><path class="i" d="M17.73,38.57c.07-.08,.23-.13,.33-.23v-.03c-.03,.07-.31,.14-.33,.26"/><path class="i" d="M17.15,40.39c-.06-.14-.1-.28-.12-.43-.01,.08-.03,.2-.09,0,.02,.3,.05,.26,.06,.23,.02-.04,.03-.06,.15,.21"/><path class="i" d="M18.07,41.38c-.21-.11-.02,.04-.04,.05,.15,.04,.18,.05,.04-.05"/><path class="i" d="M27.32,42.28l-.03,.07c.17,0,0-.03,.03-.07"/><polygon class="i" points="29.1 41.97 28.94 41.92 28.85 41.98 29.1 41.97"/><polygon class="i" points="30.12 42.55 30.05 42.56 30.33 42.54 30.12 42.55"/><path class="i" d="M45.65,43.21l-.05-.09c-.12,.01-.15,.11,.05,.09"/><path class="i" d="M52.36,43.41c.07,.05,.26,.09,.38,.05-.15-.01-.3-.06-.38-.05"/><polygon class="i" points="46.5 35.57 46.64 35.55 46.38 35.55 46.5 35.57"/><path class="g" d="M18.8,51.27c3.31-2.9,7.98-3.61,12.38-3.8,6.64-.29,13.32,.3,19.81,1.76,2.06,.46,4.29,1.14,5.44,2.91,.71,1.08,.83,2.69-.12,3.57-.43,.4-1.02,.6-1.59,.74-2.05,.53-4.21,.61-6.29,.25-2.84-.49-5.47-1.79-8.28-2.43-2.34-.53-4.76-.59-7.15-.65-3.19-.08-6.38-.15-9.57-.23-1.13-.03-2.33-.07-3.28-.7-.95-.62-1.46-2.04-.75-2.92"/><path class="i" d="M19.55,49.89c0-.05-.06-.07-.11,.03,.01,.04,.02,.08,.04,.12l.07-.15Z"/><path class="i" d="M19.1,50.51c.03,.15,.11,.3,.2,.22-.08-.13-.05-.16-.13-.31,0-.12,.09-.18,.11-.15-.02-.05,.08-.15,.06-.23-.14,.09-.21,.29-.18,.5-.02,.04-.05,0-.06-.02"/><path class="i" d="M29.34,53.66h-.08s.05,0,.08,0"/><path class="i" d="M36.67,53.95c-.06,0-.08,0-.08,.01,.05,0,.09,0,.08-.01"/><path class="i" d="M37.9,54.18h-.07s.05,0,.07,0"/><path class="i" d="M29.34,53.66l.2,.04s-.1-.03-.2-.04"/><path class="i" d="M19.71,51.91s-.05-.05-.07-.07l.06,.07h.02"/><path class="i" d="M26.1,53.66h-.06s-.03,.02-.05,.04l.11-.04Z"/><path class="i" d="M23.61,53.61c.06,0,.08-.08,.1-.11-.03,.03-.07,.05-.12,.05,0,.02,0,.03,.02,.06"/><path class="i" d="M19.82,52.53l-.06-.04,.06,.04"/><path class="i" d="M27.88,53.72s.01,.02,.02,.03c0-.01,0-.02-.02-.03"/><path class="i" d="M21.36,49.99s0,0,0-.01c0,.01,0,.02,0,.01"/><path class="i" d="M18.79,51.25l.03-.03s-.01-.03-.02-.04v.07Z"/><path class="i" d="M40.1,54.66h0c-.06,0-.03,0,0,0"/><path class="i" d="M56.39,51.51c.11,.24-.34-.25-.16,.09,0-.05,.32,.18,.16-.09"/><path class="i" d="M19.73,51.96l.06,.07s-.04-.06-.06-.07"/><path class="i" d="M56.23,51.59h0l.02,.03-.02-.03"/><path class="i" d="M45.13,56.19s-.02-.03-.04-.05c0,0,0,.02,.04,.05"/><path class="i" d="M41.43,54.84l.09,.04s-.06-.03-.09-.04"/><path class="i" d="M47.14,56.66c.05,.02,.07,.03,.14,.04,0,0-.01-.01-.02-.02-.03,0-.06,0-.12-.03"/><path class="i" d="M49.27,57.05s-.03-.01-.04-.02h-.07l.11,.02Z"/><path class="i" d="M27.39,48.15s-.08-.04-.11-.06c.04,.05-.26,.12,.11,.06"/><path class="i" d="M19.67,51.93s.04,0,.06,.03c-.02-.02-.03-.03-.04-.05-.01,0-.02,0-.02,.02"/><path class="i" d="M47.38,56.05c.11,.03,.21,.06,.32,.09-.09-.03-.2-.06-.32-.09"/><path class="i" d="M42.55,48.16h-.08s.06,0,.08,0"/><path class="i" d="M48.67,56.31c.05,.04,.11,.06,.17,.09,.01,0,.03,0,.04-.02l-.22-.07Z"/><path class="i" d="M27.29,48.09h0Z"/><path class="i" d="M25.17,48.69c.31-.07,.12-.14,.17-.21,.36-.11,.19,.04,.33,.07,.22-.07,.38-.21,.56-.24,.02,.01,.05,.01,.02,.04,.23-.13,.73-.13,1.01-.28,.02,0,.04,.01,.04,.02-.05-.05-.07-.1-.07-.14,.14-.02,.26-.1,.32-.04-.09,.01-.09,.04-.13,.07l.14-.05c.15,.08-.2,.06-.19,.14,.28-.07,.61-.2,.84-.2,.06,.09-.52,.09-.21,.15-.12,0-.23,0-.35,0,.28,.12-.21,.02,.05,.15,.45-.03,.5-.11,.95-.13,.1-.07-.04-.08,.05-.14,.64-.15,.53,.2,.99,.03,.12-.07,.16-.2,.5-.16l-.11,.12c.44-.02,.24-.18,.71-.13-.08,.05-.35,.06-.28,.06,.31,.07,.21-.07,.44-.09l.05,.1c.47-.04,.99-.13,1.51-.16-.03,.03-.12,.06,0,.09,.66-.06,1.41-.01,2.05,.05l.24-.09c.06,0,.1,.04,.04,.06,.25,.03,.01-.05,.13-.09,.14,0,.19,.05,.1,.08,.44-.07,1.25-.14,1.71-.03l-.09,.02c.36,.05,.41-.16,.74-.07h-.06c.78,.08,1.65,.05,2.23,.22,.12-.12,.77,.11,.83-.05,.44,.12,.31,.14,.93,.25,.17,.02,.26-.08,.47-.08v.09l.29-.07,.14,.12h.2c-.08-.02-.16-.06-.15-.08,.31,0,.73,.15,.73,.19,.24,0,.48,0,.72,0-.02,.03-.14,.03-.24,.04,.39-.04,.06,.1,.42,.06-.04-.03,.03-.05,.04-.07,.17,.08,.56,.13,.86,.14l-.06,.05c.52,.1,1.12,.13,1.7,.23-.21-.06-.14-.16,.03-.14l.05,.11c.12-.04-.18-.07,.07-.1,.22,.05,.13,.13,0,.14h.27s-.05,.05-.08,.08c.12-.04,.45,.17,.62,.1v.03c.6,.11,.87,.12,1.35,.21,.03-.08,.21-.02,.36-.06,.35,.09,.72,.24,1.14,.32,.3,.02,.1-.05,.24-.07,0,.08,.43,.16,.2,.17,.51,.1,.64,.13,1.29,.23-.06-.05-.13-.08-.09-.09,.12,.02,.25,.1,.22,.13h-.03c.37,.04,.75,.22,1.1,.41,.35,.18,.67,.38,.95,.44h-.03c.18,.06,.37,.13,.54,.21,.22,.16-.16-.04-.02,.11,.59,.24,.77,.59,1.16,.91,.02,.11,.08,.23,.16,.36,.08,.13,.17,.27,.25,.42,.17,.3,.29,.66,.25,.91l.05-.04c.07,.12,0,.16-.01,.25,.04-.02,.03-.14,.07-.07,.09,.55-.06,1.14-.42,1.53-.35,.39-.9,.56-1.49,.69-.44,.09-.18,.33-.77,.33l.14-.13c-.87,.31-1.84,.31-2.72,.42,.05-.02,.05-.05,.14-.05-.19-.06-.7,0-.7,.06-.14,0-.03-.05-.12-.08-.19-.04-.48,.07-.58,0-.02-.01,.05-.02,.09-.02-.13,.03-.57-.05-.46,.04-.33-.07-.64-.03-.9-.12-.19,.06-.56-.14-.64-.03,.05-.12-.56-.22-.78-.21,.08-.02-.17-.09-.08-.12-.24-.06-.46-.09-.44-.01-.39-.27-.91-.13-1.09-.4-.72-.15-1.38-.33-2.02-.52,.07-.12,.7,.23,.72,.08-.61-.15-.99-.16-1.58-.39-.15-.07,.11-.02,.16-.03-.62-.15-1.16-.4-1.72-.48,0-.01,.07,0,.13,0-.11-.03-.24-.09-.25-.03h.11c.15,.15-.47,.07-.5,.11,.23-.12-.53-.18-.18-.32-.07,0-.17,0-.16,.04-.1-.04-.13-.07-.01-.09-.4-.06-.27,.03-.63-.05,0-.03,.08-.02,.12-.05-.19,.01-.38,.04-.68-.04,.02-.01,0-.04,.08-.03-.52-.08-.9,0-1.47-.12,.18-.11-.19-.06-.21-.17h-.31l.12,.06c-.27-.03-.51,.03-.74-.02l.2-.03-.51-.02,.28,.06c-.28,.04,.02,.14-.34,.08,.07,0-.27-.02-.4-.09h0c-.14,.03-.27,.05-.47,.02-.05-.04,.05-.12,.02-.14-.14,.08-.63,0-.8,.09,.06-.02,.06-.08,.04-.09l-.11,.07c-.12-.03-.14-.04-.12-.08-.37-.03,.11,.14-.33,.07,.04,0,.02-.02,.09-.03-.45-.04-.86,.02-1.27-.02-.12-.11,.36-.02,.22-.11-.59,0-1.23,.1-1.8,.06h.11c-.08,.17-.42-.07-.71,0,.07,0,.09-.08,.08-.07-.39-.03-.8,.02-1.4,.05l.07-.04c-.23-.04-.61-.04-.86-.06-.07,.04-.22,.03-.13,.09-.76-.25-1.47,.09-2.14-.12,.08,0,.2-.03,.13-.03l-.58,.02c.04,.07,.08,.04,.2,.1-.07,.04-.24,.07-.38,.06,.26-.04,0-.11-.11-.15,.02,.02-.02,.04-.01,.06-.3-.13-.05,.13-.47,.04l.02-.03c-.16,.01-.3,.06-.47,.04-.07-.08,.17-.03,.18-.1-.23,0-.47,.14-.68,.05,.1-.02,.24-.02,.34-.04-.23-.1-.26-.07-.43-.09h.02l-.4-.05,.1,.03c-.3,.2-.6,.02-1,.14,.39-.11,.07-.07,.1-.16-.1-.03-.25-.06-.21-.08-.19,.06-.3-.07-.57,.01,0-.03-.19-.02-.15-.09-.24,0,.05,.06,.03,.09-.38,.06-.82-.22-1.34-.28-.22-.05-.35-.08-.48-.11-.13-.03-.26-.07-.44-.19-.08-.13,.15,0,.16,0-.15-.17-.27-.28-.43-.43,.05,.02,.03-.03,.02-.1-.1-.13-.16-.03-.23-.25,.05,.02,.11,.04,.18,.08-.12-.15-.26-.3-.35-.49,.03-.07,.11,.09,.17,.14-.12-.19-.2-.53-.28-.6v.15c-.02-.08,.05-.05,.08,0,.1,.18,.04,.28,.02,.3-.02-.04-.04-.09-.06-.14-.07,.09-.01,.25,.08,.39,.09,.15,.23,.28,.31,.41l-.17-.04c.08,.07,.18,.14,.27,.19,.02,.07,0,.15-.12,.04,.1,.21,.16,.12,.25,.3,0,.02,0,.02-.02,.01,.06,.04,.13,.08,.2,.11-.05,0-.02,.09-.12,0,.29,.31,.6,.27,.69,.41h-.03c.53,.16,.08-.06,.5-.02,.06,.1,.13,.19,.21,.29l.07-.07c.05,.02,.16,.05,.13,.08,.22-.02-.03-.04,.1-.08,.25,.14,.74,.06,.79,.21,.1-.06-.25-.07,.04-.1,.07,.16,.33,0,.58,.08-.08,.08-.31,.02-.07,.1,.15-.13,.48,.04,.69,.02,.01-.11,.45-.03,.8-.06-.02,.04,.65,.07,.98,.12v.02c.06-.11,.39-.08,.63-.09-.01,.06-.06,.09-.19,.11h.23c.05-.03,.13-.04,.28-.05l-.06,.08c.3,0,.61-.08,1-.02,.02-.07-.31-.22,.11-.26,.01,.04,.03,.11-.08,.12,.04,0,.13-.03,.2-.01l-.17,.06c.18,.03,.09-.05,.24-.04,0,.06,.1,.04,.08,.09-.04,0-.12-.03-.18,0,.16,.01,.35,.05,.42,.1-.01-.03,0-.08,.12-.08,.3,0,.1,.07,.28,.11,.07-.04,.27,0,.27-.08,.09,0,.1,.04,.14,.07,.16-.03,.74,0,.56-.09h-.01c.52-.08,1.07,.06,1.58,.04v.03c.3-.03,.68,0,.9-.06,.09,0,.21,.06,.17,.09,.23-.02,.26-.05,.6,0-.24,.04,.08,.05-.24,.03,.3,.03,.37,.08,.7,0-.11,.07,.23,.1,.37,.08l-.21-.06c.16,0,.3,0,.45,.01l-.08,.1c.62,.13,1.12-.17,1.59,.05,.17-.06-.33-.06-.18-.13,.28,.02,.57,.18,.66,.18,.39,.07,.37-.12,.77-.06-.05-.04-.09-.13,.21-.15,.28,.03,.34,.17,.16,.19-.07,0-.1-.02-.1-.03-.09,0-.21,.01-.1,.06l.04-.03c.14,.05,.53,.07,.43,.12,.22-.01,.1-.05-.06-.08,.36,.08,.57,.05,.93,.13-.06-.03-.11-.07-.05-.07,.54,.11,.25-.04,.62,0,.2,.08-.09,.11,.28,.12,.22,.07,.03,.1-.06,.11,.35-.02,.62,.14,.8,.19h-.18c.11,0,.19,.01,.28,.03l-.09-.09c.1,.03,.19,.05,.18,.08,.11-.02-.06-.13,.16-.15,.13,.06,.43,.05,.45,.16-.42-.13,.03,.1-.34,.03,.07,0,.16,.02,.26,.06,.01,.01-.02,.02-.05,.01,.39,.18,.21-.06,.63,.05-.07,.04,.07,.12,.14,.13-.17-.05-.06-.11,.11-.1,.26,.11,.3,.06,.44,.1l-.16-.07c.07-.03,.2,.01,.4,.05,0,.04-.18-.02-.12,.01,.24-.02,.44,.23,.75,.27,.12,.08-.02,.1,.09,.16,.35,.04,.33,.18,.69,.24-.08-.1-.1-.09,.16-.07l-.58-.14,.39,.02c-.17-.06-.37-.08-.47-.12,.19,0,.17,.01,.1-.07,.2,.18,.48,.1,.72,.25l-.06,.16c.38,.21,.74,.16,1.25,.38l-.16-.09c.09-.04,.33,.1,.51,.13-.03,.05,.07,.1,.13,.16,0-.04,.39,.13,.47,.03l.21,.15c.42,.16,.54,0,.95,.13-.14,.03,.04,.12-.25,.08,.14,.04,.26,.08,.27,.05,.07,.06,.41,.02,.52,.11,.07,0,.1-.06,.26-.02,.01,.02,0,.03,0,.03,0-.03,.26,.02,.13-.08,.4,.28,1.22,.22,1.58,.42,.32,.02,.7,.03,.99,.04-.02,.02,0,.03-.06,.02,.39,.07,.25-.15,.7-.08,.23,.09-.24,.05-.1,.08,.06,.19,.54-.02,.85,.07h-.07c.24,.07,.56-.08,.94-.11,0,0-.02,.02,0,.03,.25-.12,.73-.21,1.08-.3-.1,.09-.16,.06-.08,.13,.16-.04-.07-.11,.25-.19,.11,.02,.35,.01,.4,.08-.1,.02-.2,.05-.3,.06,.18,.08,.39-.08,.55-.1v.05c.45-.13,.43-.23,.92-.38l-.06-.02c.22-.2,.25-.02,.47-.21l.13,.07c.17-.11,.53-.44,.72-.72-.03,.1-.11,.24-.21,.36-.1,.12-.23,.24-.33,.32,.09-.05,.23-.14,.34-.25,.12-.1,.2-.23,.22-.28-.05,.06-.09,.16-.17,.2,.12-.23,.29-.48,.45-.82,.09,.08,.22-.14,.29-.44,.08-.29,.09-.63,.17-.77-.05-.35-.1-.68-.19-1.02-.09-.34-.23-.7-.47-1.02,.02,.32-.14-.18-.25-.04-.11-.14-.16-.18-.16-.21-.09-.16-.18-.32-.29-.47-.06-.13,.15,.09,.17,.05-.28-.29-.06-.18-.24-.39,0,.09-.16-.03-.33-.18,.07,.08,.13,.18,.2,.27-.49-.27-.29-.42-.81-.65l.18,.05c-.26-.14-.93-.52-1.24-.48-.04-.04-.08-.11,.04-.07-.61-.29-1.44-.35-1.91-.57l.06-.03c-.12-.02-.23,.02-.37-.05,.01-.02,.06-.03,0-.05-.07,0-.33,0-.49-.06l.15-.02c-.61-.2-.98-.09-1.5-.18,.03-.13-.45-.26-.69-.33v-.02c-.71-.16-1.24-.13-1.92-.2-.4-.21-1.41-.29-2.07-.46,.1,.04-.03,.1-.15,.09-.15-.05-.45,.03-.41-.08h.06c-.1-.12-.44-.13-.69-.17l-.06,.15c-.64-.31-1.76-.12-2.1-.35-.17,.02-.37,0-.53,.03l.02-.08c-.45-.06-.67-.09-1.22-.11l.12-.05c-.31-.03-.41,.21-.7,.19l-.08-.13c-.54-.04-1.09-.17-1.64-.08,0-.02,.03-.05,.12-.05-.26-.02-.99-.12-.9,.05,0-.11-.56-.03-.86,.01l.05-.08c-.25,.1-.26,.13-.61,.15-.08-.01-.07-.07,.04-.04-.27-.05-.21,.07-.55,.03l.12-.05c-.28-.01-.26,.02-.42,.08-.18,.03-.53-.02-.58-.09-.04,.04-.19,.11-.36,.08-.02-.03,.04-.05,.07-.05-.47-.05-.7,.11-1.03,.03,0-.03-.03-.04-.06-.05,.38,0,.68,0,.65,0,0-.08-.3-.08-.06-.19-.24,.06-.66,.19-.95,.16-.01,0-.03-.01-.04-.03h.03c-.07-.01-.13,0-.19,0-.09,0-.15-.02-.25-.01-.04-.06-.35-.02-.5-.02,.02,.08-.18,.08,0,.14-.02,0,.03-.01,.13-.02,.02,0,.05,0,.06-.01h0c.1,0,.23,0,.38-.01-.12,.05-.24,.09-.41,.05-.08,.06-.16,.11-.21,.14-.21-.11-.61-.15-.67-.22-.46,.07-1.09,.1-1.36,.27-.13,.03-.15-.03-.21-.05,.07-.02,.16-.03,.2-.05-.26,.06-.78,.08-.83,.2-.33-.01,.17-.12-.28-.05l.06-.04c-.92-.07-1.41,.45-2.42,.42,.07,0,.11,0,.12,.01-1.14,.12-2.25,.61-3.35,.86-.31,.09-.32,.16-.48,.28l-.1-.05-.26,.23c-.4,.26-.84,.16-1.29,.58h.1c-.19,.11-.56,.4-.57,.32-.01,.02-.03,.09-.11,.11l-.03-.03-.39,.37c-.18,.1-.19,.06-.22,.03-.03-.03-.08-.05-.32,.14-.16,.16-.41,.51-.32,.48,.07-.05,.2-.12,.23-.09l-.14,.15c.06,.13,.04,.32,.47,.09l.21-.28,.12-.02-.21,.18c.16-.05,.2-.16,.27-.26,.04,.01,.1,0,.16-.02l.19-.3c.06,.02-.06,.17,.14,.07,.09-.14-.19-.01,0-.19,.17-.04,.16,.03,.29-.11,.04,.02,.02,.06-.04,.11,.12-.12,.37-.25,.4-.35,.18-.03,.49-.29,.53-.17,.03-.05,.21-.23,.35-.3-.19,.26,.53-.23,.53-.05,.13-.22,.67-.34,.99-.54-.02,.02-.05,.05-.08,.05,.2-.06,.27-.04,.41-.05-.01-.11,.29-.25,.44-.36,.28,.03-.11,.17,0,.25-.04-.08,.4-.21,.3-.26,.21,.01,.17-.01,.29,.05,0-.15,.17-.07,.31-.19,.29,0,.1,.11,.4,0,.15,0-.1,.12-.1,.12m7.37-1.05h-.16s.08,0,.16,0m.63-.01c-.08,0-.17,0-.27,0-.02-.03,0-.06,.06-.06-.03,.02,.12,.03,.21,.06m-1.35-.53c.1-.02,.13,0,.15,.02l-.18,.02h-.01s.02-.02,.04-.03"/><path class="i" d="M31.63,47.21s-.02,0-.04,0c.02,0,.04,.01,.06,.02l.03-.03h-.05"/><path class="i" d="M29.25,53.64h.01s-.02,0-.03-.01c0,0,0,0,.01,.01"/><polygon class="i" points="41.85 48.13 41.85 48.11 41.8 48.12 41.85 48.13"/><path class="i" d="M25.77,53.28s-.02-.02-.05-.02c0,0,.02,.01,.05,.02"/><path class="i" d="M24.27,53.22l-.21-.03c.09,.02,.16,.03,.21,.03"/><path class="i" d="M23.11,53.15s-.02,.02-.02,.03h0l.02-.03Z"/><path class="i" d="M41.51,54.29s.03,0,.04,0c.11,.01,.04,0-.04,0"/><path class="i" d="M36.03,53.6c.06-.01,.12-.02,.18-.03-.1-.01-.17-.02-.18,.03"/><path class="i" d="M47.35,56.04h0Z"/><path class="i" d="M36.47,53.59c-.1-.02-.18-.03-.25-.02,.08,.01,.17,.03,.25,.02"/><path class="i" d="M19.35,51.06v-.05s-.01,0-.02,0l.02,.05Z"/><path class="i" d="M19.34,51.01l-.02-.05s0,.05,.02,.05"/><path class="i" d="M19.29,50.84s.02,.08,.03,.11c0-.04,0-.09-.03-.11"/><path class="i" d="M19.98,52.27h.03s-.02,0-.03,0"/><path class="i" d="M20.32,52.52c-.09-.06-.17-.19-.28-.27h-.03c.07,.02,.19,.26,.31,.27"/><path class="i" d="M22.02,53.44c-.13-.02-.26-.05-.39-.08,.06,.04,.15,.1-.03,.08,.49,.17-.09-.08,.42,0"/><path class="i" d="M23.23,53.56c-.21,0,0,.05-.01,.06,.13-.03,.17-.03,.01-.06"/><path class="i" d="M31.98,53.77l-.02,.07c.16,0,0-.03,.02-.07"/><polygon class="i" points="33.66 53.43 33.5 53.38 33.42 53.45 33.66 53.43"/><polygon class="i" points="34.63 53.99 34.56 54 34.82 53.98 34.63 53.99"/><path class="i" d="M48.88,57.07l-.04-.1c-.11,0-.15,.1,.04,.1"/><path class="i" d="M55.26,56.51c.08,.02,.27-.01,.36-.1-.14,.05-.29,.07-.36,.1"/><polygon class="i" points="43.6 47.58 43.73 47.57 43.49 47.56 43.6 47.58"/><path class="i" d="M29.57,4.84c.13-.03,.06-.08-.31-.07l-.26,.1,.57-.03Z"/><path class="i" d="M27.09,4.73c-.43,.07-.92,.18-.64,.25,.42-.12,.53-.08,.98-.22,.37-.03,.64,0,.58,.05,.13-.03,.57,0,.77-.06-.48-.07-1.09-.05-1.72,.04-.14-.01,0-.05,.02-.07"/><path class="i" d="M2.41,26.78l.08-.22c-.03,.06-.05,.13-.08,.22"/><path class="i" d="M2.05,49.07c-.02-.17-.04-.24-.05-.25,.03,.16,.05,.28,.05,.25"/><path class="i" d="M2.6,52.86l-.04-.22c0,.09,.02,.17,.04,.22"/><path class="i" d="M2.41,26.78c-.07,.19-.14,.38-.2,.57,.02,.05,.1-.29,.2-.57"/><path class="i" d="M22.18,5.43c.12-.02,.22-.05,.32-.07-.1,.02-.2,.04-.3,.05,0,0,0,.01-.02,.02"/><path class="i" d="M6.49,17.8l.09-.16c.02-.05,.03-.1,.04-.15l-.12,.31Z"/><path class="i" d="M10.36,11.29c-.1,.14-.07,.24-.07,.31,.03-.1,.08-.21,.17-.34-.01-.01-.04,0-.09,.03"/><path class="i" d="M20.46,5.38l.21-.05c-.05,.01-.15,.03-.21,.05"/><path class="i" d="M4,22.62s-.04,.03-.06,.05c0,0,.03-.02,.06-.05"/><path class="i" d="M31.02,4.28s0,0,0-.01c-.04,.02-.05,.03,0,.01"/><path class="i" d="M22.49,6.32l.12-.04s.02-.04,.01-.05l-.13,.09Z"/><path class="i" d="M4.61,59.61v-.03c-.09-.17-.05-.07,0,.03"/><path class="i" d="M61.21,72.26c-.34,.13-.09-.02,.12-.16,.21-.14,.37-.27-.13-.03,.11-.02-.82,.58,0,.2"/><path class="i" d="M21.99,5.45c-.1,.02-.2,.03-.3,.05,.14-.02,.23-.03,.3-.05"/><path class="i" d="M61.2,72.06h0l-.1,.05,.1-.05"/><path class="i" d="M14.88,71.93s-.07-.07-.12-.12c0,.01,.03,.04,.12,.12"/><path class="i" d="M6.62,63.23l.15,.26c-.06-.11-.1-.19-.15-.26"/><path class="i" d="M20.63,74.44c.15,.06,.2,.09,.41,.15-.02-.01-.04-.02-.06-.03-.08-.02-.18-.05-.35-.12"/><path class="i" d="M26.91,76.11l-.11-.04-.2-.04,.32,.08Z"/><path class="i" d="M50.13,2.15c-.13-.06-.21-.1-.27-.15,.08,.08-.83-.14,.27,.15"/><path class="i" d="M22.17,5.39s-.09,.04-.18,.06c.07-.01,.14-.02,.21-.04,.02-.01,.02-.03-.03-.03"/><path class="i" d="M21.09,73.91c.32,.12,.64,.22,.97,.32-.27-.09-.62-.2-.97-.32"/><path class="i" d="M78.46,36.21l-.08-.22c.03,.09,.06,.16,.08,.22"/><path class="i" d="M24.98,75.02c.17,.07,.35,.14,.55,.19,.04,0,.09,0,.12,0-.22-.06-.45-.12-.67-.19"/><polyline class="i" points="49.86 2 49.86 2 49.86 2"/><path class="i" d="M43.23,1.71c.96-.06,.45-.13,.65-.21,1.15-.07,.54,.07,.93,.11,.36-.02,.68-.04,.97-.06,.3-.02,.57-.04,.84,0,.04,.02,.14,.04,.02,.05,.77-.06,2.24,.26,3.12,.36,.06,.03,.09,.04,.11,.06-.13-.09-.14-.15-.1-.18,.42,.11,.8,.14,.94,.25-.26-.07-.29-.05-.41-.06l.45,.09c.18,.12,.03,.06-.17,.02-.2-.05-.45-.11-.46-.07,.22,.05,.44,.09,.67,.15,.22,.06,.45,.12,.67,.18,.44,.11,.84,.28,1.16,.41,.1,.14-1.5-.54-.68-.14-.32-.14-.65-.25-.98-.37,.71,.4-.6-.21,.05,.18,.32,.11,.58,.2,.8,.27,.22,.08,.4,.14,.58,.21,.37,.12,.72,.27,1.34,.57,.3,.08-.06-.12,.25-.03,.45,.2,.75,.36,.97,.5,.22,.14,.36,.26,.48,.36,.25,.21,.44,.38,1.09,.71,.35,.14,.54,.12,1.36,.76-.12-.04-.24-.07-.35-.11,.55,.38,.72,.47,.91,.56,.18,.09,.37,.19,.9,.65-.23-.12-.87-.61-.71-.48,.67,.62,.55,.34,1.11,.77l.05,.17c1.14,.88,2.38,1.86,3.58,2.91-.09-.04-.31-.2-.05,.08,1.52,1.32,3.2,2.89,4.49,4.31,.19,.16,.38,.32,.56,.48,.12,.13,.19,.26,.05,.13,.47,.58,.07,0,.33,.24,.29,.32,.33,.46,.13,.27,.46,.48,1.08,1.19,1.6,1.97,.53,.78,.98,1.64,1.24,2.29l-.14-.23c.45,.99,.69,1.03,1.03,1.99l-.09-.17c.91,2.2,2,4.6,2.59,6.32,.25,.27,.87,2.19,1.09,2.27,.45,1.29,.28,.94,.96,2.72,.19,.47,.39,.66,.64,1.24l-.08,.05,.4,.76,.06,.46,.22,.55c-.07-.22-.13-.48-.09-.46,.36,.85,.64,2.15,.59,2.18,.11,.34,.21,.69,.31,1.04l.25,1.05s-.13-.39-.2-.67c.31,1.11-.05,.22,.23,1.24,0-.14,.06,.07,.08,.09,0,.27,.04,.7,.1,1.17,.05,.47,.07,.99,.11,1.44l-.07-.17c.05,1.59,0,3.38-.29,5.15,.12-.63,.21-.47,.14,.05l-.13,.19c0,.35,.14-.54,.08,.17-.14,.66-.19,.42-.15,.04l-.12,.81s-.02-.15-.04-.21c0,.09-.02,.21-.06,.36-.04,.15-.1,.32-.15,.5-.11,.36-.22,.73-.23,.98l-.04,.04c-.27,.86-.44,1.49-.66,2.06-.1,.29-.2,.57-.31,.86-.12,.29-.25,.59-.39,.92,.06,.06-.17,.58-.32,1-.26,.48-.52,.99-.84,1.49-.15,.26-.31,.52-.47,.79-.17,.26-.34,.53-.51,.81-.45,.8-.08,.26-.26,.64-.1,.01-.85,1.08-.5,.5-.23,.32-.4,.59-.58,.82-.18,.23-.34,.44-.5,.66-.32,.45-.72,.91-1.34,1.68,.16-.14,.33-.32,.27-.2-.22,.29-.58,.58-.57,.52l.06-.07c-.36,.42-.76,.87-1.22,1.28-.23,.21-.46,.42-.68,.63-.24,.2-.48,.4-.71,.59-.47,.4-.95,.75-1.38,1.1-.43,.36-.84,.66-1.17,.96l.07-.07c-.46,.4-.96,.76-1.44,1.14-.7,.48,.38-.34-.16-.02-.79,.6-1.45,1.03-2.09,1.4-.63,.38-1.25,.7-1.94,1.14-.61,.2-1.6,.73-2.66,1.24-.52,.27-1.08,.51-1.59,.74-.52,.22-1,.41-1.41,.54h.11c-.39,.23-.51,.18-.81,.29,.06,.02,.46-.13,.22,0-3.46,1.42-7.33,2.54-11.11,2.86-.69,.05-.88,.12-1.12,.19-.24,.06-.53,.12-1.41,.06,.17-.03,.33-.06,.5-.1-2.81,.15-5.74-.44-8.5-.78,.17,0,.18-.02,.45,.02-.57-.16-2.15-.35-2.17-.29-.43-.08-.09-.07-.35-.14-.58-.13-1.47-.16-1.77-.28-.05-.02,.17,0,.27,.02-.39-.03-1.75-.33-1.41-.18-1.02-.23-1.96-.36-2.76-.59-.55-.03-1.72-.46-1.91-.39,.05-.05-.38-.2-.91-.35-.52-.17-1.14-.32-1.46-.4,.22,.03-.53-.23-.26-.19-.71-.23-1.35-.46-1.26-.35-.31-.16-.63-.29-.93-.42-.31-.13-.61-.25-.9-.36-.57-.23-1.06-.47-1.36-.73-1.98-.98-3.69-2.15-5.16-3.49,.07-.02,.48,.34,.88,.69,.41,.33,.81,.65,.82,.57-.75-.56-1.34-1.03-1.89-1.52-.55-.5-1.08-1.02-1.67-1.76-.29-.39,.21,.18,.34,.29-1.28-1.39-2.21-2.91-3.09-4.34,.01,0,.11,.15,.2,.3-.16-.29-.36-.68-.39-.62l.17,.28c.09,.25-.11-.01-.34-.35-.24-.33-.47-.75-.51-.77,.2,.21,.03-.16-.13-.51-.14-.35-.26-.66,.02-.3-.1-.19-.24-.43-.26-.37-.12-.3-.15-.4,.03-.12-.27-.53-.35-.71-.44-.86-.08-.16-.17-.3-.36-.8,.03,0,.11,.19,.19,.28-.13-.24-.25-.49-.38-.78-.13-.29-.26-.64-.39-1.07,.03,.05,.02-.06,.11,.2-.5-1.48-.94-2.51-1.26-4.21,.23,.47-.08-.58,.01-.69-.07-.3-.14-.6-.21-.9v.38c-.06-.4-.14-.77-.22-1.13-.07-.36-.13-.71-.17-1.06l.13,.59c-.09-.5-.16-1-.23-1.51l.07,.86c-.16-.81-.13,.11-.24-.97,.03,.22-.1-.81-.07-1.24h0c-.08-.39-.15-.81-.17-1.41,.02-.16,.13,.12,.15,.01-.13-.39-.16-1.9-.27-2.4,.03,.17,.09,.17,.1,.12l-.09-.33c0-.38,.02-.43,.07-.37-.03-1.13-.13,.37-.12-.98,0,.11,.02,.05,.04,.27-.01-1.35-.11-2.61-.08-3.86,.11-.37,.03,1.09,.12,.67-.03-1.79-.13-3.72-.07-5.45l-.02,.32c-.15-.24,.1-1.29,.09-2.16,0,.21,.07,.29,.05,.23,.05-.59,.09-1.19,.16-1.87,.07-.67,.18-1.42,.39-2.29l-.02,.22c.2-.67,.55-1.75,.84-2.44,.04-.22,.21-.62,.06-.4,.55-1.03,1-2.04,1.44-3.03,.44-.98,.89-1.94,1.45-2.81-.12,.22-.24,.54-.15,.36l.8-1.57c-.13,.09-.15,.18-.37,.48,.07-.22,.28-.67,.49-1.05-.34,.72,.1,.05,.3-.23-.05,.04,0-.07-.04-.06,.56-.74-.05-.2,.65-1.26v.08c.22-.42,.39-.82,.66-1.25,.17-.14-.22,.45-.18,.51,.36-.62,.59-1.29,.99-1.8-.14,.27-.36,.64-.5,.91,.44-.56,.46-.64,.75-1.07l-.03,.04c.22-.33,.45-.67,.68-.99l-.19,.24c.31-.86,.96-1.53,1.63-2.54-.64,.98-.07,.19-.05,.32,.21-.22,.54-.55,.47-.43,.32-.46,.67-.65,1.19-1.24,.04,0,.46-.38,.41-.24,.56-.46-.17,.06-.14,0,.41-.39,.97-.74,1.62-1.05,.65-.31,1.38-.58,2.13-.89,.66-.23,1.06-.36,1.44-.5,.39-.13,.76-.24,1.4-.39,.44-.04-.34,.17-.34,.17,.71-.09,1.23-.19,1.89-.33-.13,.04,.01,.04,.22,.05,.53-.08,.34-.16,1.05-.21-.12,.05-.27,.12-.52,.18,.62-.11,1.24-.24,1.89-.33,.18,.03-.39,.12-.61,.17,.73-.11,1.9-.23,2.12-.32h-.48c.27-.02,.14,.06-.05,.09-.62,.11-.91,.06-.95,.03l.46-.06c-.5-.13-1.87,.22-2.8,.35l.37-.18-.94,.24c-.21,0-.36-.04,.1-.13-.68,.05-.59,.14-1.17,.17-.07,0-.04,0,.02-.02l-.64,.16c.12-.05-.12-.06,.28-.12-1.19,.15-1.86,.49-2.31,.53l.09-.03c-.79,.25-.82,.29-.8,.32,.02,.03,.09,.04-.47,.29-.28,.03-.57,.06-.86,.11l-.11,.15c-.16,.07-.46,.21-.42,.15-.54,.35,.11-.02-.19,.21-.38,.15-.86,.46-1.25,.75-.39,.29-.7,.56-.82,.56-.18,.24,.63-.47,0,.14-.29,.05-.72,.71-1.26,1.24,.09-.23,.6-.73,.04-.21-.2,.42-.95,1.12-1.29,1.66,.07,.08-.74,1.16-1.25,2.09,0-.08-1.08,1.68-1.6,2.52v-.03c0,.22-.52,1.09-.86,1.75-.04-.06,0-.19,.17-.55l-.34,.61c-.05,.16-.14,.36-.34,.76v-.19c-.42,.82-.78,1.69-1.36,2.73,.04,.09,.61-.75,.09,.39-.06,.02-.14,.03,0-.27-.04,.1-.14,.36-.25,.55l.16-.48c-.27,.47-.08,.28-.27,.66-.05-.03-.18,.27-.19,.19,.04-.1,.19-.33,.24-.49-.23,.43-.52,.95-.64,1.11,.05-.02,.07,.03-.08,.36-.39,.84-.2,.26-.45,.74-.06,.22-.33,.75-.26,.8-.11,.25-.16,.28-.22,.37-.08,.23-.28,.76-.41,1.17-.14,.41-.21,.71-.08,.47l.04-.12-.02,.08h0c-.21,.76-.43,1.55-.6,2.35-.17,.8-.28,1.61-.32,2.39h-.03c-.04,.93-.08,2.07-.02,2.74,0,.27-.06,.65-.09,.53,.02,.71,.04,.79,0,1.82-.05-.71-.05,.25-.03-.73-.03,.92-.08,1.13,0,2.12-.07-.34-.09,.7-.07,1.14l.05-.65c.01,.49,.01,.93,0,1.36l-.1-.24c-.1,1.9,.28,3.41,.16,4.86,.09,.5,0-1.03,.1-.59,.03,.87-.04,1.79-.02,2.06,.05,1.2,.24,1.1,.33,2.34,.02-.16,.09-.32,.24,.6,.09,.86,0,1.08-.11,.54-.03-.21-.03-.31-.02-.3-.05-.28-.11-.64-.1-.3l.05,.11c.01,.44,.2,1.62,.1,1.35,.13,.65,.1,.27,.04-.22,.12,1.12,.28,1.73,.48,2.87-.02-.18-.01-.36,.02-.18,.15,.83,.22,1.01,.27,1.12,.05,.11,.08,.15,.24,.7,.11,.64-.18-.19,.16,.91,.17,.69-.05,.17-.15-.09,.18,.5,.31,.97,.42,1.4,.12,.42,.21,.79,.3,1.08l-.2-.52c.12,.31,.21,.57,.31,.83l-.05-.32c.1,.31,.2,.57,.17,.57,.16,.3,.02-.28,.31,.32,.12,.42,.53,1.21,.51,1.38-.5-1.28-.03,.18-.48-.89,.1,.2,.2,.46,.31,.76,0,.05-.04-.04-.07-.12,.22,.62,.32,.74,.41,.87,.1,.13,.19,.26,.5,.87-.12-.13,.05,.33,.16,.52-.25-.49-.04-.27,.22,.16,.39,.78,.48,.82,.71,1.21-.09-.15-.16-.31-.24-.46,.13,.13,.34,.51,.67,1.01,0,.07-.31-.45-.21-.26,.21,.26,.39,.6,.6,.96,.21,.36,.43,.75,.74,1.11,.23,.37-.05,.09,.16,.41,.34,.4,.52,.63,.69,.87,.17,.24,.35,.48,.75,.87-.16-.29-.21-.31,.36,.22-.42-.44-.85-.87-1.23-1.34l.41,.42,.43,.4c-.38-.4-.78-.85-.98-1.12,.4,.4,.35,.36,.22,.12,.2,.32,.44,.61,.72,.88,.27,.27,.55,.56,.84,.89l-.14,.1c.87,.99,1.74,1.55,3.09,2.58l-.43-.34c.11,.04,.33,.19,.57,.37,.12,.09,.25,.18,.38,.28,.13,.08,.26,.17,.38,.23-.07,.02,.2,.22,.38,.38,0-.03,.26,.15,.56,.3,.3,.16,.61,.32,.71,.3,.21,.15,.42,.28,.64,.42,.3,.16,.55,.27,.76,.36,.22,.08,.4,.14,.59,.2,.37,.11,.73,.23,1.34,.47-.39-.09,.15,.17-.69-.11,.41,.16,.77,.31,.79,.28,.22,.14,1.17,.35,1.53,.53,.18,.04,.26,0,.73,.15,.05,.03-.01,.03-.01,.03,.01-.03,.75,.19,.35,0,.15,.07,.33,.14,.51,.21,.19,.06,.39,.13,.59,.19,.42,.13,.87,.24,1.31,.35,.89,.22,1.77,.39,2.33,.59,.94,.17,2.07,.37,2.92,.51-.06,0,0,.03-.17,0,1.17,.26,.75-.04,2.08,.24,.67,.21-.72-.07-.3,.04,.15,.22,1.62,.24,2.5,.49l-.22-.02c.68,.17,1.69,.2,2.82,.36,0,0-.06,0-.01,.03,.79,.01,2.26,.15,3.36,.18-.35,.05-.5,0-.3,.1,.49,.02-.14-.13,.85-.1,.32,.06,1.03,.1,1.12,.18-.31,0-.62,0-.93-.01,.47,.13,1.21,.02,1.7,.02l-.06,.05c.72-.03,1.08-.09,1.45-.15,.37-.06,.75-.13,1.51-.22h-.16c.81-.25,.7-.05,1.51-.28l.27,.06c.54-.13,1.86-.52,2.8-.82-.51,.24-1.62,.57-2.32,.76,.54-.11,1.81-.44,2.07-.58-.21,.07-.47,.17-.69,.2,.63-.25,1.46-.53,2.5-.86-.06,.14,.62-.06,1.41-.33,.79-.27,1.68-.59,2.08-.66,1.77-.77,3.56-1.41,5.56-2.45-.79,.21,.58-.31,.37-.4,.46-.25,.64-.34,.68-.35l1.43-.68c.17-.08,.07,0-.07,.09-.14,.09-.32,.2-.29,.2,1-.56,.45-.18,1.13-.53-.17,.02,.3-.28,.86-.61-.27,.15-.55,.28-.83,.42,.66-.45,.96-.62,1.28-.78,.31-.16,.63-.32,1.26-.82l-.39,.34c.67-.49,2.49-1.8,3.01-2.45,.13-.08,.31-.16,.03,.08,.39-.3,.78-.66,1.17-1.03,.4-.36,.77-.75,1.13-1.12,.37-.37,.71-.75,1.03-1.1,.16-.17,.32-.34,.47-.5,.15-.16,.29-.31,.42-.45l-.07,.14c.23-.29,.36-.54,.7-.87,0,.03-.06,.14,.05,.01,.11-.16,.55-.82,.87-1.2l-.22,.36c.32-.37,.56-.73,.78-1.05,.22-.33,.42-.63,.59-.94,.17-.31,.34-.61,.51-.92,.18-.31,.33-.65,.53-1,.05,.03,.29-.27,.53-.68,.24-.41,.51-.92,.69-1.26v.03c.24-.52,.44-1,.63-1.46,.17-.47,.32-.92,.47-1.37,.27-.9,.5-1.79,.72-2.81,.05-.15,.12-.33,.17-.54,.05-.21,.11-.44,.16-.68,.05-.25,.11-.51,.17-.79,.04-.28,.08-.57,.12-.87,.18-1.19,.23-2.49,.26-3.54-.03,.32-.09-.05-.12-.42,0-.49-.17-1.35-.04-1.28v.17c.03-.09,.05-.23,.05-.39,0-.16-.02-.35-.04-.54-.05-.4-.09-.85-.17-1.23l-.18-.1c-.05-.51-.12-1.11-.27-1.71-.15-.6-.34-1.22-.54-1.8-.4-1.16-.84-2.18-.95-2.74-.22-.44-.45-1.01-.68-1.44h.09c-.51-1.27-.77-1.9-1.44-3.44l.19,.29c-.37-.88-.69-1.01-1.03-1.81v-.29c-.64-1.52-1.19-3.11-1.94-4.57,.03,.02,.08,.05,.19,.29-.15-.36-.43-1.06-.68-1.63-.25-.57-.49-1.01-.5-.84,.05-.03-.13-.42-.4-.9-.26-.48-.61-1.03-.87-1.4l.14,.08c-.49-.6-.52-.61-1.17-1.45-.15-.21-.08-.22,.1,.07-.24-.35-.35-.47-.48-.6-.13-.13-.28-.28-.59-.68l.29,.25c-.56-.66-.54-.59-.9-.9-.39-.38-1.12-1.18-1.16-1.32-.11-.05-.49-.33-.85-.69-.03-.07,.12,.05,.19,.1-1.01-1.02-1.63-1.38-2.3-2.1,0-.03-.04-.09-.09-.15,.84,.77,1.51,1.39,1.45,1.34,.05-.06-.62-.69,0-.27-.58-.46-1.6-1.22-2.24-1.84-.03-.03-.05-.07-.07-.1l.08,.06c-.15-.14-.29-.26-.43-.37-.21-.2-.34-.33-.54-.51-.04-.12-.78-.72-1.13-1.01-.02,.09-.48-.31-.09,.1-.05-.05,.07,.05,.31,.24,.05,.04,.12,.09,.16,.12h-.03c.23,.18,.53,.44,.87,.73-.3-.21-.61-.43-.97-.79-.22-.11-.45-.24-.58-.31-.41-.49-1.32-1.3-1.41-1.45-.57-.41-1.24-.9-1.89-1.31-.64-.42-1.26-.75-1.67-.92-.35-.19-.38-.27-.49-.36,.21,.1,.45,.24,.56,.29-.36-.18-.87-.48-1.34-.71-.47-.22-.87-.41-.98-.4-.9-.46,.56,.14-.71-.41l.18,.05c-1.22-.62-2.31-.93-3.45-1.13-1.14-.2-2.3-.34-3.81-.52,.21,.02,.31,.03,.35,.06-1.72-.16-3.5-.02-5.25,.23-1.75,.26-3.46,.63-5.13,.97-.94,.21-1.02,.3-1.58,.51l-.22-.03-.94,.37c-1.35,.46-2.43,.47-4.11,1.1h.24c-.62,.16-1.96,.59-1.87,.5-.06,.03-.19,.12-.44,.16l-.03-.04-1.5,.52c-1.19,.31,.13-.23-1.59,.26-.64,.2-1.79,.66-1.54,.62,.26-.07,.67-.16,.7-.12l-.58,.19c-.07,.16-.48,.42,.98,.1l.98-.37,.34-.03-.84,.25c.5-.08,.78-.22,1.11-.35,.09,.01,.24,0,.44-.05l.95-.41c.13,.02-.41,.23,.26,.07,.44-.19-.48,.01,.28-.25,.5-.08,.37,0,.92-.2,.09,.01-.02,.07-.24,.15,.49-.18,1.32-.4,1.56-.54,.52-.07,1.69-.51,1.67-.37,.15-.08,.85-.35,1.31-.49-.8,.39,1.73-.48,1.55-.26,.59-.31,2.23-.68,3.33-1.01-.06,.03-.18,.08-.28,.09,.63-.14,.82-.13,1.23-.2,.06-.13,1.03-.36,1.55-.52,.79-.02-.45,.21-.18,.28-.06-.09,1.33-.32,1.05-.35,.6-.02,.52-.04,.84,.01,.09-.16,.55-.1,1.03-.23,.87-.02,.23,.11,1.18,0,.45,.02-.39,.12-.39,.12m20.13,8.55h0c-.15-.13-.27-.24-.36-.31,.07,.06,.18,.15,.36,.31m1.43,1.29c-.17-.16-.39-.36-.61-.56-.03-.07,.04-.04,.18,.09-.09-.06,.23,.26,.43,.47m-2.66-3.13c.24,.19,.31,.27,.33,.31-.11-.09-.24-.2-.41-.34l-.03-.02s.07,.02,.12,.05"/><path class="i" d="M61.64,8.13l-.1-.08,.13,.13,.1,.05s-.09-.07-.13-.11"/><path class="i" d="M2.5,26.52v.04s.01-.06,.02-.08c-.01,.02-.01,.02-.02,.04"/><polygon class="i" points="77.69 34.23 77.71 34.22 77.63 34.07 77.69 34.23"/><path class="i" d="M7.31,17.08s.04-.05,.09-.11c0,0-.04,.05-.09,.11"/><path class="i" d="M9.63,13.15l.37-.53c-.16,.23-.28,.4-.37,.53"/><path class="i" d="M11.65,10.3s.02-.06,.02-.07h0v.07Z"/><path class="i" d="M6.97,62.75s.05,.08,.07,.11c.18,.26,.06,.08-.07-.11"/><path class="i" d="M2.12,47.05c.03,.17,.07,.35,.1,.53-.03-.29-.05-.52-.1-.53"/><path class="i" d="M20.98,73.87h0l.11,.04-.11-.04Z"/><path class="i" d="M2.3,48.34c-.02-.29-.05-.54-.09-.77,.02,.24,.04,.53,.09,.77"/><path class="i" d="M25.28,5.09h.17s0-.02,.02-.03l-.19,.03Z"/><path class="i" d="M25.47,5.06l.19-.02c-.09,0-.16,.01-.19,.02"/><path class="i" d="M26.05,4.99l-.39,.05c.14,0,.3-.02,.39-.05"/><path class="i" d="M20.68,5.64l-.05,.04s.04-.02,.05-.04"/><path class="i" d="M19.3,5.92c.33-.07,.84-.11,1.29-.2l.04-.03c-.21,.08-1.03,.12-1.33,.24"/><path class="i" d="M13.73,7.78c.33-.23,.67-.44,1.02-.63-.2,.08-.46,.18,.01-.1-.69,.34-.6,.33-.53,.31,.04,0,.07-.01,.02,.04-.06,.05-.21,.15-.53,.38"/><path class="i" d="M11.08,10.37c.38-.52-.04-.02-.03-.06-.23,.34-.28,.43,.03,.06"/><path class="i" d="M1.43,34.76l-.07-.07c0,.49,.03,0,.07,.07"/><polygon class="i" points="1.81 39.84 1.85 39.36 1.78 39.14 1.81 39.84"/><polygon class="i" points="1.37 42.86 1.35 42.64 1.41 43.46 1.37 42.86"/><path class="i" d="M25.77,75.94l-.13-.12c-.33-.06-.42,.03,.13,.12"/><path class="i" d="M44.95,77.83c.22,.02,.76-.03,1.09-.14-.43,.07-.87,.1-1.09,.14"/><path class="i" d="M79.94,38.88l.11,.38c-.06-.24-.11-.48-.17-.72,.03,.11,.04,.23,.07,.34"/></g></g></g></g></g></svg>