<?xml version="1.0" encoding="UTF-8"?><svg xmlns="http://www.w3.org/2000/svg" xmlns:xlink="http://www.w3.org/1999/xlink" viewBox="0 0 94 70.72"><defs><style>.g{fill:#fff;}.h{clip-path:url(#e);}.i{fill:#202020;}.j{fill:none;}.k{clip-path:url(#f);}.l{fill:red;}</style><clipPath id="e"><rect class="j" y="0" width="94" height="70.72"/></clipPath><clipPath id="f"><rect class="j" y="0" width="94" height="70.72"/></clipPath></defs><g id="a"/><g id="b"><g id="c"><g id="d"><g class="h"><g class="k"><path class="l" d="M88.34,68.84H7.28c-3.11,0-5.66-2.55-5.66-5.66V6.36C1.62,3.25,4.16,.7,7.28,.7H88.34c3.11,0,5.66,2.55,5.66,5.66V63.19c0,3.11-2.55,5.66-5.66,5.66"/><path class="g" d="M65.05,32.54l-24.05-13.89c-1.64-.95-3.69,.24-3.69,2.13v27.77c0,1.89,2.05,3.08,3.69,2.13l24.05-13.89c1.64-.95,1.64-3.31,0-4.26"/><path class="i" d="M4.66,1.68c.16-.03,.07-.14-.34-.11-.1,.05-.18,.11-.26,.19l.14-.04h.15l.3-.04Z"/><path class="i" d="M2.17,2.64c-.25,.46-.37,1.04-.1,.82,.04-.25,.11-.39,.18-.53,.03-.07,.07-.15,.1-.23,.04-.08,.09-.18,.14-.31,.28-.33,.59-.45,.56-.36,.05-.05,.19-.14,.33-.21,.16-.06,.31-.14,.41-.21-.56,.01-1.23,.46-1.56,1.13-.12,.11-.06-.04-.07-.09"/><path class="i" d="M.69,45.42v-.28c0,.08,0,.17,0,.28"/><path class="i" d="M11.13,66.95c-.2-.05-.28-.06-.3-.05,.18,.04,.34,.07,.3,.05"/><path class="i" d="M15.55,68.15c-.1-.02-.18-.04-.26-.06,.1,.03,.2,.06,.26,.06"/><path class="i" d="M.69,45.42v.72s.01-.37,0-.72"/><path class="i" d="M1.08,8.3c0-.15-.02-.27-.03-.39,0,.12,0,.24,0,.36,0,0,.02,.01,.02,.02"/><path class="i" d="M.09,33.66v-.22c-.02-.06-.04-.12-.07-.18l.07,.4Z"/><path class="i" d="M.03,24.62c0,.2,.13,.28,.18,.35-.05-.12-.08-.27-.09-.45-.03,0-.06,.02-.09,.09"/><path class="i" d="M.5,10.31v-.25c0,.07,0,.18,0,.25"/><path class="i" d="M.26,40.13s-.04,.05-.04,.08c.02,0,.03-.03,.04-.08"/><path class="i" d="M13.67,2.55s0-.02,0-.02c-.05,.01-.07,.02,0,.02"/><path class="i" d="M3.21,1.86h.15s.03-.06,.03-.08l-.18,.08Z"/><path class="i" d="M23.79,69.69h-.04c-.22-.02-.1,0,.04,0"/><path class="i" d="M92.56,57.36c-.21,.85,0-1.42-.27-.14,.07-.12,.08,1.2,.27,.14"/><path class="i" d="M1.06,8.53c0,.12,0,.25,0,.37,0-.17,.01-.28,0-.37"/><path class="i" d="M92.29,57.23h0l-.03,.13,.03-.13"/><path class="i" d="M43.03,70.72s-.12-.04-.2-.06c0,.01,.05,.03,.2,.06"/><path class="i" d="M28.71,69.96l.35,.04c-.14-.02-.25-.03-.35-.04"/><path class="i" d="M50.47,70.43c.19,0,.26,.02,.52,0-.02,0-.05,0-.08-.01-.09,.02-.22,.03-.44,.02"/><path class="i" d="M58.21,70.16s-.1-.01-.14-.02c-.08,0-.17,.01-.24,.02h.39Z"/><path class="i" d="M37.17,2.57c-.17-.04-.27-.08-.36-.12,.12,.09-1.02,.13,.36,.12"/><path class="i" d="M1.01,8.3s.05,.11,.05,.23v-.26s-.04-.03-.05,.03"/><path class="i" d="M50.76,69.38l1.23-.02c-.34,0-.79,0-1.23,.02"/><path class="i" d="M89.98,5.67l-.11-.25c.03,.1,.07,.19,.11,.25"/><path class="i" d="M55.63,69.22c.22,.04,.45,.06,.69,.06,.05-.01,.11-.02,.14-.04l-.84-.02Z"/><polyline class="i" points="36.81 2.44 36.82 2.45 36.81 2.44"/><path class="i" d="M28.72,2.73c1.17,0,.55-.17,.8-.27,1.4-.04,.65,.13,1.12,.22,.87-.04,1.54-.2,2.19-.19,.05,.03,.17,.04,.03,.07,.92-.14,2.74,0,3.81-.17,.08,.02,.12,.03,.14,.04-.17-.09-.2-.18-.16-.24,.52,0,.97-.11,1.17,0-.32,0-.35,.04-.5,.08l.55-.05c.49,.16-.75,.05-.75,.18,1.07-.05,2.32-.18,3.15-.14,.17,.16-1.92,.05-.83,.2l-1.27-.06c.97,.25-.77-.02,.12,.25,1.67,.05,1.87-.08,3.54-.03,.38-.09-.12-.13,.25-.22,2.37-.16,1.87,.4,3.61,.18,.45-.11,.63-.31,1.87-.21l-.42,.18c1.62,.01,.92-.26,2.62-.15-.3,.07-1.27,.07-1.03,.09,1.1,.14,.78-.11,1.62-.11l.18,.16c1.73-.04,3.63-.17,5.54-.23-.11,.05-.43,.1,.02,.15,2.41-.12,5.15-.08,7.48-.05l.88-.17c.21,0,.39,.05,.16,.08,.91,.02,.04-.09,.48-.16,.52-.03,.68,.06,.36,.11,1.6-.17,4.54-.42,6.24-.36l-.33,.06c1.32,0,1.47-.36,2.69-.29l-.23,.04c2.85-.09,5.98-.44,8.16-.4,.2-.11,.9-.15,1.55-.14,.66,0,1.26,.06,1.37-.06,.76,.17,1,.3,1.32,.44,.15,.07,.33,.15,.56,.3,.24,.13,.55,.32,.94,.65,.21,.18,.4,.27,.58,.41,.1,.06,.2,.13,.3,.21,.1,.09,.21,.2,.32,.33l-.11,.1c.12,.1,.22,.23,.34,.35,.11,.12,.22,.24,.32,.37,.03,.18,.07,.36,.09,.54l.31,.59c-.1-.25-.18-.55-.12-.53,.26,.46,.47,1.09,.59,1.6,.12,.51,.16,.91,.12,.93,.25,.81,.44,1.64,.61,2.49-.07-.05-.15-.47-.25-.8,.36,1.33-.1,.26,.21,1.49,.01-.17,.1,.08,.13,.1-.01,.64,.15,2.08,.3,3.14l-.12-.19c.18,1.93,.45,4.06,.61,6.23-.02-.78,.17-.62,.24,.02l-.13,.27c.13,.4,0-.67,.19,.17,.04,.81-.14,.56-.22,.1l.12,.98c-.04,.06-.08-.17-.14-.22,.12,.4-.04,1.71,.16,2.28l-.04,.06c.11,2.17,.22,3.15,.28,4.92,.13,.03,.13,.72,.25,1.25,0,1.3-.09,2.75-.06,4.32,.07,1.1,.11,.32,.19,.82-.12,.08-.11,1.65-.19,.84,.03,1.88,0,2.4,.07,4.79,.06-.26,.09-.55,.12-.4,0,.43-.08,.98-.14,.92v-.11c.11,2.68-.6,6.15-.49,8.28v-.12c0,.74-.02,1.47-.03,2.21-.1,1.01-.04-.61-.18,.13,.01,1.19-.07,2.13-.18,3.01-.1,.88-.19,1.71-.24,2.69-.27,.73-.38,2.07-.55,3.48-.16,1.4-.27,2.9-.61,3.8l.11-.09c-.03,.51-.2,.57-.32,.9,.08-.02,.23-.48,.19-.18-.28,1.01-.84,1.89-1.73,2.34-.89,.46-2.02,.54-3.16,.57-2.33,.06-4.68,.11-6.98,.17-1.68,.06-.93,.48-3.07,.38l.59-.18c-3.39,.35-6.95,.33-10.27,.64,.2-.05,.2-.09,.52-.11-.71-.08-2.6,.12-2.61,.21-.52,.01-.12-.08-.44-.11-.71-.03-1.76,.23-2.14,.13-.06-.02,.2-.05,.32-.06-.46,.08-2.14,.08-1.69,.19-1.25,0-2.38,.17-3.38,.12-.64,.17-2.14,.01-2.34,.23,.08-.21-2.19-.1-2.98,.02,.26-.07-.69-.05-.38-.14-.9,.03-1.72,.08-1.56,.19-1.66-.22-3.33,.27-4.27-.06-1.34,.07-2.62,.11-3.88,.14-1.25,.04-2.47,.03-3.67,.02,.09-.21,2.66,.06,2.56-.18-2.28,.03-3.6,.19-5.86,.02-.58-.06,.34-.08,.54-.1-1.14-.01-2.24-.06-3.3-.15-1.06-.09-2.1-.13-3.11-.19,0-.02,.23-.02,.43-.01-.4-.03-.92-.12-.88-.02h.39c.62,.22-1.61,.15-1.69,.21,.7-.2-1.99-.27-.87-.51-.26,0-.59-.01-.54,.06-.38-.07-.5-.12-.1-.14-1.42-.13-.93,.03-2.22-.13,.01-.05,.27-.03,.41-.07-.66,0-1.33,.02-2.4-.21,.07-.02-.05-.07,.27-.02-.93-.14-1.73-.21-2.55-.3-.82-.11-1.66-.24-2.66-.49,.64-.08-.67-.2-.74-.4l-1.09-.2,.41,.19c-.94-.23-1.81-.3-2.61-.55l.72,.1c-.59-.12-1.18-.26-1.77-.42,.33,.11,.65,.24,.98,.34-.97-.16,.04,.25-1.19-.15,.26,.05-.94-.27-1.4-.5h0c-.48-.08-.98-.14-1.65-.41-.16-.11,.2-.14,.1-.21-.24,0-.78-.17-1.31-.39-.53-.21-1.04-.5-1.32-.6,.18,.08,.24,0,.2-.05-.13-.03-.25-.08-.38-.12-.32-.3-.34-.36-.24-.37-.44-.45-.4-.36-.39-.27,.03,.08-.02,.16-.42-.5,.07,.1,.06,.04,.22,.23-.86-1.27-1.12-2.79-1.28-4.26,.12-.46,.22,1.28,.3,.76-.16-1.06-.36-2.15-.55-3.23-.17-1.09-.33-2.17-.43-3.2l.02,.39c-.29-.26-.03-1.55-.25-2.58,.04,.25,.17,.32,.14,.26-.1-1.42-.32-2.88-.55-5.02l.08,.26c0-.84-.11-2.2-.13-3.1-.08-.26-.09-.78-.17-.46,.22-2.8-.44-5.31-.18-7.79,0,.3,.07,.7,.07,.47l-.11-2.1c-.11,.17-.06,.28-.14,.72-.07-.27-.13-.86-.14-1.38,.08,.95,.17-.01,.23-.42-.03,.07-.07-.07-.1-.04,.18-1.1-.22-.18-.11-1.69l.06,.08c-.04-.56-.11-1.08-.1-1.69,.12-.25,.06,.6,.16,.64-.01-.85-.25-1.68-.12-2.45,.04,.36,.04,.88,.08,1.24,.15-.84,.1-.94,.13-1.56v.06l.07-1.44-.04,.37c-.33-1.07-.05-2.17-.25-3.61,.19,1.4,.12,.23,.26,.34,.04-.37,.09-.92,.13-.76-.11-.68,.1-1.13-.05-2.09,.05-.04,.02-.73,.13-.57-.02-.88-.08,.21-.14,.13-.14-1.36,.24-3.19,.07-5.16-.05-1.69-.2-2.01-.24-3.57,.09-.53,.16,.44,.16,.44,.09-.85,.09-1.49,.06-2.3,.04,.16,.07,0,.13-.25,0-.64-.17-.44-.05-1.28,.04,.15,.12,.34,.15,.64-.02-.74-.03-1.48,.08-2.25,.12-.18,.03,.48,.05,.75,.04-.43,.13-.98,.23-1.45,.1-.47,.21-.87,.2-1.01-.09,.16-.16,.34-.24,.51,.1-.3,.16-.12,.1,.11-.12,.73-.31,1.02-.37,1.05l.1-.55c-.2,.24-.32,.8-.35,1.43-.04,.63,0,1.32-.01,1.89l-.18-.48,.14,1.16c-.06,.25-.17,.41-.19-.15-.12,.81,.05,.72-.07,1.41-.02,.08-.03,.04-.03-.03l.04,.79c-.04-.16-.14,.13-.1-.36-.15,1.42,.1,2.29-.06,2.82v-.12c.01,1.97,.13,.19,.27,1.67l-.37,.99,.14,.2c0,.2-.03,.6-.08,.53,.08,.76,.07-.13,.15,.31-.15,.97,.02,2.7-.21,2.91,.1,.35,.1-.93,.16,.11-.25,.29,.03,1.21-.1,2.1-.12-.28-.05-1.12-.17-.23,.21,.54-.07,1.74-.03,2.49,.17,.04,.06,1.64,.12,2.9-.06-.08-.09,2.38-.14,3.56l-.03-.03c.18,.23,.16,1.44,.21,2.32-.1-.03-.15-.19-.2-.67v.83c.07,.2,.1,.45,.14,.99l-.13-.21c.04,1.11,.19,2.22,.16,3.65,.12,.08,.3-1.14,.43,.36-.06,.06-.17,.12-.21-.27,.01,.13,.07,.46,.05,.72l-.13-.6c-.03,.65,.1,.34,.11,.85-.09,0-.05,.39-.13,.31-.01-.13,.02-.45-.02-.65,0,.58-.03,1.29-.09,1.53,.05-.05,.12,0,.16,.42,.06,1.1-.09,.38-.11,1.03,.08,.26,.04,.97,.18,.98,.02,.32-.05,.39-.08,.51,.09,.57,.18,2.67,.29,2.02v-.05h.01c.25,1.86,.19,3.89,.42,5.74h-.05c.16,1.1,.26,2.46,.46,3.24,.04,.33,0,.78-.07,.65,.14,.84,.18,.93,.27,2.16-.19-.84-.04,.3-.17-.86,.09,1.1,.06,1.36,.34,2.52-.17-.38-.04,.84,.07,1.36l-.02-.78c.09,.58,.16,1.1,.25,1.63l-.21-.26c.1,1.15,.5,2.24,1.18,3.05,.68,.81,1.49,1.29,2.23,1.83,.31,.09,.02-.06-.26-.24-.28-.18-.55-.38-.28-.29,.91,.58,1.9,1.13,2.22,1.23,1.35,.51,1.35,.15,2.77,.63-.17-.11-.3-.3,.78-.05,.99,.31,1.18,.54,.53,.44-.24-.06-.35-.11-.34-.13-.33-.07-.76-.17-.38,0l.14-.02c.48,.21,1.88,.52,1.53,.54,.78,.13,.35-.01-.21-.17,1.28,.38,2.03,.51,3.37,.84-.21-.07-.39-.18-.18-.13,1.97,.46,.89,.07,2.24,.31,.75,.23-.31,.15,1.05,.34,.82,.19,.15,.17-.19,.17,1.26,.1,2.3,.45,3.01,.58l-.66-.06c.4,.04,.72,.09,1.04,.14l-.36-.17c.38,.09,.71,.12,.69,.17,.41-.02-.28-.22,.52-.22,.5,.12,1.57,.14,1.73,.31-1.61-.26,.16,.17-1.21,.02,.27,.02,.59,.06,.97,.13,.06,.02-.06,.02-.16,.02,1.53,.33,.73-.05,2.33,.11-.21,.06,.36,.2,.62,.2-.65-.07-.29-.17,.3-.17,1.02,.17,1.12,.06,1.66,.13l-.61-.09c.22-.06,.73,0,1.45,.02,.06,.07-.66,0-.4,.04,.81-.09,1.79,.28,2.91,.27,.51,.09,.04,.16,.49,.23,1.26-.05,1.35,.18,2.67,.16-.37-.13-.44-.11,.49-.17l-2.16-.03,1.39-.1c-.65-.03-1.38,0-1.77-.04,.66-.06,.59-.03,.29-.14,.88,.21,1.77,0,2.79,.15l-.04,.28c1.55,.16,2.76-.04,4.77,.03l-.65-.05c.27-.11,1.24,0,1.89-.04-.06,.09,.35,.13,.62,.19-.03-.06,1.47,0,1.65-.19l.9,.12c1.63,.04,1.85-.29,3.41-.28-.47,.11,.24,.16-.8,.26,.52,0,.99,0,1-.07,.31,.05,1.44-.15,1.92-.08,.22-.05,.29-.15,.87-.16,.06,.02,0,.05,0,.05,0-.05,.91-.09,.4-.18,1.61,.25,4.48-.18,5.88,.01,1.13-.08,2.5-.17,3.53-.23-.07,.03,0,.05-.2,.05,1.42,.02,.86-.31,2.48-.29,.83,.11-.85,.12-.34,.15,.24,.3,1.95-.13,3.04,0l-.26,.03c.84,.06,2.02-.21,3.38-.26,0,0-.07,.03,0,.05,.92-.2,2.68-.34,3.98-.44-.4,.14-.59,.09-.34,.2,.58-.05-.18-.19,.99-.28,.38,.05,1.23,.06,1.35,.19l-1.1,.06c.57,.14,1.43-.07,2.01-.07l-.07,.08c1.69-.1,1.7-.29,3.52-.36l-.19-.05c.98-.23,.84,.06,1.82-.12l.31,.17c.65-.08,2.29-.29,3.46-.38-.66,.17-2.03,.31-2.88,.43,.65-.03,2.21-.12,2.54-.23-.26,.03-.59,.09-.85,.08,.39-.09,.85-.17,1.38-.23,.52-.06,1.11-.12,1.76-.23-.1,.18,.81,.14,1.77-.38,.48-.26,.93-.66,1.25-1.06,.33-.4,.54-.78,.71-.98,.43-1.17,.6-2.34,.78-3.51,.17-1.17,.39-2.39,.51-3.72-.38,.91,.08-.78-.23-.65,.05-.62,.08-.86,.1-.91,.13-.62,.25-1.24,.36-1.86,.12-.44,0,.6,.08,.55,.15-1.36,.17-.56,.34-1.45-.12,.17-.1-.49,0-1.26l-.23,1.08c.03-1.91,.38-1.62,.38-3.55l.04,.61c.04-.99,.25-3.63,.08-4.61,.04-.17,.13-.4,.13,.04,.07-1.18,.08-2.49,.08-3.74-.01-1.25,0-2.43,.08-3.34l.07,.18c-.01-.44-.12-.77-.04-1.32,.03,.03,.07,.18,.07-.03-.02-.23-.11-1.17-.06-1.75l.07,.5c.1-2.3-.18-3.53-.27-5.45,.21,0,.25-1.81,.24-2.71l.03,.03c-.03-1.34-.11-2.48-.23-3.58-.12-1.11-.23-2.19-.36-3.42,.14-1.55-.29-5.21-.42-7.68,0,.38-.17-.05-.23-.48-.02-.58-.32-1.58-.12-1.51l.02,.21c.13-.46-.04-1.63-.16-2.57l-.27-.12c0-1.24-.32-2.85-.87-4.26-.54-1.42-1.31-2.57-1.68-3.2-.47-.43-1.04-.98-1.63-1.25l.1-.09c-.75-.48-1.4-.74-2.1-.89-.7-.16-1.46-.22-2.5-.18L83.74,0c-1.19,0-1.46,.44-2.5,.52l-.33-.18c-1.97,.15-3.97,.11-5.91,.41,.03-.03,.08-.09,.4-.12-.93,.05-3.59,.06-3.24,.32-.03-.18-2.03,.08-3.1,.2l.16-.14c-.89,.2-.92,.25-2.17,.34-.3,0-.26-.09,.13-.08-.99-.03-.77,.16-1.97,.12l.45-.1c-1.02,.02-.94,.06-1.5,.18-.64,.08-1.94,.02-2.09-.09-.14,.08-.69,.19-1.3,.17-.08-.04,.14-.08,.25-.09-1.71-.04-2.54,.21-3.71,.1-.03-.04-.1-.06-.2-.07,1.36-.02,2.45-.04,2.35-.03,0-.12-1.1-.12-.23-.3-.88,.11-2.38,.34-3.45,.29-.05-.01-.1-.02-.14-.04l.11-.02c-.25,0-.47,0-.67,.03-.34-.02-.56-.03-.89-.02-.13-.1-1.26-.04-1.8-.04,.05,.13-.67,.12,0,.22-.09,0,.1-.02,.47-.03,.08,0,.18,0,.23-.02h-.04c.36,0,.83,0,1.36-.01-.43,.07-.88,.13-1.49,.07-.28,.09-.59,.18-.76,.22-.75-.18-2.19-.26-2.39-.38-1.67,.09-3.93,.07-4.98,.32-.48,.03-.55-.07-.72-.11,.27-.03,.6-.02,.75-.06-.95,.06-2.81,.03-3.04,.2-1.2-.08,.67-.16-.97-.13l.22-.05c-3.23-.28-5.26,.43-8.84,.07,.25,.02,.37,.03,.42,.06-4.09-.17-8.43,.12-12.46-.14-1.15-.05-1.27,.06-1.97,.14l-.25-.14-1.2,.16c-1.7,.11-2.94-.36-5.09-.14l.28,.1c-.77-.02-2.44,.05-2.32-.06-.08,.02-.25,.1-.55,.05l-.02-.07-1.9,.12c-1.47-.06,.23-.3-1.91-.32-.8,.03-2.27,.21-1.97,.26,.32,0,.82,.05,.85,.12l-.73,.04c-.13,.22-.69,.44,1.09,.6l1.25-.13,.4,.11h-1.05c.59,.11,.97,.02,1.4-.04,.1,.06,.27,.1,.52,.12l1.22-.21c.15,.09-.55,.17,.27,.22,.57-.1-.55-.19,.4-.26,.6,.1,.42,.18,1.12,.1,.1,.06-.05,.09-.33,.12,.62-.07,1.65-.02,1.97-.14,.62,.12,2.1-.03,2.04,.18,.2-.05,1.1-.16,1.67-.17-1.05,.25,2.14,.02,1.87,.29,.77-.22,2.8-.09,4.17-.21-.08,.02-.23,.05-.35,.04,.77,.02,1,.09,1.49,.13,.1-.18,1.3-.22,1.95-.33,.95,.18-.58,.21-.28,.39-.05-.15,1.64-.14,1.32-.27,.72,.11,.62,.06,.99,.21,.13-.23,.67-.04,1.27-.18,1.05,.12,.27,.22,1.42,.15,.55,.07-.48,.15-.48,.15m27.35-.46h0c-.24,0-.44,.01-.56,.02,.12,0,.28,0,.56-.02m2.3-.04c-.28,0-.63,0-1,.01-.08-.04,0-.09,.24-.1-.12,.03,.42,.05,.76,.08m-4.87-.84c.36-.02,.49,0,.54,.03-.17,0-.37,.01-.64,.02l-.04,.02s.07-.05,.14-.07"/><path class="i" d="M52.85,1.57c-.05,0-.08,0-.15,.01l.22,.03,.13-.04h-.2"/><path class="i" d="M.7,45.09v.05s0-.08,.01-.1c0,.03,0,.03-.01,.05"/><polygon class="i" points="88.78 3.6 88.81 3.58 88.67 3.45 88.78 3.6"/><path class="i" d="M.68,32.43s.02-.07,.03-.17c0,0-.02,.08-.03,.17"/><path class="i" d="M.67,26.97l.05-.77c-.03,.33-.04,.58-.05,.77"/><path class="i" d="M.76,22.76c-.02-.05-.04-.07-.06-.08h0l.06,.08Z"/><path class="i" d="M28.5,69.05c.06,0,.11,0,.16,.01,.38,.01,.12,0-.16-.01"/><path class="i" d="M8.97,65.82c.21,.03,.42,.07,.63,.11-.34-.11-.6-.18-.63-.11"/><path class="i" d="M50.63,69.38h0Z"/><path class="i" d="M10.48,66.18c-.33-.12-.62-.2-.89-.25,.28,.09,.6,.19,.89,.25"/><path class="i" d="M1.6,4.72c.02-.06,.04-.12,.07-.18,0,0-.01-.01-.01-.03-.02,.07-.04,.14-.05,.21"/><path class="i" d="M1.65,4.51l.06-.21c-.03,.09-.06,.17-.06,.21"/><path class="i" d="M1.85,3.87c-.05,.14-.1,.28-.14,.43,.05-.15,.13-.32,.14-.43"/><path class="i" d="M.99,10.12l.05,.07s-.02-.06-.05-.07"/><path class="i" d="M.96,11.81c.02-.4,.12-1.01,.11-1.57l-.04-.05c.07,.27-.14,1.24-.07,1.63"/><path class="i" d="M.23,18.85l.06-1.42c-.06,.25-.13,.57-.13-.07-.18,1.78,.12-.37,.07,1.49"/><path class="i" d="M.1,23.25c-.02-.76-.07,0-.1-.03,.04,.48,.05,.6,.1,.03"/><path class="i" d="M1.47,54.99l-.13-.06c.08,.58,.05,0,.13,.06"/><path class="i" d="M2.92,60.89c-.02-.19-.03-.37-.03-.56l-.15-.24c.06,.27,.12,.54,.19,.8"/><path class="i" d="M3.96,64.45c-.08-.06-.15-.11-.22-.18,.28,.24,.57,.45,.88,.62-.22-.13-.44-.28-.65-.45"/><path class="i" d="M56.84,70.33l-.18-.14c-.4,.04-.47,.21,.18,.14"/><path class="i" d="M79.83,69.1c.25,.06,.9,.08,1.3-.01-.52,.01-1.04-.02-1.3,.01"/><path class="i" d="M91.99,8.79l.13,.46c-.07-.29-.13-.58-.2-.87l.07,.41Z"/><path class="i" d="M37.28,17.98c-.06,.03-.05,.12,.09,.15l.14-.12-.23-.02Z"/><path class="i" d="M38.13,18.54c.18-.02,.41-.09,.35-.26-.21,.09-.23,.02-.45,.14-.14-.02-.22-.12-.19-.17-.06,.02-.21-.1-.31-.02,.15,.17,.37,.24,.63,.22,.04,.05-.02,.07-.04,.1"/><path class="i" d="M50.1,25.48l-.07-.06s.04,.04,.07,.06"/><path class="i" d="M57.98,29.04c-.07-.01-.1,0-.1,.01,.06,0,.11,0,.1-.01"/><path class="i" d="M59.39,29.52l-.08-.03s.06,.04,.08,.03"/><path class="i" d="M50.1,25.48l.17,.16s-.08-.09-.17-.16"/><path class="i" d="M40.08,18.84s-.09-.01-.13,0c.04,0,.08,.02,.12,.03l.02-.02Z"/><path class="i" d="M46.83,23.53l-.06-.04s-.05,.01-.08,.02l.14,.02Z"/><path class="i" d="M44.38,21.99c.05,.04,.14-.06,.19-.1-.06,.03-.12,.02-.17,0-.01,.02-.02,.05-.02,.1"/><path class="i" d="M40.46,19.6l-.08-.02s.06,.01,.08,.02"/><path class="i" d="M48.57,24.69s0,.04,0,.05c0-.01,0-.03,0-.05"/><path class="i" d="M35.96,22.21s.02,0,.02,0c-.01-.02-.02-.02-.02,0"/><path class="i" d="M36.71,18.85v.05s.06,.01,.08,.01l-.08-.06Z"/><path class="i" d="M61.85,30.37h0c-.07-.02-.03,0,0,0"/><path class="i" d="M50.58,43.9c.3-.04-.32,.36,.11,.26-.06-.03,.23-.37-.11-.26"/><path class="i" d="M40.14,18.89l.11,.05s-.08-.04-.11-.05"/><path class="i" d="M50.69,44.16h0"/><path class="i" d="M65.06,34.27s.04-.03,.06-.05c-.01,0-.03,.01-.06,.05"/><path class="i" d="M63.27,30.8l.08,.08s-.05-.06-.08-.08"/><path class="i" d="M64.45,36.31s-.07,.05-.1,.12c0,0,.02,0,.03,0,0-.03,.02-.07,.07-.11"/><path class="i" d="M62.76,37.91s.03,0,.05,0l.06-.05-.11,.05Z"/><path class="i" d="M35.83,29.78c.04-.05,.08-.09,.12-.11-.1,.04-.12-.33-.12,.11"/><path class="i" d="M40.05,18.91s.05-.03,.09-.02c-.03,0-.05-.02-.08-.03-.01,.02-.02,.03-.01,.05"/><path class="i" d="M65.24,37c-.09,.11-.19,.23-.29,.33,.09-.09,.19-.21,.29-.33"/><path class="i" d="M35.67,47.85l-.06-.1s.03,.08,.06,.1"/><path class="i" d="M64.05,38.26c-.09,.01-.17,.04-.25,.08,0,.02-.02,.04-.02,.06l.26-.13Z"/><path class="i" d="M35.95,29.67h0Z"/><path class="i" d="M35.7,27.05c-.01,.38,.17,.18,.26,.26,.04,.45-.13,.21-.23,.36,.04,.28,.19,.5,.18,.71-.03,.02-.04,.06-.08,0,.13,.3-.02,.88,.15,1.23-.02,.02-.03,.04-.04,.04,.09-.05,.18-.06,.24-.05,0,.17,.1,.32-.01,.38,0-.1-.04-.11-.07-.16l.04,.18c-.17,.16-.05-.24-.17-.25,.04,.35,.17,.75,.12,1.02-.16,.05-.04-.62-.19-.27l.07-.41c-.26,.31,.02-.25-.25,.03-.06,.54,.07,.61,0,1.14,.09,.12,.13-.04,.22,.09,.14,.77-.42,.59-.22,1.16,.1,.15,.3,.21,.19,.61l-.18-.14c-.03,.52,.25,.3,.12,.85-.07-.1-.05-.41-.07-.33-.15,.35,.1,.25,.09,.53l-.16,.05c.01,.56,.11,1.17,.12,1.79-.05-.04-.09-.14-.15,0,.06,.78-.06,1.66-.18,2.4l.13,.29c0,.07-.07,.12-.09,.05-.06,.29,.09,.02,.14,.16,0,.17-.09,.22-.12,.11,.1,.52,.21,1.47,.05,2.01l-.04-.11c-.07,.42,.27,.48,.13,.87l-.02-.08c-.08,.92,.02,1.93-.21,2.63,.2,.14-.11,.91,.16,.97-.15,.53-.2,.35-.3,1.13,0,.21,.18,.31,.23,.57l-.14,.02c.06,.12,.13,.23,.21,.35-.05,.08-.08,.15-.12,.24,.03,.09,.07,.17,.11,.25-.03-.11,0-.24,.04-.23,.16,.38,.32,.97,.28,1.03,.23,.26,.49,.48,.76,.66-.05,.03-.2-.06-.31-.13,.5,.25-.03,.19,.44,.39-.03-.06,.08-.05,.1-.07,.14,.22,.62,.49,1.01,.58l-.11,.07c.67,.28,1.5,.34,2.29,.26-.29-.03-.23-.2,0-.24l.1,.14c.13-.11-.24-.03,.04-.18,.28-.02,.21,.15,.06,.22,.11-.03,.23-.07,.34-.1,.03,.04-.05,.08-.06,.14,.12-.11,.63,.03,.79-.19l.03,.04c.74-.22,1.02-.41,1.57-.66-.05-.13,.18-.2,.29-.37,.4-.15,.87-.28,1.31-.53,.28-.23,.04-.15,.14-.29,.08,.09,.52-.16,.33,.04,.53-.31,.67-.4,1.3-.86-.1,0-.19,.03-.17-.03,.11-.09,.3-.11,.31-.05l-.03,.03c.67-.58,1.91-.68,2.38-1.24l-.03,.03,.55-.47c.29-.15-.13,.18,.12,.12,.57-.56,1.07-.58,1.55-1.01,.6,.07,1.5-.88,2.18-1l-.07-.05c.11-.15,.2-.06,.32-.1-.05-.05-.2,.02-.13-.07,1.21-.79,2.68-1.31,4.03-1.88,.49-.22,.09-.52,.79-.63l-.11,.22c.9-.64,2.02-.89,2.96-1.47-.04,.06-.03,.1-.13,.15,.26,.01,.79-.35,.75-.43,.16-.06,.07,.06,.19,.05,.24-.04,.46-.39,.63-.36,.03,0-.04,.07-.08,.09,.11-.12,.64-.35,.45-.38,.4-.16,.65-.49,.97-.63,.09-.24,.62-.43,.53-.63,.13,.19,.67-.44,.74-.73,0,.12,.2-.16,.2-.02,.19-.26,.3-.55,.18-.55,.26-.19,.35-.49,.41-.76,.06-.27,.09-.49,.29-.63,.13-1-.08-1.94-.49-2.69,.11-.03,.21,.19,.29,.41,.08,.22,.14,.44,.24,.4-.14-.42-.32-.71-.51-.97-.19-.26-.38-.51-.62-.84-.11-.18,.14,.03,.22,.07-.56-.59-1.08-1.15-1.75-1.42,.01-.02,.09,0,.16,.03-.12-.07-.26-.2-.29-.11l.13,.05c.11,.23-.61-.02-.67,.05,.33-.15-.57-.35-.1-.51-.09-.02-.21-.03-.22,.04-.11-.07-.14-.12,.01-.14-.47-.13-.35,.03-.76-.12,.02-.04,.11-.03,.17-.07-.24,.01-.47,.03-.81-.11,.03-.02,0-.07,.1-.04-.61-.16-1.08-.03-1.72-.25,.24-.16-.21-.11-.21-.29l-.36-.02,.12,.11c-.31-.07-.6,0-.85-.11l.24-.02-.58-.1,.31,.14c-.33,.02-.02,.23-.41,.08,.09,0-.31-.07-.43-.22h0c-.16,0-.33,.02-.54-.09-.04-.07,.1-.17,.07-.22-.19,.09-.71-.16-.94-.09,.07-.01,.11-.1,.09-.12l-.16,.07c-.12-.09-.13-.11-.09-.17-.4-.17,.05,.26-.4-.02,.04,0,.03-.02,.12,0-.23-.12-.47-.19-.71-.26-.23-.08-.46-.17-.66-.29-.05-.22,.39,.13,.31-.07-.31-.13-.66-.22-1-.34-.33-.12-.66-.25-.94-.42l.1,.07c-.2,.18-.38-.34-.73-.4,.08,.02,.16-.07,.13-.05-.37-.26-.84-.4-1.47-.7h.11c-.2-.2-.59-.41-.82-.58-.11,0-.24-.09-.21,.04-.56-.79-1.55-.76-2.05-1.45,.08,.05,.22,.08,.16,.04l-.6-.32c-.01,.12,.04,.1,.11,.25-.11,0-.3-.06-.44-.15,.3,.11,.09-.15,.02-.27,0,.04-.06,.05-.07,.08-.19-.36-.17,.15-.5-.22l.05-.03c-.17-.08-.35-.1-.51-.22,0-.15,.2,.05,.26-.03-.24-.14-.59-.09-.73-.33,.12,.03,.26,.12,.38,.16-.15-.27-.2-.26-.35-.38h.02l-.36-.29,.08,.1c-.47,.1-.63-.32-1.14-.37,.49,.06,.12-.06,.23-.17-.08-.1-.21-.23-.15-.24-.25-.02-.27-.26-.63-.27,.01-.05-.2-.12-.1-.2-.27-.11,.02,.1-.03,.14-.23-.04-.43-.21-.66-.39-.23-.17-.5-.34-.83-.39-.53-.18-.69-.08-1.18-.21-.13-.14,.2-.09,.2-.09-.22-.18-.42-.25-.68-.31,.06-.02,.03-.07-.02-.15-.2-.08-.19,.1-.43-.06,.06-.03,.15-.08,.27-.1-.25-.05-.51-.06-.76-.11-.04-.1,.19-.06,.29-.08-.28-.07-.73-.2-.85-.11l.16,.11c-.1-.03-.01-.12,.07-.12,.27,0,.32,.17,.32,.22l-.18-.04c.08,.32,.7,.21,1.03,.37l-.22,.12c.14,0,.27,0,.41,0,.05,.08,.06,.2-.12,.16,.2,.2,.24,.03,.4,.22,.02,.03,0,.03-.02,.03l.26,.05c-.06,.02-.02,.14-.15,.05,.37,.28,.73,.17,.82,.39h-.04c.59,.22,.12-.11,.62-.04l.12,.46,.12-.1c.06,.03,.16,.1,.12,.14,.26,.03,0-.08,.16-.09,.21,.27,.79,.38,.73,.61,.15-.04-.22-.22,.11-.12-.04,.26,.36,.15,.55,.4-.14,.06-.34-.14-.15,.11,.26-.09,.45,.33,.68,.42,.1-.14,.49,.21,.86,.39-.05,.04,.6,.49,.88,.75l-.02,.02c.16-.11,.47,.14,.72,.26-.07,.08-.13,.09-.29,.04l.22,.15c.08-.01,.17,0,.33,.09l-.13,.07c.3,.19,.68,.26,1.02,.59,.09-.09-.12-.48,.33-.28-.02,.06-.07,.17-.19,.12,.04,.02,.15,.04,.21,.1h-.22c.15,.14,.14-.03,.28,.07-.05,.08,.07,.12,0,.17-.04-.02-.1-.11-.17-.12,.15,.12,.31,.29,.34,.39,.02-.05,.07-.11,.19-.04,.3,.19,.04,.16,.19,.31,.11,0,.26,.17,.34,.06,.09,.06,.07,.12,.08,.18,.19,.05,.75,.44,.65,.2l-.04-.03h.03c.59,.21,1.04,.73,1.59,.98l-.02,.04c.34,.14,.71,.36,.99,.39,.09,.05,.18,.19,.12,.22,.26,.1,.31,.06,.63,.31-.28-.05,.05,.11-.28-.08,.3,.2,.35,.3,.75,.34-.17,.05,.18,.25,.36,.29l-.2-.18c.18,.06,.33,.14,.48,.22l-.15,.11c.3,.25,.65,.28,.96,.33,.32,.05,.59,.12,.82,.35,.22-.04-.36-.19-.15-.26,.31,.12,.59,.44,.69,.47,.43,.21,.48-.08,.94,.09-.05-.07-.07-.23,.3-.19,.32,.1,.35,.32,.13,.32-.08-.01-.11-.04-.11-.06-.11,0-.26-.02-.14,.07l.06-.04c.15,.1,.61,.19,.48,.25,.26,0,.13-.07-.05-.13,.41,.17,.66,.14,1.08,.29-.06-.04-.11-.12-.04-.11,.62,.2,.3-.05,.73,.02,.22,.14-.13,.18,.31,.21,.24,.12,.02,.16-.09,.18,.41-.01,.69,.25,.89,.33h-.21c.12,0,.22,.02,.31,.05l-.08-.14c.11,.05,.2,.08,.19,.13,.14-.03-.03-.21,.23-.22,.13,.1,.48,.11,.48,.27-.45-.23,0,.15-.4,.03,.08,.01,.18,.04,.28,.11,.01,.02-.03,.02-.06,.02,.38,.3,.26-.08,.7,.13-.09,.05,.03,.19,.1,.21-.17-.09-.02-.17,.17-.14,.24,.21,.31,.13,.45,.23l-.14-.13c.1-.04,.23,.06,.42,.17-.02,.06-.19-.08-.14,0,.29,.02,.35,.45,.65,.6,.07,.15-.1,.12-.03,.24,.32,.19,.18,.36,.46,.6,.03-.15,0-.16,.24,0-.13-.16-.28-.32-.44-.46,.12,.07,.26,.14,.38,.22-.11-.16-.3-.28-.37-.38,.2,.09,.17,.09,.17-.04,.04,.31,.42,.36,.48,.71l-.25,.13c.06,.22,.16,.37,.27,.56,.1,.18,.22,.4,.21,.68,0-.06,.02-.13,.03-.19,.12,.06,.06,.35,.1,.54-.09-.02-.13,.1-.19,.17,.08,0-.05,.4,.11,.49-.06,.08-.11,.15-.18,.22-.19,.42,.07,.61-.18,1.03-.02-.17-.18-.02-.1-.33-.07,.13-.15,.25-.1,.28-.09,.05-.12,.43-.29,.5,0,.08,.06,.15-.06,.29-.03,0-.03-.03-.03-.03,.04,.03-.14,.26,.05,.2-.27,.1-.51,.35-.76,.58-.25,.23-.52,.44-.77,.46-.27,.22-.63,.46-.92,.62,0-.03-.02-.04,.04-.06-.44,.13-.12,.37-.63,.51-.3-.02,.21-.19,.04-.17-.19-.25-.54,.3-.94,.27l.07-.05c-.28,.01-.55,.36-.97,.51,0,0,0-.03-.02-.04-.22,.26-.72,.54-1.09,.75,.07-.16,.15-.14,.03-.21-.17,.09,.13,.16-.2,.34-.14,0-.41,.06-.5-.05l.32-.16c-.24-.07-.42,.2-.6,.25v-.08c-.5,.25-.42,.43-.96,.67l.08,.02c-.21,.31-.29,.02-.51,.29l-.17-.12c-.17,.14-.58,.49-.9,.71,.13-.22,.49-.49,.7-.69-.19,.09-.63,.34-.69,.47,.07-.06,.14-.15,.23-.16-.16,.25-.43,.47-.8,.66-.11-.36-1,.44-1.4,.34-.58,.48-1.31,.67-2.05,1.11,.4,.09-.21,.13-.03,.36-.16,.12-.23,.15-.26,.14l-.61,.15c-.17,0,.13-.15,.09-.2-.39,.2-.22-.01-.51,.07,.1,.06-.06,.2-.3,.3l.37-.06c-.46,.44-.58,.06-1.04,.5l.12-.18c-.25,.21-1.01,.58-1.17,.94-.07,0-.17-.03-.06-.12-.67,.35-1.34,1.05-1.92,1.21l.02-.09c-.11,.09-.15,.23-.34,.26,0-.03,.02-.09-.04-.06-.05,.06-.27,.29-.45,.34l.1-.15c-.69,.27-.9,.71-1.42,1.04-.1-.18-.63,.02-.9,.11v-.03c-.76,.33-1.2,.72-1.92,.97-.25-.06-.63-.02-1.03-.02-.39,0-.83-.07-1.13-.23,.09,.06-.06,.15-.19,.13-.14-.09-.48-.04-.38-.21l.05,.03c-.03-.22-.33-.32-.52-.48l-.19,.17c-.15-.35-.44-.63-.63-.96-.19-.32-.27-.71-.13-.91-.08-.16-.08-.38-.14-.56h.13c.04-.49,.07-.77,.05-1.41l.09,.13c.02-.37-.37-.47-.37-.81l.2-.1c.01-.64,.21-1.28,.04-1.91,.03,.01,.09,.03,.09,.13,.01-.3,.17-1.16-.11-1.05,.18,0,.03-.66-.03-1l.13,.06c-.16-.29-.21-.31-.24-.71,.02-.1,.11-.08,.07,.05,.08-.32-.12-.25-.04-.64l.08,.15c.02-.33-.03-.3-.12-.49-.05-.21,.05-.62,.17-.67-.07-.05-.16-.23-.12-.42,.05-.02,.07,.05,.08,.08,.1-.55-.13-.82,0-1.2,.04,0,.07-.03,.08-.06-.02,.44-.03,.79-.04,.76,.12,0,.15-.35,.31-.06-.08-.29-.27-.78-.2-1.12,.01-.02,.02-.03,.04-.04v.04c.03-.08,.02-.15,0-.22,.02-.11,.04-.18,.04-.28,.1-.04,.06-.4,.07-.58-.13,.01-.11-.22-.22,0,0-.03,.01,.03,.02,.15,0,.03,0,.06,.01,.08h-.01c0,.1,0,.25,0,.43-.06-.14-.12-.29-.04-.48-.08-.09-.17-.19-.21-.25,.19-.24,.3-.7,.42-.76-.06-.54-.02-1.27-.25-1.61-.03-.15,.08-.17,.12-.23,.02,.09,.02,.19,.05,.24-.06-.31,0-.91-.17-.99,.09-.38,.15,.22,.14-.31l.05,.07c.31-1.04-.4-1.71-.01-2.85-.02,.08-.04,.12-.06,.13,.19-1.31-.08-2.72,.21-4.01,.06-.37-.05-.41-.13-.64l.14-.08-.15-.39c-.11-.55,.37-.94,.16-1.64l-.1,.09c.02-.25-.04-.79,.07-.75-.02-.03-.1-.08-.04-.18h.07l-.11-.62c.07-.47,.29,.08,.33-.61-.02-.26-.2-.74-.25-.64,0,.1-.05,.26-.13,.27l-.03-.24c-.22-.05-.44-.24-.61,.34l.12,.41-.11,.13v-.34c-.1,.19-.02,.31,.04,.45-.06,.03-.1,.09-.12,.17l.2,.4c-.09,.05-.17-.18-.22,.08,.09,.19,.2-.17,.25,.14-.1,.19-.18,.13-.11,.36-.06,.03-.09-.02-.11-.11,.06,.2,.01,.53,.13,.64-.13,.2,.01,.68-.19,.65,.05,.06,.15,.36,.16,.54-.24-.34-.03,.69-.3,.59,.22,.26,.08,.9,.19,1.35-.02-.02-.05-.07-.04-.11-.02,.25-.09,.32-.14,.48,.18,.04,.22,.43,.32,.64-.19,.3-.21-.19-.39-.1,.15-.01,.14,.53,.26,.43-.12,.23-.06,.2-.21,.32,.23,.05,.03,.22,.17,.42-.12,.33-.22,.08-.16,.45-.08,.17-.15-.16-.15-.16m.17,8.83h0v-.18s0,.09,0,.18m-.02,.74c0-.09,.01-.2,.01-.32,.05-.02,.09,0,.09,.08-.03-.04-.06,.13-.1,.24m.96-1.54c.02,.12-.01,.16-.04,.17,0-.06,0-.12-.01-.21h-.02s.05,.01,.07,.03"/><path class="i" d="M36.64,34.86s0-.03,0-.05c-.01,.02-.02,.05-.03,.07l.04,.04v-.06"/><path class="i" d="M50.02,25.4h.01s-.02-.01-.02-.02c0,.01,0,.01,0,.02"/><polygon class="i" points="35.38 46.92 35.42 46.92 35.38 46.85 35.38 46.92"/><path class="i" d="M46.83,22.81s0-.03-.03-.06c0,0,0,.03,.03,.06"/><path class="i" d="M45.36,21.83l-.19-.17c.08,.08,.14,.13,.19,.17"/><path class="i" d="M44.24,21.06s-.04,.02-.05,.03h0l.05-.03Z"/><path class="i" d="M63.68,30.01s.03,.02,.05,.02c.12,.05,.04,0-.05-.02"/><path class="i" d="M57.36,28.37c.07,0,.14,0,.21,0-.11-.04-.19-.07-.21,0"/><polygon class="i" points="65.27 36.96 65.27 36.96 65.24 37 65.27 36.96"/><path class="i" d="M57.85,28.43c-.1-.05-.2-.07-.29-.07,.09,.03,.19,.07,.29,.07"/><path class="i" d="M38.93,18.39l-.06-.03s0,.01-.01,.02h.07Z"/><path class="i" d="M38.85,18.38h-.07s.06,0,.07,0"/><path class="i" d="M38.62,18.35c.05,0,.11,.01,.16,.02-.05-.02-.11-.05-.16-.02"/><path class="i" d="M40.6,19.13l.04-.04s-.03,.02-.04,.04"/><path class="i" d="M41.11,19.34c-.12-.06-.26-.23-.44-.28l-.03,.03c.11-.03,.32,.27,.47,.25"/><path class="i" d="M42.86,20.93l-.38-.26c.04,.08,.1,.2-.08,.1,.42,.42-.05-.16,.46,.15"/><path class="i" d="M44.03,21.7c-.22-.11-.04,.07-.06,.08,.16,.04,.19,.05,.06-.08"/><path class="i" d="M52.77,27.08l-.08,.1c.18,.07,.02-.04,.08-.1"/><polygon class="i" points="54.8 27.36 54.66 27.21 54.54 27.28 54.8 27.36"/><polygon class="i" points="55.57 28.57 55.49 28.56 55.8 28.63 55.57 28.57"/><path class="i" d="M63.03,37.58l.13,.09c.08-.1,0-.24-.13-.09"/><path class="i" d="M56.52,40.92c-.11-.03-.32,.02-.4,.14,.16-.07,.33-.09,.4-.14"/><polygon class="i" points="37.21 48.2 37.33 48.25 37.14 48.12 37.21 48.2"/></g></g></g></g></g></svg>